  0
SECTION
  2
HEADER
  9
$ACADVER
  1
AC1015
  9
$DWGCODEPAGE
  3
ansi_1252
  9
$INSBASE
 10
0
 20
0
 30
0
  9
$EXTMIN
 10
5.000242448067155
 20
5.0463625518032131
 30
0
  9
$EXTMAX
 10
731.90896502932242
 20
894.96690288827972
 30
0
  9
$LIMMIN
 10
0
 20
0
  9
$LIMMAX
 10
12
 20
9
  9
$SNAPMODE
 70
0
  9
$SNAPUNIT
 10
1
 20
1
  9
$SNAPBASE
 10
0
 20
0
  9
$SNAPANG
 50
0
  9
$SNAPSTYLE
 70
0
  9
$SNAPISOPAIR
 70
0
  9
$ORTHOMODE
 70
0
  9
$REGENMODE
 70
1
  9
$FILLMODE
 70
1
  9
$QTEXTMODE
 70
0
  9
$MIRRTEXT
 70
1
  9
$LTSCALE
 40
1
  9
$OSMODE
 70
0
  9
$ATTMODE
 70
1
  9
$TEXTSIZE
 40
0.2
  9
$TRACEWID
 40
0.05
  9
$TEXTSTYLE
  7
Standard
  9
$CLAYER
  8
0
  9
$CELTYPE
  6
ByLayer
  9
$CECOLOR
 62
256
  9
$CELTSCALE
 40
1
  9
$DISPSILH
 70
0
  9
$DIMSCALE
 40
1
  9
$DIMASZ
 40
0.18
  9
$DIMEXO
 40
0.0625
  9
$DIMDLI
 40
0.38
  9
$DIMRND
 40
0
  9
$DIMDLE
 40
0
  9
$DIMEXE
 40
0.18
  9
$DIMTP
 40
0
  9
$DIMTM
 40
0
  9
$DIMTXT
 40
0.18
  9
$DIMCEN
 40
0.09
  9
$DIMTSZ
 40
0
  9
$DIMTOL
 70
0
  9
$DIMLIM
 70
0
  9
$DIMTIH
 70
1
  9
$DIMTOH
 70
1
  9
$DIMSE1
 70
0
  9
$DIMSE2
 70
0
  9
$DIMTAD
 70
0
  9
$DIMZIN
 70
0
  9
$DIMBLK
  1

  9
$DIMASO
 70
1
  9
$DIMSHO
 70
1
  9
$DIMPOST
  1

  9
$DIMAPOST
  1

  9
$DIMALT
 70
0
  9
$DIMALTD
 70
2
  9
$DIMALTF
 40
0.03937007874015748
  9
$DIMLFAC
 40
1
  9
$DIMTOFL
 70
0
  9
$DIMTVP
 40
0
  9
$DIMTIX
 70
0
  9
$DIMSOXD
 70
0
  9
$DIMSAH
 70
0
  9
$DIMBLK1
  1

  9
$DIMBLK2
  1

  9
$DIMSTYLE
  2
Standard
  9
$DIMCLRD
 70
0
  9
$DIMCLRE
 70
0
  9
$DIMCLRT
 70
0
  9
$DIMTFAC
 40
1
  9
$DIMGAP
 40
0.09
  9
$DIMJUST
 70
0
  9
$DIMSD1
 70
0
  9
$DIMSD2
 70
0
  9
$DIMTOLJ
 70
1
  9
$DIMTZIN
 70
0
  9
$DIMALTZ
 70
0
  9
$DIMALTTZ
 70
0
  9
$DIMUPT
 70
0
  9
$DIMDEC
 70
4
  9
$DIMTDEC
 70
4
  9
$DIMALTU
 70
2
  9
$DIMALTTD
 70
0
  9
$DIMTXSTY
  7
Standard
  9
$DIMAUNIT
 70
0
  9
$DIMADEC
 70
0
  9
$DIMALTRND
 40
0
  9
$DIMAZIN
 70
0
  9
$DIMDSEP
 70
46
  9
$DIMATFIT
 70
0
  9
$DIMFRAC
 70
0
  9
$DIMLDRBLK
  1

  9
$DIMLUNIT
 70
2
  9
$DIMLWD
 70
-2
  9
$DIMLWE
 70
-2
  9
$LUNITS
 70
2
  9
$LUPREC
 70
4
  9
$SKETCHINC
 40
0.1
  9
$FILLETRAD
 40
0
  9
$AUNITS
 70
0
  9
$AUPREC
 70
0
  9
$MENU
  1
.
  9
$ELEVATION
 40
0
  9
$PELEVATION
 40
0
  9
$THICKNESS
 40
0
  9
$LIMCHECK
 70
0
  9
$CHAMFERA
 40
0.5
  9
$CHAMFERB
 40
0.5
  9
$CHAMFERC
 40
0
  9
$CHAMFERD
 40
0
  9
$SKPOLY
 70
0
  9
$TDCREATE
 40
2460442.1661334839
  9
$TDUCREATE
 40
2460441.8328001504
  9
$TDUPDATE
 40
2460442.1661334839
  9
$TDUUPDATE
 40
2460441.8328001504
  9
$TDINDWG
 40
0
  9
$TDUSRTIMER
 40
1.1574074074074074E-08
  9
$USRTIMER
 70
1
  9
$ANGBASE
 50
0
  9
$ANGDIR
 70
1
  9
$PDMODE
 70
0
  9
$PDSIZE
 40
0
  9
$PLINEWID
 40
0
  9
$SPLFRAME
 70
0
  9
$SPLINETYPE
 70
6
  9
$SPLINESEGS
 70
8
  9
$HANDSEED
  5
22C
  9
$SURFTAB1
 70
6
  9
$SURFTAB2
 70
6
  9
$SURFTYPE
 70
6
  9
$SURFU
 70
6
  9
$SURFV
 70
6
  9
$UCSORG
 10
0
 20
0
 30
0
  9
$UCSXDIR
 10
1
 20
0
 30
0
  9
$UCSYDIR
 10
0
 20
1
 30
0
  9
$UCSORTHOREF
  2

  9
$UCSORTHOVIEW
 70
0
  9
$UCSORGTOP
 10
0
 20
0
 30
0
  9
$UCSORGBOTTOM
 10
0
 20
0
 30
0
  9
$UCSORGLEFT
 10
0
 20
0
 30
0
  9
$UCSORGRIGHT
 10
0
 20
0
 30
0
  9
$UCSORGFRONT
 10
0
 20
0
 30
0
  9
$UCSORGBACK
 10
0
 20
0
 30
0
  9
$PUCSORG
 10
0
 20
0
 30
0
  9
$PUCSXDIR
 10
1
 20
0
 30
0
  9
$PUCSYDIR
 10
0
 20
1
 30
0
  9
$PUCSORTHOREF
  2

  9
$PUCSORTHOVIEW
 70
0
  9
$PUCSORGTOP
 10
0
 20
0
 30
0
  9
$PUCSORGBOTTOM
 10
0
 20
0
 30
0
  9
$PUCSORGLEFT
 10
0
 20
0
 30
0
  9
$PUCSORGRIGHT
 10
0
 20
0
 30
0
  9
$PUCSORGFRONT
 10
0
 20
0
 30
0
  9
$PUCSORGBACK
 10
0
 20
0
 30
0
  9
$USERI1
 70
0
  9
$USERI2
 70
0
  9
$USERI3
 70
0
  9
$USERI4
 70
0
  9
$USERI5
 70
0
  9
$USERR1
 40
0
  9
$USERR2
 40
0
  9
$USERR3
 40
0
  9
$USERR4
 40
0
  9
$USERR5
 40
0
  9
$WORLDVIEW
 70
1
  9
$SHADEDGE
 70
3
  9
$SHADEDIF
 70
70
  9
$TILEMODE
 70
1
  9
$MAXACTVP
 70
48
  9
$PINSBASE
 10
0
 20
0
 30
0
  9
$PLIMCHECK
 70
0
  9
$PEXTMIN
 10
1E+20
 20
1E+20
 30
1E+20
  9
$PEXTMAX
 10
-1E+20
 20
-1E+20
 30
-1E+20
  9
$PLIMMAX
 10
0
 20
0
  9
$PLIMMIN
 10
0
 20
0
  9
$UNITMODE
 70
0
  9
$VISRETAIN
 70
1
  9
$PLINEGEN
 70
1
  9
$PSLTSCALE
 70
1
  9
$TREEDEPTH
 70
3020
  9
$CMLSTYLE
  2
STANDARD
  9
$CMLJUST
 70
0
  9
$CMLSCALE
 40
1
  9
$PROXYGRAPHICS
 70
1
  9
$MEASUREMENT
 70
1
  9
$CELWEIGHT
370
-1
  9
$ENDCAPS
280
0
  9
$JOINSTYLE
280
0
  9
$LWDISPLAY
290
1
  9
$INSUNITS
 70
4
  9
$HYPERLINKBASE
  1

  9
$XEDIT
290
1
  9
$CEPSNTYPE
380
0
  9
$PSTYLEMODE
290
0
  9
$FINGERPRINTGUID
  2

  9
$VERSIONGUID
  2

  9
$EXTNAMES
290
1
  9
$PSVPSCALE
 40
0
  9
$CSHADOW
280
0
  9
$SHADOWPLANELOCATION
 40
0
  0
ENDSEC
  0
SECTION
  2
CLASSES
  0
CLASS
  1
RASTERVARIABLES
  2
AcDbRasterVariables
  3
ISM
 90
0
280
0
281
0
  0
CLASS
  1
IMAGEDEF
  2
AcDbRasterImageDef
  3
ISM
 90
0
280
0
281
0
  0
CLASS
  1
IMAGEDEF_REACTOR
  2
AcDbRasterImageDefReactor
  3
ISM
 90
1
280
0
281
0
  0
CLASS
  1
IMAGE
  2
AcDbRasterImage
  3
ISM
 90
127
280
0
281
1
  0
CLASS
  1
ACAD_EVALUATION_GRAPH
  2
AcDbEvalGraph
  3
ObjectDBX Classes
 90
1153
280
0
281
0
  0
CLASS
  1
BLOCKPOINTPARAMETER
  2
AcDbBlockPointParameter
  3
ObjectDBX Classes
 90
1153
280
0
281
0
  0
CLASS
  1
BLOCKBASEPOINTPARAMETER
  2
AcDbBlockBasepointParameter
  3
ObjectDBX Classes
 90
1153
280
0
281
0
  0
CLASS
  1
BLOCKLOOKUPPARAMETER
  2
AcDbBlockLookupParameter
  3
ObjectDBX Classes
 90
1153
280
0
281
0
  0
CLASS
  1
BLOCKVISIBILITYPARAMETER
  2
AcDbBlockVisibilityParameter
  3
ObjectDBX Classes
 90
1153
280
0
281
0
  0
CLASS
  1
BLOCKPROPERTIESTABLE
  2
AcDbBlockPropertiesTable
  3
ObjectDBX Classes
 90
1153
280
0
281
0
  0
CLASS
  1
BLOCKPOLARPARAMETER
  2
AcDbBlockPolarParameter
  3
ObjectDBX Classes
 90
1153
280
0
281
0
  0
CLASS
  1
BLOCKROTATIONPARAMETER
  2
AcDbBlockRotationParameter
  3
ObjectDBX Classes
 90
1153
280
0
281
0
  0
CLASS
  1
BLOCKLINEARPARAMETER
  2
AcDbBlockLinearParameter
  3
ObjectDBX Classes
 90
1153
280
0
281
0
  0
CLASS
  1
BLOCKXYPARAMETER
  2
AcDbBlockXYParameter
  3
ObjectDBX Classes
 90
1153
280
0
281
0
  0
CLASS
  1
BLOCKFLIPPARAMETER
  2
AcDbBlockFlipParameter
  3
ObjectDBX Classes
 90
1153
280
0
281
0
  0
CLASS
  1
BLOCKALIGNMENTPARAMETER
  2
AcDbBlockAlignmentParameter
  3
ObjectDBX Classes
 90
1153
280
0
281
0
  0
CLASS
  1
BLOCKROTATEACTION
  2
AcDbBlockRotateAction
  3
ObjectDBX Classes
 90
1153
280
0
281
0
  0
CLASS
  1
BLOCKSCALEACTION
  2
AcDbBlockScaleAction
  3
ObjectDBX Classes
 90
1153
280
0
281
0
  0
CLASS
  1
BLOCKARRAYACTION
  2
AcDbBlockArrayAction
  3
ObjectDBX Classes
 90
1153
280
0
281
0
  0
CLASS
  1
BLOCKFLIPACTION
  2
AcDbBlockFlipAction
  3
ObjectDBX Classes
 90
1153
280
0
281
0
  0
CLASS
  1
BLOCKLOOKUPACTION
  2
AcDbBlockLookupAction
  3
ObjectDBX Classes
 90
1153
280
0
281
0
  0
CLASS
  1
BLOCKMOVEACTION
  2
AcDbBlockMoveAction
  3
ObjectDBX Classes
 90
1153
280
0
281
0
  0
CLASS
  1
BLOCKPOLARSTRETCHACTION
  2
AcDbBlockPolarStretchAction
  3
ObjectDBX Classes
 90
1153
280
0
281
0
  0
CLASS
  1
BLOCKSTRETCHACTION
  2
AcDbBlockStretchAction
  3
ObjectDBX Classes
 90
1153
280
0
281
0
  0
CLASS
  1
BLOCKALIGNMENTGRIP
  2
AcDbBlockAlignmentGrip
  3
ObjectDBX Classes
 90
1153
280
0
281
0
  0
CLASS
  1
BLOCKFLIPGRIP
  2
AcDbBlockFlipGrip
  3
ObjectDBX Classes
 90
1153
280
0
281
0
  0
CLASS
  1
ACDB_BLOCKREPRESENTATION_DATA
  2
AcDbBlockRepresentationData
  3
ObjectDBX Classes
 90
1153
280
0
281
0
  0
CLASS
  1
ACDB_DYNAMICBLOCKPURGEPREVENTER_VERSION
  2
AcDbDynamicBlockPurgePreventer
  3
ObjectDBX Classes
 90
1153
280
0
281
0
  0
CLASS
  1
BLOCKLINEARGRIP
  2
AcDbBlockLinearGrip
  3
ObjectDBX Classes
 90
1153
280
0
281
0
  0
CLASS
  1
BLOCKLOOKUPGRIP
  2
AcDbBlockLookupGrip
  3
ObjectDBX Classes
 90
1153
280
0
281
0
  0
CLASS
  1
BLOCKPOLARGRIP
  2
AcDbBlockPolarGrip
  3
ObjectDBX Classes
 90
1153
280
0
281
0
  0
CLASS
  1
BLOCKPROPERTIESTABLEGRIP
  2
AcDbBlockPropertiesTableGrip
  3
ObjectDBX Classes
 90
1153
280
0
281
0
  0
CLASS
  1
BLOCKROTATIONGRIP
  2
AcDbBlockRotationGrip
  3
ObjectDBX Classes
 90
1153
280
0
281
0
  0
CLASS
  1
BLOCKVISIBILITYGRIP
  2
AcDbBlockVisibilityGrip
  3
ObjectDBX Classes
 90
1153
280
0
281
0
  0
CLASS
  1
BLOCKXYGRIP
  2
AcDbBlockXYGrip
  3
ObjectDBX Classes
 90
1153
280
0
281
0
  0
CLASS
  1
BLOCKGRIPLOCATIONCOMPONENT
  2
AcDbBlockGripExpr
  3
ObjectDBX Classes
 90
1153
280
0
281
0
  0
CLASS
  1
ACDB_DYNAMICBLOCKPROXYNODE
  2
AcDbDynamicBlockProxyNode
  3
ObjectDBX Classes
 90
1153
280
0
281
0
  0
CLASS
  1
BLOCKLINEARCONSTRAINTPARAMETER
  2
AcDbBlockLinearConstraintParameter
  3
ObjectDBX Classes
 90
1153
280
0
281
0
  0
CLASS
  1
BLOCKHORIZONTALCONSTRAINTPARAMETER
  2
AcDbBlockHorizontalConstraintParameter
  3
ObjectDBX Classes
 90
1153
280
0
281
0
  0
CLASS
  1
BLOCKVERTICALCONSTRAINTPARAMETER
  2
AcDbBlockVerticalConstraintParameter
  3
ObjectDBX Classes
 90
1153
280
0
281
0
  0
CLASS
  1
BLOCKALIGNEDCONSTRAINTPARAMETER
  2
AcDbBlockAlignedConstraintParameter
  3
ObjectDBX Classes
 90
1153
280
0
281
0
  0
CLASS
  1
BLOCKANGULARCONSTRAINTPARAMETER
  2
AcDbBlockAngularConstraintParameter
  3
ObjectDBX Classes
 90
1153
280
0
281
0
  0
CLASS
  1
BLOCKDIAMETRICCONSTRAINTPARAMETER
  2
AcDbBlockDiametricConstraintParameter
  3
ObjectDBX Classes
 90
1153
280
0
281
0
  0
CLASS
  1
BLOCKRADIALCONSTRAINTPARAMETER
  2
AcDbBlockRadialConstraintParameter
  3
ObjectDBX Classes
 90
1153
280
0
281
0
  0
ENDSEC
  0
SECTION
  2
TABLES
  0
TABLE
  2
VPORT
  5
8
330
0
100
AcDbSymbolTable
 70
1
  0
VPORT
  5
207
330
8
100
AcDbSymbolTableRecord
100
AcDbViewportTableRecord
  2
*Active
 70
64
 10
0
 20
0
 11
1
 21
1
 12
368.4546037386948
 22
450.00663272004147
 13
0
 23
0
 14
1
 24
1
 15
0
 25
0
 16
0
 26
0
 36
1
 17
0
 27
0
 37
0
 40
889.92054033647651
 41
0.81682430018573682
 42
50
 43
0
 44
0
 50
0
 51
0
 71
0
 72
20000
 73
20000
 74
1
 75
0
 76
0
 77
0
 78
0
281
0
 65
1
110
0
120
0
130
0
111
1
121
0
131
0
112
0
122
1
132
0
 79
0
146
0
  0
ENDTAB
  0
TABLE
  2
LTYPE
  5
5
100
AcDbSymbolTable
 70
3
  0
LTYPE
  5
16
330
5
100
AcDbSymbolTableRecord
100
AcDbLinetypeTableRecord
  2
Continuous
  3
Solid line
 70
64
 72
65
 73
0
 40
0
  0
LTYPE
  5
14
330
5
100
AcDbSymbolTableRecord
100
AcDbLinetypeTableRecord
  2
ByBlock
  3

 70
64
 72
65
 73
0
 40
0
  0
LTYPE
  5
15
330
5
100
AcDbSymbolTableRecord
100
AcDbLinetypeTableRecord
  2
ByLayer
  3

 70
64
 72
65
 73
0
 40
0
  0
ENDTAB
  0
TABLE
  2
LAYER
  5
2
100
AcDbSymbolTable
 70
2
  0
LAYER
  5
10
330
2
100
AcDbSymbolTableRecord
100
AcDbLayerTableRecord
 70
64
  2
0
 62
7
  6
Continuous
370
-3
390
F
  0
LAYER
  5
27
330
2
100
AcDbSymbolTableRecord
100
AcDbLayerTableRecord
 70
64
  2
DEFPOINTS
 62
7
  6
Continuous
290
0
370
-3
390
F
  0
ENDTAB
  0
TABLE
  2
STYLE
  5
3
100
AcDbSymbolTable
 70
1
  0
STYLE
  5
11
330
3
100
AcDbSymbolTableRecord
100
AcDbTextStyleTableRecord
  2
Standard
 70
64
 40
0
 41
1
 50
0
 71
0
 42
0.2
  3
txt.shx
  0
ENDTAB
  0
TABLE
  2
VIEW
  5
6
100
AcDbSymbolTable
 70
0
  0
ENDTAB
  0
TABLE
  2
UCS
  5
7
100
AcDbSymbolTable
 70
0
  0
ENDTAB
  0
TABLE
  2
APPID
  5
9
330
0
100
AcDbSymbolTable
 70
2
  0
APPID
  5
12
330
0
100
AcDbSymbolTableRecord
100
AcDbRegAppTableRecord
  2
ACAD
 70
64
  0
APPID
  5
22A
330
0
100
AcDbSymbolTableRecord
100
AcDbRegAppTableRecord
  2
ACAD_MLEADERVER
 70
64
  0
ENDTAB
  0
TABLE
  2
DIMSTYLE
  5
A
330
0
100
AcDbSymbolTable
 70
1
100
AcDbDimStyleTable
 71
0
  0
DIMSTYLE
105
206
330
A
100
AcDbSymbolTableRecord
100
AcDbDimStyleTableRecord
  2
Standard
 70
64
  3

  4

 40
1
 41
0.18
 42
0.0625
 43
0.38
 44
0.18
 45
0
 46
0
 47
0
 48
0
140
0.18
141
0.09
142
0
143
1
144
1
145
0
146
1
147
0.09
148
0
 71
0
 72
0
 73
1
 74
1
 75
0
 76
0
 77
0
 78
0
 79
0
170
0
171
2
172
0
173
0
174
0
175
0
179
0
271
4
272
4
273
2
274
0
275
0
276
0
277
2
278
46
279
0
280
0
281
0
282
0
283
1
284
0
285
0
286
0
288
0
289
0
340
11
371
-2
372
-2
  0
ENDTAB
  0
TABLE
  2
BLOCK_RECORD
  5
1
330
0
100
AcDbSymbolTable
 70
3
  0
BLOCK_RECORD
  5
1F
330
1
100
AcDbSymbolTableRecord
100
AcDbBlockTableRecord
  2
*Model_Space
340
22
  0
BLOCK_RECORD
  5
203
330
1
100
AcDbSymbolTableRecord
100
AcDbBlockTableRecord
  2
*Paper_Space
340
1E
  0
ENDTAB
  0
ENDSEC
  0
SECTION
  2
BLOCKS
  0
BLOCK
  5
20
330
1F
100
AcDbEntity
  8
0
100
AcDbBlockBegin
  2
*Model_Space
 70
64
 10
0
 20
0
 30
0
  3
*Model_Space
  0
ENDBLK
  5
21
330
1F
100
AcDbEntity
  8
0
100
AcDbBlockEnd
  0
BLOCK
  5
204
330
203
100
AcDbEntity
  8
0
 67
1
100
AcDbBlockBegin
  2
*Paper_Space
 70
64
 10
0
 20
0
 30
0
  3
*Paper_Space
  0
ENDBLK
  5
205
330
203
100
AcDbEntity
  8
0
100
AcDbBlockEnd
  0
ENDSEC
  0
SECTION
  2
ENTITIES
  0
LINE
  5
28
330
1F
100
AcDbEntity
  8
0
 62
7
100
AcDbLine
 10
731.90896495327172
 20
861.88054953274525
 30
0
 11
731.90896496005337
 21
863.27674290603147
 31
0
  0
LINE
  5
29
330
1F
100
AcDbEntity
  8
0
 62
7
100
AcDbLine
 10
731.90896496005337
 20
863.27674290603147
 30
0
 11
731.908964967491
 21
864.80774642459357
 31
0
  0
LINE
  5
2A
330
1F
100
AcDbEntity
  8
0
 62
7
100
AcDbLine
 10
731.908964967491
 20
864.80774642459357
 30
0
 11
731.90896497388815
 21
866.12474014803865
 31
0
  0
LINE
  5
2B
330
1F
100
AcDbEntity
  8
0
 62
7
100
AcDbLine
 10
731.90896497388815
 20
866.12474014803865
 30
0
 11
731.90896502932242
 21
877.53764668099564
 31
0
  0
ARC
  5
2C
330
1F
100
AcDbEntity
  8
0
 62
7
100
AcDbCircle
 10
730.90896502932242
 20
877.53764668585256
 30
0
 40
0.99999999999999978
100
AcDbArc
 50
359.99999972171844
 51
83.981253231237488
  0
LINE
  5
2D
330
1F
100
AcDbEntity
  8
0
 62
7
100
AcDbLine
 10
731.01381888743151
 20
878.53213432702239
 30
0
 11
719.57132091472306
 21
879.7385747182077
 31
0
  0
ARC
  5
2E
330
1F
100
AcDbEntity
  8
0
 62
7
100
AcDbCircle
 10
719.46646705661408
 20
878.74408707703788
 30
0
 40
0.99999999999999978
100
AcDbArc
 50
83.981253231243969
 51
173.98125323121158
  0
LINE
  5
2F
330
1F
100
AcDbEntity
  8
0
 62
7
100
AcDbLine
 10
718.47197941544425
 20
878.84894093514743
 30
0
 11
718.11853145340945
 21
875.49665961349717
 31
0
  0
ARC
  5
30
330
1F
100
AcDbEntity
  8
0
 62
7
100
AcDbCircle
 10
717.42066811844973
 20
875.76439447484358
 30
0
 40
0.74745915624963755
100
AcDbArc
 50
266.19227758980213
 51
339.01071825899
  0
LINE
  5
31
330
1F
100
AcDbEntity
  8
0
 62
7
100
AcDbLine
 10
717.37103056305932
 20
875.0185853146985
 30
0
 11
579.06976538372271
 21
888.30152650344155
 31
0
  0
ARC
  5
32
330
1F
100
AcDbEntity
  8
0
 62
7
100
AcDbCircle
 10
578.9589042356987
 20
889.03286517678453
 30
0
 40
0.73969348332145235
100
AcDbArc
 50
156.53206807843614
 51
278.61965035843866
  0
LINE
  5
33
330
1F
100
AcDbEntity
  8
0
 62
7
100
AcDbLine
 10
578.28039589833611
 20
889.32743755396484
 30
0
 11
578.5752947933853
 21
892.89178124921193
 31
0
  0
ARC
  5
34
330
1F
100
AcDbEntity
  8
0
 62
7
100
AcDbCircle
 10
578.17802858860443
 20
892.99961738557045
 30
0
 40
0.41164191934945138
100
AcDbArc
 50
344.81325764596164
 51
92.419216207822856
  0
LINE
  5
35
330
1F
100
AcDbEntity
  8
0
 62
7
100
AcDbLine
 10
578.1606528772262
 20
893.41089242057717
 30
0
 11
559.93270533391046
 21
894.96690288827972
 31
0
  0
LINE
  5
36
330
1F
100
AcDbEntity
  8
0
 62
7
100
AcDbLine
 10
559.93270533391046
 20
894.96690288827972
 30
0
 11
559.566875586826
 21
891.01087952123419
 31
0
  0
LINE
  5
37
330
1F
100
AcDbEntity
  8
0
 62
7
100
AcDbLine
 10
559.566875586826
 20
891.01087952123419
 30
0
 11
679.9398613151825
 21
693.65643468807593
 31
0
  0
LINE
  5
38
330
1F
100
AcDbEntity
  8
0
 62
7
100
AcDbLine
 10
679.9398613151825
 20
693.65643468807593
 30
0
 11
731.90896411170479
 21
688.61979800470647
 31
0
  0
LINE
  5
39
330
1F
100
AcDbEntity
  8
0
 62
7
100
AcDbLine
 10
731.90896411170479
 20
688.61979800470647
 30
0
 11
731.90896495327172
 21
861.88054953274525
 31
0
  0
LINE
  5
3A
330
1F
100
AcDbEntity
  8
0
 62
7
100
AcDbLine
 10
731.2235054657848
 20
267.33986774888859
 30
0
 11
731.00208134897412
 21
276.71298639137473
 31
0
  0
LINE
  5
3B
330
1F
100
AcDbEntity
  8
0
 62
7
100
AcDbLine
 10
731.00208134897412
 20
276.71298639137473
 30
0
 11
455.08177519727025
 21
477.86111212088792
 31
0
  0
ARC
  5
3C
330
1F
100
AcDbEntity
  8
0
 62
7
100
AcDbCircle
 10
-1209.5751267158844
 20
373.69611571211306
 30
0
 40
1667.91275178408
100
AcDbArc
 50
3.5805836452592912
 51
14.113609951309433
  0
ARC
  5
3D
330
1F
100
AcDbEntity
  8
0
 62
7
100
AcDbCircle
 10
150.66544530839317
 20
710.32478579690292
 30
0
 40
266.69800235958508
100
AcDbArc
 50
15.235361994162398
 51
38.1565022318219
  0
LINE
  5
3E
330
1F
100
AcDbEntity
  8
0
 62
7
100
AcDbLine
 10
360.37705858318282
 20
875.09390826916183
 30
0
 11
361.6931851185538
 21
834.82270766202851
 31
0
  0
LINE
  5
3F
330
1F
100
AcDbEntity
  8
0
 62
7
100
AcDbLine
 10
361.6931851185538
 20
834.82270766202851
 30
0
 11
353.81552832792664
 21
834.79975650679012
 31
0
  0
LINE
  5
40
330
1F
100
AcDbEntity
  8
0
 62
7
100
AcDbLine
 10
353.81552832792664
 20
834.79975650679012
 30
0
 11
354.47899951525625
 21
806.145043740132
 31
0
  0
LINE
  5
41
330
1F
100
AcDbEntity
  8
0
 62
7
100
AcDbLine
 10
354.47899951525625
 20
806.145043740132
 30
0
 11
362.55378666321445
 21
806.12410160777631
 31
0
  0
LINE
  5
42
330
1F
100
AcDbEntity
  8
0
 62
7
100
AcDbLine
 10
362.55378666321445
 20
806.12410160777631
 30
0
 11
367.18879856355221
 21
545.0264697314617
 31
0
  0
LINE
  5
43
330
1F
100
AcDbEntity
  8
0
 62
7
100
AcDbLine
 10
367.18879856355221
 20
545.0264697314617
 30
0
 11
358.00608328975858
 21
544.81299429956357
 31
0
  0
LINE
  5
44
330
1F
100
AcDbEntity
  8
0
 62
7
100
AcDbLine
 10
358.00608328975858
 20
544.81299429956357
 30
0
 11
354.47130172175389
 21
776.22400603375377
 31
0
  0
LINE
  5
45
330
1F
100
AcDbEntity
  8
0
 62
7
100
AcDbLine
 10
354.47130172175389
 20
776.22400603375377
 30
0
 11
362.35245508542113
 21
776.36043589242854
 31
0
  0
LINE
  5
46
330
1F
100
AcDbEntity
  8
0
 62
7
100
AcDbLine
 10
362.35245508542113
 20
776.36043589242854
 30
0
 11
361.85437285846518
 21
805.13318737415989
 31
0
  0
LINE
  5
47
330
1F
100
AcDbEntity
  8
0
 62
7
100
AcDbLine
 10
361.85437285846518
 20
805.13318737415989
 30
0
 11
353.80161603168096
 21
805.05073047154747
 31
0
  0
LINE
  5
48
330
1F
100
AcDbEntity
  8
0
 62
7
100
AcDbLine
 10
353.80161603168096
 20
805.05073047154747
 30
0
 11
352.50308677566551
 21
874.92887816249845
 31
0
  0
ARC
  5
49
330
1F
100
AcDbEntity
  8
0
 62
7
100
AcDbCircle
 10
583.75575795187308
 20
713.777914774773
 30
0
 40
281.86420653733819
100
AcDbArc
 50
145.12886427905229
 51
168.79583175435135
  0
ARC
  5
4A
330
1F
100
AcDbEntity
  8
0
 62
7
100
AcDbCircle
 10
1948.2719821374503
 20
424.91404161739035
 30
0
 40
1676.6011067803161
100
AcDbArc
 50
168.17299834769318
 51
178.312837119727
  0
LINE
  5
4B
330
1F
100
AcDbEntity
  8
0
 62
7
100
AcDbLine
 10
272.39771252931092
 20
474.2770208869423
 30
0
 11
5.0044419769308206
 21
261.748152000024
 31
0
  0
LINE
  5
4C
330
1F
100
AcDbEntity
  8
0
 62
7
100
AcDbLine
 10
5.0044419769308206
 20
261.748152000024
 30
0
 11
5.169454017039925
 21
252.37387054744084
 31
0
  0
LINE
  5
4D
330
1F
100
AcDbEntity
  8
0
 62
7
100
AcDbLine
 10
5.169454017039925
 20
252.37387054744084
 30
0
 11
5.4719860869080321
 21
233.49764231397882
 31
0
  0
LINE
  5
4E
330
1F
100
AcDbEntity
  8
0
 62
7
100
AcDbLine
 10
5.4719860869080321
 20
233.49764231397882
 30
0
 11
5.6130023912086244
 21
225.22002043144136
 31
0
  0
LINE
  5
4F
330
1F
100
AcDbEntity
  8
0
 62
7
100
AcDbLine
 10
5.6130023912086244
 20
225.22002043144136
 30
0
 11
6.26997771202582
 21
225.07938963613066
 31
0
  0
ARC
  5
50
330
1F
100
AcDbEntity
  8
0
 62
7
100
AcDbCircle
 10
6.1091278844694772
 20
224.6876513235587
 30
0
 40
0.42347558673626412
100
AcDbArc
 50
353.45712825011395
 51
67.676686913489419
  0
LINE
  5
51
330
1F
100
AcDbEntity
  8
0
 62
7
100
AcDbLine
 10
6.5298453208756655
 20
224.63939770954454
 30
0
 11
7.4180857647731955
 21
183.64888196377
 31
0
  0
ARC
  5
52
330
1F
100
AcDbEntity
  8
0
 62
7
100
AcDbCircle
 10
14.992978966650416
 20
183.75921121725384
 30
0
 40
7.5756966388590321
100
AcDbArc
 50
180.8344610883139
 51
207.41948880295422
  0
ARC
  5
53
330
1F
100
AcDbEntity
  8
0
 62
7
100
AcDbCircle
 10
11.557007321763461
 20
182.34365184872456
 30
0
 40
3.8875294600753572
100
AcDbArc
 50
212.22595394261043
 51
249.35376404081902
  0
ARC
  5
54
330
1F
100
AcDbEntity
  8
0
 62
7
100
AcDbCircle
 10
11.188752620681992
 20
181.36495660446397
 30
0
 40
2.84184519167821
100
AcDbArc
 50
249.34406114859635
 51
272.86110533140055
  0
ARC
  5
55
330
1F
100
AcDbEntity
  8
0
 62
7
100
AcDbCircle
 10
12.015722637094385
 20
195.4842367580255
 30
0
 40
16.971417342082631
100
AcDbArc
 50
267.68639702101365
 51
276.23657675924039
  0
LINE
  5
56
330
1F
100
AcDbEntity
  8
0
 62
7
100
AcDbLine
 10
13.859395327247967
 20
178.61325938234495
 30
0
 11
244.93793568275316
 21
208.31626954281143
 31
0
  0
LINE
  5
57
330
1F
100
AcDbEntity
  8
0
 62
7
100
AcDbLine
 10
244.93793568275316
 20
208.31626954281143
 30
0
 11
243.73328795877626
 21
263.23459338645682
 31
0
  0
LINE
  5
58
330
1F
100
AcDbEntity
  8
0
 62
7
100
AcDbLine
 10
243.73328795877626
 20
263.23459338645682
 30
0
 11
254.78332363978024
 21
263.48187564199935
 31
0
  0
LINE
  5
59
330
1F
100
AcDbEntity
  8
0
 62
7
100
AcDbLine
 10
254.78332363978024
 20
263.48187564199935
 30
0
 11
256.03914507747123
 21
198.40331415233976
 31
0
  0
LINE
  5
5A
330
1F
100
AcDbEntity
  8
0
 62
7
100
AcDbLine
 10
256.03914507747123
 20
198.40331415233976
 30
0
 11
119.7628928769501
 21
90.860114431622748
 31
0
  0
LINE
  5
5B
330
1F
100
AcDbEntity
  8
0
 62
7
100
AcDbLine
 10
119.7628928769501
 20
90.860114431622748
 30
0
 11
143.03083424628664
 21
9.660210729055791
 31
0
  0
ARC
  5
5C
330
1F
100
AcDbEntity
  8
0
 62
7
100
AcDbCircle
 10
147.17717546589409
 20
11.437384000073333
 30
0
 40
4.5111517758367468
100
AcDbArc
 50
203.20057382128567
 51
261.84478178518975
  0
LINE
  5
5D
330
1F
100
AcDbEntity
  8
0
 62
7
100
AcDbLine
 10
146.53724471611724
 20
6.9718516712098335
 30
0
 11
258.25269149884787
 21
13.341648743293604
 31
0
  0
ARC
  5
5E
330
1F
100
AcDbEntity
  8
0
 62
7
100
AcDbCircle
 10
258.19576590669823
 20
14.340027167018002
 30
0
 40
0.99999999999999956
100
AcDbArc
 50
273.26336029643255
 51
1.1858084527596882
  0
LINE
  5
5F
330
1F
100
AcDbEntity
  8
0
 62
7
100
AcDbLine
 10
259.19555174671655
 20
14.360721951358528
 30
0
 11
256.93532226937964
 21
123.5546806586446
 31
0
  0
ARC
  5
60
330
1F
100
AcDbEntity
  8
0
 62
7
100
AcDbCircle
 10
257.83655638693995
 20
123.19114023952024
 30
0
 40
0.97179451068209455
100
AcDbArc
 50
92.459997182325523
 51
158.03180444205353
  0
LINE
  5
61
330
1F
100
AcDbEntity
  8
0
 62
7
100
AcDbLine
 10
257.79484515858996
 20
124.16203917577539
 30
0
 11
267.23808043828365
 21
124.34730666047588
 31
0
  0
ARC
  5
62
330
1F
100
AcDbEntity
  8
0
 62
7
100
AcDbCircle
 10
267.21855922806003
 20
123.4249705017109
 30
0
 40
0.9225427184764583
100
AcDbArc
 50
358.78751799899544
 51
88.78751799894421
  0
LINE
  5
63
330
1F
100
AcDbEntity
  8
0
 62
7
100
AcDbLine
 10
268.14089538682504
 20
123.40544929148811
 30
0
 11
269.96040031297656
 21
30.663794500086027
 31
0
  0
ARC
  5
64
330
1F
100
AcDbEntity
  8
0
 62
7
100
AcDbCircle
 10
274.42139810570762
 20
30.630794756207781
 30
0
 40
4.4611198470616982
100
AcDbArc
 50
179.57616846048091
 51
251.47050632046978
  0
ARC
  5
65
330
1F
100
AcDbEntity
  8
0
 62
7
100
AcDbCircle
 10
298.03572760721505
 20
113.65467330976395
 30
0
 40
90.773439522820937
100
AcDbArc
 50
253.99245494983705
 51
287.58248697853321
  0
ARC
  5
66
330
1F
100
AcDbEntity
  8
0
 62
7
100
AcDbCircle
 10
324.02654551619185
 20
31.368930268131106
 30
0
 40
4.4812846766413381
100
AcDbArc
 50
288.60730237565895
 51
357.08769167066174
  0
LINE
  5
67
330
1F
100
AcDbEntity
  8
0
 62
7
100
AcDbLine
 10
328.5020424600562
 20
31.141247465615152
 30
0
 11
328.1040045848884
 21
51.429563634589357
 31
0
  0
ARC
  5
68
330
1F
100
AcDbEntity
  8
0
 62
7
100
AcDbCircle
 10
328.40122934933066
 20
51.320234420003345
 30
0
 40
0.31669454962115923
100
AcDbArc
 50
89.335530146153289
 51
159.80478904475819
  0
LINE
  5
69
330
1F
100
AcDbEntity
  8
0
 62
7
100
AcDbLine
 10
328.40490203283156
 20
51.636907672987633
 30
0
 11
329.09096727833162
 21
51.650367634389909
 31
0
  0
LINE
  5
6A
330
1F
100
AcDbEntity
  8
0
 62
7
100
AcDbLine
 10
329.09096727833162
 20
51.650367634389909
 30
0
 11
348.59047207382184
 21
7.1126250077080044
 31
0
  0
ARC
  5
6B
330
1F
100
AcDbEntity
  8
0
 62
7
100
AcDbCircle
 10
351.75395601468108
 20
8.4934264412890137
 30
0
 40
3.451701499703268
100
AcDbArc
 50
203.58036695250294
 51
272.97041257107736
  0
LINE
  5
6C
330
1F
100
AcDbEntity
  8
0
 62
7
100
AcDbLine
 10
351.93282408018416
 20
5.0463625518032131
 30
0
 11
373.24605428142655
 21
5.4645082861069909
 31
0
  0
LINE
  5
6D
330
1F
100
AcDbEntity
  8
0
 62
7
100
AcDbLine
 10
373.24605428142655
 20
5.4645082861069909
 30
0
 11
394.55928448266758
 21
5.8826540204109961
 31
0
  0
ARC
  5
6E
330
1F
100
AcDbEntity
  8
0
 62
7
100
AcDbCircle
 10
394.60281057820185
 20
9.3340810762911186
 30
0
 40
3.451701499703268
100
AcDbArc
 50
269.27747875344193
 51
338.6675243721196
  0
LINE
  5
6F
330
1F
100
AcDbEntity
  8
0
 62
7
100
AcDbLine
 10
397.81801938727727
 20
8.0784236560136833
 30
0
 11
415.55561323751857
 21
53.346723491035931
 31
0
  0
LINE
  5
70
330
1F
100
AcDbEntity
  8
0
 62
7
100
AcDbLine
 10
415.55561323751857
 20
53.346723491035931
 30
0
 11
416.24167848302
 21
53.360183452437383
 31
0
  0
ARC
  5
71
330
1F
100
AcDbEntity
  8
0
 62
7
100
AcDbCircle
 10
416.25776922823587
 20
53.043897939525166
 30
0
 40
0.31669454962115923
100
AcDbArc
 50
22.443102279762808
 51
92.912361178742188
  0
LINE
  5
72
330
1F
100
AcDbEntity
  8
0
 62
7
100
AcDbLine
 10
416.55047704817116
 20
53.164801082199347
 30
0
 11
416.94851492333669
 21
32.87648491322409
 31
0
  0
ARC
  5
73
330
1F
100
AcDbEntity
  8
0
 62
7
100
AcDbCircle
 10
421.41163747298555
 20
33.279535108505556
 30
0
 40
4.4812846766413381
100
AcDbArc
 50
185.16019965395355
 51
253.64058894830882
  0
ARC
  5
74
330
1F
100
AcDbEntity
  8
0
 62
7
100
AcDbCircle
 10
444.15495788485134
 20
116.52139657336338
 30
0
 40
90.773439522820937
100
AcDbArc
 50
254.66540434603462
 51
288.255436374755
  0
ARC
  5
75
330
1F
100
AcDbEntity
  8
0
 62
7
100
AcDbCircle
 10
471.00756467233481
 20
34.487632325962714
 30
0
 40
4.4611198470616982
100
AcDbArc
 50
290.77738500396907
 51
2.6717228641162682
  0
LINE
  5
76
330
1F
100
AcDbEntity
  8
0
 62
7
100
AcDbLine
 10
475.46383528977844
 20
34.695580574227449
 30
0
 11
473.6443303636305
 21
127.43723536562942
 31
0
  0
ARC
  5
77
330
1F
100
AcDbEntity
  8
0
 62
7
100
AcDbCircle
 10
474.56519108547059
 20
127.49291838266507
 30
0
 40
0.9225427184764583
100
AcDbArc
 50
93.460373325546954
 51
183.46037332556975
  0
LINE
  5
78
330
1F
100
AcDbEntity
  8
0
 62
7
100
AcDbLine
 10
474.50950806843531
 20
128.41377910450512
 30
0
 11
483.95274334812939
 21
128.59904658920624
 31
0
  0
ARC
  5
79
330
1F
100
AcDbEntity
  8
0
 62
7
100
AcDbCircle
 10
483.94914582595
 20
127.62725873744741
 30
0
 40
0.97179451068209455
100
AcDbArc
 50
24.2160868825251
 51
89.787894142107262
  0
LINE
  5
7A
330
1F
100
AcDbEntity
  8
0
 62
7
100
AcDbLine
 10
484.83542726555942
 20
128.02586854765738
 30
0
 11
486.85985617405959
 21
18.827283652736497
 31
0
  0
ARC
  5
7B
330
1F
100
AcDbEntity
  8
0
 62
7
100
AcDbCircle
 10
487.85968437170413
 20
18.845819434210608
 30
0
 40
0.99999999999999956
100
AcDbArc
 50
181.06208287191964
 51
268.98453102821964
  0
LINE
  5
7C
330
1F
100
AcDbEntity
  8
0
 62
7
100
AcDbLine
 10
487.84196202253668
 20
17.845976487373463
 30
0
 11
599.72128439589721
 21
15.86290062331156
 31
0
  0
ARC
  5
7D
330
1F
100
AcDbEntity
  8
0
 62
7
100
AcDbCircle
 10
598.90669432871164
 20
20.299896607880139
 30
0
 40
4.5111517758367468
100
AcDbArc
 50
280.403109539376
 51
339.04731750331797
  0
LINE
  5
7E
330
1F
100
AcDbEntity
  8
0
 62
7
100
AcDbLine
 10
603.11955099739282
 20
18.686723017164041
 30
0
 11
623.18468009700166
 21
100.73678122000021
 31
0
  0
LINE
  5
7F
330
1F
100
AcDbEntity
  8
0
 62
7
100
AcDbLine
 10
623.18468009700166
 20
100.73678122000021
 30
0
 11
482.79092860561462
 21
203.07729788786372
 31
0
  0
LINE
  5
80
330
1F
100
AcDbEntity
  8
0
 62
7
100
AcDbLine
 10
482.79092860561462
 20
203.07729788786372
 30
0
 11
481.3639217288607
 21
268.1523331515159
 31
0
  0
LINE
  5
81
330
1F
100
AcDbEntity
  8
0
 62
7
100
AcDbLine
 10
481.3639217288607
 20
268.1523331515159
 30
0
 11
492.41476138861287
 21
268.36061152240211
 31
0
  0
LINE
  5
82
330
1F
100
AcDbEntity
  8
0
 62
7
100
AcDbLine
 10
492.41476138861287
 20
268.36061152240211
 30
0
 11
493.47421473227774
 21
213.43929481798395
 31
0
  0
LINE
  5
83
330
1F
100
AcDbEntity
  8
0
 62
7
100
AcDbLine
 10
493.47421473227774
 20
213.43929481798395
 30
0
 11
725.58047751802826
 21
193.2838141475512
 31
0
  0
ARC
  5
84
330
1F
100
AcDbEntity
  8
0
 62
7
100
AcDbCircle
 10
726.72736384684572
 20
210.21643527801754
 30
0
 40
16.971417342082631
100
AcDbArc
 50
266.12514014010515
 51
274.67531987833843
  0
ARC
  5
85
330
1F
100
AcDbEntity
  8
0
 62
7
100
AcDbCircle
 10
728.13545962960245
 20
196.14322605874639
 30
0
 40
2.84184519167821
100
AcDbArc
 50
269.50061156799717
 51
293.0176557507578
  0
ARC
  5
86
330
1F
100
AcDbEntity
  8
0
 62
7
100
AcDbCircle
 10
727.72718759223915
 20
197.10591492308109
 30
0
 40
3.8875294600753558
100
AcDbArc
 50
293.00795285852024
 51
330.13576295673914
  0
ARC
  5
87
330
1F
100
AcDbEntity
  8
0
 62
7
100
AcDbCircle
 10
724.23580204487916
 20
198.37868215631002
 30
0
 40
7.5756966388590321
100
AcDbArc
 50
334.94222809636028
 51
1.5272558109931935
  0
LINE
  5
88
330
1F
100
AcDbEntity
  8
0
 62
7
100
AcDbLine
 10
731.80880748870493
 20
198.58059330460284
 30
0
 11
731.00715363808592
 21
239.572893841345
 31
0
  0
ARC
  5
89
330
1F
100
AcDbEntity
  8
0
 62
7
100
AcDbCircle
 10
731.42552527358475
 20
239.63844341931178
 30
0
 40
0.42347558673626379
100
AcDbArc
 50
114.68502998570865
 51
188.9045886491578
  0
LINE
  5
8A
330
1F
100
AcDbEntity
  8
0
 62
7
100
AcDbLine
 10
731.24866929636823
 20
240.02322067420661
 30
0
 11
731.89929145091753
 21
240.19080469719751
 31
0
  0
LINE
  5
8B
330
1F
100
AcDbEntity
  8
0
 62
7
100
AcDbLine
 10
731.89929145091753
 20
240.19080469719751
 30
0
 11
731.6990831987473
 21
248.46720646874692
 31
0
  0
LINE
  5
8C
330
1F
100
AcDbEntity
  8
0
 62
7
100
AcDbLine
 10
731.6990831987473
 20
248.46720646874692
 30
0
 11
731.2235054657848
 21
267.33986774888859
 31
0
  0
LINE
  5
8D
330
1F
100
AcDbEntity
  8
0
 62
7
100
AcDbLine
 10
505.33946834865446
 20
86.6822745216021
 30
0
 11
505.185472354484
 21
91.504856928934
 31
0
  0
ARC
  5
8E
330
1F
100
AcDbEntity
  8
0
 62
7
100
AcDbCircle
 10
504.44430627468552
 20
91.150217698436734
 30
0
 40
0.82164234412028825
100
AcDbArc
 50
25.570565085521071
 51
162.87996590793745
  0
LINE
  5
8F
330
1F
100
AcDbEntity
  8
0
 62
7
100
AcDbLine
 10
503.65907078617988
 20
91.39208826143016
 30
0
 11
503.82058059088331
 21
86.43534656771746
 31
0
  0
ARC
  5
90
330
1F
100
AcDbEntity
  8
0
 62
7
100
AcDbCircle
 10
504.58383669175186
 20
86.5353610436667
 30
0
 40
0.76978098892636715
100
AcDbArc
 50
187.46530949464849
 51
11.002452229710482
  0
ARC
  5
91
330
1F
100
AcDbEntity
  8
0
 62
7
100
AcDbCircle
 10
238.56419555500932
 20
80.849474859661882
 30
0
 40
0.76978098892636715
100
AcDbArc
 50
171.44644728279027
 51
354.98359001887422
  0
LINE
  5
92
330
1F
100
AcDbEntity
  8
0
 62
7
100
AcDbLine
 10
239.33102804805253
 20
80.78216439594658
 30
0
 11
239.28059696990471
 21
85.74128027900116
 31
0
  0
ARC
  5
93
330
1F
100
AcDbEntity
  8
0
 62
7
100
AcDbCircle
 10
238.50641334506804
 20
85.466078795200232
 30
0
 40
0.82164234412028825
100
AcDbArc
 50
19.568933605179502
 51
156.878334427404
  0
LINE
  5
94
330
1F
100
AcDbEntity
  8
0
 62
7
100
AcDbLine
 10
237.75077100394788
 20
85.788725341684028
 30
0
 11
237.80297662589322
 21
80.963967273680538
 31
0
  0
LINE
  5
95
330
1F
100
AcDbEntity
  8
0
 62
7
100
AcDbLine
 10
253.12133980079398
 20
359.90549415764264
 30
0
 11
253.43522800697474
 21
343.988960171694
 31
0
  0
LINE
  5
96
330
1F
100
AcDbEntity
  8
0
 62
7
100
AcDbLine
 10
253.43522800697474
 20
343.988960171694
 30
0
 11
258.3190322976813
 21
343.9749349090153
 31
0
  0
LINE
  5
97
330
1F
100
AcDbEntity
  8
0
 62
7
100
AcDbLine
 10
258.3190322976813
 20
343.9749349090153
 30
0
 11
257.96488665478358
 21
360.00101320939677
 31
0
  0
LINE
  5
98
330
1F
100
AcDbEntity
  8
0
 62
7
100
AcDbLine
 10
257.96488665478358
 20
360.00101320939677
 30
0
 11
253.12133980079398
 21
359.90549415764264
 31
0
  0
ARC
  5
99
330
1F
100
AcDbEntity
  8
0
 62
7
100
AcDbCircle
 10
236.47045660489
 20
246.79535146981334
 30
0
 40
0.76978098892636715
100
AcDbArc
 50
171.44644728209497
 51
354.98359001957294
  0
LINE
  5
9A
330
1F
100
AcDbEntity
  8
0
 62
7
100
AcDbLine
 10
237.23728909793402
 20
246.72804100610739
 30
0
 11
237.18685801978535
 21
251.68715688916194
 31
0
  0
ARC
  5
9B
330
1F
100
AcDbEntity
  8
0
 62
7
100
AcDbCircle
 10
236.41267439494951
 20
251.4119554053587
 30
0
 40
0.82164234412028825
100
AcDbArc
 50
19.568933605350949
 51
156.87833442722641
  0
LINE
  5
9C
330
1F
100
AcDbEntity
  8
0
 62
7
100
AcDbLine
 10
235.65703205383033
 20
251.73460195184484
 30
0
 11
235.70923767577528
 21
246.90984388384123
 31
0
  0
LINE
  5
9D
330
1F
100
AcDbEntity
  8
0
 62
7
100
AcDbLine
 10
260.26694773214717
 20
261.10889249195327
 30
0
 11
264.36342212065773
 21
261.18261058811078
 31
0
  0
ARC
  5
9E
330
1F
100
AcDbEntity
  8
0
 62
7
100
AcDbCircle
 10
264.35442582827341
 20
261.68252964828287
 30
0
 40
0.50000000000000011
100
AcDbArc
 50
271.03095480057806
 51
1.0309548006368228
  0
LINE
  5
9F
330
1F
100
AcDbEntity
  8
0
 62
7
100
AcDbLine
 10
264.85434488844544
 20
261.6915259406677
 30
0
 11
264.49178469267753
 21
281.83879823439094
 31
0
  0
ARC
  5
A0
330
1F
100
AcDbEntity
  8
0
 62
7
100
AcDbCircle
 10
263.99186563250544
 20
281.8298019420057
 30
0
 40
0.50000000000000011
100
AcDbArc
 50
1.0309548006822948
 51
92.285272947829966
  0
LINE
  5
A1
330
1F
100
AcDbEntity
  8
0
 62
7
100
AcDbLine
 10
263.97192815114079
 20
282.329404280708
 30
0
 11
259.89558470353558
 21
282.16673085981404
 31
0
  0
ARC
  5
A2
330
1F
100
AcDbEntity
  8
0
 62
7
100
AcDbCircle
 10
259.91552218489937
 20
281.66712852111169
 30
0
 40
0.50000000000000011
100
AcDbArc
 50
92.285272947732082
 51
180.9780404527545
  0
LINE
  5
A3
330
1F
100
AcDbEntity
  8
0
 62
7
100
AcDbLine
 10
259.41559502957847
 20
281.65859392254345
 30
0
 11
259.75802428444058
 21
261.60027695355728
 31
0
  0
ARC
  5
A4
330
1F
100
AcDbEntity
  8
0
 62
7
100
AcDbCircle
 10
260.25795143976154
 20
261.6088115521253
 30
0
 40
0.50000000000000011
100
AcDbArc
 50
180.97804045272832
 51
271.030954800728
  0
LINE
  5
A5
330
1F
100
AcDbEntity
  8
0
 62
7
100
AcDbLine
 10
479.051063178317
 20
364.56253532564529
 30
0
 11
474.20769434093222
 21
364.45838005172317
 31
0
  0
LINE
  5
A6
330
1F
100
AcDbEntity
  8
0
 62
7
100
AcDbLine
 10
474.20769434093222
 20
364.45838005172317
 30
0
 11
474.51425318019653
 21
348.43132085471427
 31
0
  0
LINE
  5
A7
330
1F
100
AcDbEntity
  8
0
 62
7
100
AcDbLine
 10
474.51425318019653
 20
348.43132085471427
 30
0
 11
479.39333114994508
 21
348.64658632574458
 31
0
  0
LINE
  5
A8
330
1F
100
AcDbEntity
  8
0
 62
7
100
AcDbLine
 10
479.39333114994508
 20
348.64658632574458
 30
0
 11
479.051063178317
 21
364.56253532564529
 31
0
  0
LINE
  5
A9
330
1F
100
AcDbEntity
  8
0
 62
7
100
AcDbLine
 10
501.10470726706654
 20
252.38038405540942
 30
0
 11
500.95804960383055
 21
257.20319520364467
 31
0
  0
ARC
  5
AA
330
1F
100
AcDbEntity
  8
0
 62
7
100
AcDbCircle
 10
500.21634475482307
 20
256.8496841591068
 30
0
 40
0.82164234412028814
100
AcDbArc
 50
25.483382472049996
 51
162.7927832940766
  0
LINE
  5
AB
330
1F
100
AcDbEntity
  8
0
 62
7
100
AcDbLine
 10
499.4314782111901
 20
257.09274927453293
 30
0
 11
499.58544553639467
 21
252.13576756204159
 31
0
  0
ARC
  5
AC
330
1F
100
AcDbEntity
  8
0
 62
7
100
AcDbCircle
 10
500.34885293800278
 20
252.23462053408792
 30
0
 40
0.76978098892636659
100
AcDbArc
 50
187.37812687899535
 51
10.915269618030464
  0
ARC
  5
AD
330
1F
100
AcDbEntity
  8
0
 62
7
100
AcDbCircle
 10
475.971129494688
 20
266.05526125190124
 30
0
 40
0.5
100
AcDbArc
 50
271.33076209857262
 51
1.3836764466298834
  0
LINE
  5
AE
330
1F
100
AcDbEntity
  8
0
 62
7
100
AcDbLine
 10
476.4709836996534
 20
266.0673349331305
 30
0
 11
475.98655767378574
 21
286.1227249529822
 31
0
  0
ARC
  5
AF
330
1F
100
AcDbEntity
  8
0
 62
7
100
AcDbCircle
 10
475.48670346882034
 20
286.11065127175323
 30
0
 40
0.5
100
AcDbArc
 50
1.3836764465973239
 51
90.0764439515485
  0
LINE
  5
B0
330
1F
100
AcDbEntity
  8
0
 62
7
100
AcDbLine
 10
475.48603636969438
 20
286.61065082673178
 30
0
 11
471.40645196455165
 21
286.60520784750952
 31
0
  0
ARC
  5
B1
330
1F
100
AcDbEntity
  8
0
 62
7
100
AcDbCircle
 10
471.40711906367682
 20
286.10520829253096
 30
0
 40
0.5
100
AcDbArc
 50
90.0764439514573
 51
181.33076209867045
  0
LINE
  5
B2
330
1F
100
AcDbEntity
  8
0
 62
7
100
AcDbLine
 10
470.90725392147567
 20
286.09359624653564
 30
0
 11
471.37523178266775
 21
265.9484969046506
 31
0
  0
ARC
  5
B3
330
1F
100
AcDbEntity
  8
0
 62
7
100
AcDbCircle
 10
471.8750969248689
 20
265.9601089506462
 30
0
 40
0.5
100
AcDbArc
 50
181.330762098703
 51
271.33076209871604
  0
LINE
  5
B4
330
1F
100
AcDbEntity
  8
0
 62
7
100
AcDbLine
 10
471.88670897086462
 20
265.46024380844506
 30
0
 11
475.98274154068247
 21
265.55539610970004
 31
0
  0
LINE
  5
B5
330
1F
100
AcDbEntity
  8
0
 62
7
100
AcDbLine
 10
365.66225895496655
 20
385.69730879127184
 30
0
 11
369.57064621459989
 21
385.77330350718063
 31
0
  0
LINE
  5
B6
330
1F
100
AcDbEntity
  8
0
 62
7
100
AcDbLine
 10
369.57064621459989
 20
385.77330350718063
 30
0
 11
369.25014278936504
 21
401.81411313718371
 31
0
  0
LINE
  5
B7
330
1F
100
AcDbEntity
  8
0
 62
7
100
AcDbLine
 10
369.25014278936504
 20
401.81411313718371
 30
0
 11
365.24104109219411
 21
401.79886710283222
 31
0
  0
LINE
  5
B8
330
1F
100
AcDbEntity
  8
0
 62
7
100
AcDbLine
 10
365.24104109219411
 20
401.79886710283222
 30
0
 11
361.29392844019162
 21
401.650113388892
 31
0
  0
LINE
  5
B9
330
1F
100
AcDbEntity
  8
0
 62
7
100
AcDbLine
 10
361.29392844019162
 20
401.650113388892
 30
0
 11
361.63470797055732
 21
385.60972170591657
 31
0
  0
LINE
  5
BA
330
1F
100
AcDbEntity
  8
0
 62
7
100
AcDbLine
 10
361.63470797055732
 20
385.60972170591657
 30
0
 11
365.66225895496655
 21
385.69730879127184
 31
0
  0
LINE
  5
BB
330
1F
100
AcDbEntity
  8
0
 62
7
100
AcDbLine
 10
367.83028199324662
 20
283.03870194222708
 30
0
 11
382.20918014775521
 21
297.45088907049535
 31
0
  0
LINE
  5
BC
330
1F
100
AcDbEntity
  8
0
 62
7
100
AcDbLine
 10
382.20918014775521
 20
297.45088907049535
 30
0
 11
475.18111520615173
 21
299.3418847162942
 31
0
  0
LINE
  5
BD
330
1F
100
AcDbEntity
  8
0
 62
7
100
AcDbLine
 10
475.18111520615173
 20
299.3418847162942
 30
0
 11
474.30141796368486
 21
328.76309540184536
 31
0
  0
LINE
  5
BE
330
1F
100
AcDbEntity
  8
0
 62
7
100
AcDbLine
 10
474.30141796368486
 20
328.76309540184536
 30
0
 11
389.25515862413852
 21
326.90496305593012
 31
0
  0
LINE
  5
BF
330
1F
100
AcDbEntity
  8
0
 62
7
100
AcDbLine
 10
389.25515862413852
 20
326.90496305593012
 30
0
 11
388.74993298042892
 21
351.89386623260094
 31
0
  0
LINE
  5
C0
330
1F
100
AcDbEntity
  8
0
 62
7
100
AcDbLine
 10
388.74993298042892
 20
351.89386623260094
 30
0
 11
366.32818808832252
 21
351.44875730303863
 31
0
  0
LINE
  5
C1
330
1F
100
AcDbEntity
  8
0
 62
7
100
AcDbLine
 10
366.32818808832252
 20
351.44875730303863
 30
0
 11
343.86781837303027
 21
350.96872078334809
 31
0
  0
LINE
  5
C2
330
1F
100
AcDbEntity
  8
0
 62
7
100
AcDbLine
 10
343.86781837303027
 20
350.96872078334809
 30
0
 11
344.39276620526311
 21
325.98022413594026
 31
0
  0
LINE
  5
C3
330
1F
100
AcDbEntity
  8
0
 62
7
100
AcDbLine
 10
344.39276620526311
 20
325.98022413594026
 30
0
 11
259.34217622973307
 21
324.33218643054153
 31
0
  0
LINE
  5
C4
330
1F
100
AcDbEntity
  8
0
 62
7
100
AcDbLine
 10
259.34217622973307
 20
324.33218643054153
 30
0
 11
259.67561735740935
 21
294.8997158842833
 31
0
  0
LINE
  5
C5
330
1F
100
AcDbEntity
  8
0
 62
7
100
AcDbLine
 10
259.67561735740935
 20
294.8997158842833
 30
0
 11
352.64650511249795
 21
296.84151995952891
 31
0
  0
LINE
  5
C6
330
1F
100
AcDbEntity
  8
0
 62
7
100
AcDbLine
 10
352.64650511249795
 20
296.84151995952891
 30
0
 11
367.83028199324662
 21
283.03870194222708
 31
0
  0
LINE
  5
C7
330
1F
100
AcDbEntity
  8
0
 62
1
100
AcDbLine
 10
6.602982109129016
 20
221.26428155601241
 30
0
 11
243.78521160761454
 21
260.86746173029707
 31
0
  0
LINE
  5
C8
330
1F
100
AcDbEntity
  8
0
 62
1
100
AcDbLine
 10
492.460426758067
 20
265.99335086566509
 30
0
 11
731.07316097689647
 21
236.19763072999314
 31
0
  0
LINE
  5
C9
330
1F
100
AcDbEntity
  8
0
 62
1
100
AcDbLine
 10
618.77040432435217
 20
82.685983626264857
 30
0
 11
485.32487441767751
 21
101.62487409059176
 31
0
  0
LINE
  5
CA
330
1F
100
AcDbEntity
  8
0
 62
1
100
AcDbLine
 10
257.48177903858164
 20
97.154804677190867
 30
0
 11
124.88177894821558
 21
72.996348598057892
 31
0
  0
LINE
  5
CB
330
1F
100
AcDbEntity
  8
0
 62
7
100
AcDbLine
 10
640.5787329532717
 20
467.74522704364705
 30
0
 11
653.79916497733586
 21
418.04373300058035
 31
0
  0
LINE
  5
CC
330
1F
100
AcDbEntity
  8
0
 62
7
100
AcDbLine
 10
653.79916497733586
 20
418.04373300058035
 30
0
 11
660.62416331420047
 21
392.76567834103895
 31
0
  0
LINE
  5
CD
330
1F
100
AcDbEntity
  8
0
 62
7
100
AcDbLine
 10
660.62416331420047
 20
392.76567834103895
 30
0
 11
667.42076117496038
 21
373.88372386619875
 31
0
  0
LINE
  5
CE
330
1F
100
AcDbEntity
  8
0
 62
7
100
AcDbLine
 10
667.42076117496038
 20
373.88372386619875
 30
0
 11
670.59914652372743
 21
365.99424179543456
 31
0
  0
LINE
  5
CF
330
1F
100
AcDbEntity
  8
0
 62
7
100
AcDbLine
 10
670.59914652372743
 20
365.99424179543456
 30
0
 11
675.60357017365266
 21
354.69726678685157
 31
0
  0
LINE
  5
D0
330
1F
100
AcDbEntity
  8
0
 62
7
100
AcDbLine
 10
675.60357017365266
 20
354.69726678685157
 30
0
 11
681.54062370488975
 21
343.07104091021506
 31
0
  0
LINE
  5
D1
330
1F
100
AcDbEntity
  8
0
 62
7
100
AcDbLine
 10
681.54062370488975
 20
343.07104091021506
 30
0
 11
687.1978803204895
 21
334.26313962116632
 31
0
  0
LINE
  5
D2
330
1F
100
AcDbEntity
  8
0
 62
7
100
AcDbLine
 10
687.1978803204895
 20
334.26313962116632
 30
0
 11
690.52042856326329
 21
330.069169437901
 31
0
  0
LINE
  5
D3
330
1F
100
AcDbEntity
  8
0
 62
7
100
AcDbLine
 10
690.52042856326329
 20
330.069169437901
 30
0
 11
693.93894891571244
 21
326.2649671656244
 31
0
  0
LINE
  5
D4
330
1F
100
AcDbEntity
  8
0
 62
7
100
AcDbLine
 10
693.93894891571244
 20
326.2649671656244
 30
0
 11
699.338507459963
 21
320.9216088879507
 31
0
  0
LINE
  5
D5
330
1F
100
AcDbEntity
  8
0
 62
7
100
AcDbLine
 10
699.338507459963
 20
320.9216088879507
 30
0
 11
704.82794737645168
 21
316.30124907328377
 31
0
  0
LINE
  5
D6
330
1F
100
AcDbEntity
  8
0
 62
7
100
AcDbLine
 10
704.82794737645168
 20
316.30124907328377
 30
0
 11
710.45667061411712
 21
312.358813088014
 31
0
  0
ARC
  5
D7
330
1F
100
AcDbEntity
  8
0
 62
7
100
AcDbCircle
 10
714.02197090021514
 20
317.98819987403789
 30
0
 40
6.6634346786556069
100
AcDbArc
 50
237.65239677312388
 51
283.16929437203783
  0
ARC
  5
D8
330
1F
100
AcDbEntity
  8
0
 62
7
100
AcDbCircle
 10
714.39529606890585
 20
317.01484923575515
 30
0
 40
5.6324116934875654
100
AcDbArc
 50
281.72719292185451
 51
344.550403733415
  0
LINE
  5
D9
330
1F
100
AcDbEntity
  8
0
 62
7
100
AcDbLine
 10
719.82418153953688
 20
315.5144279510132
 30
0
 11
722.97934438210575
 21
331.00562244729508
 31
0
  0
LINE
  5
DA
330
1F
100
AcDbEntity
  8
0
 62
7
100
AcDbLine
 10
722.97934438210575
 20
331.00562244729508
 30
0
 11
726.39322751249938
 21
359.49285446887279
 31
0
  0
LINE
  5
DB
330
1F
100
AcDbEntity
  8
0
 62
7
100
AcDbLine
 10
726.39322751249938
 20
359.49285446887279
 30
0
 11
727.18478819997426
 21
394.50955460067723
 31
0
  0
LINE
  5
DC
330
1F
100
AcDbEntity
  8
0
 62
7
100
AcDbLine
 10
727.18478819997426
 20
394.50955460067723
 30
0
 11
727.37632740419156
 21
406.81100576251117
 31
0
  0
LINE
  5
DD
330
1F
100
AcDbEntity
  8
0
 62
7
100
AcDbLine
 10
727.37632740419156
 20
406.81100576251117
 30
0
 11
727.62519087114788
 21
417.02961450738354
 31
0
  0
LINE
  5
DE
330
1F
100
AcDbEntity
  8
0
 62
7
100
AcDbLine
 10
727.62519087114788
 20
417.02961450738354
 30
0
 11
728.1136587223051
 21
431.73799258708863
 31
0
  0
LINE
  5
DF
330
1F
100
AcDbEntity
  8
0
 62
7
100
AcDbLine
 10
728.1136587223051
 20
431.73799258708863
 30
0
 11
731.01624628651314
 21
477.79301222607552
 31
0
  0
ARC
  5
E0
330
1F
100
AcDbEntity
  8
0
 62
7
100
AcDbCircle
 10
522.02188771446959
 20
496.83850836257506
 30
0
 40
209.8603650955209
100
AcDbArc
 50
354.79306136863772
 51
11.555532390200073
  0
ARC
  5
E1
330
1F
100
AcDbEntity
  8
0
 62
7
100
AcDbCircle
 10
528.71079106895945
 20
498.1150725984408
 30
0
 40
203.05134034784351
100
AcDbArc
 50
11.580706683071512
 51
25.450325093569106
  0
LINE
  5
E2
330
1F
100
AcDbEntity
  8
0
 62
7
100
AcDbLine
 10
712.057662676128
 20
585.37200062665079
 30
0
 11
664.14226872161157
 21
662.63162605446428
 31
0
  0
ARC
  5
E3
330
1F
100
AcDbEntity
  8
0
 62
7
100
AcDbCircle
 10
1317.2128993462609
 20
1048.5182906808168
 30
0
 40
758.55768832761066
100
AcDbArc
 50
200.0168360929182
 51
210.57801032846731
  0
LINE
  5
E4
330
1F
100
AcDbEntity
  8
0
 62
7
100
AcDbLine
 10
604.47810376040877
 20
788.86683645395942
 30
0
 11
590.62310000733692
 21
830.40491969063419
 31
0
  0
LINE
  5
E5
330
1F
100
AcDbEntity
  8
0
 62
7
100
AcDbLine
 10
590.62310000733692
 20
830.40491969063419
 30
0
 11
570.29133103809727
 21
824.51146964862983
 31
0
  0
LINE
  5
E6
330
1F
100
AcDbEntity
  8
0
 62
7
100
AcDbLine
 10
570.29133103809727
 20
824.51146964862983
 30
0
 11
579.86119843692734
 21
791.053908552603
 31
0
  0
LINE
  5
E7
330
1F
100
AcDbEntity
  8
0
 62
7
100
AcDbLine
 10
579.86119843692734
 20
791.053908552603
 30
0
 11
576.05269783936251
 21
789.99135441278133
 31
0
  0
LINE
  5
E8
330
1F
100
AcDbEntity
  8
0
 62
7
100
AcDbLine
 10
576.05269783936251
 20
789.99135441278133
 30
0
 11
580.01767697913044
 21
775.779725228718
 31
0
  0
LINE
  5
E9
330
1F
100
AcDbEntity
  8
0
 62
7
100
AcDbLine
 10
580.01767697913044
 20
775.779725228718
 30
0
 11
583.88461002241093
 21
776.8456705431538
 31
0
  0
LINE
  5
EA
330
1F
100
AcDbEntity
  8
0
 62
7
100
AcDbLine
 10
583.88461002241093
 20
776.8456705431538
 30
0
 11
624.37732911529361
 21
636.2906951003481
 31
0
  0
LINE
  5
EB
330
1F
100
AcDbEntity
  8
0
 62
7
100
AcDbLine
 10
624.37732911529361
 20
636.2906951003481
 30
0
 11
619.55494194168773
 21
634.82834575376262
 31
0
  0
LINE
  5
EC
330
1F
100
AcDbEntity
  8
0
 62
7
100
AcDbLine
 10
619.55494194168773
 20
634.82834575376262
 30
0
 11
614.36498213962443
 21
652.44180050066927
 31
0
  0
LINE
  5
ED
330
1F
100
AcDbEntity
  8
0
 62
7
100
AcDbLine
 10
614.36498213962443
 20
652.44180050066927
 30
0
 11
611.5079997590592
 21
651.58398587634076
 31
0
  0
LINE
  5
EE
330
1F
100
AcDbEntity
  8
0
 62
7
100
AcDbLine
 10
611.5079997590592
 20
651.58398587634076
 30
0
 11
602.78004377840193
 21
681.687181768349
 31
0
  0
LINE
  5
EF
330
1F
100
AcDbEntity
  8
0
 62
7
100
AcDbLine
 10
602.78004377840193
 20
681.687181768349
 30
0
 11
605.6383135996042
 21
682.5856658793931
 31
0
  0
LINE
  5
F0
330
1F
100
AcDbEntity
  8
0
 62
7
100
AcDbLine
 10
605.6383135996042
 20
682.5856658793931
 30
0
 11
565.0428199032923
 21
823.16498441924841
 31
0
  0
LINE
  5
F1
330
1F
100
AcDbEntity
  8
0
 62
7
100
AcDbLine
 10
565.0428199032923
 20
823.16498441924841
 30
0
 11
509.73758378194611
 21
807.3365816293358
 31
0
  0
LINE
  5
F2
330
1F
100
AcDbEntity
  8
0
 62
7
100
AcDbLine
 10
509.73758378194611
 20
807.3365816293358
 30
0
 11
519.04592095044632
 21
774.67655437727717
 31
0
  0
LINE
  5
F3
330
1F
100
AcDbEntity
  8
0
 62
7
100
AcDbLine
 10
519.04592095044632
 20
774.67655437727717
 30
0
 11
514.24555896054642
 21
773.29318979747575
 31
0
  0
LINE
  5
F4
330
1F
100
AcDbEntity
  8
0
 62
7
100
AcDbLine
 10
514.24555896054642
 20
773.29318979747575
 30
0
 11
519.364782605652
 21
755.42296008519577
 31
0
  0
LINE
  5
F5
330
1F
100
AcDbEntity
  8
0
 62
7
100
AcDbLine
 10
519.364782605652
 20
755.42296008519577
 30
0
 11
524.17369494466959
 21
756.81711739835544
 31
0
  0
LINE
  5
F6
330
1F
100
AcDbEntity
  8
0
 62
7
100
AcDbLine
 10
524.17369494466959
 20
756.81711739835544
 30
0
 11
530.383875579029
 21
735.29039596330085
 31
0
  0
LINE
  5
F7
330
1F
100
AcDbEntity
  8
0
 62
7
100
AcDbLine
 10
530.383875579029
 20
735.29039596330085
 30
0
 11
525.48777437074114
 21
733.86799583185962
 31
0
  0
LINE
  5
F8
330
1F
100
AcDbEntity
  8
0
 62
7
100
AcDbLine
 10
525.48777437074114
 20
733.86799583185962
 30
0
 11
529.40333583782956
 21
720.83695521379218
 31
0
  0
LINE
  5
F9
330
1F
100
AcDbEntity
  8
0
 62
7
100
AcDbLine
 10
529.40333583782956
 20
720.83695521379218
 30
0
 11
534.14655618962672
 21
722.182603252238
 31
0
  0
LINE
  5
FA
330
1F
100
AcDbEntity
  8
0
 62
7
100
AcDbLine
 10
534.14655618962672
 20
722.182603252238
 30
0
 11
536.8419572073625
 21
712.6816932086665
 31
0
  0
LINE
  5
FB
330
1F
100
AcDbEntity
  8
0
 62
7
100
AcDbLine
 10
536.8419572073625
 20
712.6816932086665
 30
0
 11
570.75399646401661
 21
722.2201677916911
 31
0
  0
LINE
  5
FC
330
1F
100
AcDbEntity
  8
0
 62
7
100
AcDbLine
 10
570.75399646401661
 20
722.2201677916911
 30
0
 11
606.13621071431646
 21
600.76613758267922
 31
0
  0
LINE
  5
FD
330
1F
100
AcDbEntity
  8
0
 62
7
100
AcDbLine
 10
606.13621071431646
 20
600.76613758267922
 30
0
 11
572.20359351825437
 21
590.88900951907669
 31
0
  0
LINE
  5
FE
330
1F
100
AcDbEntity
  8
0
 62
7
100
AcDbLine
 10
572.20359351825437
 20
590.88900951907669
 30
0
 11
577.76770667319659
 21
571.67748197683363
 31
0
  0
LINE
  5
FF
330
1F
100
AcDbEntity
  8
0
 62
7
100
AcDbLine
 10
577.76770667319659
 20
571.67748197683363
 30
0
 11
572.95603918919551
 21
570.22723274261818
 31
0
  0
LINE
  5
100
330
1F
100
AcDbEntity
  8
0
 62
7
100
AcDbLine
 10
572.95603918919551
 20
570.22723274261818
 30
0
 11
576.8859232498902
 21
557.18858055469411
 31
0
  0
LINE
  5
101
330
1F
100
AcDbEntity
  8
0
 62
7
100
AcDbLine
 10
576.8859232498902
 20
557.18858055469411
 30
0
 11
581.66429781946613
 21
558.531127346929
 31
0
  0
LINE
  5
102
330
1F
100
AcDbEntity
  8
0
 62
7
100
AcDbLine
 10
581.66429781946613
 20
558.531127346929
 30
0
 11
584.32046864537131
 21
549.11730097819293
 31
0
  0
ARC
  5
103
330
1F
100
AcDbEntity
  8
0
 62
7
100
AcDbCircle
 10
548.11596662115551
 20
470.18592211849358
 30
0
 40
86.838519883257064
100
AcDbArc
 50
25.09575619575164
 51
65.359868762482492
  0
ARC
  5
104
330
1F
100
AcDbEntity
  8
0
 62
7
100
AcDbCircle
 10
378.86527505288461
 20
397.70266262477656
 30
0
 40
270.92414967394348
100
AcDbArc
 50
14.982974507798582
 51
23.796329225577626
  0
CIRCLE
  5
105
330
1F
100
AcDbEntity
  8
0
 62
7
100
AcDbCircle
 10
601.33017082863444
 20
770.73204346714488
 30
0
 40
2.0711633725284262
  0
CIRCLE
  5
106
330
1F
100
AcDbEntity
  8
0
 62
7
100
AcDbCircle
 10
690.07115845495446
 20
355.26566110700247
 30
0
 40
2.4890125239481731
  0
LINE
  5
107
330
1F
100
AcDbEntity
  8
0
 62
7
100
AcDbLine
 10
687.539218628699
 20
416.53659634397411
 30
0
 11
683.4996470544487
 21
415.35307660160566
 31
0
  0
ARC
  5
108
330
1F
100
AcDbEntity
  8
0
 62
7
100
AcDbCircle
 10
683.6402283863564
 20
414.87324653885526
 30
0
 40
0.5
100
AcDbArc
 50
106.32960837053754
 51
196.36238359528795
  0
LINE
  5
109
330
1F
100
AcDbEntity
  8
0
 62
7
100
AcDbLine
 10
683.1604788196322
 20
414.73239075009275
 30
0
 11
699.84998321325861
 21
357.88856081574886
 31
0
  0
ARC
  5
10A
330
1F
100
AcDbEntity
  8
0
 62
7
100
AcDbCircle
 10
700.32973277998292
 20
358.02941660451125
 30
0
 40
0.5
100
AcDbArc
 50
196.36238359527181
 51
285.30033267839872
  0
LINE
  5
10B
330
1F
100
AcDbEntity
  8
0
 62
7
100
AcDbLine
 10
700.46167210523436
 20
357.54713866135796
 30
0
 11
704.48981367476733
 21
358.64913863510128
 31
0
  0
ARC
  5
10C
330
1F
100
AcDbEntity
  8
0
 62
7
100
AcDbCircle
 10
704.35787434951783
 20
359.13141657825508
 30
0
 40
0.5
100
AcDbArc
 50
285.3003326781697
 51
16.329608370599288
  0
LINE
  5
10D
330
1F
100
AcDbEntity
  8
0
 62
7
100
AcDbLine
 10
704.83770441226807
 20
359.27199791016329
 30
0
 11
688.15963002335729
 21
416.19734761313168
 31
0
  0
ARC
  5
10E
330
1F
100
AcDbEntity
  8
0
 62
7
100
AcDbCircle
 10
687.67979996060694
 20
416.05676628122376
 30
0
 40
0.5
100
AcDbArc
 50
16.329608370564369
 51
106.32960837056437
  0
LINE
  5
10F
330
1F
100
AcDbEntity
  8
0
 62
7
100
AcDbLine
 10
564.85858662103931
 20
759.95782448457874
 30
0
 11
554.36850144362813
 21
756.925423349207
 31
0
  0
LINE
  5
110
330
1F
100
AcDbEntity
  8
0
 62
7
100
AcDbLine
 10
554.36850144362813
 20
756.925423349207
 30
0
 11
558.61214952909586
 21
741.56562995460263
 31
0
  0
LINE
  5
111
330
1F
100
AcDbEntity
  8
0
 62
7
100
AcDbLine
 10
558.61214952909586
 20
741.56562995460263
 30
0
 11
569.55250751597953
 21
744.6582119466691
 31
0
  0
LINE
  5
112
330
1F
100
AcDbEntity
  8
0
 62
7
100
AcDbLine
 10
569.55250751597953
 20
744.6582119466691
 30
0
 11
564.85858662103931
 21
759.95782448457874
 31
0
  0
LINE
  5
113
330
1F
100
AcDbEntity
  8
0
 62
7
100
AcDbLine
 10
613.59139062776433
 20
557.29723698138014
 30
0
 11
609.35437887419778
 21
571.65141801036975
 31
0
  0
LINE
  5
114
330
1F
100
AcDbEntity
  8
0
 62
7
100
AcDbLine
 10
609.35437887419778
 20
571.65141801036975
 30
0
 11
598.50828893822882
 21
568.476972003241
 31
0
  0
LINE
  5
115
330
1F
100
AcDbEntity
  8
0
 62
7
100
AcDbLine
 10
598.50828893822882
 20
568.476972003241
 30
0
 11
602.64096031813176
 21
554.28654391845373
 31
0
  0
LINE
  5
116
330
1F
100
AcDbEntity
  8
0
 62
7
100
AcDbLine
 10
602.64096031813176
 20
554.28654391845373
 30
0
 11
613.59139062776433
 21
557.29723698138014
 31
0
  0
LINE
  5
117
330
1F
100
AcDbEntity
  8
0
 62
7
100
AcDbLine
 10
721.92732104706636
 20
101.80901642787668
 30
0
 11
731.66598648545119
 21
126.51982203047436
 31
0
  0
ARC
  5
118
330
1F
100
AcDbEntity
  8
0
 62
7
100
AcDbCircle
 10
727.60168561289242
 20
127.77857909393468
 30
0
 40
4.2547633221477792
100
AcDbArc
 50
342.79169265875373
 51
70.250703630890243
  0
LINE
  5
119
330
1F
100
AcDbEntity
  8
0
 62
7
100
AcDbLine
 10
729.03939209275006
 20
131.78307793964174
 30
0
 11
547.60879630294767
 21
203.30372288863774
 31
0
  0
ARC
  5
11A
330
1F
100
AcDbEntity
  8
0
 62
7
100
AcDbCircle
 10
545.467863575077
 20
199.49110152679745
 30
0
 40
4.3726050123500562
100
AcDbArc
 50
60.684123236773779
 51
155.05076701191126
  0
LINE
  5
11B
330
1F
100
AcDbEntity
  8
0
 62
7
100
AcDbLine
 10
541.50330178613956
 20
201.33553217491803
 30
0
 11
532.10626960076775
 21
177.21110026818923
 31
0
  0
ARC
  5
11C
330
1F
100
AcDbEntity
  8
0
 62
7
100
AcDbCircle
 10
536.08028451367
 20
175.70520553427843
 30
0
 40
4.2497662850550011
100
AcDbArc
 50
159.246530795803
 51
251.58795446347565
  0
LINE
  5
11D
330
1F
100
AcDbEntity
  8
0
 62
7
100
AcDbLine
 10
534.73800213821937
 20
171.67298635594193
 30
0
 11
716.7553358713285
 21
100.23646498357232
 31
0
  0
ARC
  5
11E
330
1F
100
AcDbEntity
  8
0
 62
7
100
AcDbCircle
 10
718.3844011801516
 20
104.16999144871923
 30
0
 40
4.2575209021708771
100
AcDbArc
 50
247.50316673578709
 51
326.32081134321578
  0
ARC
  5
11F
330
1F
100
AcDbEntity
  8
0
 62
7
100
AcDbCircle
 10
715.65818908256529
 20
114.34453062314155
 30
0
 40
0.5
100
AcDbArc
 50
249.17658771882657
 51
338.715333790143
  0
LINE
  5
120
330
1F
100
AcDbEntity
  8
0
 62
7
100
AcDbLine
 10
716.1240832872528
 20
114.16302968639839
 30
0
 11
719.03676484204379
 21
121.63958314571576
 31
0
  0
ARC
  5
121
330
1F
100
AcDbEntity
  8
0
 62
7
100
AcDbCircle
 10
718.57087063735639
 20
121.82108408245898
 30
0
 40
0.5
100
AcDbArc
 50
338.71533379013215
 51
68.4458763838698
  0
LINE
  5
122
330
1F
100
AcDbEntity
  8
0
 62
7
100
AcDbLine
 10
718.754560621534
 20
122.28611955391553
 30
0
 11
706.62680260865932
 21
127.07660934282183
 31
0
  0
ARC
  5
123
330
1F
100
AcDbEntity
  8
0
 62
7
100
AcDbCircle
 10
706.44311262448161
 20
126.61157387136534
 30
0
 40
0.5
100
AcDbArc
 50
68.4458763838553
 51
160.45177114292557
  0
LINE
  5
124
330
1F
100
AcDbEntity
  8
0
 62
7
100
AcDbLine
 10
705.97193253724947
 20
126.77887397715131
 30
0
 11
703.23090860338243
 21
119.05911856995411
 31
0
  0
ARC
  5
125
330
1F
100
AcDbEntity
  8
0
 62
7
100
AcDbCircle
 10
703.70208869061457
 20
118.89181846416834
 30
0
 40
0.5
100
AcDbArc
 50
160.45177114294702
 51
249.17658771879991
  0
LINE
  5
126
330
1F
100
AcDbEntity
  8
0
 62
7
100
AcDbLine
 10
703.52434422935426
 20
118.42447821714131
 30
0
 11
715.4804446213052
 21
113.87719037611447
 31
0
  0
ARC
  5
127
330
1F
100
AcDbEntity
  8
0
 62
7
100
AcDbCircle
 10
557.19547115613443
 20
176.6677033596898
 30
0
 40
0.5
100
AcDbArc
 50
249.2813197343109
 51
339.09564974877026
  0
LINE
  5
128
330
1F
100
AcDbEntity
  8
0
 62
7
100
AcDbLine
 10
557.662559849067
 20
176.48929889524288
 30
0
 11
560.54787900550286
 21
184.0434817888775
 31
0
  0
ARC
  5
129
330
1F
100
AcDbEntity
  8
0
 62
7
100
AcDbCircle
 10
560.08079031257034
 20
184.22188625332441
 30
0
 40
0.5
100
AcDbArc
 50
339.09564974877026
 51
69.107827478457892
  0
LINE
  5
12A
330
1F
100
AcDbEntity
  8
0
 62
7
100
AcDbLine
 10
560.259095497267
 20
184.68901285405519
 30
0
 11
548.17075595759843
 21
189.30320868647507
 31
0
  0
ARC
  5
12B
330
1F
100
AcDbEntity
  8
0
 62
7
100
AcDbCircle
 10
547.99245077290061
 20
188.83608208574475
 30
0
 40
0.5
100
AcDbArc
 50
69.107827478317589
 51
159.45453735364316
  0
LINE
  5
12C
330
1F
100
AcDbEntity
  8
0
 62
7
100
AcDbLine
 10
547.524253765721
 20
189.01155733319598
 30
0
 11
544.6725603740781
 21
181.40276731435071
 31
0
  0
ARC
  5
12D
330
1F
100
AcDbEntity
  8
0
 62
7
100
AcDbCircle
 10
545.1407573812578
 20
181.22729206689965
 30
0
 40
0.5
100
AcDbArc
 50
159.45453735366604
 51
249.28131973429757
  0
LINE
  5
12E
330
1F
100
AcDbEntity
  8
0
 62
7
100
AcDbLine
 10
544.96386747635381
 20
180.75962769842258
 30
0
 11
557.01858125123056
 21
176.20003899121269
 31
0
  0
ARC
  5
12F
330
1F
100
AcDbEntity
  8
0
 62
7
100
AcDbCircle
 10
827.26340431716551
 20
646.67853078935627
 30
0
 40
270.92414967394348
100
AcDbArc
 50
195.4829552559271
 51
204.2963099737191
  0
ARC
  5
130
330
1F
100
AcDbEntity
  8
0
 62
7
100
AcDbCircle
 10
650.3624361570993
 20
595.63279671487339
 30
0
 40
86.838519883257064
100
AcDbArc
 50
153.91941571901737
 51
194.1835282857476
  0
LINE
  5
131
330
1F
100
AcDbEntity
  8
0
 62
7
100
AcDbLine
 10
572.3661091328803
 20
633.810034779536
 30
0
 11
568.46226573144452
 21
642.7786119829816
 31
0
  0
LINE
  5
132
330
1F
100
AcDbEntity
  8
0
 62
7
100
AcDbLine
 10
568.46226573144452
 20
642.7786119829816
 30
0
 11
573.01102590197843
 21
644.76458185371678
 31
0
  0
LINE
  5
133
330
1F
100
AcDbEntity
  8
0
 62
7
100
AcDbLine
 10
573.01102590197843
 20
644.76458185371678
 30
0
 11
567.798243616503
 21
657.345414117617
 31
0
  0
LINE
  5
134
330
1F
100
AcDbEntity
  8
0
 62
7
100
AcDbLine
 10
567.798243616503
 20
657.345414117617
 30
0
 11
563.15552589895026
 21
655.421735606779
 31
0
  0
LINE
  5
135
330
1F
100
AcDbEntity
  8
0
 62
7
100
AcDbLine
 10
563.15552589895026
 20
655.421735606779
 30
0
 11
555.29969611164051
 21
673.81543246358785
 31
0
  0
LINE
  5
136
330
1F
100
AcDbEntity
  8
0
 62
7
100
AcDbLine
 10
555.29969611164051
 20
673.81543246358785
 30
0
 11
522.78028349337535
 21
659.978237244822
 31
0
  0
LINE
  5
137
330
1F
100
AcDbEntity
  8
0
 62
7
100
AcDbLine
 10
522.78028349337535
 20
659.978237244822
 30
0
 11
473.27589078427889
 21
776.39257331117255
 31
0
  0
LINE
  5
138
330
1F
100
AcDbEntity
  8
0
 62
7
100
AcDbLine
 10
473.27589078427889
 20
776.39257331117255
 30
0
 11
505.56497278140608
 21
790.47888183039379
 31
0
  0
LINE
  5
139
330
1F
100
AcDbEntity
  8
0
 62
7
100
AcDbLine
 10
505.56497278140608
 20
790.47888183039379
 30
0
 11
501.63636349598221
 21
799.53970449640656
 31
0
  0
LINE
  5
13A
330
1F
100
AcDbEntity
  8
0
 62
7
100
AcDbLine
 10
501.63636349598221
 20
799.53970449640656
 30
0
 11
506.15987527289258
 21
801.50101761603673
 31
0
  0
LINE
  5
13B
330
1F
100
AcDbEntity
  8
0
 62
7
100
AcDbLine
 10
506.15987527289258
 20
801.50101761603673
 30
0
 11
500.94082520224663
 21
814.06689034945066
 31
0
  0
LINE
  5
13C
330
1F
100
AcDbEntity
  8
0
 62
7
100
AcDbLine
 10
500.94082520224663
 20
814.06689034945066
 30
0
 11
496.25038123871815
 21
812.06819962782583
 31
0
  0
LINE
  5
13D
330
1F
100
AcDbEntity
  8
0
 62
7
100
AcDbLine
 10
496.25038123871815
 20
812.06819962782583
 30
0
 11
487.42890068713183
 21
832.66304267485566
 31
0
  0
LINE
  5
13E
330
1F
100
AcDbEntity
  8
0
 62
7
100
AcDbLine
 10
487.42890068713183
 20
832.66304267485566
 30
0
 11
492.03397387801488
 21
834.62839592676642
 31
0
  0
LINE
  5
13F
330
1F
100
AcDbEntity
  8
0
 62
7
100
AcDbLine
 10
492.03397387801488
 20
834.62839592676642
 30
0
 11
484.68294590072463
 21
851.70217548418589
 31
0
  0
LINE
  5
140
330
1F
100
AcDbEntity
  8
0
 62
7
100
AcDbLine
 10
484.68294590072463
 20
851.70217548418589
 30
0
 11
480.09132416218426
 21
849.73388114519594
 31
0
  0
LINE
  5
141
330
1F
100
AcDbEntity
  8
0
 62
7
100
AcDbLine
 10
480.09132416218426
 20
849.73388114519594
 30
0
 11
466.61952347766947
 21
880.90811902304017
 31
0
  0
LINE
  5
142
330
1F
100
AcDbEntity
  8
0
 62
7
100
AcDbLine
 10
466.61952347766947
 20
880.90811902304017
 30
0
 11
413.78846741400383
 21
858.14659463394628
 31
0
  0
LINE
  5
143
330
1F
100
AcDbEntity
  8
0
 62
7
100
AcDbLine
 10
413.78846741400383
 20
858.14659463394628
 30
0
 11
471.36566133000719
 21
723.62743001292927
 31
0
  0
LINE
  5
144
330
1F
100
AcDbEntity
  8
0
 62
7
100
AcDbLine
 10
471.36566133000719
 20
723.62743001292927
 30
0
 11
474.14699108178678
 21
724.7415147854914
 31
0
  0
LINE
  5
145
330
1F
100
AcDbEntity
  8
0
 62
7
100
AcDbLine
 10
474.14699108178678
 20
724.7415147854914
 30
0
 11
486.44931433613829
 21
695.9138811493716
 31
0
  0
LINE
  5
146
330
1F
100
AcDbEntity
  8
0
 62
7
100
AcDbLine
 10
486.44931433613829
 20
695.9138811493716
 30
0
 11
483.69472904703457
 21
694.76913046137975
 31
0
  0
LINE
  5
147
330
1F
100
AcDbEntity
  8
0
 62
7
100
AcDbLine
 10
483.69472904703457
 20
694.76913046137975
 30
0
 11
490.82843784747388
 21
677.8493293508792
 31
0
  0
LINE
  5
148
330
1F
100
AcDbEntity
  8
0
 62
7
100
AcDbLine
 10
490.82843784747388
 20
677.8493293508792
 30
0
 11
486.16976175498758
 21
675.92823051716209
 31
0
  0
LINE
  5
149
330
1F
100
AcDbEntity
  8
0
 62
7
100
AcDbLine
 10
486.16976175498758
 20
675.92823051716209
 30
0
 11
428.52842482819528
 21
810.36348518852742
 31
0
  0
LINE
  5
14A
330
1F
100
AcDbEntity
  8
0
 62
7
100
AcDbLine
 10
428.52842482819528
 20
810.36348518852742
 30
0
 11
432.19654953661745
 21
811.98652914912884
 31
0
  0
LINE
  5
14B
330
1F
100
AcDbEntity
  8
0
 62
7
100
AcDbLine
 10
432.19654953661745
 20
811.98652914912884
 30
0
 11
426.26832030610308
 21
825.49754546303336
 31
0
  0
LINE
  5
14C
330
1F
100
AcDbEntity
  8
0
 62
7
100
AcDbLine
 10
426.26832030610308
 20
825.49754546303336
 30
0
 11
422.64757330808004
 21
823.90887014126019
 31
0
  0
LINE
  5
14D
330
1F
100
AcDbEntity
  8
0
 62
7
100
AcDbLine
 10
422.64757330808004
 20
823.90887014126019
 30
0
 11
408.87329559840884
 21
855.86602943463936
 31
0
  0
LINE
  5
14E
330
1F
100
AcDbEntity
  8
0
 62
7
100
AcDbLine
 10
408.87329559840884
 20
855.86602943463936
 30
0
 11
389.40395087285469
 21
847.55590315559107
 31
0
  0
LINE
  5
14F
330
1F
100
AcDbEntity
  8
0
 62
7
100
AcDbLine
 10
389.40395087285469
 20
847.55590315559107
 30
0
 11
404.97702370318711
 21
806.6309365631098
 31
0
  0
ARC
  5
150
330
1F
100
AcDbEntity
  8
0
 62
7
100
AcDbCircle
 10
-311.11460851965847
 20
556.3859750127333
 30
0
 40
758.55768832761066
100
AcDbArc
 50
8.7012741530206217
 51
19.262448388581877
  0
LINE
  5
151
330
1F
100
AcDbEntity
  8
0
 62
7
100
AcDbLine
 10
438.71247739011358
 20
671.14270796112237
 30
0
 11
450.5357983031613
 21
581.00312852112063
 31
0
  0
ARC
  5
152
330
1F
100
AcDbEntity
  8
0
 62
7
100
AcDbCircle
 10
647.701409718205
 20
629.537327725267
 30
0
 40
203.05134034784351
100
AcDbArc
 50
193.82895938793146
 51
207.69857779842826
  0
ARC
  5
153
330
1F
100
AcDbEntity
  8
0
 62
7
100
AcDbCircle
 10
653.6872776759833
 20
632.78393043056383
 30
0
 40
209.8603650955209
100
AcDbArc
 50
207.7237520913001
 51
224.48622311285851
  0
LINE
  5
154
330
1F
100
AcDbEntity
  8
0
 62
7
100
AcDbLine
 10
503.96891350947919
 20
485.72685216048723
 30
0
 11
535.373198145315
 21
451.91471299378657
 31
0
  0
LINE
  5
155
330
1F
100
AcDbEntity
  8
0
 62
7
100
AcDbLine
 10
535.373198145315
 20
451.91471299378657
 30
0
 11
545.063195595108
 21
440.83866062842856
 31
0
  0
LINE
  5
156
330
1F
100
AcDbEntity
  8
0
 62
7
100
AcDbLine
 10
545.063195595108
 20
440.83866062842856
 30
0
 11
551.72524501724422
 21
433.08630645675919
 31
0
  0
LINE
  5
157
330
1F
100
AcDbEntity
  8
0
 62
7
100
AcDbLine
 10
551.72524501724422
 20
433.08630645675919
 30
0
 11
559.661571208708
 21
423.68539615315473
 31
0
  0
LINE
  5
158
330
1F
100
AcDbEntity
  8
0
 62
7
100
AcDbLine
 10
559.661571208708
 20
423.68539615315473
 30
0
 11
582.44340341381053
 21
397.0811863768576
 31
0
  0
LINE
  5
159
330
1F
100
AcDbEntity
  8
0
 62
7
100
AcDbLine
 10
582.44340341381053
 20
397.0811863768576
 30
0
 11
603.12128145917609
 21
377.19143158148188
 31
0
  0
LINE
  5
15A
330
1F
100
AcDbEntity
  8
0
 62
7
100
AcDbLine
 10
603.12128145917609
 20
377.19143158148188
 30
0
 11
615.37108715469378
 21
367.19771255867471
 31
0
  0
ARC
  5
15B
330
1F
100
AcDbEntity
  8
0
 62
7
100
AcDbCircle
 10
618.62350168845285
 20
371.7961754742073
 30
0
 40
5.6324116934875654
100
AcDbArc
 50
234.72888074808353
 51
297.552091559651
  0
ARC
  5
15C
330
1F
100
AcDbEntity
  8
0
 62
7
100
AcDbCircle
 10
618.296251880963
 20
372.78596874056223
 30
0
 40
6.6634346786556069
100
AcDbArc
 50
296.10999010945829
 51
341.6268877083798
  0
LINE
  5
15D
330
1F
100
AcDbEntity
  8
0
 62
7
100
AcDbLine
 10
624.62001154422012
 20
370.68562937796548
 30
0
 11
626.48107226878665
 21
377.30089806212646
 31
0
  0
LINE
  5
15E
330
1F
100
AcDbEntity
  8
0
 62
7
100
AcDbLine
 10
626.48107226878665
 20
377.30089806212646
 30
0
 11
627.80512378421349
 21
384.3527462594592
 31
0
  0
LINE
  5
15F
330
1F
100
AcDbEntity
  8
0
 62
7
100
AcDbLine
 10
627.80512378421349
 20
384.3527462594592
 30
0
 11
628.60186981794629
 21
391.90734127931944
 31
0
  0
LINE
  5
160
330
1F
100
AcDbEntity
  8
0
 62
7
100
AcDbLine
 10
628.60186981794629
 20
391.90734127931944
 30
0
 11
628.83959655886463
 21
397.01632575034341
 31
0
  0
LINE
  5
161
330
1F
100
AcDbEntity
  8
0
 62
7
100
AcDbLine
 10
628.83959655886463
 20
397.01632575034341
 30
0
 11
628.75627177718638
 21
402.36625749798623
 31
0
  0
LINE
  5
162
330
1F
100
AcDbEntity
  8
0
 62
7
100
AcDbLine
 10
628.75627177718638
 20
402.36625749798623
 30
0
 11
627.55908813554208
 21
412.765797336871
 31
0
  0
LINE
  5
163
330
1F
100
AcDbEntity
  8
0
 62
7
100
AcDbLine
 10
627.55908813554208
 20
412.765797336871
 30
0
 11
624.794202412546
 21
425.52405504339617
 31
0
  0
LINE
  5
164
330
1F
100
AcDbEntity
  8
0
 62
7
100
AcDbLine
 10
624.794202412546
 20
425.52405504339617
 30
0
 11
621.51584572926549
 21
437.43700085329897
 31
0
  0
LINE
  5
165
330
1F
100
AcDbEntity
  8
0
 62
7
100
AcDbLine
 10
621.51584572926549
 20
437.43700085329897
 30
0
 11
618.98129645498852
 21
445.55624470641885
 31
0
  0
LINE
  5
166
330
1F
100
AcDbEntity
  8
0
 62
7
100
AcDbLine
 10
618.98129645498852
 20
445.55624470641885
 30
0
 11
612.288148123057
 21
464.47511657229904
 31
0
  0
LINE
  5
167
330
1F
100
AcDbEntity
  8
0
 62
7
100
AcDbLine
 10
612.288148123057
 20
464.47511657229904
 30
0
 11
601.567606005228
 21
488.36299270997233
 31
0
  0
LINE
  5
168
330
1F
100
AcDbEntity
  8
0
 62
7
100
AcDbLine
 10
601.567606005228
 20
488.36299270997233
 30
0
 11
580.33506684719066
 21
535.20525582686344
 31
0
  0
CIRCLE
  5
169
330
1F
100
AcDbEntity
  8
0
 62
7
100
AcDbCircle
 10
418.89489791783944
 20
794.58631221186124
 30
0
 40
2.0711633725284262
  0
CIRCLE
  5
16A
330
1F
100
AcDbEntity
  8
0
 62
7
100
AcDbCircle
 10
613.23543745794734
 20
416.804586280632
 30
0
 40
2.4890125239481731
  0
ARC
  5
16B
330
1F
100
AcDbEntity
  8
0
 62
7
100
AcDbCircle
 10
576.59960203419473
 20
465.37507759537351
 30
0
 40
0.5
100
AcDbArc
 50
112.94967611080156
 51
202.94967611090928
  0
LINE
  5
16C
330
1F
100
AcDbEntity
  8
0
 62
7
100
AcDbLine
 10
576.13917819201447
 20
465.18011635422056
 30
0
 11
599.26869360324554
 21
410.55705235219932
 31
0
  0
ARC
  5
16D
330
1F
100
AcDbEntity
  8
0
 62
7
100
AcDbCircle
 10
599.72911744542569
 20
410.75201359335244
 30
0
 40
0.5
100
AcDbArc
 50
202.94967611093236
 51
293.9789518034238
  0
LINE
  5
16E
330
1F
100
AcDbEntity
  8
0
 62
7
100
AcDbLine
 10
599.93231795306349
 20
410.29516618590026
 30
0
 11
603.74805545260188
 21
411.99236263326685
 31
0
  0
ARC
  5
16F
330
1F
100
AcDbEntity
  8
0
 62
7
100
AcDbCircle
 10
603.54485494496555
 20
412.44921004071961
 30
0
 40
0.5
100
AcDbArc
 50
293.97895180324258
 51
22.9169008862239
  0
LINE
  5
170
330
1F
100
AcDbEntity
  8
0
 62
7
100
AcDbLine
 10
604.00539023657609
 20
412.64390787116747
 30
0
 11
580.93633269030249
 21
467.21110628226609
 31
0
  0
ARC
  5
171
330
1F
100
AcDbEntity
  8
0
 62
7
100
AcDbCircle
 10
580.47579739869184
 20
467.01640845181834
 30
0
 40
0.5
100
AcDbArc
 50
22.916900886206832
 51
112.94967611088369
  0
LINE
  5
172
330
1F
100
AcDbEntity
  8
0
 62
7
100
AcDbLine
 10
580.280836157539
 20
467.47683229399877
 30
0
 11
576.40464079304263
 21
465.83550143755417
 31
0
  0
LINE
  5
173
330
1F
100
AcDbEntity
  8
0
 62
7
100
AcDbLine
 10
453.94759579868611
 20
809.33651968735558
 30
0
 11
460.00037709627304
 21
794.52183522423934
 31
0
  0
LINE
  5
174
330
1F
100
AcDbEntity
  8
0
 62
7
100
AcDbLine
 10
460.00037709627304
 20
794.52183522423934
 30
0
 11
470.42688771377919
 21
799.05431496515735
 31
0
  0
LINE
  5
175
330
1F
100
AcDbEntity
  8
0
 62
7
100
AcDbLine
 10
470.42688771377919
 20
799.05431496515735
 30
0
 11
463.98746355721784
 21
813.63051538673926
 31
0
  0
LINE
  5
176
330
1F
100
AcDbEntity
  8
0
 62
7
100
AcDbLine
 10
463.98746355721784
 20
813.63051538673926
 30
0
 11
453.94759579868611
 21
809.33651968735558
 31
0
  0
LINE
  5
177
330
1F
100
AcDbEntity
  8
0
 62
7
100
AcDbLine
 10
544.52966508439056
 20
621.61041964418268
 30
0
 11
554.912128409601
 21
626.21266387780793
 31
0
  0
LINE
  5
178
330
1F
100
AcDbEntity
  8
0
 62
7
100
AcDbLine
 10
554.912128409601
 20
626.21266387780793
 30
0
 11
549.12712700876671
 21
639.81343520726318
 31
0
  0
LINE
  5
179
330
1F
100
AcDbEntity
  8
0
 62
7
100
AcDbLine
 10
549.12712700876671
 20
639.81343520726318
 30
0
 11
538.72175818871506
 21
635.40400507742049
 31
0
  0
LINE
  5
17A
330
1F
100
AcDbEntity
  8
0
 62
7
100
AcDbLine
 10
538.72175818871506
 20
635.40400507742049
 30
0
 11
544.52966508439056
 21
621.61041964418268
 31
0
  0
LINE
  5
17B
330
1F
100
AcDbEntity
  8
0
 62
7
100
AcDbLine
 10
5.0053634657849093
 20
752.9547871823537
 30
0
 11
58.674916492162495
 21
656.13235059003364
 31
0
  0
LINE
  5
17C
330
1F
100
AcDbEntity
  8
0
 62
7
100
AcDbLine
 10
58.674916492162495
 20
656.13235059003364
 30
0
 11
92.258779607197
 21
655.54614208931571
 31
0
  0
LINE
  5
17D
330
1F
100
AcDbEntity
  8
0
 62
7
100
AcDbLine
 10
92.258779607197
 20
655.54614208931571
 30
0
 11
92.3276846986179
 21
659.493712203646
 31
0
  0
LINE
  5
17E
330
1F
100
AcDbEntity
  8
0
 62
7
100
AcDbLine
 10
92.3276846986179
 20
659.493712203646
 30
0
 11
110.59944178226003
 21
659.17477750310854
 31
0
  0
LINE
  5
17F
330
1F
100
AcDbEntity
  8
0
 62
7
100
AcDbLine
 10
110.59944178226003
 20
659.17477750310854
 30
0
 11
110.53053669083992
 21
655.2272073887782
 31
0
  0
LINE
  5
180
330
1F
100
AcDbEntity
  8
0
 62
7
100
AcDbLine
 10
110.53053669083992
 20
655.2272073887782
 30
0
 11
196.44384270716245
 21
653.72758508091408
 31
0
  0
LINE
  5
181
330
1F
100
AcDbEntity
  8
0
 62
7
100
AcDbLine
 10
196.44384270716245
 20
653.72758508091408
 30
0
 11
196.51070013029184
 21
657.557844355272
 31
0
  0
LINE
  5
182
330
1F
100
AcDbEntity
  8
0
 62
7
100
AcDbLine
 10
196.51070013029184
 20
657.557844355272
 30
0
 11
226.74373629352115
 21
657.03012475551475
 31
0
  0
LINE
  5
183
330
1F
100
AcDbEntity
  8
0
 62
7
100
AcDbLine
 10
226.74373629352115
 20
657.03012475551475
 30
0
 11
226.67687887039185
 21
653.19986548115594
 31
0
  0
LINE
  5
184
330
1F
100
AcDbEntity
  8
0
 62
7
100
AcDbLine
 10
226.67687887039185
 20
653.19986548115594
 30
0
 11
281.1386961454761
 21
652.24923094153041
 31
0
  0
LINE
  5
185
330
1F
100
AcDbEntity
  8
0
 62
7
100
AcDbLine
 10
281.1386961454761
 20
652.24923094153041
 30
0
 11
285.12882391626374
 21
880.84350192445265
 31
0
  0
LINE
  5
186
330
1F
100
AcDbEntity
  8
0
 62
7
100
AcDbLine
 10
285.12882391626374
 20
880.84350192445265
 30
0
 11
282.32925036981015
 21
880.8923686616024
 31
0
  0
ARC
  5
187
330
1F
100
AcDbEntity
  8
0
 62
7
100
AcDbCircle
 10
281.48470456814641
 20
881.39982297442691
 30
0
 40
0.98527533751339424
100
AcDbArc
 50
209.00000001790005
 51
329.00000001795934
  0
LINE
  5
188
330
1F
100
AcDbEntity
  8
0
 62
7
100
AcDbLine
 10
280.62296334114797
 20
880.92215201193972
 30
0
 11
229.29199085860125
 21
881.8181374534106
 31
0
  0
LINE
  5
189
330
1F
100
AcDbEntity
  8
0
 62
7
100
AcDbLine
 10
229.29199085860125
 20
881.8181374534106
 30
0
 11
229.22013243233752
 21
877.70137089621608
 31
0
  0
LINE
  5
18A
330
1F
100
AcDbEntity
  8
0
 62
7
100
AcDbLine
 10
229.22013243233752
 20
877.70137089621608
 30
0
 11
199.06225559227707
 21
878.22777858513189
 31
0
  0
LINE
  5
18B
330
1F
100
AcDbEntity
  8
0
 62
7
100
AcDbLine
 10
199.06225559227707
 20
878.22777858513189
 30
0
 11
199.13411401854069
 21
882.34454514232652
 31
0
  0
LINE
  5
18C
330
1F
100
AcDbEntity
  8
0
 62
7
100
AcDbLine
 10
199.13411401854069
 20
882.34454514232652
 30
0
 11
113.31902876345821
 21
883.84245300045643
 31
0
  0
LINE
  5
18D
330
1F
100
AcDbEntity
  8
0
 62
7
100
AcDbLine
 10
113.31902876345821
 20
883.84245300045643
 30
0
 11
113.24879120970601
 21
879.81854616889586
 31
0
  0
LINE
  5
18E
330
1F
100
AcDbEntity
  8
0
 62
7
100
AcDbLine
 10
113.24879120970601
 20
879.81854616889586
 30
0
 11
95.101266392455045
 21
880.13531238719622
 31
0
  0
LINE
  5
18F
330
1F
100
AcDbEntity
  8
0
 62
7
100
AcDbLine
 10
95.101266392455045
 20
880.13531238719622
 30
0
 11
95.171503946207523
 21
884.15921921875679
 31
0
  0
LINE
  5
190
330
1F
100
AcDbEntity
  8
0
 62
7
100
AcDbLine
 10
95.171503946207523
 20
884.15921921875679
 30
0
 11
61.247619394254841
 21
884.75136281562686
 31
0
  0
LINE
  5
191
330
1F
100
AcDbEntity
  8
0
 62
7
100
AcDbLine
 10
61.247619394254841
 20
884.75136281562686
 30
0
 11
5.6451084608583137
 21
789.60575405975555
 31
0
  0
LINE
  5
192
330
1F
100
AcDbEntity
  8
0
 62
7
100
AcDbLine
 10
5.6451084608583137
 20
789.60575405975555
 30
0
 11
5.0053634657849093
 21
752.9547871823537
 31
0
  0
ARC
  5
193
330
1F
100
AcDbEntity
  8
0
 62
7
100
AcDbCircle
 10
129.66660736608196
 20
857.63338054956284
 30
0
 40
4.9999999997898241
100
AcDbArc
 50
359.00000001549131
 51
89.00000002030832
  0
LINE
  5
194
330
1F
100
AcDbEntity
  8
0
 62
7
100
AcDbLine
 10
129.75386939649275
 20
862.63261902516558
 30
0
 11
111.58061339952788
 21
862.94983438287045
 31
0
  0
ARC
  5
195
330
1F
100
AcDbEntity
  8
0
 62
7
100
AcDbCircle
 10
111.4933513686365
 20
857.95059590733786
 30
0
 40
4.9999999997279652
100
AcDbArc
 50
89.0000000147879
 51
179.00000002100606
  0
LINE
  5
196
330
1F
100
AcDbEntity
  8
0
 62
7
100
AcDbLine
 10
106.49411289309454
 20
858.03785793768668
 30
0
 11
103.40358874638937
 21
680.98184498409023
 31
0
  0
ARC
  5
197
330
1F
100
AcDbEntity
  8
0
 62
7
100
AcDbCircle
 10
108.40282722244973
 20
680.89458295370821
 30
0
 40
5.0000000002468736
100
AcDbArc
 50
179.0000000207294
 51
269.00000001507442
  0
LINE
  5
198
330
1F
100
AcDbEntity
  8
0
 62
7
100
AcDbLine
 10
108.31556519157429
 20
675.89534447765641
 30
0
 11
126.48882118853888
 21
675.57812911995154
 31
0
  0
ARC
  5
199
330
1F
100
AcDbEntity
  8
0
 62
7
100
AcDbCircle
 10
126.57608321892332
 20
680.57736759600937
 30
0
 40
5.0000000002444223
100
AcDbArc
 50
269.00000002070118
 51
359.00000001510017
  0
LINE
  5
19A
330
1F
100
AcDbEntity
  8
0
 62
7
100
AcDbLine
 10
131.57532169497267
 20
680.49010556513622
 30
0
 11
134.66584584167737
 21
857.54611851873176
 31
0
  0
ARC
  5
19B
330
1F
100
AcDbEntity
  8
0
 62
7
100
AcDbCircle
 10
34.104028930782349
 20
774.24100911564858
 30
0
 40
0.99999999979955878
100
AcDbArc
 50
359.00000000633855
 51
89.0000000293842
  0
LINE
  5
19C
330
1F
100
AcDbEntity
  8
0
 62
7
100
AcDbLine
 10
34.121481336703361
 20
775.24085681061354
 30
0
 11
17.098021086164312
 21
775.53800240926955
 31
0
  0
ARC
  5
19D
330
1F
100
AcDbEntity
  8
0
 62
7
100
AcDbCircle
 10
17.080568679827238
 20
774.53815471432745
 30
0
 40
0.99999999978404375
100
AcDbArc
 50
89.000000005526388
 51
179.00000003034955
  0
LINE
  5
19E
330
1F
100
AcDbEntity
  8
0
 62
7
100
AcDbLine
 10
16.080720984877527
 20
774.55560712023134
 30
0
 11
15.959788249828222
 21
767.62737524531315
 31
0
  0
ARC
  5
19F
330
1F
100
AcDbEntity
  8
0
 62
7
100
AcDbCircle
 10
16.959635946172828
 20
767.60992284032909
 30
0
 40
1.0000000011626702
100
AcDbArc
 50
179.00000008443931
 51
268.99999995127075
  0
LINE
  5
1A0
330
1F
100
AcDbEntity
  8
0
 62
7
100
AcDbLine
 10
16.942183538864896
 20
766.610075144025
 30
0
 11
33.965643789403941
 21
766.31292954536889
 31
0
  0
ARC
  5
1A1
330
1F
100
AcDbEntity
  8
0
 62
7
100
AcDbCircle
 10
33.983096194359206
 20
767.3127772417422
 30
0
 40
1.0000000011908465
100
AcDbArc
 50
269.00000008611738
 51
358.99999994974854
  0
LINE
  5
1A2
330
1F
100
AcDbEntity
  8
0
 62
7
100
AcDbLine
 10
34.982943890690954
 20
767.29532483440721
 30
0
 11
35.103876625740263
 21
774.22355670932541
 31
0
  0
LINE
  5
1A3
330
1F
100
AcDbEntity
  8
0
 62
7
100
AcDbLine
 10
87.535445368764925
 20
625.9084257790995
 30
0
 11
76.105972398536736
 21
453.02506866314303
 31
0
  0
LINE
  5
1A4
330
1F
100
AcDbEntity
  8
0
 62
7
100
AcDbLine
 10
76.105972398536736
 20
453.02506866314303
 30
0
 11
128.29412800907915
 21
454.622494256265
 31
0
  0
LINE
  5
1A5
330
1F
100
AcDbEntity
  8
0
 62
7
100
AcDbLine
 10
128.29412800907915
 20
454.622494256265
 30
0
 11
261.42377870711567
 21
643.6064319165381
 31
0
  0
LINE
  5
1A6
330
1F
100
AcDbEntity
  8
0
 62
7
100
AcDbLine
 10
261.42377870711567
 20
643.6064319165381
 30
0
 11
261.31971238416463
 21
647.57797097399293
 31
0
  0
LINE
  5
1A7
330
1F
100
AcDbEntity
  8
0
 62
7
100
AcDbLine
 10
261.31971238416463
 20
647.57797097399293
 30
0
 11
243.02882355591294
 21
647.2277908917365
 31
0
  0
ARC
  5
1A8
330
1F
100
AcDbEntity
  8
0
 62
7
100
AcDbCircle
 10
242.98435515503317
 20
646.81855791275154
 30
0
 40
0.41164191934945138
100
AcDbArc
 50
83.79841248158543
 51
191.40437104339389
  0
LINE
  5
1A9
330
1F
100
AcDbEntity
  8
0
 62
7
100
AcDbLine
 10
242.58084065559302
 20
646.73716308179
 30
0
 11
242.63996851902832
 21
643.16112963229261
 31
0
  0
ARC
  5
1AA
330
1F
100
AcDbEntity
  8
0
 62
7
100
AcDbCircle
 10
241.94350607521085
 20
642.91195797736361
 30
0
 40
0.73969348332145235
100
AcDbArc
 50
257.59797833095917
 51
19.685560610967862
  0
LINE
  5
1AB
330
1F
100
AcDbEntity
  8
0
 62
7
100
AcDbLine
 10
241.78464226209442
 20
642.18952546276432
 30
0
 11
102.9083888340222
 21
638.05882205889247
 31
0
  0
ARC
  5
1AC
330
1F
100
AcDbEntity
  8
0
 62
7
100
AcDbCircle
 10
102.90805811313778
 20
638.80628114197668
 30
0
 40
0.74745915624963755
100
AcDbArc
 50
197.20691043023342
 51
270.02535109956705
  0
LINE
  5
1AD
330
1F
100
AcDbEntity
  8
0
 62
7
100
AcDbLine
 10
102.19405321813352
 20
638.58516533482725
 30
0
 11
102.06251472224025
 21
641.95346062257238
 31
0
  0
ARC
  5
1AE
330
1F
100
AcDbEntity
  8
0
 62
7
100
AcDbCircle
 10
101.06327637853681
 20
641.91443841770388
 30
0
 40
0.99999999999999956
100
AcDbArc
 50
2.2363754582453672
 51
92.236375458115631
  0
LINE
  5
1AF
330
1F
100
AcDbEntity
  8
0
 62
7
100
AcDbLine
 10
101.02425417367057
 20
642.91367676140749
 30
0
 11
89.527094984612475
 21
642.46469028676972
 31
0
  0
ARC
  5
1B0
330
1F
100
AcDbEntity
  8
0
 62
7
100
AcDbCircle
 10
89.566117189479428
 20
641.46545194306623
 30
0
 40
0.99999999999999956
100
AcDbArc
 50
92.236375458156573
 51
176.21762896769602
  0
LINE
  5
1B1
330
1F
100
AcDbEntity
  8
0
 62
7
100
AcDbLine
 10
88.5682953770306
 20
641.531418833256
 30
0
 11
87.8154214250272
 21
630.14337175123148
 31
0
  0
LINE
  5
1B2
330
1F
100
AcDbEntity
  8
0
 62
7
100
AcDbLine
 10
87.8154214250272
 20
630.14337175123148
 30
0
 11
87.728543444692235
 21
628.82924668711883
 31
0
  0
LINE
  5
1B3
330
1F
100
AcDbEntity
  8
0
 62
7
100
AcDbLine
 10
87.728543444692235
 20
628.82924668711883
 30
0
 11
87.627547903702578
 21
627.30157798136213
 31
0
  0
LINE
  5
1B4
330
1F
100
AcDbEntity
  8
0
 62
7
100
AcDbLine
 10
87.627547903702578
 20
627.30157798136213
 30
0
 11
87.535445368764925
 21
625.9084257790995
 31
0
  0
LINE
  5
1B5
330
1F
100
AcDbEntity
  8
0
 62
7
100
AcDbLine
 10
261.32216446578491
 20
476.90675752895737
 30
0
 11
183.74761585713281
 21
489.42008849848656
 31
0
  0
LINE
  5
1B6
330
1F
100
AcDbEntity
  8
0
 62
7
100
AcDbLine
 10
183.74761585713281
 20
489.42008849848656
 30
0
 11
157.1391604866028
 21
469.26914913714234
 31
0
  0
LINE
  5
1B7
330
1F
100
AcDbEntity
  8
0
 62
7
100
AcDbLine
 10
157.1391604866028
 20
469.26914913714234
 30
0
 11
154.24688498840464
 21
473.08827548817987
 31
0
  0
LINE
  5
1B8
330
1F
100
AcDbEntity
  8
0
 62
7
100
AcDbLine
 10
154.24688498840464
 20
473.08827548817987
 30
0
 11
139.25210169865773
 21
461.43606056086992
 31
0
  0
LINE
  5
1B9
330
1F
100
AcDbEntity
  8
0
 62
7
100
AcDbLine
 10
139.25210169865773
 20
461.43606056086992
 30
0
 11
142.16338821303475
 21
457.53965553909467
 31
0
  0
LINE
  5
1BA
330
1F
100
AcDbEntity
  8
0
 62
7
100
AcDbLine
 10
142.16338821303475
 20
457.53965553909467
 30
0
 11
74.5074833644419
 21
405.79302523336662
 31
0
  0
LINE
  5
1BB
330
1F
100
AcDbEntity
  8
0
 62
7
100
AcDbLine
 10
74.5074833644419
 20
405.79302523336662
 30
0
 11
71.640155749761789
 21
409.63059658257873
 31
0
  0
LINE
  5
1BC
330
1F
100
AcDbEntity
  8
0
 62
7
100
AcDbLine
 10
71.640155749761789
 20
409.63059658257873
 30
0
 11
46.776326211562491
 21
390.61709305521174
 31
0
  0
LINE
  5
1BD
330
1F
100
AcDbEntity
  8
0
 62
7
100
AcDbLine
 10
46.776326211562491
 20
390.61709305521174
 30
0
 11
49.810362975654471
 21
386.65631677308545
 31
0
  0
LINE
  5
1BE
330
1F
100
AcDbEntity
  8
0
 62
7
100
AcDbLine
 10
49.810362975654471
 20
386.65631677308545
 30
0
 11
5.0137526776327377
 21
352.35118050820211
 31
0
  0
LINE
  5
1BF
330
1F
100
AcDbEntity
  8
0
 62
7
100
AcDbLine
 10
5.0137526776327377
 20
352.35118050820211
 30
0
 11
20.334224496722754
 21
291.53675289675277
 31
0
  0
LINE
  5
1C0
330
1F
100
AcDbEntity
  8
0
 62
7
100
AcDbLine
 10
20.334224496722754
 20
291.53675289675277
 30
0
 11
23.048535050705823
 21
287.90397638335583
 31
0
  0
LINE
  5
1C1
330
1F
100
AcDbEntity
  8
0
 62
7
100
AcDbLine
 10
23.048535050705823
 20
287.90397638335583
 30
0
 11
34.263165701007665
 21
296.438256967946
 31
0
  0
LINE
  5
1C2
330
1F
100
AcDbEntity
  8
0
 62
7
100
AcDbLine
 10
34.263165701007665
 20
296.438256967946
 30
0
 11
31.180029754169709
 21
300.50112938180223
 31
0
  0
LINE
  5
1C3
330
1F
100
AcDbEntity
  8
0
 62
7
100
AcDbLine
 10
31.180029754169709
 20
300.50112938180223
 30
0
 11
35.80693188523469
 21
304.04590672026313
 31
0
  0
ARC
  5
1C4
330
1F
100
AcDbEntity
  8
0
 62
7
100
AcDbCircle
 10
35.50285197050632
 20
304.44281402110147
 30
0
 40
0.5
100
AcDbArc
 50
307.45656525976568
 51
39.243176190065569
  0
ARC
  5
1C5
330
1F
100
AcDbEntity
  8
0
 62
7
100
AcDbCircle
 10
37.559057263643375
 20
306.12239588642893
 30
0
 40
2.1549906685074478
100
AcDbArc
 50
34.995185733873981
 51
219.24317619018927
  0
ARC
  5
1C6
330
1F
100
AcDbEntity
  8
0
 62
7
100
AcDbCircle
 10
39.734026245968508
 20
307.64505322666844
 30
0
 40
0.5
100
AcDbArc
 50
214.99518573376102
 51
307.50950765251218
  0
LINE
  5
1C7
330
1F
100
AcDbEntity
  8
0
 62
7
100
AcDbLine
 10
40.038472780745224
 20
307.24842707087123
 30
0
 11
145.57714909750371
 21
388.258929831655
 31
0
  0
ARC
  5
1C8
330
1F
100
AcDbEntity
  8
0
 62
7
100
AcDbCircle
 10
145.27270256272908
 20
388.65555598745379
 30
0
 40
0.5
100
AcDbArc
 50
307.5095076522112
 51
43.342256323397358
  0
ARC
  5
1C9
330
1F
100
AcDbEntity
  8
0
 62
7
100
AcDbCircle
 10
147.18668169448623
 20
390.46186564050595
 30
0
 40
2.13174289768421
100
AcDbArc
 50
34.003572518547792
 51
223.3422563229785
  0
ARC
  5
1CA
330
1F
100
AcDbEntity
  8
0
 62
7
100
AcDbCircle
 10
149.3684036729783
 20
391.93365363069876
 30
0
 40
0.5
100
AcDbArc
 50
214.00357251822498
 51
307.41319557045097
  0
LINE
  5
1CB
330
1F
100
AcDbEntity
  8
0
 62
7
100
AcDbLine
 10
149.672183064072
 20
391.5365162721605
 30
0
 11
207.70288896625175
 21
435.92552205234813
 31
0
  0
LINE
  5
1CC
330
1F
100
AcDbEntity
  8
0
 62
7
100
AcDbLine
 10
207.70288896625175
 20
435.92552205234813
 30
0
 11
210.73006426620691
 21
431.96803040642317
 31
0
  0
LINE
  5
1CD
330
1F
100
AcDbEntity
  8
0
 62
7
100
AcDbLine
 10
210.73006426620691
 20
431.96803040642317
 30
0
 11
221.87424002905777
 21
440.51747826262181
 31
0
  0
LINE
  5
1CE
330
1F
100
AcDbEntity
  8
0
 62
7
100
AcDbLine
 10
221.87424002905777
 20
440.51747826262181
 30
0
 11
218.8913340245947
 21
444.41355056717009
 31
0
  0
LINE
  5
1CF
330
1F
100
AcDbEntity
  8
0
 62
7
100
AcDbLine
 10
218.8913340245947
 20
444.41355056717009
 30
0
 11
221.28693260309251
 21
446.18359433366675
 31
0
  0
LINE
  5
1D0
330
1F
100
AcDbEntity
  8
0
 62
7
100
AcDbLine
 10
221.28693260309251
 20
446.18359433366675
 30
0
 11
214.16921933266372
 21
455.70924251037019
 31
0
  0
LINE
  5
1D1
330
1F
100
AcDbEntity
  8
0
 62
7
100
AcDbLine
 10
214.16921933266372
 20
455.70924251037019
 30
0
 11
231.55086435998669
 21
468.91837963766295
 31
0
  0
LINE
  5
1D2
330
1F
100
AcDbEntity
  8
0
 62
7
100
AcDbLine
 10
231.55086435998669
 20
468.91837963766295
 30
0
 11
238.70156655521282
 21
459.62547949501436
 31
0
  0
LINE
  5
1D3
330
1F
100
AcDbEntity
  8
0
 62
7
100
AcDbLine
 10
238.70156655521282
 20
459.62547949501436
 30
0
 11
261.32216446578491
 21
476.90675752895737
 31
0
  0
LINE
  5
1D4
330
1F
100
AcDbEntity
  8
0
 62
7
100
AcDbLine
 10
163.74819946578492
 20
168.86713012931014
 30
0
 11
9.6339833281219
 21
161.77374275871452
 31
0
  0
ARC
  5
1D5
330
1F
100
AcDbEntity
  8
0
 62
7
100
AcDbCircle
 10
9.9041599224641139
 20
156.87719064855239
 30
0
 40
4.9040001998025931
100
AcDbArc
 50
93.158201386189759
 51
179.66720066192624
  0
LINE
  5
1D6
330
1F
100
AcDbEntity
  8
0
 62
7
100
AcDbLine
 10
5.000242448067155
 20
156.90567509989035
 30
0
 11
5.2552701135563495
 21
149.25647581611057
 31
0
  0
LINE
  5
1D7
330
1F
100
AcDbEntity
  8
0
 62
7
100
AcDbLine
 10
5.2552701135563495
 20
149.25647581611057
 30
0
 11
22.066580971111847
 21
149.9535634298156
 31
0
  0
LINE
  5
1D8
330
1F
100
AcDbEntity
  8
0
 62
7
100
AcDbLine
 10
22.066580971111847
 20
149.9535634298156
 30
0
 11
22.634791810862367
 21
139.88031752711538
 31
0
  0
LINE
  5
1D9
330
1F
100
AcDbEntity
  8
0
 62
7
100
AcDbLine
 10
22.634791810862367
 20
139.88031752711538
 30
0
 11
5.9591696939724557
 21
139.10747080463679
 31
0
  0
LINE
  5
1DA
330
1F
100
AcDbEntity
  8
0
 62
7
100
AcDbLine
 10
5.9591696939724557
 20
139.10747080463679
 30
0
 11
6.3617145284084131
 21
130.8016010103963
 31
0
  0
ARC
  5
1DB
330
1F
100
AcDbEntity
  8
0
 62
7
100
AcDbCircle
 10
10.336258194794819
 20
131.3818430284845
 30
0
 40
4.0166750124409321
100
AcDbArc
 50
188.30591143447987
 51
274.41574513926241
  0
LINE
  5
1DC
330
1F
100
AcDbEntity
  8
0
 62
7
100
AcDbLine
 10
10.645514133681786
 20
127.37709098624387
 30
0
 11
166.05797268178151
 21
134.66209575727109
 31
0
  0
ARC
  5
1DD
330
1F
100
AcDbEntity
  8
0
 62
7
100
AcDbCircle
 10
165.67052024718973
 20
138.88021686791288
 30
0
 40
4.2358783142475911
100
AcDbArc
 50
275.24813518556363
 51
6.9766538320810625
  0
LINE
  5
1DE
330
1F
100
AcDbEntity
  8
0
 62
7
100
AcDbLine
 10
169.87503496217445
 20
139.39472741648294
 30
0
 11
169.39720996305954
 21
146.96485603815529
 31
0
  0
LINE
  5
1DF
330
1F
100
AcDbEntity
  8
0
 62
7
100
AcDbLine
 10
169.39720996305954
 20
146.96485603815529
 30
0
 11
152.86147009080491
 21
146.16024025209529
 31
0
  0
LINE
  5
1E0
330
1F
100
AcDbEntity
  8
0
 62
7
100
AcDbLine
 10
152.86147009080491
 20
146.16024025209529
 30
0
 11
152.3826998756951
 21
156.05825155758103
 31
0
  0
LINE
  5
1E1
330
1F
100
AcDbEntity
  8
0
 62
7
100
AcDbLine
 10
152.3826998756951
 20
156.05825155758103
 30
0
 11
168.76561434438486
 21
156.95650893061202
 31
0
  0
LINE
  5
1E2
330
1F
100
AcDbEntity
  8
0
 62
7
100
AcDbLine
 10
168.76561434438486
 20
156.95650893061202
 30
0
 11
168.49191992700531
 21
164.16569691160956
 31
0
  0
ARC
  5
1E3
330
1F
100
AcDbEntity
  8
0
 62
7
100
AcDbCircle
 10
163.57467008176164
 20
163.94812928933337
 30
0
 40
4.9220607179119362
100
AcDbArc
 50
2.5334448695630125
 51
87.9795937690454
  0
LINE
  5
1E4
330
1F
100
AcDbEntity
  8
0
 62
7
100
AcDbLine
 10
10.032450465784892
 20
691.70751755397271
 30
0
 11
10.08497664898117
 21
663.24119953919831
 31
0
  0
LINE
  5
1E5
330
1F
100
AcDbEntity
  8
0
 62
7
100
AcDbLine
 10
10.08497664898117
 20
663.24119953919831
 30
0
 11
21.81059687367609
 21
663.22208691798141
 31
0
  0
LINE
  5
1E6
330
1F
100
AcDbEntity
  8
0
 62
7
100
AcDbLine
 10
21.81059687367609
 20
663.22208691798141
 30
0
 11
21.906329704451977
 21
641.39106031068241
 31
0
  0
LINE
  5
1E7
330
1F
100
AcDbEntity
  8
0
 62
7
100
AcDbLine
 10
21.906329704451977
 20
641.39106031068241
 30
0
 11
10.016094082124015
 21
641.24235848860747
 31
0
  0
LINE
  5
1E8
330
1F
100
AcDbEntity
  8
0
 62
7
100
AcDbLine
 10
10.016094082124015
 20
641.24235848860747
 30
0
 11
10.0693494863542
 21
638.26425316029156
 31
0
  0
LINE
  5
1E9
330
1F
100
AcDbEntity
  8
0
 62
7
100
AcDbLine
 10
10.0693494863542
 20
638.26425316029156
 30
0
 11
5.1625081165459381
 21
638.26032820407193
 31
0
  0
LINE
  5
1EA
330
1F
100
AcDbEntity
  8
0
 62
7
100
AcDbLine
 10
5.1625081165459381
 20
638.26032820407193
 30
0
 11
5.1600403589620658
 21
624.21448518952275
 31
0
  0
LINE
  5
1EB
330
1F
100
AcDbEntity
  8
0
 62
7
100
AcDbLine
 10
5.1600403589620658
 20
624.21448518952275
 30
0
 11
10.142559031619145
 21
624.220657778252
 31
0
  0
LINE
  5
1EC
330
1F
100
AcDbEntity
  8
0
 62
7
100
AcDbLine
 10
10.142559031619145
 20
624.220657778252
 30
0
 11
10.233070828796132
 21
551.1594610369358
 31
0
  0
ARC
  5
1ED
330
1F
100
AcDbEntity
  8
0
 62
7
100
AcDbCircle
 10
10.733070445109806
 20
551.16008046100478
 30
0
 40
0.5
100
AcDbArc
 50
180.07098078791972
 51
273.48060384036347
  0
ARC
  5
1EE
330
1F
100
AcDbEntity
  8
0
 62
7
100
AcDbCircle
 10
10.892845242355241
 20
548.53319205574735
 30
0
 40
2.13174289768421
100
AcDbArc
 50
264.141920035338
 51
93.480603840096578
  0
ARC
  5
1EF
330
1F
100
AcDbEntity
  8
0
 62
7
100
AcDbCircle
 10
10.624237081581821
 20
545.91519275561814
 30
0
 40
0.5
100
AcDbArc
 50
84.141920035104746
 51
179.97466870627252
  0
LINE
  5
1F0
330
1F
100
AcDbEntity
  8
0
 62
7
100
AcDbLine
 10
10.124237130448124
 20
545.9154138128506
 30
0
 11
10.065415775978396
 21
412.869894172777
 31
0
  0
ARC
  5
1F1
330
1F
100
AcDbEntity
  8
0
 62
7
100
AcDbCircle
 10
10.565415727112093
 20
412.86967311554326
 30
0
 40
0.5
100
AcDbArc
 50
179.97466870612922
 51
272.4889906245474
  0
ARC
  5
1F2
330
1F
100
AcDbEntity
  8
0
 62
7
100
AcDbCircle
 10
10.680715120873252
 20
410.21718720612546
 30
0
 40
2.1549906685074478
100
AcDbArc
 50
268.24100016897813
 51
92.488990623982531
  0
ARC
  5
1F3
330
1F
100
AcDbEntity
  8
0
 62
7
100
AcDbCircle
 10
10.599218811647265
 20
407.56344761802637
 30
0
 40
0.5
100
AcDbArc
 50
88.24100016818754
 51
180.02761109850704
  0
LINE
  5
1F4
330
1F
100
AcDbEntity
  8
0
 62
7
100
AcDbLine
 10
10.09921886970527
 20
407.56320666574618
 30
0
 11
10.102027743758969
 21
401.73451368876113
 31
0
  0
LINE
  5
1F5
330
1F
100
AcDbEntity
  8
0
 62
7
100
AcDbLine
 10
10.102027743758969
 20
401.73451368876113
 30
0
 11
5.0018327521058712
 21
401.70861841774729
 31
0
  0
LINE
  5
1F6
330
1F
100
AcDbEntity
  8
0
 62
7
100
AcDbLine
 10
5.0018327521058712
 20
401.70861841774729
 30
0
 11
5.0542753290230724
 21
387.61609786621761
 31
0
  0
LINE
  5
1F7
330
1F
100
AcDbEntity
  8
0
 62
7
100
AcDbLine
 10
5.0542753290230724
 20
387.61609786621761
 30
0
 11
9.5887341512700335
 21
387.67293244282439
 31
0
  0
LINE
  5
1F8
330
1F
100
AcDbEntity
  8
0
 62
7
100
AcDbLine
 10
9.5887341512700335
 20
387.67293244282439
 30
0
 11
67.16944117229626
 21
412.52396142406337
 31
0
  0
LINE
  5
1F9
330
1F
100
AcDbEntity
  8
0
 62
7
100
AcDbLine
 10
67.16944117229626
 20
412.52396142406337
 30
0
 11
67.130669772102223
 21
468.94715847211876
 31
0
  0
LINE
  5
1FA
330
1F
100
AcDbEntity
  8
0
 62
7
100
AcDbLine
 10
67.130669772102223
 20
468.94715847211876
 30
0
 11
72.1199703651689
 21
468.94988518205685
 31
0
  0
LINE
  5
1FB
330
1F
100
AcDbEntity
  8
0
 62
7
100
AcDbLine
 10
72.1199703651689
 20
468.94988518205685
 30
0
 11
72.076900902433167
 21
500.25038806477585
 31
0
  0
LINE
  5
1FC
330
1F
100
AcDbEntity
  8
0
 62
7
100
AcDbLine
 10
72.076900902433167
 20
500.25038806477585
 30
0
 11
67.286815633970249
 21
500.19034948491105
 31
0
  0
LINE
  5
1FD
330
1F
100
AcDbEntity
  8
0
 62
7
100
AcDbLine
 10
67.286815633970249
 20
500.19034948491105
 30
0
 11
67.177395883488984
 21
585.366773665536
 31
0
  0
LINE
  5
1FE
330
1F
100
AcDbEntity
  8
0
 62
7
100
AcDbLine
 10
67.177395883488984
 20
585.366773665536
 30
0
 11
72.040917782203209
 21
585.42773269477573
 31
0
  0
LINE
  5
1FF
330
1F
100
AcDbEntity
  8
0
 62
7
100
AcDbLine
 10
72.040917782203209
 20
585.42773269477573
 30
0
 11
72.162240149554
 21
604.41728033293384
 31
0
  0
LINE
  5
200
330
1F
100
AcDbEntity
  8
0
 62
7
100
AcDbLine
 10
72.162240149554
 20
604.41728033293384
 30
0
 11
67.371609540042968
 21
604.38826299502909
 31
0
  0
LINE
  5
201
330
1F
100
AcDbEntity
  8
0
 62
7
100
AcDbLine
 10
67.371609540042968
 20
604.38826299502909
 30
0
 11
67.16944117229626
 21
637.76534169136164
 31
0
  0
LINE
  5
202
330
1F
100
AcDbEntity
  8
0
 62
7
100
AcDbLine
 10
67.16944117229626
 20
637.76534169136164
 30
0
 11
10.032450465784892
 21
691.70751755397271
 31
0
  0
ENDSEC
  0
SECTION
  2
OBJECTS
  0
DICTIONARY
  5
C
330
0
100
AcDbDictionary
280
0
281
1
  3
ACAD_SCALELIST
350
208
  3
ACAD_COLOR
350
21A
  3
ACAD_FIELDLIST
350
21B
  3
ACAD_GROUP
350
D
  3
ACAD_IMAGE_DICT
350
21C
  3
ACAD_LAYOUT
350
1A
  3
ACAD_MATERIAL
350
21D
  3
ACAD_MLEADERSTYLE
350
21E
  3
ACAD_MLINESTYLE
350
17
  3
ACAD_PLOTSETTINGS
350
19
  3
ACAD_PLOTSTYLENAME
350
E
  3
ACAD_TABLESTYLE
350
220
  3
ACDB_RECOMPOSE_DATA
350
224
  3
AcDbVariableDictionary
350
225
  3
ACAD_VISUALSTYLE
350
228
  3
DWGPROPS
350
229
  0
DICTIONARY
  5
222
330
221
100
AcDbDictionary
280
0
281
1
  3
ACAD_ROUNDTRIP_2008_TABLESTYLE_CELLSTYLEMAP
360
223
  0
DICTIONARY
  5
208
102
{ACAD_REACTORS
330
C
102
}
330
C
100
AcDbDictionary
280
0
281
1
  0
DICTIONARY
  5
21A
102
{ACAD_REACTORS
330
C
102
}
330
C
100
AcDbDictionary
280
0
281
1
  0
FIELDLIST
  5
21B
102
{ACAD_REACTORS
330
C
102
}
330
C
100
AcDbIdSet
100
AcDbFieldList
  0
DICTIONARY
  5
D
102
{ACAD_REACTORS
330
C
102
}
330
C
100
AcDbDictionary
280
0
281
1
  0
DICTIONARY
  5
21C
102
{ACAD_REACTORS
330
C
102
}
330
C
100
AcDbDictionary
280
0
281
1
  0
DICTIONARY
  5
1A
102
{ACAD_REACTORS
330
C
102
}
330
C
100
AcDbDictionary
280
0
281
1
  3
Layout1
350
1E
  3
Model
350
22
  0
DICTIONARY
  5
21D
102
{ACAD_REACTORS
330
C
102
}
330
C
100
AcDbDictionary
280
0
281
1
  0
DICTIONARY
  5
21E
102
{ACAD_REACTORS
330
C
102
}
330
C
100
AcDbDictionary
280
0
281
1
  3
Standard
350
21F
  0
DICTIONARY
  5
17
102
{ACAD_REACTORS
330
C
102
}
330
C
100
AcDbDictionary
280
0
281
1
  3
STANDARD
350
18
  0
DICTIONARY
  5
19
102
{ACAD_REACTORS
330
C
102
}
330
C
100
AcDbDictionary
280
0
281
1
  0
ACDBDICTIONARYWDFLT
  5
E
102
{ACAD_REACTORS
330
C
102
}
330
C
100
AcDbDictionary
280
0
281
1
  3
Normal
350
F
100
AcDbDictionaryWithDefault
340
F
  0
ACDBPLACEHOLDER
  5
F
102
{ACAD_REACTORS
330
E
102
}
330
E
  0
DICTIONARY
  5
220
102
{ACAD_REACTORS
330
C
102
}
330
C
100
AcDbDictionary
280
0
281
1
  3
Standard
350
221
  0
XRECORD
  5
224
102
{ACAD_REACTORS
330
C
102
}
330
C
100
AcDbXrecord
280
1
 90
1
330
221
  0
DICTIONARY
  5
225
102
{ACAD_REACTORS
330
C
102
}
330
C
100
AcDbDictionary
280
0
281
1
  3
DIMASSOC
350
226
  3
HIDETEXT
350
227
  0
DICTIONARY
  5
228
102
{ACAD_REACTORS
330
C
102
}
330
C
100
AcDbDictionary
280
0
281
1
  0
XRECORD
  5
229
102
{ACAD_REACTORS
330
C
102
}
330
C
100
AcDbXrecord
280
0
  1
DWGPROPS COOKIE
  2

  3

  4

  6

  7

  8

  9

300
=
301
=
302
=
303
=
304
=
305
=
306
=
307
=
308
=
309
=
 40
0
 41
2460442.1661334606
 42
2460442.1661334606
  1

 90
0
  0
CELLSTYLEMAP
  5
223
102
{ACAD_REACTORS
330
222
102
}
330
222
100
AcDbCellStyleMap
 90
3
300
CELLSTYLE
  1
TABLEFORMAT_BEGIN
 90
5
170
0
309
TABLEFORMAT_END
  1
CELLSTYLE_BEGIN
 90
3
 91
2
300
_DATA
309
CELLSTYLE_END
300
CELLSTYLE
  1
TABLEFORMAT_BEGIN
 90
5
170
0
309
TABLEFORMAT_END
  1
CELLSTYLE_BEGIN
 90
1
 91
2
300
_TITLE
309
CELLSTYLE_END
300
CELLSTYLE
  1
TABLEFORMAT_BEGIN
 90
5
170
0
309
TABLEFORMAT_END
  1
CELLSTYLE_BEGIN
 90
2
 91
2
300
_HEADER
309
CELLSTYLE_END
  0
LAYOUT
  5
1E
102
{ACAD_REACTORS
330
1A
102
}
330
1A
100
AcDbPlotSettings
  1

  2
C:\Program Files\AutoCAD 2002\plotters\DWF ePlot (optimized for plotting).pc3
  4

  6

 40
0
 41
0
 42
0
 43
0
 44
0
 45
0
 46
0
 47
0
 48
0
 49
0
140
0
141
0
142
1
143
1
 70
688
 72
1
 73
1
 74
1
  7
acad.stb
 75
16
 76
0
 77
0
 78
0
147
1
148
0
149
0
100
AcDbLayout
  1
Layout1
 70
1
 71
1
 10
0
 20
0
 11
420
 21
297
 12
0
 22
0
 32
0
 14
0
 24
0
 34
0
 15
0
 25
0
 35
0
146
0
 13
0
 23
0
 33
0
 16
1
 26
0
 36
0
 17
0
 27
1
 37
0
 76
0
330
203
  0
LAYOUT
  5
22
102
{ACAD_REACTORS
330
1A
102
}
330
1A
100
AcDbPlotSettings
  1

  2
C:\Program Files\AutoCAD 2002\plotters\DWF ePlot (optimized for plotting).pc3
  4

  6

 40
0
 41
0
 42
0
 43
0
 44
0
 45
0
 46
0
 47
0
 48
0
 49
0
140
0
141
0
142
1
143
1
 70
1712
 72
1
 73
1
 74
0
  7
acad.stb
 75
0
 76
0
 77
0
 78
0
147
1
148
0
149
0
100
AcDbLayout
  1
Model
 70
1
 71
0
 10
0
 20
0
 11
12
 21
9
 12
0
 22
0
 32
0
 14
0
 24
0
 34
0
 15
0
 25
0
 35
0
146
0
 13
0
 23
0
 33
0
 16
1
 26
0
 36
0
 17
0
 27
1
 37
0
 76
0
330
1F
  0
MLEADERSTYLE
  5
21F
102
{ACAD_REACTORS
330
21E
102
}
330
21E
100
AcDbMLeaderStyle
170
2
171
1
172
0
 90
2
 40
0
 41
0
173
1
 91
0
340
0
 92
-2
290
1
 42
0.09
292
1
 43
0.36
  3
Standard
341
0
 44
0.18
300

342
0
174
1
178
1
175
1
176
0
 93
0
 45
0.18
292
0
297
0
 46
0
343
0
 94
0
 47
1
 49
1
140
1
293
1
141
0
294
1
177
0
142
1
295
0
296
0
143
0.125
  0
MLINESTYLE
  5
18
102
{ACAD_REACTORS
330
17
102
}
330
17
100
AcDbMlineStyle
  2
STANDARD
 70
0
  3

 51
90
 52
90
 71
2
 49
0.5
 62
0
  6
ByLayer
 49
-0.5
 62
0
  6
ByLayer
  0
TABLESTYLE
  5
221
102
{ACAD_XDICTIONARY
360
222
102
}
102
{ACAD_REACTORS
330
220
102
}
330
220
100
AcDbTableStyle
  3

 70
0
 71
0
 40
0.06
 41
0.06
280
0
281
0
  7
Standard
140
0.18
170
1
 62
0
283
0
 90
512
 91
0
274
-2
284
1
 64
0
275
-2
285
1
 65
0
276
-2
286
1
 66
0
277
-2
287
1
 67
0
278
-2
288
1
 68
0
279
-2
289
1
 69
0
  7
Standard
140
0.18
170
1
 62
0
283
0
 90
512
 91
0
274
-2
284
1
 64
0
275
-2
285
1
 65
0
276
-2
286
1
 66
0
277
-2
287
1
 67
0
278
-2
288
1
 68
0
279
-2
289
1
 69
0
  7
Standard
140
0.18
170
1
 62
0
283
0
 90
512
 91
0
274
-2
284
1
 64
0
275
-2
285
1
 65
0
276
-2
286
1
 66
0
277
-2
287
1
 67
0
278
-2
288
1
 68
0
279
-2
289
1
 69
0
  0
DICTIONARYVAR
  5
226
102
{ACAD_REACTORS
330
225
102
}
330
225
100
DictionaryVariables
280
0
  1
1
  0
DICTIONARYVAR
  5
227
102
{ACAD_REACTORS
330
225
102
}
330
225
100
DictionaryVariables
280
0
  1
2
  0
ENDSEC
999
Created By CadLib version 4.0.38.30
999
CadLib website: www.woutware.com
  0
EOF
