  0
SECTION
  2
HEADER
  9
$ACADVER
  1
AC1015
  9
$DWGCODEPAGE
  3
ansi_1252
  9
$INSBASE
 10
0
 20
0
 30
0
  9
$EXTMIN
 10
5.0002549168061581
 20
5.000000340811269
 30
0
  9
$EXTMAX
 10
731.62199218148885
 20
894.96101873553482
 30
0
  9
$LIMMIN
 10
0
 20
0
  9
$LIMMAX
 10
12
 20
9
  9
$SNAPMODE
 70
0
  9
$SNAPUNIT
 10
1
 20
1
  9
$SNAPBASE
 10
0
 20
0
  9
$SNAPANG
 50
0
  9
$SNAPSTYLE
 70
0
  9
$SNAPISOPAIR
 70
0
  9
$ORTHOMODE
 70
0
  9
$REGENMODE
 70
1
  9
$FILLMODE
 70
1
  9
$QTEXTMODE
 70
0
  9
$MIRRTEXT
 70
1
  9
$LTSCALE
 40
1
  9
$OSMODE
 70
0
  9
$ATTMODE
 70
1
  9
$TEXTSIZE
 40
0.2
  9
$TRACEWID
 40
0.05
  9
$TEXTSTYLE
  7
Standard
  9
$CLAYER
  8
0
  9
$CELTYPE
  6
ByLayer
  9
$CECOLOR
 62
256
  9
$CELTSCALE
 40
1
  9
$DISPSILH
 70
0
  9
$DIMSCALE
 40
1
  9
$DIMASZ
 40
0.18
  9
$DIMEXO
 40
0.0625
  9
$DIMDLI
 40
0.38
  9
$DIMRND
 40
0
  9
$DIMDLE
 40
0
  9
$DIMEXE
 40
0.18
  9
$DIMTP
 40
0
  9
$DIMTM
 40
0
  9
$DIMTXT
 40
0.18
  9
$DIMCEN
 40
0.09
  9
$DIMTSZ
 40
0
  9
$DIMTOL
 70
0
  9
$DIMLIM
 70
0
  9
$DIMTIH
 70
1
  9
$DIMTOH
 70
1
  9
$DIMSE1
 70
0
  9
$DIMSE2
 70
0
  9
$DIMTAD
 70
0
  9
$DIMZIN
 70
0
  9
$DIMBLK
  1

  9
$DIMASO
 70
1
  9
$DIMSHO
 70
1
  9
$DIMPOST
  1

  9
$DIMAPOST
  1

  9
$DIMALT
 70
0
  9
$DIMALTD
 70
2
  9
$DIMALTF
 40
0.03937007874015748
  9
$DIMLFAC
 40
1
  9
$DIMTOFL
 70
0
  9
$DIMTVP
 40
0
  9
$DIMTIX
 70
0
  9
$DIMSOXD
 70
0
  9
$DIMSAH
 70
0
  9
$DIMBLK1
  1

  9
$DIMBLK2
  1

  9
$DIMSTYLE
  2
Standard
  9
$DIMCLRD
 70
0
  9
$DIMCLRE
 70
0
  9
$DIMCLRT
 70
0
  9
$DIMTFAC
 40
1
  9
$DIMGAP
 40
0.09
  9
$DIMJUST
 70
0
  9
$DIMSD1
 70
0
  9
$DIMSD2
 70
0
  9
$DIMTOLJ
 70
1
  9
$DIMTZIN
 70
0
  9
$DIMALTZ
 70
0
  9
$DIMALTTZ
 70
0
  9
$DIMUPT
 70
0
  9
$DIMDEC
 70
4
  9
$DIMTDEC
 70
4
  9
$DIMALTU
 70
2
  9
$DIMALTTD
 70
0
  9
$DIMTXSTY
  7
Standard
  9
$DIMAUNIT
 70
0
  9
$DIMADEC
 70
0
  9
$DIMALTRND
 40
0
  9
$DIMAZIN
 70
0
  9
$DIMDSEP
 70
46
  9
$DIMATFIT
 70
0
  9
$DIMFRAC
 70
0
  9
$DIMLDRBLK
  1

  9
$DIMLUNIT
 70
2
  9
$DIMLWD
 70
-2
  9
$DIMLWE
 70
-2
  9
$LUNITS
 70
2
  9
$LUPREC
 70
4
  9
$SKETCHINC
 40
0.1
  9
$FILLETRAD
 40
0
  9
$AUNITS
 70
0
  9
$AUPREC
 70
0
  9
$MENU
  1
.
  9
$ELEVATION
 40
0
  9
$PELEVATION
 40
0
  9
$THICKNESS
 40
0
  9
$LIMCHECK
 70
0
  9
$CHAMFERA
 40
0.5
  9
$CHAMFERB
 40
0.5
  9
$CHAMFERC
 40
0
  9
$CHAMFERD
 40
0
  9
$SKPOLY
 70
0
  9
$TDCREATE
 40
2460453.2333364584
  9
$TDUCREATE
 40
2460452.900003125
  9
$TDUPDATE
 40
2460453.2333364584
  9
$TDUUPDATE
 40
2460452.900003125
  9
$TDINDWG
 40
0
  9
$TDUSRTIMER
 40
1.1574074074074074E-08
  9
$USRTIMER
 70
1
  9
$ANGBASE
 50
0
  9
$ANGDIR
 70
1
  9
$PDMODE
 70
0
  9
$PDSIZE
 40
0
  9
$PLINEWID
 40
0
  9
$SPLFRAME
 70
0
  9
$SPLINETYPE
 70
6
  9
$SPLINESEGS
 70
8
  9
$HANDSEED
  5
20C
  9
$SURFTAB1
 70
6
  9
$SURFTAB2
 70
6
  9
$SURFTYPE
 70
6
  9
$SURFU
 70
6
  9
$SURFV
 70
6
  9
$UCSORG
 10
0
 20
0
 30
0
  9
$UCSXDIR
 10
1
 20
0
 30
0
  9
$UCSYDIR
 10
0
 20
1
 30
0
  9
$UCSORTHOREF
  2

  9
$UCSORTHOVIEW
 70
0
  9
$UCSORGTOP
 10
0
 20
0
 30
0
  9
$UCSORGBOTTOM
 10
0
 20
0
 30
0
  9
$UCSORGLEFT
 10
0
 20
0
 30
0
  9
$UCSORGRIGHT
 10
0
 20
0
 30
0
  9
$UCSORGFRONT
 10
0
 20
0
 30
0
  9
$UCSORGBACK
 10
0
 20
0
 30
0
  9
$PUCSORG
 10
0
 20
0
 30
0
  9
$PUCSXDIR
 10
1
 20
0
 30
0
  9
$PUCSYDIR
 10
0
 20
1
 30
0
  9
$PUCSORTHOREF
  2

  9
$PUCSORTHOVIEW
 70
0
  9
$PUCSORGTOP
 10
0
 20
0
 30
0
  9
$PUCSORGBOTTOM
 10
0
 20
0
 30
0
  9
$PUCSORGLEFT
 10
0
 20
0
 30
0
  9
$PUCSORGRIGHT
 10
0
 20
0
 30
0
  9
$PUCSORGFRONT
 10
0
 20
0
 30
0
  9
$PUCSORGBACK
 10
0
 20
0
 30
0
  9
$USERI1
 70
0
  9
$USERI2
 70
0
  9
$USERI3
 70
0
  9
$USERI4
 70
0
  9
$USERI5
 70
0
  9
$USERR1
 40
0
  9
$USERR2
 40
0
  9
$USERR3
 40
0
  9
$USERR4
 40
0
  9
$USERR5
 40
0
  9
$WORLDVIEW
 70
1
  9
$SHADEDGE
 70
3
  9
$SHADEDIF
 70
70
  9
$TILEMODE
 70
1
  9
$MAXACTVP
 70
48
  9
$PINSBASE
 10
0
 20
0
 30
0
  9
$PLIMCHECK
 70
0
  9
$PEXTMIN
 10
1E+20
 20
1E+20
 30
1E+20
  9
$PEXTMAX
 10
-1E+20
 20
-1E+20
 30
-1E+20
  9
$PLIMMAX
 10
0
 20
0
  9
$PLIMMIN
 10
0
 20
0
  9
$UNITMODE
 70
0
  9
$VISRETAIN
 70
1
  9
$PLINEGEN
 70
1
  9
$PSLTSCALE
 70
1
  9
$TREEDEPTH
 70
3020
  9
$CMLSTYLE
  2
STANDARD
  9
$CMLJUST
 70
0
  9
$CMLSCALE
 40
1
  9
$PROXYGRAPHICS
 70
1
  9
$MEASUREMENT
 70
1
  9
$CELWEIGHT
370
-1
  9
$ENDCAPS
280
0
  9
$JOINSTYLE
280
0
  9
$LWDISPLAY
290
1
  9
$INSUNITS
 70
4
  9
$HYPERLINKBASE
  1

  9
$XEDIT
290
1
  9
$CEPSNTYPE
380
0
  9
$PSTYLEMODE
290
0
  9
$FINGERPRINTGUID
  2

  9
$VERSIONGUID
  2

  9
$EXTNAMES
290
1
  9
$PSVPSCALE
 40
0
  9
$CSHADOW
280
0
  9
$SHADOWPLANELOCATION
 40
0
  0
ENDSEC
  0
SECTION
  2
CLASSES
  0
CLASS
  1
RASTERVARIABLES
  2
AcDbRasterVariables
  3
ISM
 90
0
280
0
281
0
  0
CLASS
  1
IMAGEDEF
  2
AcDbRasterImageDef
  3
ISM
 90
0
280
0
281
0
  0
CLASS
  1
IMAGEDEF_REACTOR
  2
AcDbRasterImageDefReactor
  3
ISM
 90
1
280
0
281
0
  0
CLASS
  1
IMAGE
  2
AcDbRasterImage
  3
ISM
 90
127
280
0
281
1
  0
CLASS
  1
ACAD_EVALUATION_GRAPH
  2
AcDbEvalGraph
  3
ObjectDBX Classes
 90
1153
280
0
281
0
  0
CLASS
  1
BLOCKPOINTPARAMETER
  2
AcDbBlockPointParameter
  3
ObjectDBX Classes
 90
1153
280
0
281
0
  0
CLASS
  1
BLOCKBASEPOINTPARAMETER
  2
AcDbBlockBasepointParameter
  3
ObjectDBX Classes
 90
1153
280
0
281
0
  0
CLASS
  1
BLOCKLOOKUPPARAMETER
  2
AcDbBlockLookupParameter
  3
ObjectDBX Classes
 90
1153
280
0
281
0
  0
CLASS
  1
BLOCKVISIBILITYPARAMETER
  2
AcDbBlockVisibilityParameter
  3
ObjectDBX Classes
 90
1153
280
0
281
0
  0
CLASS
  1
BLOCKPROPERTIESTABLE
  2
AcDbBlockPropertiesTable
  3
ObjectDBX Classes
 90
1153
280
0
281
0
  0
CLASS
  1
BLOCKPOLARPARAMETER
  2
AcDbBlockPolarParameter
  3
ObjectDBX Classes
 90
1153
280
0
281
0
  0
CLASS
  1
BLOCKROTATIONPARAMETER
  2
AcDbBlockRotationParameter
  3
ObjectDBX Classes
 90
1153
280
0
281
0
  0
CLASS
  1
BLOCKLINEARPARAMETER
  2
AcDbBlockLinearParameter
  3
ObjectDBX Classes
 90
1153
280
0
281
0
  0
CLASS
  1
BLOCKXYPARAMETER
  2
AcDbBlockXYParameter
  3
ObjectDBX Classes
 90
1153
280
0
281
0
  0
CLASS
  1
BLOCKFLIPPARAMETER
  2
AcDbBlockFlipParameter
  3
ObjectDBX Classes
 90
1153
280
0
281
0
  0
CLASS
  1
BLOCKALIGNMENTPARAMETER
  2
AcDbBlockAlignmentParameter
  3
ObjectDBX Classes
 90
1153
280
0
281
0
  0
CLASS
  1
BLOCKROTATEACTION
  2
AcDbBlockRotateAction
  3
ObjectDBX Classes
 90
1153
280
0
281
0
  0
CLASS
  1
BLOCKSCALEACTION
  2
AcDbBlockScaleAction
  3
ObjectDBX Classes
 90
1153
280
0
281
0
  0
CLASS
  1
BLOCKARRAYACTION
  2
AcDbBlockArrayAction
  3
ObjectDBX Classes
 90
1153
280
0
281
0
  0
CLASS
  1
BLOCKFLIPACTION
  2
AcDbBlockFlipAction
  3
ObjectDBX Classes
 90
1153
280
0
281
0
  0
CLASS
  1
BLOCKLOOKUPACTION
  2
AcDbBlockLookupAction
  3
ObjectDBX Classes
 90
1153
280
0
281
0
  0
CLASS
  1
BLOCKMOVEACTION
  2
AcDbBlockMoveAction
  3
ObjectDBX Classes
 90
1153
280
0
281
0
  0
CLASS
  1
BLOCKPOLARSTRETCHACTION
  2
AcDbBlockPolarStretchAction
  3
ObjectDBX Classes
 90
1153
280
0
281
0
  0
CLASS
  1
BLOCKSTRETCHACTION
  2
AcDbBlockStretchAction
  3
ObjectDBX Classes
 90
1153
280
0
281
0
  0
CLASS
  1
BLOCKALIGNMENTGRIP
  2
AcDbBlockAlignmentGrip
  3
ObjectDBX Classes
 90
1153
280
0
281
0
  0
CLASS
  1
BLOCKFLIPGRIP
  2
AcDbBlockFlipGrip
  3
ObjectDBX Classes
 90
1153
280
0
281
0
  0
CLASS
  1
ACDB_BLOCKREPRESENTATION_DATA
  2
AcDbBlockRepresentationData
  3
ObjectDBX Classes
 90
1153
280
0
281
0
  0
CLASS
  1
ACDB_DYNAMICBLOCKPURGEPREVENTER_VERSION
  2
AcDbDynamicBlockPurgePreventer
  3
ObjectDBX Classes
 90
1153
280
0
281
0
  0
CLASS
  1
BLOCKLINEARGRIP
  2
AcDbBlockLinearGrip
  3
ObjectDBX Classes
 90
1153
280
0
281
0
  0
CLASS
  1
BLOCKLOOKUPGRIP
  2
AcDbBlockLookupGrip
  3
ObjectDBX Classes
 90
1153
280
0
281
0
  0
CLASS
  1
BLOCKPOLARGRIP
  2
AcDbBlockPolarGrip
  3
ObjectDBX Classes
 90
1153
280
0
281
0
  0
CLASS
  1
BLOCKPROPERTIESTABLEGRIP
  2
AcDbBlockPropertiesTableGrip
  3
ObjectDBX Classes
 90
1153
280
0
281
0
  0
CLASS
  1
BLOCKROTATIONGRIP
  2
AcDbBlockRotationGrip
  3
ObjectDBX Classes
 90
1153
280
0
281
0
  0
CLASS
  1
BLOCKVISIBILITYGRIP
  2
AcDbBlockVisibilityGrip
  3
ObjectDBX Classes
 90
1153
280
0
281
0
  0
CLASS
  1
BLOCKXYGRIP
  2
AcDbBlockXYGrip
  3
ObjectDBX Classes
 90
1153
280
0
281
0
  0
CLASS
  1
BLOCKGRIPLOCATIONCOMPONENT
  2
AcDbBlockGripExpr
  3
ObjectDBX Classes
 90
1153
280
0
281
0
  0
CLASS
  1
ACDB_DYNAMICBLOCKPROXYNODE
  2
AcDbDynamicBlockProxyNode
  3
ObjectDBX Classes
 90
1153
280
0
281
0
  0
CLASS
  1
BLOCKLINEARCONSTRAINTPARAMETER
  2
AcDbBlockLinearConstraintParameter
  3
ObjectDBX Classes
 90
1153
280
0
281
0
  0
CLASS
  1
BLOCKHORIZONTALCONSTRAINTPARAMETER
  2
AcDbBlockHorizontalConstraintParameter
  3
ObjectDBX Classes
 90
1153
280
0
281
0
  0
CLASS
  1
BLOCKVERTICALCONSTRAINTPARAMETER
  2
AcDbBlockVerticalConstraintParameter
  3
ObjectDBX Classes
 90
1153
280
0
281
0
  0
CLASS
  1
BLOCKALIGNEDCONSTRAINTPARAMETER
  2
AcDbBlockAlignedConstraintParameter
  3
ObjectDBX Classes
 90
1153
280
0
281
0
  0
CLASS
  1
BLOCKANGULARCONSTRAINTPARAMETER
  2
AcDbBlockAngularConstraintParameter
  3
ObjectDBX Classes
 90
1153
280
0
281
0
  0
CLASS
  1
BLOCKDIAMETRICCONSTRAINTPARAMETER
  2
AcDbBlockDiametricConstraintParameter
  3
ObjectDBX Classes
 90
1153
280
0
281
0
  0
CLASS
  1
BLOCKRADIALCONSTRAINTPARAMETER
  2
AcDbBlockRadialConstraintParameter
  3
ObjectDBX Classes
 90
1153
280
0
281
0
  0
ENDSEC
  0
SECTION
  2
TABLES
  0
TABLE
  2
VPORT
  5
8
330
0
100
AcDbSymbolTable
 70
1
  0
VPORT
  5
1E7
330
8
100
AcDbSymbolTableRecord
100
AcDbViewportTableRecord
  2
*Active
 70
64
 10
0
 20
0
 11
1
 21
1
 12
368.31112354914751
 22
449.98050953817307
 13
0
 23
0
 14
1
 24
1
 15
0
 25
0
 16
0
 26
0
 36
1
 17
0
 27
0
 37
0
 40
889.96101839472351
 41
0.81646467906575759
 42
50
 43
0
 44
0
 50
0
 51
0
 71
0
 72
20000
 73
20000
 74
1
 75
0
 76
0
 77
0
 78
0
281
0
 65
1
110
0
120
0
130
0
111
1
121
0
131
0
112
0
122
1
132
0
 79
0
146
0
  0
ENDTAB
  0
TABLE
  2
LTYPE
  5
5
100
AcDbSymbolTable
 70
3
  0
LTYPE
  5
16
330
5
100
AcDbSymbolTableRecord
100
AcDbLinetypeTableRecord
  2
Continuous
  3
Solid line
 70
64
 72
65
 73
0
 40
0
  0
LTYPE
  5
14
330
5
100
AcDbSymbolTableRecord
100
AcDbLinetypeTableRecord
  2
ByBlock
  3

 70
64
 72
65
 73
0
 40
0
  0
LTYPE
  5
15
330
5
100
AcDbSymbolTableRecord
100
AcDbLinetypeTableRecord
  2
ByLayer
  3

 70
64
 72
65
 73
0
 40
0
  0
ENDTAB
  0
TABLE
  2
LAYER
  5
2
100
AcDbSymbolTable
 70
2
  0
LAYER
  5
10
330
2
100
AcDbSymbolTableRecord
100
AcDbLayerTableRecord
 70
64
  2
0
 62
7
  6
Continuous
370
-3
390
F
  0
LAYER
  5
27
330
2
100
AcDbSymbolTableRecord
100
AcDbLayerTableRecord
 70
64
  2
DEFPOINTS
 62
7
  6
Continuous
290
0
370
-3
390
F
  0
ENDTAB
  0
TABLE
  2
STYLE
  5
3
100
AcDbSymbolTable
 70
1
  0
STYLE
  5
11
330
3
100
AcDbSymbolTableRecord
100
AcDbTextStyleTableRecord
  2
Standard
 70
64
 40
0
 41
1
 50
0
 71
0
 42
0.2
  3
txt.shx
  0
ENDTAB
  0
TABLE
  2
VIEW
  5
6
100
AcDbSymbolTable
 70
0
  0
ENDTAB
  0
TABLE
  2
UCS
  5
7
100
AcDbSymbolTable
 70
0
  0
ENDTAB
  0
TABLE
  2
APPID
  5
9
330
0
100
AcDbSymbolTable
 70
2
  0
APPID
  5
12
330
0
100
AcDbSymbolTableRecord
100
AcDbRegAppTableRecord
  2
ACAD
 70
64
  0
APPID
  5
20A
330
0
100
AcDbSymbolTableRecord
100
AcDbRegAppTableRecord
  2
ACAD_MLEADERVER
 70
64
  0
ENDTAB
  0
TABLE
  2
DIMSTYLE
  5
A
330
0
100
AcDbSymbolTable
 70
1
100
AcDbDimStyleTable
 71
0
  0
DIMSTYLE
105
1E6
330
A
100
AcDbSymbolTableRecord
100
AcDbDimStyleTableRecord
  2
Standard
 70
64
  3

  4

 40
1
 41
0.18
 42
0.0625
 43
0.38
 44
0.18
 45
0
 46
0
 47
0
 48
0
140
0.18
141
0.09
142
0
143
1
144
1
145
0
146
1
147
0.09
148
0
 71
0
 72
0
 73
1
 74
1
 75
0
 76
0
 77
0
 78
0
 79
0
170
0
171
2
172
0
173
0
174
0
175
0
179
0
271
4
272
4
273
2
274
0
275
0
276
0
277
2
278
46
279
0
280
0
281
0
282
0
283
1
284
0
285
0
286
0
288
0
289
0
340
11
371
-2
372
-2
  0
ENDTAB
  0
TABLE
  2
BLOCK_RECORD
  5
1
330
0
100
AcDbSymbolTable
 70
3
  0
BLOCK_RECORD
  5
1F
330
1
100
AcDbSymbolTableRecord
100
AcDbBlockTableRecord
  2
*Model_Space
340
22
  0
BLOCK_RECORD
  5
1E3
330
1
100
AcDbSymbolTableRecord
100
AcDbBlockTableRecord
  2
*Paper_Space
340
1E
  0
ENDTAB
  0
ENDSEC
  0
SECTION
  2
BLOCKS
  0
BLOCK
  5
20
330
1F
100
AcDbEntity
  8
0
100
AcDbBlockBegin
  2
*Model_Space
 70
64
 10
0
 20
0
 30
0
  3
*Model_Space
  0
ENDBLK
  5
21
330
1F
100
AcDbEntity
  8
0
100
AcDbBlockEnd
  0
BLOCK
  5
1E4
330
1E3
100
AcDbEntity
  8
0
 67
1
100
AcDbBlockBegin
  2
*Paper_Space
 70
64
 10
0
 20
0
 30
0
  3
*Paper_Space
  0
ENDBLK
  5
1E5
330
1E3
100
AcDbEntity
  8
0
100
AcDbBlockEnd
  0
ENDSEC
  0
SECTION
  2
ENTITIES
  0
LINE
  5
28
330
1F
100
AcDbEntity
  8
0
 62
7
100
AcDbLine
 10
5.0656345521833037
 20
643.87263417362351
 30
0
 11
5.0016489457491682
 21
634.49711885083752
 31
0
  0
LINE
  5
29
330
1F
100
AcDbEntity
  8
0
 62
7
100
AcDbLine
 10
5.0016489457491682
 20
634.49711885083752
 30
0
 11
274.67138072054223
 21
425.0434972639639
 31
0
  0
ARC
  5
2A
330
1F
100
AcDbEntity
  8
0
 62
7
100
AcDbCircle
 10
1941.7275956483895
 20
478.48995490505661
 30
0
 40
1667.91275178408
100
AcDbArc
 50
181.83629554505924
 51
192.36932185110939
  0
ARC
  5
2B
330
1F
100
AcDbEntity
  8
0
 62
7
100
AcDbCircle
 10
571.87072220516757
 20
183.42145169885507
 30
0
 40
266.69800235958508
100
AcDbArc
 50
193.49107389396235
 51
216.41221413162185
  0
LINE
  5
2C
330
1F
100
AcDbEntity
  8
0
 62
7
100
AcDbLine
 10
357.24089735254836
 20
25.112062380573434
 30
0
 11
357.151190433733
 21
65.404663935521512
 31
0
  0
LINE
  5
2D
330
1F
100
AcDbEntity
  8
0
 62
7
100
AcDbLine
 10
357.151190433733
 20
65.404663935521512
 30
0
 11
365.02589556407344
 21
65.187817499925018
 31
0
  0
LINE
  5
2E
330
1F
100
AcDbEntity
  8
0
 62
7
100
AcDbLine
 10
365.02589556407344
 20
65.187817499925018
 30
0
 11
365.2349488314569
 21
93.849447852846424
 31
0
  0
LINE
  5
2F
330
1F
100
AcDbEntity
  8
0
 62
7
100
AcDbLine
 10
365.2349488314569
 20
93.849447852846424
 30
0
 11
357.16454075001167
 21
94.116167662161729
 31
0
  0
LINE
  5
30
330
1F
100
AcDbEntity
  8
0
 62
7
100
AcDbLine
 10
357.16454075001167
 20
94.116167662161729
 30
0
 11
360.47919295092572
 21
355.23389932265792
 31
0
  0
LINE
  5
31
330
1F
100
AcDbEntity
  8
0
 62
7
100
AcDbLine
 10
360.47919295092572
 20
355.23389932265792
 30
0
 11
369.66415118319975
 21
355.16776437751571
 31
0
  0
LINE
  5
32
330
1F
100
AcDbEntity
  8
0
 62
7
100
AcDbLine
 10
369.66415118319975
 20
355.16776437751571
 30
0
 11
366.15340557811049
 21
123.75638674480024
 31
0
  0
LINE
  5
33
330
1F
100
AcDbEntity
  8
0
 62
7
100
AcDbLine
 10
366.15340557811049
 20
123.75638674480024
 30
0
 11
358.27175133165025
 21
123.85991349127846
 31
0
  0
LINE
  5
34
330
1F
100
AcDbEntity
  8
0
 62
7
100
AcDbLine
 10
358.27175133165025
 20
123.85991349127846
 30
0
 11
357.89379277524785
 21
95.085333371597812
 31
0
  0
LINE
  5
35
330
1F
100
AcDbEntity
  8
0
 62
7
100
AcDbLine
 10
357.89379277524785
 20
95.085333371597812
 30
0
 11
365.94532809328922
 21
94.922635263310553
 31
0
  0
LINE
  5
36
330
1F
100
AcDbEntity
  8
0
 62
7
100
AcDbLine
 10
365.94532809328922
 20
94.922635263310553
 30
0
 11
365.11624392975034
 21
25.03734122803553
 31
0
  0
ARC
  5
37
330
1F
100
AcDbEntity
  8
0
 62
7
100
AcDbCircle
 10
138.87598115299525
 20
193.15270169705411
 30
0
 40
281.86420653733819
100
AcDbArc
 50
323.38457617885234
 51
347.05154365415137
  0
ARC
  5
38
330
1F
100
AcDbEntity
  8
0
 62
7
100
AcDbCircle
 10
-1216.2152782243361
 20
523.4170534522907
 30
0
 40
1676.6011067803161
100
AcDbArc
 50
346.4287102474932
 51
356.568549019527
  0
LINE
  5
39
330
1F
100
AcDbEntity
  8
0
 62
7
100
AcDbLine
 10
457.37988880927668
 20
423.06523165161616
 30
0
 11
731.11839562865634
 21
627.35647260762869
 31
0
  0
LINE
  5
3A
330
1F
100
AcDbEntity
  8
0
 62
7
100
AcDbLine
 10
731.11839562865634
 20
627.35647260762869
 30
0
 11
731.23880256676819
 21
636.731433081939
 31
0
  0
LINE
  5
3B
330
1F
100
AcDbEntity
  8
0
 62
7
100
AcDbLine
 10
731.23880256676819
 20
636.731433081939
 30
0
 11
731.51098170246576
 21
655.60812337693346
 31
0
  0
LINE
  5
3C
330
1F
100
AcDbEntity
  8
0
 62
7
100
AcDbLine
 10
731.51098170246576
 20
655.60812337693346
 30
0
 11
731.62199218148885
 21
663.88620203697826
 31
0
  0
LINE
  5
3D
330
1F
100
AcDbEntity
  8
0
 62
7
100
AcDbLine
 10
731.62199218148885
 20
663.88620203697826
 30
0
 11
730.96960192535869
 21
664.04676525337277
 31
0
  0
ARC
  5
3E
330
1F
100
AcDbEntity
  8
0
 62
7
100
AcDbCircle
 10
731.1423012908034
 20
664.43342595959541
 30
0
 40
0.42347558673626412
100
AcDbArc
 50
171.71284014991215
 51
245.93239881329907
  0
LINE
  5
3F
330
1F
100
AcDbEntity
  8
0
 62
7
100
AcDbLine
 10
730.72324758750221
 20
664.49446337689983
 30
0
 11
731.08312362933543
 21
705.49302239334918
 31
0
  0
ARC
  5
40
330
1F
100
AcDbEntity
  8
0
 62
7
100
AcDbCircle
 10
723.50838210586414
 20
705.61331543812059
 30
0
 40
7.5756966388590321
100
AcDbArc
 50
359.09017298811574
 51
25.675200702756378
  0
ARC
  5
41
330
1F
100
AcDbEntity
  8
0
 62
7
100
AcDbCircle
 10
726.98584965049884
 20
706.923631791644
 30
0
 40
3.8875294600753572
100
AcDbArc
 50
30.481665842411484
 51
67.609475940618807
  0
ARC
  5
42
330
1F
100
AcDbEntity
  8
0
 62
7
100
AcDbCircle
 10
727.38372408895668
 20
707.89066428190927
 30
0
 40
2.84184519167821
100
AcDbArc
 50
67.5997730483921
 51
91.116817231195114
  0
ARC
  5
43
330
1F
100
AcDbEntity
  8
0
 62
7
100
AcDbCircle
 10
726.12736235917271
 20
693.80309860622435
 30
0
 40
16.971417342082631
100
AcDbArc
 50
85.942108920814491
 51
94.492288659041165
  0
LINE
  5
44
330
1F
100
AcDbEntity
  8
0
 62
7
100
AcDbLine
 10
724.7980774260916
 20
710.72237779198838
 30
0
 11
492.92248585643432
 21
688.06690031643927
 31
0
  0
LINE
  5
45
330
1F
100
AcDbEntity
  8
0
 62
7
100
AcDbLine
 10
492.92248585643432
 20
688.06690031643927
 30
0
 11
492.45492376755971
 21
633.13735584693325
 31
0
  0
LINE
  5
46
330
1F
100
AcDbEntity
  8
0
 62
7
100
AcDbLine
 10
492.45492376755971
 20
633.13735584693325
 30
0
 11
481.40248134632884
 21
633.22653875305889
 31
0
  0
LINE
  5
47
330
1F
100
AcDbEntity
  8
0
 62
7
100
AcDbLine
 10
481.40248134632884
 20
633.22653875305889
 30
0
 11
482.12815956738103
 21
698.31317059221817
 31
0
  0
LINE
  5
48
330
1F
100
AcDbEntity
  8
0
 62
7
100
AcDbLine
 10
482.12815956738103
 20
698.31317059221817
 30
0
 11
621.61475875268
 21
801.65844318709685
 31
0
  0
LINE
  5
49
330
1F
100
AcDbEntity
  8
0
 62
7
100
AcDbLine
 10
621.61475875268
 20
801.65844318709685
 30
0
 11
600.82923220069188
 21
883.5289711127773
 31
0
  0
ARC
  5
4A
330
1F
100
AcDbEntity
  8
0
 62
7
100
AcDbCircle
 10
596.63071712719443
 20
881.878831263477
 30
0
 40
4.5111517758367468
100
AcDbArc
 50
21.456285721086719
 51
80.100493684989857
  0
LINE
  5
4B
330
1F
100
AcDbEntity
  8
0
 62
7
100
AcDbLine
 10
597.40627710199294
 20
886.32281563227548
 30
0
 11
485.548706459581
 21
883.35646188019655
 31
0
  0
ARC
  5
4C
330
1F
100
AcDbEntity
  8
0
 62
7
100
AcDbCircle
 10
485.57521616498514
 20
882.35681332419324
 30
0
 40
0.99999999999999956
100
AcDbArc
 50
91.519072196229132
 51
179.44152035255945
  0
LINE
  5
4D
330
1F
100
AcDbEntity
  8
0
 62
7
100
AcDbLine
 10
484.575263669622
 20
882.36656047849851
 30
0
 11
483.51070531899995
 21
773.1544001163079
 31
0
  0
ARC
  5
4E
330
1F
100
AcDbEntity
  8
0
 62
7
100
AcDbCircle
 10
482.62095456488919
 20
773.545204628246
 30
0
 40
0.97179451068209455
100
AcDbArc
 50
270.71570908212368
 51
336.28751634185232
  0
LINE
  5
4F
330
1F
100
AcDbEntity
  8
0
 62
7
100
AcDbLine
 10
482.63309340086334
 20
772.573485934563
 30
0
 11
473.18859449775073
 21
772.67574569029091
 31
0
  0
ARC
  5
50
330
1F
100
AcDbEntity
  8
0
 62
7
100
AcDbCircle
 10
473.23618153111482
 20
773.59706026288245
 30
0
 40
0.9225427184764583
100
AcDbArc
 50
177.04322989879552
 51
267.04322989874964
  0
LINE
  5
51
330
1F
100
AcDbEntity
  8
0
 62
7
100
AcDbLine
 10
472.31486695852328
 20
773.64464729624581
 30
0
 11
473.31915613313657
 21
866.3987120852222
 31
0
  0
ARC
  5
52
330
1F
100
AcDbEntity
  8
0
 62
7
100
AcDbCircle
 10
468.86122990647112
 20
866.56748426141382
 30
0
 40
4.4611198470616982
100
AcDbArc
 50
357.83188036028048
 51
69.726218220268365
  0
ARC
  5
53
330
1F
100
AcDbEntity
  8
0
 62
7
100
AcDbCircle
 10
442.7306896815615
 20
784.30086991856024
 30
0
 40
90.773439522820937
100
AcDbArc
 50
72.248166849637144
 51
105.83819887833322
  0
ARC
  5
54
330
1F
100
AcDbEntity
  8
0
 62
7
100
AcDbCircle
 10
419.25660000883823
 20
867.33961531809155
 30
0
 40
4.4812846766413381
100
AcDbArc
 50
106.8630142754586
 51
175.34340357046054
  0
LINE
  5
55
330
1F
100
AcDbEntity
  8
0
 62
7
100
AcDbLine
 10
414.79010728144954
 20
867.70342168043908
 30
0
 11
414.57040733814449
 21
847.41239068008713
 31
0
  0
ARC
  5
56
330
1F
100
AcDbEntity
  8
0
 62
7
100
AcDbCircle
 10
414.27664815619448
 20
847.5307164202278
 30
0
 40
0.31669454962115923
100
AcDbArc
 50
267.59124204595378
 51
338.06050094454361
  0
LINE
  5
57
330
1F
100
AcDbEntity
  8
0
 62
7
100
AcDbLine
 10
414.26333799912635
 20
847.21430169636278
 30
0
 11
413.57718094948444
 21
847.22173102141255
 31
0
  0
LINE
  5
58
330
1F
100
AcDbEntity
  8
0
 62
7
100
AcDbLine
 10
413.57718094948444
 20
847.22173102141255
 30
0
 11
395.44239010686624
 21
892.3323790620293
 31
0
  0
ARC
  5
59
330
1F
100
AcDbEntity
  8
0
 62
7
100
AcDbCircle
 10
392.23834199591045
 20
891.04851032039949
 30
0
 40
3.451701499703268
100
AcDbArc
 50
21.836078852302766
 51
91.226124470877537
  0
LINE
  5
5A
330
1F
100
AcDbEntity
  8
0
 62
7
100
AcDbLine
 10
392.16448153550408
 20
894.49942148637319
 30
0
 11
370.84839935652104
 21
894.73022011095418
 31
0
  0
LINE
  5
5B
330
1F
100
AcDbEntity
  8
0
 62
7
100
AcDbLine
 10
370.84839935652104
 20
894.73022011095418
 30
0
 11
349.53231717753937
 21
894.96101873553482
 31
0
  0
ARC
  5
5C
330
1F
100
AcDbEntity
  8
0
 62
7
100
AcDbCircle
 10
349.38375371777784
 20
891.51251585145928
 30
0
 40
3.451701499703268
100
AcDbArc
 50
87.533190653239771
 51
156.92323627191976
  0
LINE
  5
5D
330
1F
100
AcDbEntity
  8
0
 62
7
100
AcDbLine
 10
346.2082555296389
 20
892.86545875497734
 30
0
 11
327.10096493529869
 21
848.1580471580952
 31
0
  0
LINE
  5
5E
330
1F
100
AcDbEntity
  8
0
 62
7
100
AcDbLine
 10
327.10096493529869
 20
848.1580471580952
 30
0
 11
326.41480788565542
 21
848.16547648314588
 31
0
  0
ARC
  5
5F
330
1F
100
AcDbEntity
  8
0
 62
7
100
AcDbCircle
 10
326.40835196941191
 20
848.48210522300565
 30
0
 40
0.31669454962115923
100
AcDbArc
 50
200.69881417955096
 51
271.1680730785468
  0
LINE
  5
60
330
1F
100
AcDbEntity
  8
0
 62
7
100
AcDbLine
 10
326.11209962659933
 20
848.37016779790667
 30
0
 11
326.33179956990671
 21
868.66119879825953
 31
0
  0
ARC
  5
61
330
1F
100
AcDbEntity
  8
0
 62
7
100
AcDbCircle
 10
321.85847670428967
 20
868.394187762817
 30
0
 40
4.4812846766413381
100
AcDbArc
 50
3.4159115537542881
 51
71.896300848108652
  0
ARC
  5
62
330
1F
100
AcDbEntity
  8
0
 62
7
100
AcDbCircle
 10
296.59190681671521
 20
785.88317898454738
 30
0
 40
90.773439522820937
100
AcDbArc
 50
72.921116245834568
 51
106.51114827455498
  0
ARC
  5
63
330
1F
100
AcDbEntity
  8
0
 62
7
100
AcDbCircle
 10
272.24875764305972
 20
868.69629422718549
 30
0
 40
4.4611198470616982
100
AcDbArc
 50
109.03309690377051
 51
180.9274347639163
  0
LINE
  5
64
330
1F
100
AcDbEntity
  8
0
 62
7
100
AcDbLine
 10
267.78822221710084
 20
868.62408616936818
 30
0
 11
266.78393304248391
 21
775.870021380392
 31
0
  0
ARC
  5
65
330
1F
100
AcDbEntity
  8
0
 62
7
100
AcDbCircle
 10
265.86180409159067
 20
775.84239412322722
 30
0
 40
0.9225427184764583
100
AcDbArc
 50
271.71608522534376
 51
1.7160852253755547
  0
LINE
  5
66
330
1F
100
AcDbEntity
  8
0
 62
7
100
AcDbLine
 10
265.88943134875495
 20
774.920265172334
 30
0
 11
256.44493244564177
 21
775.02252492806133
 31
0
  0
ARC
  5
67
330
1F
100
AcDbEntity
  8
0
 62
7
100
AcDbCircle
 10
256.47810842307649
 20
775.99375297827055
 30
0
 40
0.97179451068209455
100
AcDbArc
 50
202.47179878232956
 51
268.04360604190992
  0
LINE
  5
68
330
1F
100
AcDbEntity
  8
0
 62
7
100
AcDbLine
 10
255.58010442799775
 20
775.62230527560644
 30
0
 11
256.88049490053265
 21
884.83191217938463
 31
0
  0
ARC
  5
69
330
1F
100
AcDbEntity
  8
0
 62
7
100
AcDbCircle
 10
255.880565784774
 20
884.84381862545786
 30
0
 40
0.99999999999999956
100
AcDbArc
 50
359.31779477172785
 51
87.240242928020265
  0
LINE
  5
6A
330
1F
100
AcDbEntity
  8
0
 62
7
100
AcDbLine
 10
255.9287140095185
 20
885.84265882711884
 30
0
 11
144.16159570899606
 21
891.230295730436
 31
0
  0
ARC
  5
6B
330
1F
100
AcDbEntity
  8
0
 62
7
100
AcDbCircle
 10
144.84075118430346
 20
886.7705605157629
 30
0
 40
4.5111517758367468
100
AcDbArc
 50
98.65882143917537
 51
157.30302940311785
  0
LINE
  5
6C
330
1F
100
AcDbEntity
  8
0
 62
7
100
AcDbLine
 10
140.678949803904
 20
888.51122119916454
 30
0
 11
118.12560737816877
 21
807.1099423253022
 31
0
  0
LINE
  5
6D
330
1F
100
AcDbEntity
  8
0
 62
7
100
AcDbLine
 10
118.12560737816877
 20
807.1099423253022
 30
0
 11
255.33917517101702
 21
700.54342026875759
 31
0
  0
LINE
  5
6E
330
1F
100
AcDbEntity
  8
0
 62
7
100
AcDbLine
 10
255.33917517101702
 20
700.54342026875759
 30
0
 11
254.78471040121036
 21
635.45510233065966
 31
0
  0
LINE
  5
6F
330
1F
100
AcDbEntity
  8
0
 62
7
100
AcDbLine
 10
254.78471040121036
 20
635.45510233065966
 30
0
 11
243.73265160787111
 21
635.5832955204263
 31
0
  0
LINE
  5
70
330
1F
100
AcDbEntity
  8
0
 62
7
100
AcDbLine
 10
243.73265160787111
 20
635.5832955204263
 30
0
 11
244.34543189767544
 21
690.51141191131342
 31
0
  0
LINE
  5
71
330
1F
100
AcDbEntity
  8
0
 62
7
100
AcDbLine
 10
244.34543189767544
 20
690.51141191131342
 30
0
 11
12.960230139135145
 21
717.72260506015664
 31
0
  0
ARC
  5
72
330
1F
100
AcDbEntity
  8
0
 62
7
100
AcDbCircle
 10
11.298465421562932
 20
700.83273991497049
 30
0
 40
16.971417342082631
100
AcDbArc
 50
84.380852039904042
 51
92.9310317781374
  0
ARC
  5
73
330
1F
100
AcDbEntity
  8
0
 62
7
100
AcDbCircle
 10
10.319394666858253
 20
714.94228887728946
 30
0
 40
2.84184519167821
100
AcDbArc
 50
87.756323467796591
 51
111.27336765055513
  0
ARC
  5
74
330
1F
100
AcDbEntity
  8
0
 62
7
100
AcDbCircle
 10
10.698174363969651
 20
713.96761875511322
 30
0
 40
3.8875294600753558
100
AcDbArc
 50
111.26366475832137
 51
148.39147485654078
  0
ARC
  5
75
330
1F
100
AcDbEntity
  8
0
 62
7
100
AcDbCircle
 10
14.149200515120778
 20
712.58916745950421
 30
0
 40
7.5756966388590321
100
AcDbArc
 50
153.19793999615948
 51
179.78296771079235
  0
LINE
  5
76
330
1F
100
AcDbEntity
  8
0
 62
7
100
AcDbLine
 10
6.573558225754887
 20
712.61786358452389
 30
0
 11
6.1270813852302712
 21
671.6201562020168
 31
0
  0
ARC
  5
77
330
1F
100
AcDbEntity
  8
0
 62
7
100
AcDbCircle
 10
5.7069083555136082
 20
671.56737175676687
 30
0
 40
0.42347558673626379
100
AcDbArc
 50
292.94074188551809
 51
7.1603005489659113
  0
LINE
  5
78
330
1F
100
AcDbEntity
  8
0
 62
7
100
AcDbLine
 10
5.8719701989203266
 20
671.177389500231
 30
0
 11
5.2165484549933847
 21
671.02968733254227
 31
0
  0
LINE
  5
79
330
1F
100
AcDbEntity
  8
0
 62
7
100
AcDbLine
 10
5.2165484549933847
 20
671.02968733254227
 30
0
 11
5.164739634882082
 21
662.75102648222946
 31
0
  0
LINE
  5
7A
330
1F
100
AcDbEntity
  8
0
 62
7
100
AcDbLine
 10
5.164739634882082
 20
662.75102648222946
 30
0
 11
5.0656345521833037
 21
643.87263417362351
 31
0
  0
LINE
  5
7B
330
1F
100
AcDbEntity
  8
0
 62
7
100
AcDbLine
 10
236.30456228206347
 20
823.77846477058085
 30
0
 11
236.31169296937017
 21
818.95342953806426
 31
0
  0
ARC
  5
7C
330
1F
100
AcDbEntity
  8
0
 62
7
100
AcDbCircle
 10
237.06331043202309
 20
819.28534418294555
 30
0
 40
0.82164234412028825
100
AcDbArc
 50
203.82627698527685
 51
341.13567780777873
  0
LINE
  5
7D
330
1F
100
AcDbEntity
  8
0
 62
7
100
AcDbLine
 10
237.84081980003168
 20
819.01968401598333
 30
0
 11
237.83026244068543
 21
823.97904508142
 31
0
  0
ARC
  5
7E
330
1F
100
AcDbEntity
  8
0
 62
7
100
AcDbCircle
 10
237.06431568212642
 20
823.90230960093425
 30
0
 40
0.76978098892636715
100
AcDbArc
 50
5.72102139393451
 51
189.25816413003031
  0
ARC
  5
7F
330
1F
100
AcDbEntity
  8
0
 62
7
100
AcDbCircle
 10
503.32530088627061
 20
821.48648650262078
 30
0
 40
0.76978098892636715
100
AcDbArc
 50
349.70215918199074
 51
173.23930191927136
  0
LINE
  5
80
330
1F
100
AcDbEntity
  8
0
 62
7
100
AcDbLine
 10
502.56087257449627
 20
821.577107289807
 30
0
 11
502.46033041016744
 21
816.618754245862
 31
0
  0
ARC
  5
81
330
1F
100
AcDbEntity
  8
0
 62
7
100
AcDbCircle
 10
503.24253212343473
 20
816.87026293639417
 30
0
 40
0.82164234412028825
100
AcDbArc
 50
197.82464550498071
 51
335.13404632720614
  0
LINE
  5
82
330
1F
100
AcDbEntity
  8
0
 62
7
100
AcDbLine
 10
503.98800332711863
 20
816.52476499699424
 30
0
 11
504.08268207010906
 21
821.34887649833342
 31
0
  0
LINE
  5
83
330
1F
100
AcDbEntity
  8
0
 62
7
100
AcDbLine
 10
480.12866926690862
 20
536.797011113867
 30
0
 11
480.29940778557489
 21
552.71572426192279
 31
0
  0
LINE
  5
84
330
1F
100
AcDbEntity
  8
0
 62
7
100
AcDbLine
 10
480.29940778557489
 20
552.71572426192279
 30
0
 11
475.41829341492422
 21
552.878400500337
 31
0
  0
LINE
  5
85
330
1F
100
AcDbEntity
  8
0
 62
7
100
AcDbLine
 10
475.41829341492422
 20
552.878400500337
 30
0
 11
475.28445927396069
 21
536.84896840655847
 31
0
  0
LINE
  5
86
330
1F
100
AcDbEntity
  8
0
 62
7
100
AcDbLine
 10
475.28445927396069
 20
536.84896840655847
 30
0
 11
480.12866926690862
 21
536.797011113867
 31
0
  0
ARC
  5
87
330
1F
100
AcDbEntity
  8
0
 62
7
100
AcDbCircle
 10
500.36686501178656
 20
655.55377313999156
 30
0
 40
0.76978098892636715
100
AcDbArc
 50
349.70215918245464
 51
173.23930191882002
  0
LINE
  5
88
330
1F
100
AcDbEntity
  8
0
 62
7
100
AcDbLine
 10
499.6024367000129
 20
655.64439392718384
 30
0
 11
499.50189453568504
 21
650.68604088323877
 31
0
  0
ARC
  5
89
330
1F
100
AcDbEntity
  8
0
 62
7
100
AcDbCircle
 10
500.28409624895153
 20
650.93754957377337
 30
0
 40
0.82164234412028825
100
AcDbArc
 50
197.82464550515618
 51
335.13404632702174
  0
LINE
  5
8A
330
1F
100
AcDbEntity
  8
0
 62
7
100
AcDbLine
 10
501.0295674526343
 20
650.592051634371
 30
0
 11
501.12424619562609
 21
655.41616313571035
 31
0
  0
LINE
  5
8B
330
1F
100
AcDbEntity
  8
0
 62
7
100
AcDbLine
 10
475.99362912032058
 20
635.76533764505382
 30
0
 11
471.89680901851835
 21
635.81634575120393
 31
0
  0
ARC
  5
8C
330
1F
100
AcDbEntity
  8
0
 62
7
100
AcDbCircle
 10
471.89058417196145
 20
635.31638450142009
 30
0
 40
0.50000000000000011
100
AcDbArc
 50
89.286666700370859
 51
179.28666670042932
  0
LINE
  5
8D
330
1F
100
AcDbEntity
  8
0
 62
7
100
AcDbLine
 10
471.39062292217773
 20
635.32260934797648
 30
0
 11
471.13975495466923
 21
615.17363676782088
 31
0
  0
ARC
  5
8E
330
1F
100
AcDbEntity
  8
0
 62
7
100
AcDbCircle
 10
471.639716204453
 20
615.16741192126494
 30
0
 40
0.50000000000000011
100
AcDbArc
 50
179.2866667004815
 51
270.54098484763534
  0
LINE
  5
8F
330
1F
100
AcDbEntity
  8
0
 62
7
100
AcDbLine
 10
471.64443711770411
 20
614.66743420878367
 30
0
 11
475.72384330606519
 21
614.7059529712227
 31
0
  0
ARC
  5
90
330
1F
100
AcDbEntity
  8
0
 62
7
100
AcDbCircle
 10
475.719122392815
 20
615.20593068370408
 30
0
 40
0.50000000000000011
100
AcDbArc
 50
270.54098484753104
 51
359.23375235253889
  0
LINE
  5
91
330
1F
100
AcDbEntity
  8
0
 62
7
100
AcDbLine
 10
476.21907768055945
 20
615.19924411085879
 30
0
 11
476.48735956150949
 21
635.25868982242469
 31
0
  0
ARC
  5
92
330
1F
100
AcDbEntity
  8
0
 62
7
100
AcDbCircle
 10
475.98740427376509
 20
635.26537639527
 30
0
 40
0.50000000000000011
100
AcDbArc
 50
359.23375235253883
 51
89.286666700533686
  0
LINE
  5
93
330
1F
100
AcDbEntity
  8
0
 62
7
100
AcDbLine
 10
254.16187981597653
 20
539.01917292676262
 30
0
 11
259.0061747516346
 21
538.97585327309935
 31
0
  0
LINE
  5
94
330
1F
100
AcDbEntity
  8
0
 62
7
100
AcDbLine
 10
259.0061747516346
 20
538.97585327309935
 30
0
 11
259.18760350333167
 21
555.00481732054845
 31
0
  0
LINE
  5
95
330
1F
100
AcDbEntity
  8
0
 62
7
100
AcDbLine
 10
259.18760350333167
 20
555.00481732054845
 30
0
 11
254.30423391320582
 21
554.93816520777216
 31
0
  0
LINE
  5
96
330
1F
100
AcDbEntity
  8
0
 62
7
100
AcDbLine
 10
254.30423391320582
 20
554.93816520777216
 30
0
 11
254.16187981597653
 21
539.01917292676262
 31
0
  0
LINE
  5
97
330
1F
100
AcDbEntity
  8
0
 62
7
100
AcDbLine
 10
235.50314388129863
 20
658.02828623440223
 30
0
 11
235.50293267541866
 21
653.20324573746132
 31
0
  0
ARC
  5
98
330
1F
100
AcDbEntity
  8
0
 62
7
100
AcDbCircle
 10
236.25505431692741
 20
653.53401631962606
 30
0
 40
0.82164234412028814
100
AcDbArc
 50
203.73909437184784
 51
341.04849519387744
  0
LINE
  5
99
330
1F
100
AcDbEntity
  8
0
 62
7
100
AcDbLine
 10
237.03215855019707
 20
653.26717338401431
 30
0
 11
237.0291474812922
 21
658.22654477247363
 31
0
  0
ARC
  5
9A
330
1F
100
AcDbEntity
  8
0
 62
7
100
AcDbCircle
 10
236.26308484696654
 20
658.150974863102
 30
0
 40
0.76978098892636659
100
AcDbArc
 50
5.633838778752752
 51
189.17098151787769
  0
ARC
  5
9B
330
1F
100
AcDbEntity
  8
0
 62
7
100
AcDbCircle
 10
260.23883627379928
 20
637.38705201920311
 30
0
 40
0.5
100
AcDbArc
 50
89.58647399837875
 51
179.63938834643156
  0
LINE
  5
9C
330
1F
100
AcDbEntity
  8
0
 62
7
100
AcDbLine
 10
259.7388461769371
 20
637.39019892876468
 30
0
 11
259.61258436300989
 21
617.32935658909093
 31
0
  0
ARC
  5
9D
330
1F
100
AcDbEntity
  8
0
 62
7
100
AcDbCircle
 10
260.112574459872
 20
617.32620967952914
 30
0
 40
0.5
100
AcDbArc
 50
179.63938834640544
 51
268.33215585135122
  0
LINE
  5
9E
330
1F
100
AcDbEntity
  8
0
 62
7
100
AcDbLine
 10
260.09802182938182
 20
616.82642150345259
 30
0
 11
264.17588155684405
 21
616.70768402896374
 31
0
  0
ARC
  5
9F
330
1F
100
AcDbEntity
  8
0
 62
7
100
AcDbCircle
 10
264.19043418733514
 20
617.20747220504018
 30
0
 40
0.5
100
AcDbArc
 50
268.33215585124668
 51
359.586473998457
  0
LINE
  5
A0
330
1F
100
AcDbEntity
  8
0
 62
7
100
AcDbLine
 10
264.6904211647111
 20
617.20386354123525
 30
0
 11
264.8358541719532
 21
637.35387297084571
 31
0
  0
ARC
  5
A1
330
1F
100
AcDbEntity
  8
0
 62
7
100
AcDbCircle
 10
264.33586719457725
 20
637.35748163465018
 30
0
 40
0.5
100
AcDbArc
 50
359.58647399850906
 51
89.586473998528646
  0
LINE
  5
A2
330
1F
100
AcDbEntity
  8
0
 62
7
100
AcDbLine
 10
264.33947585838155
 20
637.8574686120262
 30
0
 11
260.24244493760489
 21
637.887038996579
 31
0
  0
LINE
  5
A3
330
1F
100
AcDbEntity
  8
0
 62
7
100
AcDbLine
 10
366.85482452120368
 20
514.44276581935014
 30
0
 11
362.94593509667357
 21
514.48577320135882
 31
0
  0
LINE
  5
A4
330
1F
100
AcDbEntity
  8
0
 62
7
100
AcDbLine
 10
362.94593509667357
 20
514.48577320135882
 30
0
 11
362.77802592183224
 21
498.44264063503658
 31
0
  0
LINE
  5
A5
330
1F
100
AcDbEntity
  8
0
 62
7
100
AcDbLine
 10
362.77802592183224
 20
498.44264063503658
 30
0
 11
366.785733994776
 21
498.33584708708929
 31
0
  0
LINE
  5
A6
330
1F
100
AcDbEntity
  8
0
 62
7
100
AcDbLine
 10
366.785733994776
 20
498.33584708708929
 30
0
 11
370.73554556904571
 21
498.36438623168647
 31
0
  0
LINE
  5
A7
330
1F
100
AcDbEntity
  8
0
 62
7
100
AcDbLine
 10
370.73554556904571
 20
498.36438623168647
 30
0
 11
370.88317531225459
 21
514.40771822633462
 31
0
  0
LINE
  5
A8
330
1F
100
AcDbEntity
  8
0
 62
7
100
AcDbLine
 10
370.88317531225459
 20
514.40771822633462
 30
0
 11
366.85482452120368
 21
514.44276581935014
 31
0
  0
LINE
  5
A9
330
1F
100
AcDbEntity
  8
0
 62
7
100
AcDbLine
 10
367.81261787203067
 20
617.11979594770139
 30
0
 11
353.001691800275
 21
603.1519643745853
 31
0
  0
LINE
  5
AA
330
1F
100
AcDbEntity
  8
0
 62
7
100
AcDbLine
 10
353.001691800275
 20
603.1519643745853
 30
0
 11
260.01527735261715
 21
604.09180542685715
 31
0
  0
LINE
  5
AB
330
1F
100
AcDbEntity
  8
0
 62
7
100
AcDbLine
 10
260.01527735261715
 20
604.09180542685715
 30
0
 11
259.99901861871842
 21
574.65745065058309
 31
0
  0
LINE
  5
AC
330
1F
100
AcDbEntity
  8
0
 62
7
100
AcDbLine
 10
259.99901861871842
 20
574.65745065058309
 30
0
 11
345.06242954386579
 21
573.92601012407226
 31
0
  0
LINE
  5
AD
330
1F
100
AcDbEntity
  8
0
 62
7
100
AcDbLine
 10
345.06242954386579
 20
573.92601012407226
 30
0
 11
344.8067871536316
 21
548.93330755127306
 31
0
  0
LINE
  5
AE
330
1F
100
AcDbEntity
  8
0
 62
7
100
AcDbLine
 10
344.8067871536316
 20
548.93330755127306
 30
0
 11
367.23169110050145
 21
548.695717695564
 31
0
  0
LINE
  5
AF
330
1F
100
AcDbEntity
  8
0
 62
7
100
AcDbLine
 10
367.23169110050145
 20
548.695717695564
 30
0
 11
389.69626512929329
 21
548.49186354969777
 31
0
  0
LINE
  5
B0
330
1F
100
AcDbEntity
  8
0
 62
7
100
AcDbLine
 10
389.69626512929329
 20
548.49186354969777
 30
0
 11
389.93218209537815
 21
573.48476010270247
 31
0
  0
LINE
  5
B1
330
1F
100
AcDbEntity
  8
0
 62
7
100
AcDbLine
 10
389.93218209537815
 20
573.48476010270247
 30
0
 11
474.99352660677323
 21
572.54319046750845
 31
0
  0
LINE
  5
B2
330
1F
100
AcDbEntity
  8
0
 62
7
100
AcDbLine
 10
474.99352660677323
 20
572.54319046750845
 30
0
 11
475.55613107434471
 21
601.97217246918592
 31
0
  0
LINE
  5
B3
330
1F
100
AcDbEntity
  8
0
 62
7
100
AcDbLine
 10
475.55613107434471
 20
601.97217246918592
 30
0
 11
382.56921689362395
 21
602.86119675637042
 31
0
  0
LINE
  5
B4
330
1F
100
AcDbEntity
  8
0
 62
7
100
AcDbLine
 10
382.56921689362395
 20
602.86119675637042
 30
0
 11
367.81261787203067
 21
617.11979594770139
 31
0
  0
LINE
  5
B5
330
1F
100
AcDbEntity
  8
0
 62
1
100
AcDbLine
 10
730.75287940403064
 20
667.87024180491892
 30
0
 11
492.47507698681761
 21
635.50497114310281
 31
0
  0
LINE
  5
B6
330
1F
100
AcDbEntity
  8
0
 62
1
100
AcDbLine
 10
243.75906413324768
 20
637.9508492624575
 30
0
 11
6.1638438208603343
 21
674.99586450738855
 31
0
  0
LINE
  5
B7
330
1F
100
AcDbEntity
  8
0
 62
1
100
AcDbLine
 10
123.08728355617698
 20
825.01801016836077
 30
0
 11
255.89450045877365
 21
802.02596452906141
 31
0
  0
LINE
  5
B8
330
1F
100
AcDbEntity
  8
0
 62
1
100
AcDbLine
 10
483.76808410408961
 20
799.55867672063346
 30
0
 11
617.0419974300512
 21
819.66974459075186
 31
0
  0
LINE
  5
B9
330
1F
100
AcDbEntity
  8
0
 62
7
100
AcDbLine
 10
731.12666383476164
 20
295.14105410924606
 30
0
 11
730.61846562703624
 21
308.84330929582256
 31
0
  0
LINE
  5
BA
330
1F
100
AcDbEntity
  8
0
 62
7
100
AcDbLine
 10
730.61846562703624
 20
308.84330929582256
 30
0
 11
729.75243080737653
 21
328.82560469446241
 31
0
  0
LINE
  5
BB
330
1F
100
AcDbEntity
  8
0
 62
7
100
AcDbLine
 10
729.75243080737653
 20
328.82560469446241
 30
0
 11
694.44263786405327
 21
327.34280637410586
 31
0
  0
LINE
  5
BC
330
1F
100
AcDbEntity
  8
0
 62
7
100
AcDbLine
 10
694.44263786405327
 20
327.34280637410586
 30
0
 11
689.16306211251788
 21
453.7354826617352
 31
0
  0
LINE
  5
BD
330
1F
100
AcDbEntity
  8
0
 62
7
100
AcDbLine
 10
689.16306211251788
 20
453.7354826617352
 30
0
 11
724.34514914703129
 21
455.5326069790321
 31
0
  0
LINE
  5
BE
330
1F
100
AcDbEntity
  8
0
 62
7
100
AcDbLine
 10
724.34514914703129
 20
455.5326069790321
 30
0
 11
723.86352161176274
 21
465.39670923011005
 31
0
  0
LINE
  5
BF
330
1F
100
AcDbEntity
  8
0
 62
7
100
AcDbLine
 10
723.86352161176274
 20
465.39670923011005
 30
0
 11
723.24075385451386
 21
479.01963679558185
 31
0
  0
LINE
  5
C0
330
1F
100
AcDbEntity
  8
0
 62
7
100
AcDbLine
 10
723.24075385451386
 20
479.01963679558185
 30
0
 11
722.2471677276917
 21
501.40219397438523
 31
0
  0
LINE
  5
C1
330
1F
100
AcDbEntity
  8
0
 62
7
100
AcDbLine
 10
722.2471677276917
 20
501.40219397438523
 30
0
 11
727.24945569787781
 21
501.61766453273481
 31
0
  0
LINE
  5
C2
330
1F
100
AcDbEntity
  8
0
 62
7
100
AcDbLine
 10
727.24945569787781
 20
501.61766453273481
 30
0
 11
726.39042468207026
 21
520.18682246765866
 31
0
  0
LINE
  5
C3
330
1F
100
AcDbEntity
  8
0
 62
7
100
AcDbLine
 10
726.39042468207026
 20
520.18682246765866
 30
0
 11
721.39968734459069
 21
519.96385694784124
 31
0
  0
LINE
  5
C4
330
1F
100
AcDbEntity
  8
0
 62
7
100
AcDbLine
 10
721.39968734459069
 20
519.96385694784124
 30
0
 11
719.784532858393
 21
553.886029592491
 31
0
  0
LINE
  5
C5
330
1F
100
AcDbEntity
  8
0
 62
7
100
AcDbLine
 10
719.784532858393
 20
553.886029592491
 30
0
 11
662.32093280753872
 21
551.21355012336289
 31
0
  0
LINE
  5
C6
330
1F
100
AcDbEntity
  8
0
 62
7
100
AcDbLine
 10
662.32093280753872
 20
551.21355012336289
 30
0
 11
668.77143099704676
 21
405.03239544641934
 31
0
  0
LINE
  5
C7
330
1F
100
AcDbEntity
  8
0
 62
7
100
AcDbLine
 10
668.77143099704676
 20
405.03239544641934
 30
0
 11
671.76695259736948
 21
405.09428575737638
 31
0
  0
LINE
  5
C8
330
1F
100
AcDbEntity
  8
0
 62
7
100
AcDbLine
 10
671.76695259736948
 20
405.09428575737638
 30
0
 11
673.11510471167855
 21
373.78035747634488
 31
0
  0
LINE
  5
C9
330
1F
100
AcDbEntity
  8
0
 62
7
100
AcDbLine
 10
673.11510471167855
 20
373.78035747634488
 30
0
 11
670.13379779203012
 21
373.68034096040623
 31
0
  0
LINE
  5
CA
330
1F
100
AcDbEntity
  8
0
 62
7
100
AcDbLine
 10
670.13379779203012
 20
373.68034096040623
 30
0
 11
670.84375585599344
 21
355.33189605584352
 31
0
  0
LINE
  5
CB
330
1F
100
AcDbEntity
  8
0
 62
7
100
AcDbLine
 10
670.84375585599344
 20
355.33189605584352
 30
0
 11
665.80691066786244
 21
355.17673738088229
 31
0
  0
LINE
  5
CC
330
1F
100
AcDbEntity
  8
0
 62
7
100
AcDbLine
 10
665.80691066786244
 20
355.17673738088229
 30
0
 11
659.2668034944644
 21
501.30198646338459
 31
0
  0
LINE
  5
CD
330
1F
100
AcDbEntity
  8
0
 62
7
100
AcDbLine
 10
659.2668034944644
 20
501.30198646338459
 30
0
 11
663.27162086289184
 21
501.52748240597441
 31
0
  0
LINE
  5
CE
330
1F
100
AcDbEntity
  8
0
 62
7
100
AcDbLine
 10
663.27162086289184
 20
501.52748240597441
 30
0
 11
662.487848816826
 21
516.261021187405
 31
0
  0
LINE
  5
CF
330
1F
100
AcDbEntity
  8
0
 62
7
100
AcDbLine
 10
662.487848816826
 20
516.261021187405
 30
0
 11
658.53948438044984
 21
516.05098219278079
 31
0
  0
LINE
  5
D0
330
1F
100
AcDbEntity
  8
0
 62
7
100
AcDbLine
 10
658.53948438044984
 20
516.05098219278079
 30
0
 11
656.91732226797217
 21
550.812445720751
 31
0
  0
LINE
  5
D1
330
1F
100
AcDbEntity
  8
0
 62
7
100
AcDbLine
 10
656.91732226797217
 20
550.812445720751
 30
0
 11
635.76827931668515
 21
549.90054382865219
 31
0
  0
LINE
  5
D2
330
1F
100
AcDbEntity
  8
0
 62
7
100
AcDbLine
 10
635.76827931668515
 20
549.90054382865219
 30
0
 11
635.91182565015106
 21
506.11295560532437
 31
0
  0
ARC
  5
D3
330
1F
100
AcDbEntity
  8
0
 62
7
100
AcDbCircle
 10
-122.42491776534678
 20
524.420060971984
 30
0
 40
758.55768832761066
100
AcDbArc
 50
348.0559095536334
 51
358.6170837891907
  0
LINE
  5
D4
330
1F
100
AcDbEntity
  8
0
 62
7
100
AcDbLine
 10
619.71000908039571
 20
367.4311541135915
 30
0
 11
598.99239026041141
 21
278.91158017938591
 31
0
  0
ARC
  5
D5
330
1F
100
AcDbEntity
  8
0
 62
7
100
AcDbCircle
 10
800.60847548724689
 20
254.81176700871606
 30
0
 40
203.05134034784351
100
AcDbArc
 50
173.18359478853341
 51
187.05321319901452
  0
ARC
  5
D6
330
1F
100
AcDbEntity
  8
0
 62
7
100
AcDbCircle
 10
807.35463086470384
 20
255.73936172474549
 30
0
 40
209.8603650955209
100
AcDbArc
 50
187.07838749188815
 51
203.84085851345156
  0
LINE
  5
D7
330
1F
100
AcDbEntity
  8
0
 62
7
100
AcDbLine
 10
615.40130218893955
 20
170.91429203235248
 30
0
 11
632.86725018943412
 21
128.20093921425294
 31
0
  0
LINE
  5
D8
330
1F
100
AcDbEntity
  8
0
 62
7
100
AcDbLine
 10
632.86725018943412
 20
128.20093921425294
 30
0
 11
638.02973831151189
 21
114.41965832434462
 31
0
  0
LINE
  5
D9
330
1F
100
AcDbEntity
  8
0
 62
7
100
AcDbLine
 10
638.02973831151189
 20
114.41965832434462
 30
0
 11
641.53060960356152
 21
104.81623196171321
 31
0
  0
LINE
  5
DA
330
1F
100
AcDbEntity
  8
0
 62
7
100
AcDbLine
 10
641.53060960356152
 20
104.81623196171321
 30
0
 11
645.64267213224593
 21
93.220830730453
 31
0
  0
LINE
  5
DB
330
1F
100
AcDbEntity
  8
0
 62
7
100
AcDbLine
 10
645.64267213224593
 20
93.220830730453
 30
0
 11
657.58128685922327
 21
60.292646224720954
 31
0
  0
LINE
  5
DC
330
1F
100
AcDbEntity
  8
0
 62
7
100
AcDbLine
 10
657.58128685922327
 20
60.292646224720954
 30
0
 11
669.91846244993826
 21
34.389536667700611
 31
0
  0
LINE
  5
DD
330
1F
100
AcDbEntity
  8
0
 62
7
100
AcDbLine
 10
669.91846244993826
 20
34.389536667700611
 30
0
 11
677.85798162540357
 21
20.718538359342972
 31
0
  0
ARC
  5
DE
330
1F
100
AcDbEntity
  8
0
 62
7
100
AcDbCircle
 10
682.52286662062249
 20
23.874946043137527
 30
0
 40
5.6324116934875654
100
AcDbArc
 50
214.0835161486543
 51
276.90672696027303
  0
ARC
  5
DF
330
1F
100
AcDbEntity
  8
0
 62
7
100
AcDbCircle
 10
682.56561653390111
 20
24.916558058975685
 30
0
 40
6.6634346786556069
100
AcDbArc
 50
275.46462551007772
 51
320.98152310898297
  0
LINE
  5
E0
330
1F
100
AcDbEntity
  8
0
 62
7
100
AcDbLine
 10
687.74272530475082
 20
20.7214529957501
 30
0
 11
691.816699074429
 21
26.255715774851012
 31
0
  0
LINE
  5
E1
330
1F
100
AcDbEntity
  8
0
 62
7
100
AcDbLine
 10
691.816699074429
 20
26.255715774851012
 30
0
 11
695.542080380039
 21
32.38786136522441
 31
0
  0
LINE
  5
E2
330
1F
100
AcDbEntity
  8
0
 62
7
100
AcDbLine
 10
695.542080380039
 20
32.38786136522441
 30
0
 11
698.95127922899576
 21
39.176386489625855
 31
0
  0
LINE
  5
E3
330
1F
100
AcDbEntity
  8
0
 62
7
100
AcDbLine
 10
698.95127922899576
 20
39.176386489625855
 30
0
 11
700.97507872386791
 21
43.873457058934491
 31
0
  0
LINE
  5
E4
330
1F
100
AcDbEntity
  8
0
 62
7
100
AcDbLine
 10
700.97507872386791
 20
43.873457058934491
 30
0
 11
702.78339824567308
 21
48.909198635975258
 31
0
  0
LINE
  5
E5
330
1F
100
AcDbEntity
  8
0
 62
7
100
AcDbLine
 10
702.78339824567308
 20
48.909198635975258
 30
0
 11
705.32979450360654
 21
59.062993179394141
 31
0
  0
LINE
  5
E6
330
1F
100
AcDbEntity
  8
0
 62
7
100
AcDbLine
 10
705.32979450360654
 20
59.062993179394141
 30
0
 11
707.24080851430529
 21
71.976774895771285
 31
0
  0
LINE
  5
E7
330
1F
100
AcDbEntity
  8
0
 62
7
100
AcDbLine
 10
707.24080851430529
 20
71.976774895771285
 30
0
 11
708.37328399804107
 21
84.280571045384448
 31
0
  0
LINE
  5
E8
330
1F
100
AcDbEntity
  8
0
 62
7
100
AcDbLine
 10
708.37328399804107
 20
84.280571045384448
 30
0
 11
708.86420649506056
 21
92.772040639752873
 31
0
  0
LINE
  5
E9
330
1F
100
AcDbEntity
  8
0
 62
7
100
AcDbLine
 10
708.86420649506056
 20
92.772040639752873
 30
0
 11
709.27135411303016
 21
112.83584332239545
 31
0
  0
LINE
  5
EA
330
1F
100
AcDbEntity
  8
0
 62
7
100
AcDbLine
 10
709.27135411303016
 20
112.83584332239545
 30
0
 11
707.6617292987122
 21
138.96953341059597
 31
0
  0
LINE
  5
EB
330
1F
100
AcDbEntity
  8
0
 62
7
100
AcDbLine
 10
707.6617292987122
 20
138.96953341059597
 30
0
 11
704.308500018352
 21
190.28984309792136
 31
0
  0
ARC
  5
EC
330
1F
100
AcDbEntity
  8
0
 62
7
100
AcDbCircle
 10
974.68280989094546
 20
207.541725240695
 30
0
 40
270.92414967394348
100
AcDbArc
 50
174.83759065652714
 51
183.65094537431924
  0
ARC
  5
ED
330
1F
100
AcDbEntity
  8
0
 62
7
100
AcDbCircle
 10
791.1444623783957
 20
222.14633052581414
 30
0
 40
86.838519883257064
100
AcDbArc
 50
133.27405111961738
 51
173.53816368634727
  0
LINE
  5
EE
330
1F
100
AcDbEntity
  8
0
 62
7
100
AcDbLine
 10
731.61764008643854
 20
285.37200540031893
 30
0
 11
731.12666383476164
 21
295.14105410924606
 31
0
  0
CIRCLE
  5
EF
330
1F
100
AcDbEntity
  8
0
 62
7
100
AcDbCircle
 10
644.68917741319024
 20
489.93462768032748
 30
0
 40
2.0711633725284262
  0
CIRCLE
  5
F0
330
1F
100
AcDbEntity
  8
0
 62
7
100
AcDbCircle
 10
693.35000611508065
 20
67.8926848519356
 30
0
 40
2.4890125239481731
  0
ARC
  5
F1
330
1F
100
AcDbEntity
  8
0
 62
7
100
AcDbCircle
 10
676.1920132905384
 20
126.26117246284223
 30
0
 40
0.5
100
AcDbArc
 50
92.304311511440474
 51
182.30431151151376
  0
LINE
  5
F2
330
1F
100
AcDbEntity
  8
0
 62
7
100
AcDbLine
 10
675.6924176043558
 20
126.24106897190788
 30
0
 11
678.07742500702238
 21
66.970795277445632
 31
0
  0
ARC
  5
F3
330
1F
100
AcDbEntity
  8
0
 62
7
100
AcDbCircle
 10
678.577020693205
 20
66.99089876838
 30
0
 40
0.5
100
AcDbArc
 50
182.304311511517
 51
273.33358720401787
  0
LINE
  5
F4
330
1F
100
AcDbEntity
  8
0
 62
7
100
AcDbLine
 10
678.60609531935143
 20
66.491744818065627
 30
0
 11
682.77519076607564
 21
66.734585511610817
 31
0
  0
ARC
  5
F5
330
1F
100
AcDbEntity
  8
0
 62
7
100
AcDbCircle
 10
682.74611613993056
 20
67.233739461925268
 30
0
 40
0.5
100
AcDbArc
 50
273.33358720386127
 51
2.2715362867491717
  0
LINE
  5
F6
330
1F
100
AcDbEntity
  8
0
 62
7
100
AcDbLine
 10
683.2457232442847
 20
67.2535571630753
 30
0
 11
680.89759390341715
 21
126.45023652187118
 31
0
  0
ARC
  5
F7
330
1F
100
AcDbEntity
  8
0
 62
7
100
AcDbCircle
 10
680.397986799063
 20
126.43041882072072
 30
0
 40
0.5
100
AcDbArc
 50
2.2715362867979865
 51
92.304311511492614
  0
LINE
  5
F8
330
1F
100
AcDbEntity
  8
0
 62
7
100
AcDbLine
 10
680.37788330812884
 20
126.93001450690332
 30
0
 11
676.17190979960469
 21
126.76076814902484
 31
0
  0
LINE
  5
F9
330
1F
100
AcDbEntity
  8
0
 62
7
100
AcDbLine
 10
682.6914820338136
 20
491.37861272781549
 30
0
 11
683.13215669422311
 21
475.38121159445029
 31
0
  0
LINE
  5
FA
330
1F
100
AcDbEntity
  8
0
 62
7
100
AcDbLine
 10
683.13215669422311
 20
475.38121159445029
 30
0
 11
694.48715758833907
 21
475.94641151786396
 31
0
  0
LINE
  5
FB
330
1F
100
AcDbEntity
  8
0
 62
7
100
AcDbLine
 10
694.48715758833907
 20
475.94641151786396
 30
0
 11
693.60058467413046
 21
491.856967468742
 31
0
  0
LINE
  5
FC
330
1F
100
AcDbEntity
  8
0
 62
7
100
AcDbLine
 10
693.60058467413046
 20
491.856967468742
 30
0
 11
682.6914820338136
 21
491.37861272781549
 31
0
  0
LINE
  5
FD
330
1F
100
AcDbEntity
  8
0
 62
7
100
AcDbLine
 10
701.26746096273337
 20
283.77048928286973
 30
0
 11
712.60584100364986
 21
284.41650378195004
 31
0
  0
LINE
  5
FE
330
1F
100
AcDbEntity
  8
0
 62
7
100
AcDbLine
 10
712.60584100364986
 20
284.41650378195004
 30
0
 11
711.98774485506181
 21
299.18353392056918
 31
0
  0
LINE
  5
FF
330
1F
100
AcDbEntity
  8
0
 62
7
100
AcDbLine
 10
711.98774485506181
 20
299.18353392056918
 30
0
 11
700.69591320719849
 21
298.726027212881
 31
0
  0
LINE
  5
100
330
1F
100
AcDbEntity
  8
0
 62
7
100
AcDbLine
 10
700.69591320719849
 20
298.726027212881
 30
0
 11
701.26746096273337
 21
283.77048928286973
 31
0
  0
LINE
  5
101
330
1F
100
AcDbEntity
  8
0
 62
7
100
AcDbLine
 10
507.87427558499741
 20
58.595109571637117
 30
0
 11
507.70621456501465
 21
57.209067931147644
 31
0
  0
LINE
  5
102
330
1F
100
AcDbEntity
  8
0
 62
7
100
AcDbLine
 10
507.70621456501465
 20
57.209067931147644
 30
0
 11
507.52192632969457
 21
55.689196350989555
 31
0
  0
LINE
  5
103
330
1F
100
AcDbEntity
  8
0
 62
7
100
AcDbLine
 10
507.52192632969457
 20
55.689196350989555
 30
0
 11
507.36339864097448
 21
54.381778499075807
 31
0
  0
LINE
  5
104
330
1F
100
AcDbEntity
  8
0
 62
7
100
AcDbLine
 10
507.36339864097448
 20
54.381778499075807
 30
0
 11
505.98961707919773
 21
43.051855297635534
 31
0
  0
ARC
  5
105
330
1F
100
AcDbEntity
  8
0
 62
7
100
AcDbCircle
 10
506.98234607147708
 20
42.931484421224184
 30
0
 40
0.99999999999999978
100
AcDbArc
 50
173.0864926138253
 51
257.06774612333862
  0
LINE
  5
106
330
1F
100
AcDbEntity
  8
0
 62
7
100
AcDbLine
 10
506.7585472623656
 20
41.956849057080092
 30
0
 11
517.97262646925219
 21
39.381837248448193
 31
0
  0
ARC
  5
107
330
1F
100
AcDbEntity
  8
0
 62
7
100
AcDbCircle
 10
518.19642527836368
 20
40.356472612592285
 30
0
 40
0.99999999999999978
100
AcDbArc
 50
257.06774612333862
 51
347.06774612331373
  0
LINE
  5
108
330
1F
100
AcDbEntity
  8
0
 62
7
100
AcDbLine
 10
519.17106064250765
 20
40.13267380348038
 30
0
 11
519.9254557063897
 21
43.418035824467054
 31
0
  0
ARC
  5
109
330
1F
100
AcDbEntity
  8
0
 62
7
100
AcDbCircle
 10
520.58601739344579
 20
43.068245247328356
 30
0
 40
0.74745915624963755
100
AcDbArc
 50
79.278770481917618
 51
152.09721115109346
  0
LINE
  5
10A
330
1F
100
AcDbEntity
  8
0
 62
7
100
AcDbLine
 10
520.72506773246289
 20
43.802656707941992
 30
0
 11
656.421864217592
 21
13.968852047753735
 31
0
  0
ARC
  5
10B
330
1F
100
AcDbEntity
  8
0
 62
7
100
AcDbCircle
 10
656.44388741988007
 20
13.229486490110423
 30
0
 40
0.73969348332145235
100
AcDbArc
 50
329.61856097053357
 51
91.706143250549147
  0
LINE
  5
10C
330
1F
100
AcDbEntity
  8
0
 62
7
100
AcDbLine
 10
657.08200438449228
 20
12.855383310837347
 30
0
 11
656.36020654417064
 21
9.35245322106158
 31
0
  0
ARC
  5
10D
330
1F
100
AcDbEntity
  8
0
 62
7
100
AcDbCircle
 10
656.74160389381939
 20
9.1975818826975129
 30
0
 40
0.41164191934945138
100
AcDbArc
 50
157.89975053808394
 51
265.50570909991319
  0
LINE
  5
10E
330
1F
100
AcDbEntity
  8
0
 62
7
100
AcDbLine
 10
656.70934773184922
 20
8.78720570188208
 30
0
 11
674.61746140230184
 21
5.04839506431086
 31
0
  0
LINE
  5
10F
330
1F
100
AcDbEntity
  8
0
 62
7
100
AcDbLine
 10
674.61746140230184
 20
5.04839506431086
 30
0
 11
675.45682117940589
 21
8.9316189117142457
 31
0
  0
LINE
  5
110
330
1F
100
AcDbEntity
  8
0
 62
7
100
AcDbLine
 10
675.45682117940589
 20
8.9316189117142457
 30
0
 11
579.714794825965
 21
219.34049937615723
 31
0
  0
LINE
  5
111
330
1F
100
AcDbEntity
  8
0
 62
7
100
AcDbLine
 10
579.714794825965
 20
219.34049937615723
 30
0
 11
528.72982409418819
 21
230.59608083762035
 31
0
  0
LINE
  5
112
330
1F
100
AcDbEntity
  8
0
 62
7
100
AcDbLine
 10
528.72982409418819
 20
230.59608083762035
 30
0
 11
507.87427558499741
 21
58.595109571637117
 31
0
  0
LINE
  5
113
330
1F
100
AcDbEntity
  8
0
 62
7
100
AcDbLine
 10
571.53064831976042
 20
260.28856208076991
 30
0
 11
575.39337832765216
 21
269.27492325998111
 31
0
  0
ARC
  5
114
330
1F
100
AcDbEntity
  8
0
 62
7
100
AcDbCircle
 10
653.21405114134313
 20
307.80895261507567
 30
0
 40
86.838519883257064
100
AcDbArc
 50
166.07886412845176
 51
206.34297669518247
  0
ARC
  5
115
330
1F
100
AcDbEntity
  8
0
 62
7
100
AcDbCircle
 10
830.3469330633427
 20
257.57388871366777
 30
0
 40
270.92414967394348
100
AcDbArc
 50
155.96608244047951
 51
164.77943715827152
  0
LINE
  5
116
330
1F
100
AcDbEntity
  8
0
 62
7
100
AcDbLine
 10
582.91068246915154
 20
367.91516280653804
 30
0
 11
603.92848035440909
 21
414.85417115848378
 31
0
  0
LINE
  5
117
330
1F
100
AcDbEntity
  8
0
 62
7
100
AcDbLine
 10
603.92848035440909
 20
414.85417115848378
 30
0
 11
614.53951324100683
 21
438.7908925452677
 31
0
  0
LINE
  5
118
330
1F
100
AcDbEntity
  8
0
 62
7
100
AcDbLine
 10
614.53951324100683
 20
438.7908925452677
 30
0
 11
621.14595060444015
 21
457.7402179325702
 31
0
  0
LINE
  5
119
330
1F
100
AcDbEntity
  8
0
 62
7
100
AcDbLine
 10
621.14595060444015
 20
457.7402179325702
 30
0
 11
623.643290447376
 21
465.87098385461275
 31
0
  0
LINE
  5
11A
330
1F
100
AcDbEntity
  8
0
 62
7
100
AcDbLine
 10
623.643290447376
 20
465.87098385461275
 30
0
 11
626.86705627884442
 21
477.79881828825387
 31
0
  0
LINE
  5
11B
330
1F
100
AcDbEntity
  8
0
 62
7
100
AcDbLine
 10
626.86705627884442
 20
477.79881828825387
 30
0
 11
629.57348534788923
 21
490.5696042649098
 31
0
  0
LINE
  5
11C
330
1F
100
AcDbEntity
  8
0
 62
7
100
AcDbLine
 10
629.57348534788923
 20
490.5696042649098
 30
0
 11
630.72303074899321
 21
500.9745176669129
 31
0
  0
LINE
  5
11D
330
1F
100
AcDbEntity
  8
0
 62
7
100
AcDbLine
 10
630.72303074899321
 20
500.9745176669129
 30
0
 11
630.78185413325832
 21
506.32477490681651
 31
0
  0
LINE
  5
11E
330
1F
100
AcDbEntity
  8
0
 62
7
100
AcDbLine
 10
630.78185413325832
 20
506.32477490681651
 30
0
 11
630.520732802679
 21
511.43261711064656
 31
0
  0
LINE
  5
11F
330
1F
100
AcDbEntity
  8
0
 62
7
100
AcDbLine
 10
630.520732802679
 20
511.43261711064656
 30
0
 11
629.68939813419445
 21
518.98348413538849
 31
0
  0
LINE
  5
120
330
1F
100
AcDbEntity
  8
0
 62
7
100
AcDbLine
 10
629.68939813419445
 20
518.98348413538849
 30
0
 11
628.33306589066569
 21
526.02919476377008
 31
0
  0
LINE
  5
121
330
1F
100
AcDbEntity
  8
0
 62
7
100
AcDbLine
 10
628.33306589066569
 20
526.02919476377008
 30
0
 11
626.44172942689
 21
532.63587117214365
 31
0
  0
ARC
  5
122
330
1F
100
AcDbEntity
  8
0
 62
7
100
AcDbCircle
 10
620.12765478192614
 20
530.50659357292477
 30
0
 40
6.6634346786556069
100
AcDbArc
 50
18.635504705817951
 51
64.152402304722486
  0
ARC
  5
123
330
1F
100
AcDbEntity
  8
0
 62
7
100
AcDbCircle
 10
620.4503683049029
 20
531.49787513167166
 30
0
 40
5.6324116934875654
100
AcDbArc
 50
62.710300854529976
 51
125.53351166614885
  0
LINE
  5
124
330
1F
100
AcDbEntity
  8
0
 62
7
100
AcDbLine
 10
617.176928776955
 20
536.081395082736
 30
0
 11
604.97301872902051
 21
526.03168170241429
 31
0
  0
LINE
  5
125
330
1F
100
AcDbEntity
  8
0
 62
7
100
AcDbLine
 10
604.97301872902051
 20
526.03168170241429
 30
0
 11
584.38644455280587
 21
506.047439160693
 31
0
  0
LINE
  5
126
330
1F
100
AcDbEntity
  8
0
 62
7
100
AcDbLine
 10
584.38644455280587
 20
506.047439160693
 30
0
 11
561.72668776792955
 21
479.33917678941577
 31
0
  0
LINE
  5
127
330
1F
100
AcDbEntity
  8
0
 62
7
100
AcDbLine
 10
561.72668776792955
 20
479.33917678941577
 30
0
 11
553.8334971669907
 21
469.902019903416
 31
0
  0
LINE
  5
128
330
1F
100
AcDbEntity
  8
0
 62
7
100
AcDbLine
 10
553.8334971669907
 20
469.902019903416
 30
0
 11
547.207020252471
 21
462.11923753415255
 31
0
  0
LINE
  5
129
330
1F
100
AcDbEntity
  8
0
 62
7
100
AcDbLine
 10
547.207020252471
 20
462.11923753415255
 30
0
 11
537.5678482560412
 21
450.99892504751841
 31
0
  0
LINE
  5
12A
330
1F
100
AcDbEntity
  8
0
 62
7
100
AcDbLine
 10
537.5678482560412
 20
450.99892504751841
 30
0
 11
506.31873886029774
 21
417.04332152626904
 31
0
  0
ARC
  5
12B
330
1F
100
AcDbEntity
  8
0
 62
7
100
AcDbCircle
 10
656.70899496132131
 20
270.67343491056562
 30
0
 40
209.8603650955209
100
AcDbArc
 50
135.77616930134877
 51
152.5386403229117
  0
ARC
  5
12C
330
1F
100
AcDbEntity
  8
0
 62
7
100
AcDbCircle
 10
650.708321646457
 20
273.89259071640527
 30
0
 40
203.05134034784351
100
AcDbArc
 50
152.56381461578439
 51
166.43343302626636
  0
LINE
  5
12D
330
1F
100
AcDbEntity
  8
0
 62
7
100
AcDbLine
 10
453.32251078661096
 20
321.5233422143283
 30
0
 11
441.91211667472
 21
231.33056198622705
 31
0
  0
ARC
  5
12E
330
1F
100
AcDbEntity
  8
0
 62
7
100
AcDbCircle
 10
-308.43264567004474
 20
342.65218676195138
 30
0
 40
758.55768832761066
100
AcDbArc
 50
340.9999440256089
 51
351.56111826116683
  0
LINE
  5
12F
330
1F
100
AcDbEntity
  8
0
 62
7
100
AcDbLine
 10
408.79749804040517
 20
95.689259434759265
 30
0
 11
393.41200831060121
 21
54.693403622996072
 31
0
  0
LINE
  5
130
330
1F
100
AcDbEntity
  8
0
 62
7
100
AcDbLine
 10
393.41200831060121
 20
54.693403622996072
 30
0
 11
412.91920589011193
 21
46.472526211786771
 31
0
  0
LINE
  5
131
330
1F
100
AcDbEntity
  8
0
 62
7
100
AcDbLine
 10
412.91920589011193
 20
46.472526211786771
 30
0
 11
426.54698829260076
 21
78.492431010458176
 31
0
  0
LINE
  5
132
330
1F
100
AcDbEntity
  8
0
 62
7
100
AcDbLine
 10
426.54698829260076
 20
78.492431010458176
 30
0
 11
430.17497281245011
 21
76.920353905021756
 31
0
  0
LINE
  5
133
330
1F
100
AcDbEntity
  8
0
 62
7
100
AcDbLine
 10
430.17497281245011
 20
76.920353905021756
 30
0
 11
436.04126488694931
 21
90.458377429184452
 31
0
  0
LINE
  5
134
330
1F
100
AcDbEntity
  8
0
 62
7
100
AcDbLine
 10
436.04126488694931
 20
90.458377429184452
 30
0
 11
432.365745759057
 21
92.064605842293957
 31
0
  0
LINE
  5
135
330
1F
100
AcDbEntity
  8
0
 62
7
100
AcDbLine
 10
432.365745759057
 20
92.064605842293957
 30
0
 11
489.39081914123324
 21
226.76242478165275
 31
0
  0
LINE
  5
136
330
1F
100
AcDbEntity
  8
0
 62
7
100
AcDbLine
 10
489.39081914123324
 20
226.76242478165275
 30
0
 11
494.05824423664035
 21
224.86268094566361
 31
0
  0
LINE
  5
137
330
1F
100
AcDbEntity
  8
0
 62
7
100
AcDbLine
 10
494.05824423664035
 20
224.86268094566361
 30
0
 11
487.002096089053
 21
207.91038776191826
 31
0
  0
LINE
  5
138
330
1F
100
AcDbEntity
  8
0
 62
7
100
AcDbLine
 10
487.002096089053
 20
207.91038776191826
 30
0
 11
489.76189498762534
 21
206.77826396478096
 31
0
  0
LINE
  5
139
330
1F
100
AcDbEntity
  8
0
 62
7
100
AcDbLine
 10
489.76189498762534
 20
206.77826396478096
 30
0
 11
477.59171964316857
 21
177.89459296197944
 31
0
  0
LINE
  5
13A
330
1F
100
AcDbEntity
  8
0
 62
7
100
AcDbLine
 10
477.59171964316857
 20
177.89459296197944
 30
0
 11
474.80531699986363
 21
178.99592868643978
 31
0
  0
LINE
  5
13B
330
1F
100
AcDbEntity
  8
0
 62
7
100
AcDbLine
 10
474.80531699986363
 20
178.99592868643978
 30
0
 11
417.8447702294792
 21
44.214494426389649
 31
0
  0
LINE
  5
13C
330
1F
100
AcDbEntity
  8
0
 62
7
100
AcDbLine
 10
417.8447702294792
 20
44.214494426389649
 30
0
 11
470.77951086126865
 21
21.695153593171
 31
0
  0
LINE
  5
13D
330
1F
100
AcDbEntity
  8
0
 62
7
100
AcDbLine
 10
470.77951086126865
 20
21.695153593171
 30
0
 11
484.10840487392932
 21
52.930759963897486
 31
0
  0
LINE
  5
13E
330
1F
100
AcDbEntity
  8
0
 62
7
100
AcDbLine
 10
484.10840487392932
 20
52.930759963897486
 30
0
 11
488.70899245487533
 21
50.983514035725534
 31
0
  0
LINE
  5
13F
330
1F
100
AcDbEntity
  8
0
 62
7
100
AcDbLine
 10
488.70899245487533
 20
50.983514035725534
 30
0
 11
495.98175234140621
 21
68.090779285645851
 31
0
  0
LINE
  5
140
330
1F
100
AcDbEntity
  8
0
 62
7
100
AcDbLine
 10
495.98175234140621
 20
68.090779285645851
 30
0
 11
491.36772691816441
 21
70.035022555368414
 31
0
  0
LINE
  5
141
330
1F
100
AcDbEntity
  8
0
 62
7
100
AcDbLine
 10
491.36772691816441
 20
70.035022555368414
 30
0
 11
500.09479891253795
 21
90.670048449678234
 31
0
  0
LINE
  5
142
330
1F
100
AcDbEntity
  8
0
 62
7
100
AcDbLine
 10
500.09479891253795
 20
90.670048449678234
 30
0
 11
505.42334924964393
 21
103.22307782264187
 31
0
  0
LINE
  5
143
330
1F
100
AcDbEntity
  8
0
 62
7
100
AcDbLine
 10
505.42334924964393
 20
103.22307782264187
 30
0
 11
509.31042243490896
 21
112.30179691482903
 31
0
  0
LINE
  5
144
330
1F
100
AcDbEntity
  8
0
 62
7
100
AcDbLine
 10
509.31042243490896
 20
112.30179691482903
 30
0
 11
476.95716943825732
 21
126.24008678304955
 31
0
  0
LINE
  5
145
330
1F
100
AcDbEntity
  8
0
 62
7
100
AcDbLine
 10
476.95716943825732
 20
126.24008678304955
 30
0
 11
525.92791244870068
 21
242.87991217845544
 31
0
  0
LINE
  5
146
330
1F
100
AcDbEntity
  8
0
 62
7
100
AcDbLine
 10
525.92791244870068
 20
242.87991217845544
 30
0
 11
558.51035281298778
 21
229.191787819476
 31
0
  0
LINE
  5
147
330
1F
100
AcDbEntity
  8
0
 62
7
100
AcDbLine
 10
558.51035281298778
 20
229.191787819476
 30
0
 11
566.28186452859
 21
247.62126831572508
 31
0
  0
LINE
  5
148
330
1F
100
AcDbEntity
  8
0
 62
7
100
AcDbLine
 10
566.28186452859
 20
247.62126831572508
 30
0
 11
571.53064831976042
 21
260.28856208076991
 31
0
  0
CIRCLE
  5
149
330
1F
100
AcDbEntity
  8
0
 62
7
100
AcDbCircle
 10
422.6600667985544
 20
107.79749571618055
 30
0
 40
2.0711633725284262
  0
CIRCLE
  5
14A
330
1F
100
AcDbEntity
  8
0
 62
7
100
AcDbCircle
 10
615.26848089374619
 20
486.46526114658184
 30
0
 40
2.4890125239481731
  0
LINE
  5
14B
330
1F
100
AcDbEntity
  8
0
 62
7
100
AcDbLine
 10
578.66261221237733
 20
437.26618999499215
 30
0
 11
582.54628356101807
 21
435.64262775725444
 31
0
  0
ARC
  5
14C
330
1F
100
AcDbEntity
  8
0
 62
7
100
AcDbCircle
 10
582.73913420274926
 20
436.10393961487773
 30
0
 40
0.5
100
AcDbArc
 50
247.31271630328419
 51
337.34549152801043
  0
LINE
  5
14D
330
1F
100
AcDbEntity
  8
0
 62
7
100
AcDbLine
 10
583.2005563023198
 20
435.91135289148303
 30
0
 11
606.01947623802926
 21
490.583626042297
 31
0
  0
ARC
  5
14E
330
1F
100
AcDbEntity
  8
0
 62
7
100
AcDbCircle
 10
605.5580541384586
 20
490.77621276569135
 30
0
 40
0.5
100
AcDbArc
 50
337.34549152805153
 51
66.283440610921332
  0
LINE
  5
14F
330
1F
100
AcDbEntity
  8
0
 62
7
100
AcDbLine
 10
605.75916033889769
 20
491.23398595859908
 30
0
 11
601.93569037941768
 21
492.91369007399908
 31
0
  0
ARC
  5
150
330
1F
100
AcDbEntity
  8
0
 62
7
100
AcDbCircle
 10
601.73458417897734
 20
492.45591688109192
 30
0
 40
0.5
100
AcDbArc
 50
66.283440610763932
 51
157.31271630328422
  0
LINE
  5
151
330
1F
100
AcDbEntity
  8
0
 62
7
100
AcDbLine
 10
601.273272321354
 20
492.64876752282311
 30
0
 11
578.39415099648454
 21
437.92035249434696
 31
0
  0
ARC
  5
152
330
1F
100
AcDbEntity
  8
0
 62
7
100
AcDbCircle
 10
578.85546285410783
 20
437.72750185261572
 30
0
 40
0.5
100
AcDbArc
 50
157.31271630327819
 51
247.31271630336889
  0
LINE
  5
153
330
1F
100
AcDbEntity
  8
0
 62
7
100
AcDbLine
 10
457.77994708724373
 20
93.207970096607738
 30
0
 11
467.83937432728504
 21
88.959997959523378
 31
0
  0
LINE
  5
154
330
1F
100
AcDbEntity
  8
0
 62
7
100
AcDbLine
 10
467.83937432728504
 20
88.959997959523378
 30
0
 11
474.21197785483344
 21
103.56553548742377
 31
0
  0
LINE
  5
155
330
1F
100
AcDbEntity
  8
0
 62
7
100
AcDbLine
 10
474.21197785483344
 20
103.56553548742377
 30
0
 11
463.76481964985481
 21
108.05021849728561
 31
0
  0
LINE
  5
156
330
1F
100
AcDbEntity
  8
0
 62
7
100
AcDbLine
 10
463.76481964985481
 20
108.05021849728561
 30
0
 11
457.77994708724373
 21
93.207970096607738
 31
0
  0
LINE
  5
157
330
1F
100
AcDbEntity
  8
0
 62
7
100
AcDbLine
 10
547.50135688011221
 20
281.34693080990519
 30
0
 11
541.75667993098557
 21
267.52689215717214
 31
0
  0
LINE
  5
158
330
1F
100
AcDbEntity
  8
0
 62
7
100
AcDbLine
 10
541.75667993098557
 20
267.52689215717214
 30
0
 11
552.18213304275969
 21
263.1651606471562
 31
0
  0
LINE
  5
159
330
1F
100
AcDbEntity
  8
0
 62
7
100
AcDbLine
 10
552.18213304275969
 20
263.1651606471562
 30
0
 11
557.90478774785379
 21
276.79228232013071
 31
0
  0
LINE
  5
15A
330
1F
100
AcDbEntity
  8
0
 62
7
100
AcDbLine
 10
557.90478774785379
 20
276.79228232013071
 30
0
 11
547.50135688011221
 21
281.34693080990519
 31
0
  0
LINE
  5
15B
330
1F
100
AcDbEntity
  8
0
 62
7
100
AcDbLine
 10
8.9197491885901865
 20
100.87102757163713
 30
0
 11
64.270912567793346
 21
5.0000003408113116
 31
0
  0
LINE
  5
15C
330
1F
100
AcDbEntity
  8
0
 62
7
100
AcDbLine
 10
64.270912567793346
 20
5.0000003408113116
 30
0
 11
97.859891446819859
 21
5.0000003408113116
 31
0
  0
LINE
  5
15D
330
1F
100
AcDbEntity
  8
0
 62
7
100
AcDbLine
 10
97.859891446819859
 20
5.0000003408113116
 30
0
 11
97.859891446820086
 21
8.94817178075391
 31
0
  0
LINE
  5
15E
330
1F
100
AcDbEntity
  8
0
 62
7
100
AcDbLine
 10
97.859891446820086
 20
8.94817178075391
 30
0
 11
116.13443183137787
 21
8.94817178075391
 31
0
  0
LINE
  5
15F
330
1F
100
AcDbEntity
  8
0
 62
7
100
AcDbLine
 10
116.13443183137787
 20
8.94817178075391
 30
0
 11
116.13443183137844
 21
5.0000003408113116
 31
0
  0
LINE
  5
160
330
1F
100
AcDbEntity
  8
0
 62
7
100
AcDbLine
 10
116.13443183137844
 20
5.0000003408113116
 30
0
 11
202.06082485308346
 21
5.0000003408112974
 31
0
  0
LINE
  5
161
330
1F
100
AcDbEntity
  8
0
 62
7
100
AcDbLine
 10
202.06082485308346
 20
5.0000003408112974
 30
0
 11
202.06082485308403
 21
8.8308430710512624
 31
0
  0
LINE
  5
162
330
1F
100
AcDbEntity
  8
0
 62
7
100
AcDbLine
 10
202.06082485308403
 20
8.8308430710512624
 30
0
 11
232.29846635540858
 21
8.8308430710521577
 31
0
  0
LINE
  5
163
330
1F
100
AcDbEntity
  8
0
 62
7
100
AcDbLine
 10
232.29846635540858
 20
8.8308430710521577
 30
0
 11
232.29846635540812
 21
5.0000003408112832
 31
0
  0
LINE
  5
164
330
1F
100
AcDbEntity
  8
0
 62
7
100
AcDbLine
 10
232.29846635540812
 20
5.0000003408112832
 30
0
 11
286.76857969228848
 21
5.000000340811269
 31
0
  0
LINE
  5
165
330
1F
100
AcDbEntity
  8
0
 62
7
100
AcDbLine
 10
286.76857969228848
 20
5.000000340811269
 30
0
 11
286.76857969228848
 21
233.62909264063404
 31
0
  0
LINE
  5
166
330
1F
100
AcDbEntity
  8
0
 62
7
100
AcDbLine
 10
286.76857969228848
 20
233.62909264063404
 30
0
 11
283.96857969228807
 21
233.62909264063404
 31
0
  0
ARC
  5
167
330
1F
100
AcDbEntity
  8
0
 62
7
100
AcDbCircle
 10
283.11530622027868
 20
234.1217303093899
 30
0
 40
0.98527533751339424
100
AcDbArc
 50
210.00000000000557
 51
330.00000000005679
  0
LINE
  5
168
330
1F
100
AcDbEntity
  8
0
 62
7
100
AcDbLine
 10
282.26203274826986
 20
233.62909264063313
 30
0
 11
230.92324111937293
 21
233.6290926406341
 31
0
  0
LINE
  5
169
330
1F
100
AcDbEntity
  8
0
 62
7
100
AcDbLine
 10
230.92324111937293
 20
233.6290926406341
 30
0
 11
230.92324111937282
 21
229.51169898446506
 31
0
  0
LINE
  5
16A
330
1F
100
AcDbEntity
  8
0
 62
7
100
AcDbLine
 10
230.92324111937282
 20
229.51169898446506
 30
0
 11
200.7607703890894
 21
229.51169898446506
 31
0
  0
LINE
  5
16B
330
1F
100
AcDbEntity
  8
0
 62
7
100
AcDbLine
 10
200.7607703890894
 20
229.51169898446506
 30
0
 11
200.7607703890894
 21
233.6290926406341
 31
0
  0
LINE
  5
16C
330
1F
100
AcDbEntity
  8
0
 62
7
100
AcDbLine
 10
200.7607703890894
 20
233.6290926406341
 30
0
 11
114.9326130904003
 21
233.6290926406341
 31
0
  0
LINE
  5
16D
330
1F
100
AcDbEntity
  8
0
 62
7
100
AcDbLine
 10
114.9326130904003
 20
233.6290926406341
 30
0
 11
114.93261309040058
 21
229.60457285523898
 31
0
  0
LINE
  5
16E
330
1F
100
AcDbEntity
  8
0
 62
7
100
AcDbLine
 10
114.93261309040058
 20
229.60457285523898
 30
0
 11
96.7823238962914
 21
229.60457285523898
 31
0
  0
LINE
  5
16F
330
1F
100
AcDbEntity
  8
0
 62
7
100
AcDbLine
 10
96.7823238962914
 20
229.60457285523898
 30
0
 11
96.7823238962914
 21
233.6290926406341
 31
0
  0
LINE
  5
170
330
1F
100
AcDbEntity
  8
0
 62
7
100
AcDbLine
 10
96.7823238962914
 20
233.6290926406341
 30
0
 11
62.853271785548181
 21
233.6290926406341
 31
0
  0
LINE
  5
171
330
1F
100
AcDbEntity
  8
0
 62
7
100
AcDbLine
 10
62.853271785548181
 20
233.6290926406341
 30
0
 11
8.9197491885903641
 21
137.52757741893083
 31
0
  0
LINE
  5
172
330
1F
100
AcDbEntity
  8
0
 62
7
100
AcDbLine
 10
8.9197491885903641
 20
137.52757741893083
 30
0
 11
8.9197491885901865
 21
100.87102757163713
 31
0
  0
ARC
  5
173
330
1F
100
AcDbEntity
  8
0
 62
7
100
AcDbCircle
 10
131.73511325428896
 20
207.70931653921832
 30
0
 40
4.9999999997818252
100
AcDbArc
 50
359.9999999975
 51
90.00000000249868
  0
LINE
  5
174
330
1F
100
AcDbEntity
  8
0
 62
7
100
AcDbLine
 10
131.73511325407091
 20
212.70931653900016
 30
0
 11
113.55908896066771
 21
212.70931653900016
 31
0
  0
ARC
  5
175
330
1F
100
AcDbEntity
  8
0
 62
7
100
AcDbCircle
 10
113.55908896039612
 20
207.70931653927218
 30
0
 40
4.9999999997279652
100
AcDbArc
 50
89.99999999688788
 51
180.00000000310675
  0
LINE
  5
176
330
1F
100
AcDbEntity
  8
0
 62
7
100
AcDbLine
 10
108.55908896066816
 20
207.70931653900107
 30
0
 11
108.55908896066768
 21
30.626332990254923
 31
0
  0
ARC
  5
177
330
1F
100
AcDbEntity
  8
0
 62
7
100
AcDbCircle
 10
113.55908896091455
 20
30.626332990501798
 30
0
 40
5.0000000002468736
100
AcDbArc
 50
180.00000000282895
 51
269.99999999717437
  0
LINE
  5
178
330
1F
100
AcDbEntity
  8
0
 62
7
100
AcDbLine
 10
113.55908896066796
 20
25.626332990254923
 30
0
 11
131.73511325407088
 21
25.626332990254909
 31
0
  0
ARC
  5
179
330
1F
100
AcDbEntity
  8
0
 62
7
100
AcDbCircle
 10
131.73511325383441
 20
30.626332990491253
 30
0
 40
5.0000000002363434
100
AcDbArc
 50
270.00000000270973
 51
359.9999999972917
  0
LINE
  5
17A
330
1F
100
AcDbEntity
  8
0
 62
7
100
AcDbLine
 10
136.73511325407077
 20
30.626332990254909
 30
0
 11
136.7351132540708
 21
207.70931653900016
 31
0
  0
ARC
  5
17B
330
1F
100
AcDbEntity
  8
0
 62
7
100
AcDbCircle
 10
37.642486996008444
 20
122.6618492377337
 30
0
 40
0.99999999979955878
100
AcDbArc
 50
359.99999998843725
 51
90.0000000114846
  0
LINE
  5
17C
330
1F
100
AcDbEntity
  8
0
 62
7
100
AcDbLine
 10
37.642486995808
 20
123.66184923753327
 30
0
 11
20.616433594961293
 21
123.66184923753327
 31
0
  0
ARC
  5
17D
330
1F
100
AcDbEntity
  8
0
 62
7
100
AcDbCircle
 10
20.616433594745338
 20
122.66184923774924
 30
0
 40
0.99999999978404375
100
AcDbArc
 50
89.99999998762668
 51
180.00000001245189
  0
LINE
  5
17E
330
1F
100
AcDbEntity
  8
0
 62
7
100
AcDbLine
 10
19.616433594961293
 20
122.66184923753191
 30
0
 11
19.616433594961293
 21
115.73256199864228
 31
0
  0
ARC
  5
17F
330
1F
100
AcDbEntity
  8
0
 62
7
100
AcDbCircle
 10
20.616433596123965
 20
115.73256199980359
 30
0
 40
1.0000000011626702
100
AcDbArc
 50
180.00000006653823
 51
269.99999993337082
  0
LINE
  5
180
330
1F
100
AcDbEntity
  8
0
 62
7
100
AcDbLine
 10
20.616433594961066
 20
114.73256199864092
 30
0
 11
37.642486995807772
 21
114.73256199864092
 31
0
  0
ARC
  5
181
330
1F
100
AcDbEntity
  8
0
 62
7
100
AcDbCircle
 10
37.642486994617151
 20
115.73256199983176
 30
0
 40
1.0000000011908465
100
AcDbArc
 50
270.00000006821756
 51
359.999999931848
  0
LINE
  5
182
330
1F
100
AcDbEntity
  8
0
 62
7
100
AcDbLine
 10
38.642486995808
 20
115.73256199864228
 30
0
 11
38.642486995808
 21
122.6618492375319
 31
0
  0
LINE
  5
183
330
1F
100
AcDbEntity
  8
0
 62
7
100
AcDbLine
 10
105.23653825716107
 20
264.54198045199462
 30
0
 11
278.49728978519909
 21
264.54198076165625
 31
0
  0
LINE
  5
184
330
1F
100
AcDbEntity
  8
0
 62
7
100
AcDbLine
 10
278.49728978519909
 20
264.54198076165625
 30
0
 11
273.46065326137415
 21
316.5110835736408
 31
0
  0
LINE
  5
185
330
1F
100
AcDbEntity
  8
0
 62
7
100
AcDbLine
 10
273.46065326137415
 20
316.5110835736408
 30
0
 11
76.106208797757418
 21
436.88406990786956
 31
0
  0
LINE
  5
186
330
1F
100
AcDbEntity
  8
0
 62
7
100
AcDbLine
 10
76.106208797757418
 20
436.88406990786956
 30
0
 11
72.150185429588859
 21
436.51824017293018
 31
0
  0
LINE
  5
187
330
1F
100
AcDbEntity
  8
0
 62
7
100
AcDbLine
 10
72.150185429588859
 20
436.51824017293018
 30
0
 11
73.706195841332061
 21
418.29029262483743
 31
0
  0
ARC
  5
188
330
1F
100
AcDbEntity
  8
0
 62
7
100
AcDbCircle
 10
74.117470876285466
 20
418.27291691219665
 30
0
 40
0.41164191934945138
100
AcDbArc
 50
177.5807836162883
 51
285.18674217809672
  0
LINE
  5
189
330
1F
100
AcDbEntity
  8
0
 62
7
100
AcDbLine
 10
74.225307011424064
 20
417.87565070708467
 30
0
 11
77.789650707577678
 21
418.17054959119184
 31
0
  0
ARC
  5
18A
330
1F
100
AcDbEntity
  8
0
 62
7
100
AcDbCircle
 10
78.084223082674981
 20
417.49204125292493
 30
0
 40
0.73969348332145235
100
AcDbArc
 50
351.38034946565915
 51
113.46793174566685
  0
LINE
  5
18B
330
1F
100
AcDbEntity
  8
0
 62
7
100
AcDbLine
 10
78.815561755677578
 20
417.38118010265566
 30
0
 11
92.0985025198388
 21
279.07991488254032
 31
0
  0
ARC
  5
18C
330
1F
100
AcDbEntity
  8
0
 62
7
100
AcDbCircle
 10
91.35269335954132
 20
279.03027732944
 30
0
 40
0.74745915624963755
100
AcDbArc
 50
290.98928156493139
 51
3.8077222342635753
  0
LINE
  5
18D
330
1F
100
AcDbEntity
  8
0
 62
7
100
AcDbLine
 10
91.620428218743143
 20
278.33241399365738
 30
0
 11
88.268146896008361
 21
277.97896604191396
 31
0
  0
ARC
  5
18E
330
1F
100
AcDbEntity
  8
0
 62
7
100
AcDbCircle
 10
88.37300075106576
 20
276.98447840042229
 30
0
 40
0.99999999999999956
100
AcDbArc
 50
96.0187465929435
 51
186.01874659281606
  0
LINE
  5
18F
330
1F
100
AcDbEntity
  8
0
 62
7
100
AcDbLine
 10
87.3785131095739
 20
276.87962454536711
 30
0
 11
88.5849534656303
 21
265.43712656895354
 31
0
  0
ARC
  5
190
330
1F
100
AcDbEntity
  8
0
 62
7
100
AcDbCircle
 10
89.579441107122108
 20
265.54198042400935
 30
0
 40
0.99999999999999956
100
AcDbArc
 50
186.018746592852
 51
270.00000010239654
  0
LINE
  5
191
330
1F
100
AcDbEntity
  8
0
 62
7
100
AcDbLine
 10
89.579441108909265
 20
264.54198042400941
 30
0
 11
100.99234764186622
 21
264.5419804444083
 31
0
  0
LINE
  5
192
330
1F
100
AcDbEntity
  8
0
 62
7
100
AcDbLine
 10
100.99234764186622
 20
264.5419804444083
 30
0
 11
102.30934136531216
 21
264.54198044676218
 31
0
  0
LINE
  5
193
330
1F
100
AcDbEntity
  8
0
 62
7
100
AcDbLine
 10
102.30934136531216
 20
264.54198044676218
 30
0
 11
103.84034488387387
 21
264.54198044949771
 31
0
  0
LINE
  5
194
330
1F
100
AcDbEntity
  8
0
 62
7
100
AcDbLine
 10
103.84034488387387
 20
264.54198044949771
 30
0
 11
105.23653825716107
 21
264.54198045199462
 31
0
  0
LINE
  5
195
330
1F
100
AcDbEntity
  8
0
 62
7
100
AcDbLine
 10
266.48867555218322
 20
411.98622492135377
 30
0
 11
243.14030517605579
 21
428.27080723400047
 31
0
  0
LINE
  5
196
330
1F
100
AcDbEntity
  8
0
 62
7
100
AcDbLine
 10
243.14030517605579
 20
428.27080723400047
 30
0
 11
236.39910957081125
 21
418.67670400556392
 31
0
  0
LINE
  5
197
330
1F
100
AcDbEntity
  8
0
 62
7
100
AcDbLine
 10
236.39910957081125
 20
418.67670400556392
 30
0
 11
218.46126940061836
 21
431.120046704859
 31
0
  0
LINE
  5
198
330
1F
100
AcDbEntity
  8
0
 62
7
100
AcDbLine
 10
218.46126940061836
 20
431.120046704859
 30
0
 11
225.15941897472246
 21
440.94524938313975
 31
0
  0
LINE
  5
199
330
1F
100
AcDbEntity
  8
0
 62
7
100
AcDbLine
 10
225.15941897472246
 20
440.94524938313975
 30
0
 11
222.68935186195267
 21
442.60979615119294
 31
0
  0
LINE
  5
19A
330
1F
100
AcDbEntity
  8
0
 62
7
100
AcDbLine
 10
222.68935186195267
 20
442.60979615119294
 30
0
 11
225.50058531268314
 21
446.6314965526696
 31
0
  0
LINE
  5
19B
330
1F
100
AcDbEntity
  8
0
 62
7
100
AcDbLine
 10
225.50058531268314
 20
446.6314965526696
 30
0
 11
213.99631974116772
 21
454.68988260319065
 31
0
  0
LINE
  5
19C
330
1F
100
AcDbEntity
  8
0
 62
7
100
AcDbLine
 10
213.99631974116772
 20
454.68988260319065
 30
0
 11
211.14352072552148
 21
450.60490179533417
 31
0
  0
LINE
  5
19D
330
1F
100
AcDbEntity
  8
0
 62
7
100
AcDbLine
 10
211.14352072552148
 20
450.60490179533417
 30
0
 11
151.2433766226726
 21
492.43693973417567
 31
0
  0
ARC
  5
19E
330
1F
100
AcDbEntity
  8
0
 62
7
100
AcDbCircle
 10
150.95709602706225
 20
492.027008739279
 30
0
 40
0.5
100
AcDbArc
 50
55.070980787828475
 51
148.48060384026292
  0
ARC
  5
19F
330
1F
100
AcDbEntity
  8
0
 62
7
100
AcDbCircle
 10
148.71363196095604
 20
493.4028501776728
 30
0
 40
2.13174289768421
100
AcDbArc
 50
139.14192003523371
 51
328.48060384000121
  0
ARC
  5
1A0
330
1F
100
AcDbEntity
  8
0
 62
7
100
AcDbCircle
 10
146.72315979394236
 20
495.12450381062428
 30
0
 40
0.5
100
AcDbArc
 50
319.141920035008
 51
54.974668706164579
  0
LINE
  5
1A1
330
1F
100
AcDbEntity
  8
0
 62
7
100
AcDbLine
 10
147.01012906357397
 20
495.53395299951967
 30
0
 11
38.05935820992778
 21
571.89391166009807
 31
0
  0
ARC
  5
1A2
330
1F
100
AcDbEntity
  8
0
 62
7
100
AcDbCircle
 10
37.772388940295187
 20
571.48446247120341
 30
0
 40
0.5
100
AcDbArc
 50
54.974668706023962
 51
147.488990624456
  0
ARC
  5
1A3
330
1F
100
AcDbEntity
  8
0
 62
7
100
AcDbCircle
 10
35.533466669763392
 20
572.91141815249784
 30
0
 40
2.1549906685074478
100
AcDbArc
 50
143.24100016888062
 51
327.48899062387966
  0
ARC
  5
1A4
330
1F
100
AcDbEntity
  8
0
 62
7
100
AcDbCircle
 10
33.406394823785817
 20
574.50029851675151
 30
0
 40
0.5
100
AcDbArc
 50
323.24100016808194
 51
55.027611098412962
  0
LINE
  5
1A5
330
1F
100
AcDbEntity
  8
0
 62
7
100
AcDbLine
 10
33.692985632108417
 20
574.91001269588742
 30
0
 11
28.916788760514152
 21
578.250912747296
 31
0
  0
LINE
  5
1A6
330
1F
100
AcDbEntity
  8
0
 62
7
100
AcDbLine
 10
28.916788760514152
 20
578.250912747296
 30
0
 11
31.820928264340893
 21
582.44360081824243
 31
0
  0
LINE
  5
1A7
330
1F
100
AcDbEntity
  8
0
 62
7
100
AcDbLine
 10
31.820928264340893
 20
582.44360081824243
 30
0
 11
20.246931419003516
 21
590.48378009132341
 31
0
  0
LINE
  5
1A8
330
1F
100
AcDbEntity
  8
0
 62
7
100
AcDbLine
 10
20.246931419003516
 20
590.48378009132341
 30
0
 11
17.692628846565754
 21
586.73676990342835
 31
0
  0
LINE
  5
1A9
330
1F
100
AcDbEntity
  8
0
 62
7
100
AcDbLine
 10
17.692628846565754
 20
586.73676990342835
 30
0
 11
5.0224633034316071
 21
525.31545139285572
 31
0
  0
LINE
  5
1AA
330
1F
100
AcDbEntity
  8
0
 62
7
100
AcDbLine
 10
5.0224633034316071
 20
525.31545139285572
 30
0
 11
51.263878872166
 21
492.98419477414745
 31
0
  0
LINE
  5
1AB
330
1F
100
AcDbEntity
  8
0
 62
7
100
AcDbLine
 10
51.263878872166
 20
492.98419477414745
 30
0
 11
48.404367208123517
 21
488.89563501720033
 31
0
  0
LINE
  5
1AC
330
1F
100
AcDbEntity
  8
0
 62
7
100
AcDbLine
 10
48.404367208123517
 20
488.89563501720033
 30
0
 11
74.068941760696475
 21
470.97768455613635
 31
0
  0
LINE
  5
1AD
330
1F
100
AcDbEntity
  8
0
 62
7
100
AcDbLine
 10
74.068941760696475
 20
470.97768455613635
 30
0
 11
76.767241073373555
 21
474.93592941079407
 31
0
  0
LINE
  5
1AE
330
1F
100
AcDbEntity
  8
0
 62
7
100
AcDbLine
 10
76.767241073373555
 20
474.93592941079407
 30
0
 11
146.60244365662118
 21
426.17037098031659
 31
0
  0
LINE
  5
1AF
330
1F
100
AcDbEntity
  8
0
 62
7
100
AcDbLine
 10
146.60244365662118
 20
426.17037098031659
 30
0
 11
143.86277681125398
 21
422.15144241179058
 31
0
  0
LINE
  5
1B0
330
1F
100
AcDbEntity
  8
0
 62
7
100
AcDbLine
 10
143.86277681125398
 20
422.15144241179058
 30
0
 11
159.34851592804048
 21
411.16010388431704
 31
0
  0
LINE
  5
1B1
330
1F
100
AcDbEntity
  8
0
 62
7
100
AcDbLine
 10
159.34851592804048
 20
411.16010388431704
 30
0
 11
162.07253914926042
 21
415.10100240279445
 31
0
  0
LINE
  5
1B2
330
1F
100
AcDbEntity
  8
0
 62
7
100
AcDbLine
 10
162.07253914926042
 20
415.10100240279445
 30
0
 11
189.52940040763775
 21
396.122303180026
 31
0
  0
LINE
  5
1B3
330
1F
100
AcDbEntity
  8
0
 62
7
100
AcDbLine
 10
189.52940040763775
 20
396.122303180026
 30
0
 11
266.48867555218322
 21
411.98622492135377
 31
0
  0
LINE
  5
1B4
330
1F
100
AcDbEntity
  8
0
 62
7
100
AcDbLine
 10
165.10801555218328
 20
750.95616591773592
 30
0
 11
10.962021090396917
 21
757.32171000308881
 31
0
  0
ARC
  5
1B5
330
1F
100
AcDbEntity
  8
0
 62
7
100
AcDbCircle
 10
10.804406945165322
 20
752.42024331026244
 30
0
 40
4.9040001998025931
100
AcDbArc
 50
88.158201386189774
 51
174.66720066192673
  0
LINE
  5
1B6
330
1F
100
AcDbEntity
  8
0
 62
7
100
AcDbLine
 10
5.9216329408047272
 20
752.87602393951761
 30
0
 11
5.5090185040290862
 21
745.233705042762
 31
0
  0
LINE
  5
1B7
330
1F
100
AcDbEntity
  8
0
 62
7
100
AcDbLine
 10
5.5090185040290862
 20
745.233705042762
 30
0
 11
22.317112437030744
 21
744.46293774328842
 31
0
  0
LINE
  5
1B8
330
1F
100
AcDbEntity
  8
0
 62
7
100
AcDbLine
 10
22.317112437030744
 20
744.46293774328842
 30
0
 11
22.005219834458813
 21
734.37850074466837
 31
0
  0
LINE
  5
1B9
330
1F
100
AcDbEntity
  8
0
 62
7
100
AcDbLine
 10
22.005219834458813
 20
734.37850074466837
 30
0
 11
5.3256954641039442
 21
735.0619711686744
 31
0
  0
LINE
  5
1BA
330
1F
100
AcDbEntity
  8
0
 62
7
100
AcDbLine
 10
5.3256954641039442
 20
735.0619711686744
 30
0
 11
5.0028042428308765
 21
726.75262362257718
 31
0
  0
ARC
  5
1BB
330
1F
100
AcDbEntity
  8
0
 62
7
100
AcDbCircle
 10
9.0127949946790178
 20
726.9842533392798
 30
0
 40
4.0166750124409321
100
AcDbArc
 50
183.30591143448009
 51
269.41574513926224
  0
LINE
  5
1BC
330
1F
100
AcDbEntity
  8
0
 62
7
100
AcDbLine
 10
8.971836982589906
 20
722.96778715657479
 30
0
 11
164.42783420734915
 21
716.67998202804586
 31
0
  0
ARC
  5
1BD
330
1F
100
AcDbEntity
  8
0
 62
7
100
AcDbCircle
 10
164.40948962464364
 20
720.9158206190923
 30
0
 40
4.2358783142475911
100
AcDbArc
 50
270.24813518556368
 51
1.9766538320819333
  0
LINE
  5
1BE
330
1F
100
AcDbEntity
  8
0
 62
7
100
AcDbLine
 10
168.6428474407723
 20
721.06192569681218
 30
0
 11
168.82662089275547
 21
728.64489288629591
 31
0
  0
LINE
  5
1BF
330
1F
100
AcDbEntity
  8
0
 62
7
100
AcDbLine
 10
168.82662089275547
 20
728.64489288629591
 30
0
 11
152.28367761653058
 21
729.28452359667051
 31
0
  0
LINE
  5
1C0
330
1F
100
AcDbEntity
  8
0
 62
7
100
AcDbLine
 10
152.28367761653058
 20
729.28452359667051
 30
0
 11
152.66939779368829
 21
739.18659755455087
 31
0
  0
LINE
  5
1C1
330
1F
100
AcDbEntity
  8
0
 62
7
100
AcDbLine
 10
152.66939779368829
 20
739.18659755455087
 30
0
 11
169.06825861521264
 21
738.65357170819618
 31
0
  0
LINE
  5
1C2
330
1F
100
AcDbEntity
  8
0
 62
7
100
AcDbLine
 10
169.06825861521264
 20
738.65357170819618
 30
0
 11
169.42392782081316
 21
745.8591805926452
 31
0
  0
ARC
  5
1C3
330
1F
100
AcDbEntity
  8
0
 62
7
100
AcDbCircle
 10
164.50642732807165
 20
746.07100744339527
 30
0
 40
4.9220607179119362
100
AcDbArc
 50
357.53344486956274
 51
82.979593769045763
  0
LINE
  5
1C4
330
1F
100
AcDbEntity
  8
0
 62
7
100
AcDbLine
 10
9.8334605521833236
 20
190.52962025706844
 30
0
 11
67.007513542418039
 21
244.43251172365805
 31
0
  0
LINE
  5
1C5
330
1F
100
AcDbEntity
  8
0
 62
7
100
AcDbLine
 10
67.007513542418039
 20
244.43251172365805
 30
0
 11
67.2326227468673
 21
277.80944358079751
 31
0
  0
LINE
  5
1C6
330
1F
100
AcDbEntity
  8
0
 62
7
100
AcDbLine
 10
67.2326227468673
 20
277.80944358079751
 30
0
 11
72.023232280465891
 21
277.77713353188295
 31
0
  0
LINE
  5
1C7
330
1F
100
AcDbEntity
  8
0
 62
7
100
AcDbLine
 10
72.023232280465891
 20
277.77713353188295
 30
0
 11
71.914961923408924
 21
296.76676007240457
 31
0
  0
LINE
  5
1C8
330
1F
100
AcDbEntity
  8
0
 62
7
100
AcDbLine
 10
71.914961923408924
 20
296.76676007240457
 30
0
 11
67.051483072131447
 21
296.8310619050792
 31
0
  0
LINE
  5
1C9
330
1F
100
AcDbEntity
  8
0
 62
7
100
AcDbLine
 10
67.051483072131447
 20
296.8310619050792
 30
0
 11
67.219446641278992
 21
382.00739075951492
 31
0
  0
LINE
  5
1CA
330
1F
100
AcDbEntity
  8
0
 62
7
100
AcDbLine
 10
67.219446641278992
 20
382.00739075951492
 30
0
 11
72.009489512298074
 21
381.94405985079266
 31
0
  0
LINE
  5
1CB
330
1F
100
AcDbEntity
  8
0
 62
7
100
AcDbLine
 10
72.009489512298074
 20
381.94405985079266
 30
0
 11
72.074072567851147
 21
413.24452573740143
 31
0
  0
LINE
  5
1CC
330
1F
100
AcDbEntity
  8
0
 62
7
100
AcDbLine
 10
72.074072567851147
 20
413.24452573740143
 30
0
 11
67.084775027430069
 21
413.25068171531018
 31
0
  0
LINE
  5
1CD
330
1F
100
AcDbEntity
  8
0
 62
7
100
AcDbLine
 10
67.084775027430069
 20
413.25068171531018
 30
0
 11
67.1623274650586
 21
469.67383878724706
 31
0
  0
LINE
  5
1CE
330
1F
100
AcDbEntity
  8
0
 62
7
100
AcDbLine
 10
67.1623274650586
 20
469.67383878724706
 30
0
 11
9.5987147664906285
 21
494.56443853006158
 31
0
  0
LINE
  5
1CF
330
1F
100
AcDbEntity
  8
0
 62
7
100
AcDbLine
 10
9.5987147664906285
 20
494.56443853006158
 30
0
 11
5.064296079114639
 21
494.62438973795815
 31
0
  0
LINE
  5
1D0
330
1F
100
AcDbEntity
  8
0
 62
7
100
AcDbLine
 10
5.064296079114639
 20
494.62438973795815
 30
0
 11
5.0021673797194932
 21
480.53190856025503
 31
0
  0
LINE
  5
1D1
330
1F
100
AcDbEntity
  8
0
 62
7
100
AcDbLine
 10
5.0021673797194932
 20
480.53190856025503
 30
0
 11
10.102343368214902
 21
480.5025078063062
 31
0
  0
LINE
  5
1D2
330
1F
100
AcDbEntity
  8
0
 62
7
100
AcDbLine
 10
10.102343368214902
 20
480.5025078063062
 30
0
 11
10.09552829124682
 21
474.67381813671091
 31
0
  0
ARC
  5
1D3
330
1F
100
AcDbEntity
  8
0
 62
7
100
AcDbCircle
 10
10.595527949472656
 20
474.67323352226776
 30
0
 40
0.5
100
AcDbArc
 50
179.93300810426712
 51
271.71961903456241
  0
ARC
  5
1D4
330
1F
100
AcDbEntity
  8
0
 62
7
100
AcDbCircle
 10
10.67520025919487
 20
472.0194385465914
 30
0
 40
2.1549906685074478
100
AcDbArc
 50
267.47162857836719
 51
91.719619034696166
  0
ARC
  5
1D5
330
1F
100
AcDbEntity
  8
0
 62
7
100
AcDbCircle
 10
10.558077774049339
 20
469.36703251181189
 30
0
 40
0.5
100
AcDbArc
 50
87.4716285782556
 51
179.98595049700961
  0
LINE
  5
1D6
330
1F
100
AcDbEntity
  8
0
 62
7
100
AcDbLine
 10
10.058077789081336
 20
469.36715511685338
 30
0
 11
10.025453682286352
 21
336.32162647377515
 31
0
  0
ARC
  5
1D7
330
1F
100
AcDbEntity
  8
0
 62
7
100
AcDbCircle
 10
10.525453667254355
 20
336.3215038687311
 30
0
 40
0.5
100
AcDbArc
 50
179.98595049671647
 51
275.81869916790089
  0
ARC
  5
1D8
330
1F
100
AcDbEntity
  8
0
 62
7
100
AcDbCircle
 10
10.792262349472804
 20
333.70332056601831
 30
0
 40
2.13174289768421
100
AcDbArc
 50
266.48001536305321
 51
95.8186991674737
  0
ARC
  5
1D9
330
1F
100
AcDbEntity
  8
0
 62
7
100
AcDbCircle
 10
10.63068206517301
 20
331.07654259838631
 30
0
 40
0.5
100
AcDbArc
 50
86.480015362720962
 51
179.8896384149453
  0
LINE
  5
1DA
330
1F
100
AcDbEntity
  8
0
 62
7
100
AcDbLine
 10
10.130682992708357
 20
331.07750568430424
 30
0
 11
9.9899544652317953
 21
258.016388411569
 31
0
  0
LINE
  5
1DB
330
1F
100
AcDbEntity
  8
0
 62
7
100
AcDbLine
 10
9.9899544652317953
 20
258.016388411569
 30
0
 11
5.0074412120550331
 21
258.02598560607396
 31
0
  0
LINE
  5
1DC
330
1F
100
AcDbEntity
  8
0
 62
7
100
AcDbLine
 10
5.0074412120550331
 20
258.02598560607396
 30
0
 11
5.0002549168061581
 21
243.98014421310887
 31
0
  0
LINE
  5
1DD
330
1F
100
AcDbEntity
  8
0
 62
7
100
AcDbLine
 10
5.0002549168061581
 20
243.98014421310887
 30
0
 11
9.9070924298616259
 21
243.97284666544658
 31
0
  0
LINE
  5
1DE
330
1F
100
AcDbEntity
  8
0
 62
7
100
AcDbLine
 10
9.9070924298616259
 20
243.97284666544658
 30
0
 11
9.8517901134099422
 21
240.99477864432791
 31
0
  0
LINE
  5
1DF
330
1F
100
AcDbEntity
  8
0
 62
7
100
AcDbLine
 10
9.8517901134099422
 20
240.99477864432791
 30
0
 11
21.741920720767183
 21
240.83790440693406
 31
0
  0
LINE
  5
1E0
330
1F
100
AcDbEntity
  8
0
 62
7
100
AcDbLine
 10
21.741920720767183
 20
240.83790440693406
 30
0
 11
21.631182912809692
 21
219.0069487558093
 31
0
  0
LINE
  5
1E1
330
1F
100
AcDbEntity
  8
0
 62
7
100
AcDbLine
 10
21.631182912809692
 20
219.0069487558093
 30
0
 11
9.9055523212219665
 21
218.99589544535144
 31
0
  0
LINE
  5
1E2
330
1F
100
AcDbEntity
  8
0
 62
7
100
AcDbLine
 10
9.9055523212219665
 20
218.99589544535144
 30
0
 11
9.8334605521833236
 21
190.52962025706844
 31
0
  0
ENDSEC
  0
SECTION
  2
OBJECTS
  0
DICTIONARY
  5
C
330
0
100
AcDbDictionary
280
0
281
1
  3
ACAD_SCALELIST
350
1E8
  3
ACAD_COLOR
350
1FA
  3
ACAD_FIELDLIST
350
1FB
  3
ACAD_GROUP
350
D
  3
ACAD_IMAGE_DICT
350
1FC
  3
ACAD_LAYOUT
350
1A
  3
ACAD_MATERIAL
350
1FD
  3
ACAD_MLEADERSTYLE
350
1FE
  3
ACAD_MLINESTYLE
350
17
  3
ACAD_PLOTSETTINGS
350
19
  3
ACAD_PLOTSTYLENAME
350
E
  3
ACAD_TABLESTYLE
350
200
  3
ACDB_RECOMPOSE_DATA
350
204
  3
AcDbVariableDictionary
350
205
  3
ACAD_VISUALSTYLE
350
208
  3
DWGPROPS
350
209
  0
DICTIONARY
  5
202
330
201
100
AcDbDictionary
280
0
281
1
  3
ACAD_ROUNDTRIP_2008_TABLESTYLE_CELLSTYLEMAP
360
203
  0
DICTIONARY
  5
1E8
102
{ACAD_REACTORS
330
C
102
}
330
C
100
AcDbDictionary
280
0
281
1
  0
DICTIONARY
  5
1FA
102
{ACAD_REACTORS
330
C
102
}
330
C
100
AcDbDictionary
280
0
281
1
  0
FIELDLIST
  5
1FB
102
{ACAD_REACTORS
330
C
102
}
330
C
100
AcDbIdSet
100
AcDbFieldList
  0
DICTIONARY
  5
D
102
{ACAD_REACTORS
330
C
102
}
330
C
100
AcDbDictionary
280
0
281
1
  0
DICTIONARY
  5
1FC
102
{ACAD_REACTORS
330
C
102
}
330
C
100
AcDbDictionary
280
0
281
1
  0
DICTIONARY
  5
1A
102
{ACAD_REACTORS
330
C
102
}
330
C
100
AcDbDictionary
280
0
281
1
  3
Layout1
350
1E
  3
Model
350
22
  0
DICTIONARY
  5
1FD
102
{ACAD_REACTORS
330
C
102
}
330
C
100
AcDbDictionary
280
0
281
1
  0
DICTIONARY
  5
1FE
102
{ACAD_REACTORS
330
C
102
}
330
C
100
AcDbDictionary
280
0
281
1
  3
Standard
350
1FF
  0
DICTIONARY
  5
17
102
{ACAD_REACTORS
330
C
102
}
330
C
100
AcDbDictionary
280
0
281
1
  3
STANDARD
350
18
  0
DICTIONARY
  5
19
102
{ACAD_REACTORS
330
C
102
}
330
C
100
AcDbDictionary
280
0
281
1
  0
ACDBDICTIONARYWDFLT
  5
E
102
{ACAD_REACTORS
330
C
102
}
330
C
100
AcDbDictionary
280
0
281
1
  3
Normal
350
F
100
AcDbDictionaryWithDefault
340
F
  0
ACDBPLACEHOLDER
  5
F
102
{ACAD_REACTORS
330
E
102
}
330
E
  0
DICTIONARY
  5
200
102
{ACAD_REACTORS
330
C
102
}
330
C
100
AcDbDictionary
280
0
281
1
  3
Standard
350
201
  0
XRECORD
  5
204
102
{ACAD_REACTORS
330
C
102
}
330
C
100
AcDbXrecord
280
1
 90
1
330
201
  0
DICTIONARY
  5
205
102
{ACAD_REACTORS
330
C
102
}
330
C
100
AcDbDictionary
280
0
281
1
  3
DIMASSOC
350
206
  3
HIDETEXT
350
207
  0
DICTIONARY
  5
208
102
{ACAD_REACTORS
330
C
102
}
330
C
100
AcDbDictionary
280
0
281
1
  0
XRECORD
  5
209
102
{ACAD_REACTORS
330
C
102
}
330
C
100
AcDbXrecord
280
0
  1
DWGPROPS COOKIE
  2

  3

  4

  6

  7

  8

  9

300
=
301
=
302
=
303
=
304
=
305
=
306
=
307
=
308
=
309
=
 40
0
 41
2460453.2333364352
 42
2460453.2333364352
  1

 90
0
  0
CELLSTYLEMAP
  5
203
102
{ACAD_REACTORS
330
202
102
}
330
202
100
AcDbCellStyleMap
 90
3
300
CELLSTYLE
  1
TABLEFORMAT_BEGIN
 90
5
170
0
309
TABLEFORMAT_END
  1
CELLSTYLE_BEGIN
 90
3
 91
2
300
_DATA
309
CELLSTYLE_END
300
CELLSTYLE
  1
TABLEFORMAT_BEGIN
 90
5
170
0
309
TABLEFORMAT_END
  1
CELLSTYLE_BEGIN
 90
1
 91
2
300
_TITLE
309
CELLSTYLE_END
300
CELLSTYLE
  1
TABLEFORMAT_BEGIN
 90
5
170
0
309
TABLEFORMAT_END
  1
CELLSTYLE_BEGIN
 90
2
 91
2
300
_HEADER
309
CELLSTYLE_END
  0
LAYOUT
  5
1E
102
{ACAD_REACTORS
330
1A
102
}
330
1A
100
AcDbPlotSettings
  1

  2
C:\Program Files\AutoCAD 2002\plotters\DWF ePlot (optimized for plotting).pc3
  4

  6

 40
0
 41
0
 42
0
 43
0
 44
0
 45
0
 46
0
 47
0
 48
0
 49
0
140
0
141
0
142
1
143
1
 70
688
 72
1
 73
1
 74
1
  7
acad.stb
 75
16
 76
0
 77
0
 78
0
147
1
148
0
149
0
100
AcDbLayout
  1
Layout1
 70
1
 71
1
 10
0
 20
0
 11
420
 21
297
 12
0
 22
0
 32
0
 14
0
 24
0
 34
0
 15
0
 25
0
 35
0
146
0
 13
0
 23
0
 33
0
 16
1
 26
0
 36
0
 17
0
 27
1
 37
0
 76
0
330
1E3
  0
LAYOUT
  5
22
102
{ACAD_REACTORS
330
1A
102
}
330
1A
100
AcDbPlotSettings
  1

  2
C:\Program Files\AutoCAD 2002\plotters\DWF ePlot (optimized for plotting).pc3
  4

  6

 40
0
 41
0
 42
0
 43
0
 44
0
 45
0
 46
0
 47
0
 48
0
 49
0
140
0
141
0
142
1
143
1
 70
1712
 72
1
 73
1
 74
0
  7
acad.stb
 75
0
 76
0
 77
0
 78
0
147
1
148
0
149
0
100
AcDbLayout
  1
Model
 70
1
 71
0
 10
0
 20
0
 11
12
 21
9
 12
0
 22
0
 32
0
 14
0
 24
0
 34
0
 15
0
 25
0
 35
0
146
0
 13
0
 23
0
 33
0
 16
1
 26
0
 36
0
 17
0
 27
1
 37
0
 76
0
330
1F
  0
MLEADERSTYLE
  5
1FF
102
{ACAD_REACTORS
330
1FE
102
}
330
1FE
100
AcDbMLeaderStyle
170
2
171
1
172
0
 90
2
 40
0
 41
0
173
1
 91
0
340
0
 92
-2
290
1
 42
0.09
292
1
 43
0.36
  3
Standard
341
0
 44
0.18
300

342
0
174
1
178
1
175
1
176
0
 93
0
 45
0.18
292
0
297
0
 46
0
343
0
 94
0
 47
1
 49
1
140
1
293
1
141
0
294
1
177
0
142
1
295
0
296
0
143
0.125
  0
MLINESTYLE
  5
18
102
{ACAD_REACTORS
330
17
102
}
330
17
100
AcDbMlineStyle
  2
STANDARD
 70
0
  3

 51
90
 52
90
 71
2
 49
0.5
 62
0
  6
ByLayer
 49
-0.5
 62
0
  6
ByLayer
  0
TABLESTYLE
  5
201
102
{ACAD_XDICTIONARY
360
202
102
}
102
{ACAD_REACTORS
330
200
102
}
330
200
100
AcDbTableStyle
  3

 70
0
 71
0
 40
0.06
 41
0.06
280
0
281
0
  7
Standard
140
0.18
170
1
 62
0
283
0
 90
512
 91
0
274
-2
284
1
 64
0
275
-2
285
1
 65
0
276
-2
286
1
 66
0
277
-2
287
1
 67
0
278
-2
288
1
 68
0
279
-2
289
1
 69
0
  7
Standard
140
0.18
170
1
 62
0
283
0
 90
512
 91
0
274
-2
284
1
 64
0
275
-2
285
1
 65
0
276
-2
286
1
 66
0
277
-2
287
1
 67
0
278
-2
288
1
 68
0
279
-2
289
1
 69
0
  7
Standard
140
0.18
170
1
 62
0
283
0
 90
512
 91
0
274
-2
284
1
 64
0
275
-2
285
1
 65
0
276
-2
286
1
 66
0
277
-2
287
1
 67
0
278
-2
288
1
 68
0
279
-2
289
1
 69
0
  0
DICTIONARYVAR
  5
206
102
{ACAD_REACTORS
330
205
102
}
330
205
100
DictionaryVariables
280
0
  1
1
  0
DICTIONARYVAR
  5
207
102
{ACAD_REACTORS
330
205
102
}
330
205
100
DictionaryVariables
280
0
  1
2
  0
ENDSEC
999
Created By CadLib version 4.0.38.30
999
CadLib website: www.woutware.com
  0
EOF
