  0
SECTION
  2
HEADER
  9
$ACADVER
  1
AC1024
  9
$ACADMAINTVER
 70
6
  9
$DWGCODEPAGE
  3
ansi_1252
  9
$TITLE
  1

  9
$SUBJECT
  1

  9
$AUTHOR
  1

  9
$KEYWORDS
  1

  9
$COMMENTS
  1

  9
$LASTSAVEDBY
  1

  9
$REVISIONNUMBER
  1

  9
$INSBASE
 10
0
 20
0
 30
0
  9
$EXTMIN
 10
5.0002423197810231
 20
5.0416509761646457
 30
0
  9
$EXTMAX
 10
731.71620476158955
 20
894.98371662579393
 30
0
  9
$LIMMIN
 10
0
 20
0
  9
$LIMMAX
 10
12
 20
9
  9
$SNAPMODE
 70
0
  9
$SNAPUNIT
 10
1
 20
1
  9
$SNAPBASE
 10
0
 20
0
  9
$SNAPANG
 50
0
  9
$SNAPSTYLE
 70
0
  9
$SNAPISOPAIR
 70
0
  9
$ORTHOMODE
 70
0
  9
$REGENMODE
 70
1
  9
$FILLMODE
 70
1
  9
$QTEXTMODE
 70
0
  9
$MIRRTEXT
 70
1
  9
$LTSCALE
 40
1
  9
$OSMODE
 70
0
  9
$ATTMODE
 70
1
  9
$TEXTSIZE
 40
0.2
  9
$TRACEWID
 40
0.05
  9
$TEXTSTYLE
  7
Standard
  9
$CLAYER
  8
0
  9
$CELTYPE
  6
ByLayer
  9
$CECOLOR
 62
256
  9
$CELTSCALE
 40
1
  9
$DISPSILH
 70
0
  9
$DIMSCALE
 40
1
  9
$DIMASZ
 40
0.18
  9
$DIMEXO
 40
0.0625
  9
$DIMDLI
 40
0.38
  9
$DIMRND
 40
0
  9
$DIMDLE
 40
0
  9
$DIMEXE
 40
0.18
  9
$DIMTP
 40
0
  9
$DIMTM
 40
0
  9
$DIMTXT
 40
0.18
  9
$DIMCEN
 40
0.09
  9
$DIMTSZ
 40
0
  9
$DIMTOL
 70
0
  9
$DIMLIM
 70
0
  9
$DIMTIH
 70
1
  9
$DIMTOH
 70
1
  9
$DIMSE1
 70
0
  9
$DIMSE2
 70
0
  9
$DIMTAD
 70
0
  9
$DIMZIN
 70
0
  9
$DIMBLK
  1

  9
$DIMASO
 70
1
  9
$DIMSHO
 70
1
  9
$DIMPOST
  1

  9
$DIMAPOST
  1

  9
$DIMALT
 70
0
  9
$DIMALTD
 70
2
  9
$DIMALTF
 40
0.03937007874015748
  9
$DIMLFAC
 40
1
  9
$DIMTOFL
 70
0
  9
$DIMTVP
 40
0
  9
$DIMTIX
 70
0
  9
$DIMSOXD
 70
0
  9
$DIMSAH
 70
0
  9
$DIMBLK1
  1

  9
$DIMBLK2
  1

  9
$DIMSTYLE
  2
Standard
  9
$DIMCLRD
 70
0
  9
$DIMCLRE
 70
0
  9
$DIMCLRT
 70
0
  9
$DIMTFAC
 40
1
  9
$DIMGAP
 40
0.09
  9
$DIMJUST
 70
0
  9
$DIMSD1
 70
0
  9
$DIMSD2
 70
0
  9
$DIMTOLJ
 70
1
  9
$DIMTZIN
 70
0
  9
$DIMALTZ
 70
0
  9
$DIMALTTZ
 70
0
  9
$DIMUPT
 70
0
  9
$DIMDEC
 70
4
  9
$DIMTDEC
 70
4
  9
$DIMALTU
 70
2
  9
$DIMALTTD
 70
0
  9
$DIMTXSTY
  7
Standard
  9
$DIMAUNIT
 70
0
  9
$DIMADEC
 70
0
  9
$DIMALTRND
 40
0
  9
$DIMAZIN
 70
0
  9
$DIMDSEP
 70
46
  9
$DIMATFIT
 70
0
  9
$DIMFRAC
 70
0
  9
$DIMLDRBLK
  1

  9
$DIMLUNIT
 70
2
  9
$DIMLWD
 70
-2
  9
$DIMLWE
 70
-2
  9
$DIMFXL
 40
1
  9
$DIMFXLON
 70
0
  9
$DIMJOGANG
 40
0.78539816339744828
  9
$DIMTFILL
 70
0
  9
$DIMTFILLCLR
 70
0
  9
$DIMARCSYM
 70
1
  9
$DIMLTYPE
  6
ByBlock
  9
$DIMLTEX1
  6
ByBlock
  9
$DIMLTEX2
  6
ByBlock
  9
$LUNITS
 70
2
  9
$LUPREC
 70
4
  9
$SKETCHINC
 40
0.1
  9
$FILLETRAD
 40
0
  9
$AUNITS
 70
0
  9
$AUPREC
 70
0
  9
$MENU
  1
.
  9
$ELEVATION
 40
0
  9
$PELEVATION
 40
0
  9
$THICKNESS
 40
0
  9
$LIMCHECK
 70
0
  9
$CHAMFERA
 40
0.5
  9
$CHAMFERB
 40
0.5
  9
$CHAMFERC
 40
0
  9
$CHAMFERD
 40
0
  9
$SKPOLY
 70
0
  9
$TDCREATE
 40
2460594.158867442
  9
$TDUCREATE
 40
2460593.825534109
  9
$TDUPDATE
 40
2460594.158867442
  9
$TDUUPDATE
 40
2460593.825534109
  9
$TDINDWG
 40
0
  9
$TDUSRTIMER
 40
1.1574074074074074E-08
  9
$USRTIMER
 70
1
  9
$ANGBASE
 50
0
  9
$ANGDIR
 70
1
  9
$PDMODE
 70
0
  9
$PDSIZE
 40
0
  9
$PLINEWID
 40
0
  9
$SPLFRAME
 70
0
  9
$SPLINETYPE
 70
6
  9
$SPLINESEGS
 70
8
  9
$HANDSEED
  5
207
  9
$SURFTAB1
 70
6
  9
$SURFTAB2
 70
6
  9
$SURFTYPE
 70
6
  9
$SURFU
 70
6
  9
$SURFV
 70
6
  9
$UCSORG
 10
0
 20
0
 30
0
  9
$UCSXDIR
 10
1
 20
0
 30
0
  9
$UCSYDIR
 10
0
 20
1
 30
0
  9
$UCSORTHOREF
  2

  9
$UCSORTHOVIEW
 70
0
  9
$UCSORGTOP
 10
0
 20
0
 30
0
  9
$UCSORGBOTTOM
 10
0
 20
0
 30
0
  9
$UCSORGLEFT
 10
0
 20
0
 30
0
  9
$UCSORGRIGHT
 10
0
 20
0
 30
0
  9
$UCSORGFRONT
 10
0
 20
0
 30
0
  9
$UCSORGBACK
 10
0
 20
0
 30
0
  9
$PUCSORG
 10
0
 20
0
 30
0
  9
$PUCSXDIR
 10
1
 20
0
 30
0
  9
$PUCSYDIR
 10
0
 20
1
 30
0
  9
$PUCSORTHOREF
  2

  9
$PUCSORTHOVIEW
 70
0
  9
$PUCSORGTOP
 10
0
 20
0
 30
0
  9
$PUCSORGBOTTOM
 10
0
 20
0
 30
0
  9
$PUCSORGLEFT
 10
0
 20
0
 30
0
  9
$PUCSORGRIGHT
 10
0
 20
0
 30
0
  9
$PUCSORGFRONT
 10
0
 20
0
 30
0
  9
$PUCSORGBACK
 10
0
 20
0
 30
0
  9
$USERI1
 70
0
  9
$USERI2
 70
0
  9
$USERI3
 70
0
  9
$USERI4
 70
0
  9
$USERI5
 70
0
  9
$USERR1
 40
0
  9
$USERR2
 40
0
  9
$USERR3
 40
0
  9
$USERR4
 40
0
  9
$USERR5
 40
0
  9
$WORLDVIEW
 70
1
  9
$SHADEDGE
 70
3
  9
$SHADEDIF
 70
70
  9
$TILEMODE
 70
1
  9
$MAXACTVP
 70
48
  9
$PINSBASE
 10
0
 20
0
 30
0
  9
$PLIMCHECK
 70
0
  9
$PEXTMIN
 10
1E+20
 20
1E+20
 30
1E+20
  9
$PEXTMAX
 10
-1E+20
 20
-1E+20
 30
-1E+20
  9
$PLIMMAX
 10
0
 20
0
  9
$PLIMMIN
 10
0
 20
0
  9
$UNITMODE
 70
0
  9
$VISRETAIN
 70
1
  9
$PLINEGEN
 70
1
  9
$PSLTSCALE
 70
1
  9
$TREEDEPTH
 70
3020
  9
$CMLSTYLE
  2
STANDARD
  9
$CMLJUST
 70
0
  9
$CMLSCALE
 40
1
  9
$PROXYGRAPHICS
 70
1
  9
$MEASUREMENT
 70
1
  9
$CELWEIGHT
370
-1
  9
$ENDCAPS
280
0
  9
$JOINSTYLE
280
0
  9
$LWDISPLAY
290
1
  9
$INSUNITS
 70
4
  9
$HYPERLINKBASE
  1

  9
$XEDIT
290
1
  9
$CEPSNTYPE
380
0
  9
$PSTYLEMODE
290
0
  9
$FINGERPRINTGUID
  2

  9
$VERSIONGUID
  2

  9
$EXTNAMES
290
1
  9
$PSVPSCALE
 40
0
  9
$CSHADOW
280
0
  9
$SHADOWPLANELOCATION
 40
0
  9
$SORTENTS
280
127
  9
$INDEXCTL
280
0
  9
$XCLIPFRAME
280
1
  9
$HALOGAP
280
0
  9
$OBSCOLOR
 70
257
  9
$OBSLTYPE
280
0
  9
$INTERSECTIONDISPLAY
280
0
  9
$INTERSECTIONCOLOR
 70
257
  9
$DIMASSOC
280
1
  9
$PROJECTNAME
  1

  9
$INTERFERECOLOR
 62
1
  0
ENDSEC
  0
SECTION
  2
CLASSES
  0
CLASS
  1
TABLESTYLE
  2
AcDbTableStyle
  3
ObjectDBX Classes
 90
4095
 91
1
280
0
281
0
  0
CLASS
  1
CELLSTYLEMAP
  2
AcDbCellStyleMap
  3
ObjectDBX Classes
 90
1152
 91
1
280
0
281
0
  0
CLASS
  1
ACIDBLOCKREFERENCE
  2
AcIdBlockReference
  3
AcIdViewObj|Product: Inventor Drawing Enabler|Company: Autodesk|Website: www.autodesk.com
 90
1
 91
1
280
0
281
1
  0
CLASS
  1
RASTERVARIABLES
  2
AcDbRasterVariables
  3
ISM
 90
0
 91
1
280
0
281
0
  0
CLASS
  1
IMAGEDEF
  2
AcDbRasterImageDef
  3
ISM
 90
0
 91
1
280
0
281
0
  0
CLASS
  1
IMAGEDEF_REACTOR
  2
AcDbRasterImageDefReactor
  3
ISM
 90
1
 91
1
280
0
281
0
  0
CLASS
  1
IMAGE
  2
AcDbRasterImage
  3
ISM
 90
127
 91
1
280
0
281
1
  0
CLASS
  1
ACAD_EVALUATION_GRAPH
  2
AcDbEvalGraph
  3
ObjectDBX Classes
 90
1153
 91
1
280
0
281
0
  0
CLASS
  1
BLOCKPOINTPARAMETER
  2
AcDbBlockPointParameter
  3
ObjectDBX Classes
 90
1153
 91
1
280
0
281
0
  0
CLASS
  1
BLOCKBASEPOINTPARAMETER
  2
AcDbBlockBasepointParameter
  3
ObjectDBX Classes
 90
1153
 91
1
280
0
281
0
  0
CLASS
  1
BLOCKLOOKUPPARAMETER
  2
AcDbBlockLookupParameter
  3
ObjectDBX Classes
 90
1153
 91
1
280
0
281
0
  0
CLASS
  1
BLOCKVISIBILITYPARAMETER
  2
AcDbBlockVisibilityParameter
  3
ObjectDBX Classes
 90
1153
 91
1
280
0
281
0
  0
CLASS
  1
BLOCKPROPERTIESTABLE
  2
AcDbBlockPropertiesTable
  3
ObjectDBX Classes
 90
1153
 91
1
280
0
281
0
  0
CLASS
  1
BLOCKPOLARPARAMETER
  2
AcDbBlockPolarParameter
  3
ObjectDBX Classes
 90
1153
 91
1
280
0
281
0
  0
CLASS
  1
BLOCKROTATIONPARAMETER
  2
AcDbBlockRotationParameter
  3
ObjectDBX Classes
 90
1153
 91
1
280
0
281
0
  0
CLASS
  1
BLOCKLINEARPARAMETER
  2
AcDbBlockLinearParameter
  3
ObjectDBX Classes
 90
1153
 91
1
280
0
281
0
  0
CLASS
  1
BLOCKXYPARAMETER
  2
AcDbBlockXYParameter
  3
ObjectDBX Classes
 90
1153
 91
1
280
0
281
0
  0
CLASS
  1
BLOCKFLIPPARAMETER
  2
AcDbBlockFlipParameter
  3
ObjectDBX Classes
 90
1153
 91
1
280
0
281
0
  0
CLASS
  1
BLOCKALIGNMENTPARAMETER
  2
AcDbBlockAlignmentParameter
  3
ObjectDBX Classes
 90
1153
 91
1
280
0
281
0
  0
CLASS
  1
BLOCKROTATEACTION
  2
AcDbBlockRotateAction
  3
ObjectDBX Classes
 90
1153
 91
1
280
0
281
0
  0
CLASS
  1
BLOCKSCALEACTION
  2
AcDbBlockScaleAction
  3
ObjectDBX Classes
 90
1153
 91
1
280
0
281
0
  0
CLASS
  1
BLOCKARRAYACTION
  2
AcDbBlockArrayAction
  3
ObjectDBX Classes
 90
1153
 91
1
280
0
281
0
  0
CLASS
  1
BLOCKFLIPACTION
  2
AcDbBlockFlipAction
  3
ObjectDBX Classes
 90
1153
 91
1
280
0
281
0
  0
CLASS
  1
BLOCKLOOKUPACTION
  2
AcDbBlockLookupAction
  3
ObjectDBX Classes
 90
1153
 91
1
280
0
281
0
  0
CLASS
  1
BLOCKMOVEACTION
  2
AcDbBlockMoveAction
  3
ObjectDBX Classes
 90
1153
 91
1
280
0
281
0
  0
CLASS
  1
BLOCKPOLARSTRETCHACTION
  2
AcDbBlockPolarStretchAction
  3
ObjectDBX Classes
 90
1153
 91
1
280
0
281
0
  0
CLASS
  1
BLOCKSTRETCHACTION
  2
AcDbBlockStretchAction
  3
ObjectDBX Classes
 90
1153
 91
1
280
0
281
0
  0
CLASS
  1
BLOCKALIGNMENTGRIP
  2
AcDbBlockAlignmentGrip
  3
ObjectDBX Classes
 90
1153
 91
1
280
0
281
0
  0
CLASS
  1
BLOCKFLIPGRIP
  2
AcDbBlockFlipGrip
  3
ObjectDBX Classes
 90
1153
 91
1
280
0
281
0
  0
CLASS
  1
ACDB_BLOCKREPRESENTATION_DATA
  2
AcDbBlockRepresentationData
  3
ObjectDBX Classes
 90
1153
 91
1
280
0
281
0
  0
CLASS
  1
ACDB_DYNAMICBLOCKPURGEPREVENTER_VERSION
  2
AcDbDynamicBlockPurgePreventer
  3
ObjectDBX Classes
 90
1153
 91
1
280
0
281
0
  0
CLASS
  1
BLOCKLINEARGRIP
  2
AcDbBlockLinearGrip
  3
ObjectDBX Classes
 90
1153
 91
1
280
0
281
0
  0
CLASS
  1
BLOCKLOOKUPGRIP
  2
AcDbBlockLookupGrip
  3
ObjectDBX Classes
 90
1153
 91
1
280
0
281
0
  0
CLASS
  1
BLOCKPOLARGRIP
  2
AcDbBlockPolarGrip
  3
ObjectDBX Classes
 90
1153
 91
1
280
0
281
0
  0
CLASS
  1
BLOCKPROPERTIESTABLEGRIP
  2
AcDbBlockPropertiesTableGrip
  3
ObjectDBX Classes
 90
1153
 91
1
280
0
281
0
  0
CLASS
  1
BLOCKROTATIONGRIP
  2
AcDbBlockRotationGrip
  3
ObjectDBX Classes
 90
1153
 91
1
280
0
281
0
  0
CLASS
  1
BLOCKVISIBILITYGRIP
  2
AcDbBlockVisibilityGrip
  3
ObjectDBX Classes
 90
1153
 91
1
280
0
281
0
  0
CLASS
  1
BLOCKXYGRIP
  2
AcDbBlockXYGrip
  3
ObjectDBX Classes
 90
1153
 91
1
280
0
281
0
  0
CLASS
  1
BLOCKGRIPLOCATIONCOMPONENT
  2
AcDbBlockGripExpr
  3
ObjectDBX Classes
 90
1153
 91
1
280
0
281
0
  0
CLASS
  1
ACDB_DYNAMICBLOCKPROXYNODE
  2
AcDbDynamicBlockProxyNode
  3
ObjectDBX Classes
 90
1153
 91
1
280
0
281
0
  0
CLASS
  1
BLOCKLINEARCONSTRAINTPARAMETER
  2
AcDbBlockLinearConstraintParameter
  3
ObjectDBX Classes
 90
1153
 91
1
280
0
281
0
  0
CLASS
  1
BLOCKHORIZONTALCONSTRAINTPARAMETER
  2
AcDbBlockHorizontalConstraintParameter
  3
ObjectDBX Classes
 90
1153
 91
1
280
0
281
0
  0
CLASS
  1
BLOCKVERTICALCONSTRAINTPARAMETER
  2
AcDbBlockVerticalConstraintParameter
  3
ObjectDBX Classes
 90
1153
 91
1
280
0
281
0
  0
CLASS
  1
BLOCKALIGNEDCONSTRAINTPARAMETER
  2
AcDbBlockAlignedConstraintParameter
  3
ObjectDBX Classes
 90
1153
 91
1
280
0
281
0
  0
CLASS
  1
BLOCKANGULARCONSTRAINTPARAMETER
  2
AcDbBlockAngularConstraintParameter
  3
ObjectDBX Classes
 90
1153
 91
1
280
0
281
0
  0
CLASS
  1
BLOCKDIAMETRICCONSTRAINTPARAMETER
  2
AcDbBlockDiametricConstraintParameter
  3
ObjectDBX Classes
 90
1153
 91
1
280
0
281
0
  0
CLASS
  1
BLOCKRADIALCONSTRAINTPARAMETER
  2
AcDbBlockRadialConstraintParameter
  3
ObjectDBX Classes
 90
1153
 91
1
280
0
281
0
  0
ENDSEC
  0
SECTION
  2
TABLES
  0
TABLE
  2
VPORT
  5
8
330
0
100
AcDbSymbolTable
 70
1
  0
VPORT
  5
1E3
330
8
100
AcDbSymbolTableRecord
100
AcDbViewportTableRecord
  2
*Active
 70
64
 10
0
 20
0
 11
1
 21
1
 12
368.35822354068529
 22
450.01268380097929
 13
0
 23
0
 14
1
 24
1
 15
0
 25
0
 16
0
 26
0
 36
1
 17
0
 27
0
 37
0
 40
889.94206564962928
 41
0.81658794486956754
 42
50
 43
0
 44
0
 50
0
 51
0
 71
0
 72
20000
 73
20000
 74
1
 75
0
 76
0
 77
0
 78
0
281
0
 65
1
110
0
120
0
130
0
111
1
121
0
131
0
112
0
122
1
132
0
 79
0
146
0
 60
2
 61
5
292
1
282
1
141
0
142
0
 63
250
421
3355443
  0
ENDTAB
  0
TABLE
  2
LTYPE
  5
5
100
AcDbSymbolTable
 70
3
  0
LTYPE
  5
16
330
5
100
AcDbSymbolTableRecord
100
AcDbLinetypeTableRecord
  2
Continuous
  3
Solid line
 70
64
 72
65
 73
0
 40
0
  0
LTYPE
  5
14
330
5
100
AcDbSymbolTableRecord
100
AcDbLinetypeTableRecord
  2
ByBlock
  3

 70
64
 72
65
 73
0
 40
0
  0
LTYPE
  5
15
330
5
100
AcDbSymbolTableRecord
100
AcDbLinetypeTableRecord
  2
ByLayer
  3

 70
64
 72
65
 73
0
 40
0
  0
ENDTAB
  0
TABLE
  2
LAYER
  5
2
100
AcDbSymbolTable
 70
2
  0
LAYER
  5
10
330
2
100
AcDbSymbolTableRecord
100
AcDbLayerTableRecord
 70
64
  2
0
 62
7
  6
Continuous
370
-3
390
F
  0
LAYER
  5
27
330
2
100
AcDbSymbolTableRecord
100
AcDbLayerTableRecord
 70
64
  2
DEFPOINTS
 62
7
  6
Continuous
290
0
370
-3
390
F
  0
ENDTAB
  0
TABLE
  2
STYLE
  5
3
100
AcDbSymbolTable
 70
1
  0
STYLE
  5
11
330
3
100
AcDbSymbolTableRecord
100
AcDbTextStyleTableRecord
  2
Standard
 70
64
 40
0
 41
1
 50
0
 71
0
 42
0.2
  3
txt.shx
  0
ENDTAB
  0
TABLE
  2
VIEW
  5
6
100
AcDbSymbolTable
 70
0
  0
ENDTAB
  0
TABLE
  2
UCS
  5
7
100
AcDbSymbolTable
 70
0
  0
ENDTAB
  0
TABLE
  2
APPID
  5
9
330
0
100
AcDbSymbolTable
 70
2
  0
APPID
  5
12
330
0
100
AcDbSymbolTableRecord
100
AcDbRegAppTableRecord
  2
ACAD
 70
64
  0
APPID
  5
205
330
0
100
AcDbSymbolTableRecord
100
AcDbRegAppTableRecord
  2
ACAD_MLEADERVER
 70
64
  0
ENDTAB
  0
TABLE
  2
DIMSTYLE
  5
A
330
0
100
AcDbSymbolTable
 70
1
100
AcDbDimStyleTable
 71
0
  0
DIMSTYLE
105
1E2
330
A
100
AcDbSymbolTableRecord
100
AcDbDimStyleTableRecord
  2
Standard
 70
64
  3

  4

 40
1
 41
0.18
 42
0.0625
 43
0.38
 44
0.18
 45
0
 46
0
 47
0
 48
0
140
0.18
141
0.09
142
0
143
1
144
1
145
0
146
1
147
0.09
148
0
 71
0
 72
0
 73
1
 74
1
 75
0
 76
0
 77
0
 78
0
 79
0
170
0
171
2
172
0
173
0
174
0
175
0
179
0
271
4
272
4
273
2
274
0
275
0
276
0
277
2
278
46
279
0
280
0
281
0
282
0
283
1
284
0
285
0
286
0
288
0
289
0
340
11
371
-2
372
-2
  0
ENDTAB
  0
TABLE
  2
BLOCK_RECORD
  5
1
330
0
100
AcDbSymbolTable
 70
3
  0
BLOCK_RECORD
  5
1F
330
1
100
AcDbSymbolTableRecord
100
AcDbBlockTableRecord
  2
*Model_Space
340
22
 70
1
280
1
281
0
  0
BLOCK_RECORD
  5
1DF
330
1
100
AcDbSymbolTableRecord
100
AcDbBlockTableRecord
  2
*Paper_Space
340
1E
 70
1
280
1
281
0
  0
ENDTAB
  0
ENDSEC
  0
SECTION
  2
BLOCKS
  0
BLOCK
  5
20
330
1F
100
AcDbEntity
  8
0
100
AcDbBlockBegin
  2
*Model_Space
 70
64
 10
0
 20
0
 30
0
  3
*Model_Space
  0
ENDBLK
  5
21
330
1F
100
AcDbEntity
  8
0
100
AcDbBlockEnd
  0
BLOCK
  5
1E0
330
1DF
100
AcDbEntity
  8
0
 67
1
100
AcDbBlockBegin
  2
*Paper_Space
 70
64
 10
0
 20
0
 30
0
  3
*Paper_Space
  0
ENDBLK
  5
1E1
330
1DF
100
AcDbEntity
  8
0
100
AcDbBlockEnd
  0
ENDSEC
  0
SECTION
  2
ENTITIES
  0
LINE
  5
28
330
1F
100
AcDbEntity
  8
0
 62
7
100
AcDbLine
 10
731.62266242243106
 20
255.04282942689409
 30
0
 11
731.71620476158955
 21
264.41809643943361
 31
0
  0
LINE
  5
29
330
1F
100
AcDbEntity
  8
0
 62
7
100
AcDbLine
 10
731.71620476158955
 20
264.41809643943361
 30
0
 11
462.70813212415413
 21
474.72083224483936
 31
0
  0
ARC
  5
2A
330
1F
100
AcDbEntity
  8
0
 62
7
100
AcDbCircle
 10
-1204.5082927215685
 20
426.53016625453415
 30
0
 40
1667.91275178408
100
AcDbArc
 50
1.6556657869593414
 51
12.188692093009475
  0
ARC
  5
2B
330
1F
100
AcDbEntity
  8
0
 62
7
100
AcDbCircle
 10
166.27200007316316
 20
717.2786214345706
 30
0
 40
266.69800235958508
100
AcDbArc
 50
13.310444135862326
 51
36.231584373521869
  0
LINE
  5
2C
330
1F
100
AcDbEntity
  8
0
 62
7
100
AcDbLine
 10
381.39984116876451
 20
874.91058661974148
 30
0
 11
381.36252204098571
 21
834.61790248626892
 31
0
  0
LINE
  5
2D
330
1F
100
AcDbEntity
  8
0
 62
7
100
AcDbLine
 10
381.36252204098571
 20
834.61790248626892
 30
0
 11
373.48853966858928
 21
834.85957347259364
 31
0
  0
LINE
  5
2E
330
1F
100
AcDbEntity
  8
0
 62
7
100
AcDbLine
 10
373.48853966858928
 20
834.85957347259364
 30
0
 11
373.18912939231348
 21
806.19874460735377
 31
0
  0
LINE
  5
2F
330
1F
100
AcDbEntity
  8
0
 62
7
100
AcDbLine
 10
373.18912939231348
 20
806.19874460735377
 30
0
 11
381.25865651355082
 21
805.90658352617868
 31
0
  0
LINE
  5
30
330
1F
100
AcDbEntity
  8
0
 62
7
100
AcDbLine
 10
381.25865651355082
 20
805.90658352617868
 30
0
 11
377.12082656352942
 21
544.800599163429
 31
0
  0
LINE
  5
31
330
1F
100
AcDbEntity
  8
0
 62
7
100
AcDbLine
 10
377.12082656352942
 20
544.800599163429
 30
0
 11
367.9361224705093
 21
544.89569008437377
 31
0
  0
LINE
  5
32
330
1F
100
AcDbEntity
  8
0
 62
7
100
AcDbLine
 10
367.9361224705093
 20
544.89569008437377
 30
0
 11
372.17639322878983
 21
776.29484984186172
 31
0
  0
LINE
  5
33
330
1F
100
AcDbEntity
  8
0
 62
7
100
AcDbLine
 10
372.17639322878983
 20
776.29484984186172
 30
0
 11
380.0576819320209
 21
776.1664760738895
 31
0
  0
LINE
  5
34
330
1F
100
AcDbEntity
  8
0
 62
7
100
AcDbLine
 10
380.0576819320209
 20
776.1664760738895
 30
0
 11
380.526352740998
 21
804.9397216573667
 31
0
  0
LINE
  5
35
330
1F
100
AcDbEntity
  8
0
 62
7
100
AcDbLine
 10
380.526352740998
 20
804.9397216573667
 30
0
 11
372.47537035277065
 21
805.12780205656429
 31
0
  0
LINE
  5
36
330
1F
100
AcDbEntity
  8
0
 62
7
100
AcDbLine
 10
372.47537035277065
 20
805.12780205656429
 30
0
 11
373.52476929154216
 21
875.01013505149513
 31
0
  0
ARC
  5
37
330
1F
100
AcDbEntity
  8
0
 62
7
100
AcDbCircle
 10
599.233910873817
 20
706.18236976060484
 30
0
 40
281.86420653733819
100
AcDbArc
 50
143.20394642075235
 51
166.87091389605138
  0
ARC
  5
38
330
1F
100
AcDbEntity
  8
0
 62
7
100
AcDbCircle
 10
1953.2772518873812
 20
371.64762726294759
 30
0
 40
1676.6011067803161
100
AcDbArc
 50
166.2480804893932
 51
176.387919261427
  0
LINE
  5
39
330
1F
100
AcDbEntity
  8
0
 62
7
100
AcDbLine
 10
280.00676862323911
 20
477.27509099263364
 30
0
 11
5.6255778849896387
 21
273.84784744813794
 31
0
  0
LINE
  5
3A
330
1F
100
AcDbEntity
  8
0
 62
7
100
AcDbLine
 10
5.6255778849896387
 20
273.84784744813794
 30
0
 11
5.4756162437366811
 21
264.47331315401016
 31
0
  0
LINE
  5
3B
330
1F
100
AcDbEntity
  8
0
 62
7
100
AcDbLine
 10
5.4756162437366811
 20
264.47331315401016
 30
0
 11
5.14392820727096
 21
245.59757473079839
 31
0
  0
LINE
  5
3C
330
1F
100
AcDbEntity
  8
0
 62
7
100
AcDbLine
 10
5.14392820727096
 20
245.59757473079839
 30
0
 11
5.0068209847478329
 21
237.31988717702626
 31
0
  0
LINE
  5
3D
330
1F
100
AcDbEntity
  8
0
 62
7
100
AcDbLine
 10
5.0068209847478329
 20
237.31988717702626
 30
0
 11
5.6587018107077256
 21
237.15726804685255
 31
0
  0
ARC
  5
3E
330
1F
100
AcDbEntity
  8
0
 62
7
100
AcDbCircle
 10
5.4847843251344166
 20
236.77115371045272
 30
0
 40
0.42347558673626412
100
AcDbArc
 50
351.53221039182358
 51
65.7517690552106
  0
LINE
  5
3F
330
1F
100
AcDbEntity
  8
0
 62
7
100
AcDbLine
 10
5.9036435207279965
 20
236.70879549665275
 30
0
 11
5.4145180799376931
 21
195.71157475555935
 31
0
  0
ARC
  5
40
330
1F
100
AcDbEntity
  8
0
 62
7
100
AcDbCircle
 10
12.988842728272164
 20
195.56740233915124
 30
0
 40
7.5756966388590321
100
AcDbArc
 50
178.90954323001532
 51
205.49457094465581
  0
ARC
  5
41
330
1F
100
AcDbEntity
  8
0
 62
7
100
AcDbCircle
 10
9.5072615889897616
 20
194.2680554875019
 30
0
 40
3.8875294600753572
100
AcDbArc
 50
210.30103608431071
 51
247.42884618251824
  0
ARC
  5
42
330
1F
100
AcDbEntity
  8
0
 62
7
100
AcDbCircle
 10
9.1063404816124578
 20
193.3022821333104
 30
0
 40
2.84184519167821
100
AcDbArc
 50
247.41914329029547
 51
270.93618747309853
  0
ARC
  5
43
330
1F
100
AcDbEntity
  8
0
 62
7
100
AcDbCircle
 10
10.407108128711263
 20
207.38581702306954
 30
0
 40
16.971417342082631
100
AcDbArc
 50
265.76147916271356
 51
274.31165890094036
  0
LINE
  5
44
330
1F
100
AcDbEntity
  8
0
 62
7
100
AcDbLine
 10
11.683047095460438
 20
190.46243124030508
 30
0
 11
243.6289095627663
 21
212.38679006151716
 31
0
  0
LINE
  5
45
330
1F
100
AcDbEntity
  8
0
 62
7
100
AcDbLine
 10
243.6289095627663
 20
212.38679006151716
 30
0
 11
244.26963904464066
 21
267.31458753843634
 31
0
  0
LINE
  5
46
330
1F
100
AcDbEntity
  8
0
 62
7
100
AcDbLine
 10
244.26963904464066
 20
267.31458753843634
 30
0
 11
255.32174538584974
 21
267.19056138000906
 31
0
  0
LINE
  5
47
330
1F
100
AcDbEntity
  8
0
 62
7
100
AcDbLine
 10
255.32174538584974
 20
267.19056138000906
 30
0
 11
254.39088003633066
 21
202.10654073939529
 31
0
  0
LINE
  5
48
330
1F
100
AcDbEntity
  8
0
 62
7
100
AcDbLine
 10
254.39088003633066
 20
202.10654073939529
 30
0
 11
114.57916990039405
 21
99.201524200574966
 31
0
  0
LINE
  5
49
330
1F
100
AcDbEntity
  8
0
 62
7
100
AcDbLine
 10
114.57916990039405
 20
99.201524200574966
 30
0
 11
135.10648987166257
 21
17.265875111364807
 31
0
  0
ARC
  5
4A
330
1F
100
AcDbEntity
  8
0
 62
7
100
AcDbCircle
 10
139.31018627698532
 20
18.90277061093451
 30
0
 40
4.5111517758367468
100
AcDbArc
 50
201.27565596298683
 51
259.91986392689273
  0
LINE
  5
4B
330
1F
100
AcDbEntity
  8
0
 62
7
100
AcDbLine
 10
138.52062014540957
 20
14.461253339944392
 30
0
 11
250.38698658796204
 21
17.074952547045172
 31
0
  0
ARC
  5
4C
330
1F
100
AcDbEntity
  8
0
 62
7
100
AcDbCircle
 10
250.3636284851238
 20
18.074679709340863
 30
0
 40
0.99999999999999956
100
AcDbArc
 50
271.33844243813223
 51
359.26089059445945
  0
LINE
  5
4D
330
1F
100
AcDbEntity
  8
0
 62
7
100
AcDbLine
 10
251.3635452826623
 20
18.061780174451314
 30
0
 11
252.77239828276913
 21
127.27004171488061
 31
0
  0
ARC
  5
4E
330
1F
100
AcDbEntity
  8
0
 62
7
100
AcDbCircle
 10
253.66091257334949
 20
126.87643413565185
 30
0
 40
0.97179451068209455
100
AcDbArc
 50
90.535079324022945
 51
156.10688658375338
  0
LINE
  5
4F
330
1F
100
AcDbEntity
  8
0
 62
7
100
AcDbLine
 10
253.65183721743546
 20
127.84818626912359
 30
0
 11
263.09596680522435
 21
127.71615249469875
 31
0
  0
ARC
  5
50
330
1F
100
AcDbEntity
  8
0
 62
7
100
AcDbCircle
 10
263.04547549156388
 20
126.79499252234933
 30
0
 40
0.9225427184764583
100
AcDbArc
 50
356.8626001406962
 51
86.862600140643139
  0
LINE
  5
51
330
1F
100
AcDbEntity
  8
0
 62
7
100
AcDbLine
 10
263.96663546391335
 20
126.74450120868971
 30
0
 11
262.6699367832399
 21
33.9940634514725
 31
0
  0
ARC
  5
52
330
1F
100
AcDbEntity
  8
0
 62
7
100
AcDbCircle
 10
267.12730878915454
 20
33.811238150333644
 30
0
 40
4.4611198470616982
100
AcDbArc
 50
177.65125060218134
 51
249.54558846216926
  0
ARC
  5
53
330
1F
100
AcDbEntity
  8
0
 62
7
100
AcDbCircle
 10
293.51707114424045
 20
115.99506509166982
 30
0
 40
90.773439522820937
100
AcDbArc
 50
252.06753709153702
 51
285.65756912023318
  0
ARC
  5
54
330
1F
100
AcDbEntity
  8
0
 62
7
100
AcDbCircle
 10
316.72925797810558
 20
32.882728426882487
 30
0
 40
4.4812846766413381
100
AcDbArc
 50
286.68238451735959
 51
355.16277381236233
  0
LINE
  5
55
330
1F
100
AcDbEntity
  8
0
 62
7
100
AcDbLine
 10
321.19458158153583
 20
32.504842902220076
 30
0
 11
321.47824950689926
 21
52.795080447168829
 31
0
  0
ARC
  5
56
330
1F
100
AcDbEntity
  8
0
 62
7
100
AcDbCircle
 10
321.77163419782767
 20
52.675829196070289
 30
0
 40
0.31669454962115923
100
AcDbArc
 50
87.410612287838617
 51
157.87987118645336
  0
LINE
  5
57
330
1F
100
AcDbEntity
  8
0
 62
7
100
AcDbLine
 10
321.78594181109787
 20
52.992200386228717
 30
0
 11
322.4720720294261
 21
52.982607933941011
 31
0
  0
LINE
  5
58
330
1F
100
AcDbEntity
  8
0
 62
7
100
AcDbLine
 10
322.4720720294261
 20
52.982607933941011
 30
0
 11
340.46455788128134
 21
7.8150127088165107
 31
0
  0
ARC
  5
59
330
1F
100
AcDbEntity
  8
0
 62
7
100
AcDbCircle
 10
343.67263756743228
 20
9.0887740563065371
 30
0
 40
3.451701499703268
100
AcDbArc
 50
201.65544909420305
 51
271.0454947127767
  0
LINE
  5
5A
330
1F
100
AcDbEntity
  8
0
 62
7
100
AcDbLine
 10
343.73561839147067
 20
5.6376471883317834
 30
0
 11
365.05086703170559
 21
5.3396490822480871
 31
0
  0
LINE
  5
5B
330
1F
100
AcDbEntity
  8
0
 62
7
100
AcDbLine
 10
365.05086703170559
 20
5.3396490822480871
 30
0
 11
386.36611567193921
 21
5.0416509761646466
 31
0
  0
ARC
  5
5C
330
1F
100
AcDbEntity
  8
0
 62
7
100
AcDbCircle
 10
386.52555007045919
 20
8.4896683652771721
 30
0
 40
3.451701499703268
100
AcDbArc
 50
267.35256089514172
 51
336.74260651382065
  0
LINE
  5
5D
330
1F
100
AcDbEntity
  8
0
 62
7
100
AcDbLine
 10
389.69676721921962
 20
7.1267211768426364
 30
0
 11
408.9449064992815
 21
51.773673366269094
 31
0
  0
LINE
  5
5E
330
1F
100
AcDbEntity
  8
0
 62
7
100
AcDbLine
 10
408.9449064992815
 20
51.773673366269094
 30
0
 11
409.631036717611
 21
51.764080913980507
 31
0
  0
ARC
  5
5F
330
1F
100
AcDbEntity
  8
0
 62
7
100
AcDbCircle
 10
409.636494404725
 20
51.447433394787453
 30
0
 40
0.31669454962115923
100
AcDbArc
 50
20.518184421470416
 51
90.9874433204618
  0
LINE
  5
60
330
1F
100
AcDbEntity
  8
0
 62
7
100
AcDbLine
 10
409.93309816689595
 20
51.558436304775341
 30
0
 11
409.64943024153024
 21
31.268198759825594
 31
0
  0
ARC
  5
61
330
1F
100
AcDbEntity
  8
0
 62
7
100
AcDbCircle
 10
414.12357265079191
 20
31.521105965627296
 30
0
 40
4.4812846766413381
100
AcDbArc
 50
183.23528179565363
 51
251.71567109000824
  0
ARC
  5
62
330
1F
100
AcDbEntity
  8
0
 62
7
100
AcDbCircle
 10
439.65013943465897
 20
113.95204986244401
 30
0
 40
90.773439522820937
100
AcDbArc
 50
252.74048648773459
 51
286.33051851645496
  0
ARC
  5
63
330
1F
100
AcDbEntity
  8
0
 62
7
100
AcDbCircle
 10
463.73209276760747
 20
31.0626024547613
 30
0
 40
4.4611198470616982
100
AcDbArc
 50
288.85246714567035
 51
0.74680500581675324
  0
LINE
  5
64
330
1F
100
AcDbEntity
  8
0
 62
7
100
AcDbLine
 10
468.19283366902243
 20
31.120747964400522
 30
0
 11
469.48953234969952
 21
123.87118572161748
 31
0
  0
ARC
  5
65
330
1F
100
AcDbEntity
  8
0
 62
7
100
AcDbCircle
 10
470.41174381528026
 20
123.89590575732511
 30
0
 40
0.9225427184764583
100
AcDbArc
 50
91.535455467244958
 51
181.53545546727051
  0
LINE
  5
66
330
1F
100
AcDbEntity
  8
0
 62
7
100
AcDbLine
 10
470.38702377957304
 20
124.81811722290584
 30
0
 11
479.83115336736239
 21
124.68608344848161
 31
0
  0
ARC
  5
67
330
1F
100
AcDbEntity
  8
0
 62
7
100
AcDbCircle
 10
479.79491568184659
 20
123.71496481456488
 30
0
 40
0.97179451068209455
100
AcDbArc
 50
22.29116902422362
 51
87.862976283803775
  0
LINE
  5
68
330
1F
100
AcDbEntity
  8
0
 62
7
100
AcDbLine
 10
480.69408623254105
 20
124.0835796430182
 30
0
 11
479.04941033244177
 21
14.878615027656281
 31
0
  0
ARC
  5
69
330
1F
100
AcDbEntity
  8
0
 62
7
100
AcDbCircle
 10
480.0492969431545
 20
14.863556285435065
 30
0
 40
0.99999999999999956
100
AcDbArc
 50
179.13716501362092
 51
267.059613169923
  0
LINE
  5
6A
330
1F
100
AcDbEntity
  8
0
 62
7
100
AcDbLine
 10
479.99800003524916
 20
13.864872838471342
 30
0
 11
591.74757797170491
 21
8.12490806253794
 31
0
  0
ARC
  5
6B
330
1F
100
AcDbEntity
  8
0
 62
7
100
AcDbCircle
 10
591.08248553800411
 20
12.586762206194937
 30
0
 40
4.5111517758367468
100
AcDbArc
 50
278.47819168107696
 51
337.12239964501794
  0
LINE
  5
6C
330
1F
100
AcDbEntity
  8
0
 62
7
100
AcDbLine
 10
595.238778666854
 20
10.832989766078867
 30
0
 11
618.04863296101178
 21
92.16276293649949
 31
0
  0
LINE
  5
6D
330
1F
100
AcDbEntity
  8
0
 62
7
100
AcDbLine
 10
618.04863296101178
 20
92.16276293649949
 30
0
 11
481.17170639223343
 21
199.16133200522972
 31
0
  0
LINE
  5
6E
330
1F
100
AcDbEntity
  8
0
 62
7
100
AcDbLine
 10
481.17170639223343
 20
199.16133200522972
 30
0
 11
481.931364456893
 21
264.2475785002971
 31
0
  0
LINE
  5
6F
330
1F
100
AcDbEntity
  8
0
 62
7
100
AcDbLine
 10
481.931364456893
 20
264.2475785002971
 30
0
 11
492.98296418912429
 21
264.08454346150324
 31
0
  0
LINE
  5
70
330
1F
100
AcDbEntity
  8
0
 62
7
100
AcDbLine
 10
492.98296418912429
 20
264.08454346150324
 30
0
 11
492.19702173009631
 21
209.15863186792564
 31
0
  0
LINE
  5
71
330
1F
100
AcDbEntity
  8
0
 62
7
100
AcDbLine
 10
492.19702173009631
 20
209.15863186792564
 30
0
 11
723.49528821539445
 21
181.21811386413617
 31
0
  0
ARC
  5
72
330
1F
100
AcDbEntity
  8
0
 62
7
100
AcDbCircle
 10
725.21029130552915
 20
198.10265623282271
 30
0
 40
16.971417342082631
100
AcDbArc
 50
264.20022228180466
 51
272.75040202003788
  0
ARC
  5
73
330
1F
100
AcDbEntity
  8
0
 62
7
100
AcDbCircle
 10
726.14487573014321
 20
183.99009078864978
 30
0
 40
2.84184519167821
100
AcDbArc
 50
267.57569370969838
 51
291.09273789245867
  0
ARC
  5
74
330
1F
100
AcDbEntity
  8
0
 62
7
100
AcDbCircle
 10
725.76917063968381
 20
184.96595020014811
 30
0
 40
3.8875294600753558
100
AcDbArc
 50
291.08303500022305
 51
328.21084509844019
  0
ARC
  5
75
330
1F
100
AcDbEntity
  8
0
 62
7
100
AcDbCircle
 10
722.3225073143326
 20
186.35527427752291
 30
0
 40
7.5756966388590321
100
AcDbArc
 50
333.01731023805985
 51
359.60233795269284
  0
LINE
  5
76
330
1F
100
AcDbEntity
  8
0
 62
7
100
AcDbLine
 10
729.8980214905913
 20
186.30269548595049
 30
0
 11
730.47374461487686
 21
227.29879158149316
 31
0
  0
ARC
  5
77
330
1F
100
AcDbEntity
  8
0
 62
7
100
AcDbCircle
 10
730.89408196371255
 20
227.35025113585763
 30
0
 40
0.42347558673626379
100
AcDbArc
 50
112.76011212742272
 51
186.97967079086359
  0
LINE
  5
78
330
1F
100
AcDbEntity
  8
0
 62
7
100
AcDbLine
 10
730.73025039035031
 20
227.74075182488551
 30
0
 11
731.386134519952
 21
227.88638698990044
 31
0
  0
LINE
  5
79
330
1F
100
AcDbEntity
  8
0
 62
7
100
AcDbLine
 10
731.386134519952
 20
227.88638698990044
 30
0
 11
731.46404221315993
 21
236.16484336894132
 31
0
  0
LINE
  5
7A
330
1F
100
AcDbEntity
  8
0
 62
7
100
AcDbLine
 10
731.46404221315993
 20
236.16484336894132
 30
0
 11
731.62266242243106
 21
255.04282942689409
 31
0
  0
LINE
  5
7B
330
1F
100
AcDbEntity
  8
0
 62
7
100
AcDbLine
 10
365.24379674676203
 20
385.68251925184467
 30
0
 11
375.24281961631084
 21
385.54272778480129
 31
0
  0
LINE
  5
7C
330
1F
100
AcDbEntity
  8
0
 62
7
100
AcDbLine
 10
375.24281961631084
 20
385.54272778480129
 30
0
 11
375.42190763515976
 21
401.6485795774928
 31
0
  0
LINE
  5
7D
330
1F
100
AcDbEntity
  8
0
 62
7
100
AcDbLine
 10
375.42190763515976
 20
401.6485795774928
 30
0
 11
365.42288476561185
 21
401.78837104453618
 31
0
  0
LINE
  5
7E
330
1F
100
AcDbEntity
  8
0
 62
7
100
AcDbLine
 10
365.42288476561185
 20
401.78837104453618
 30
0
 11
365.24379674676203
 21
385.68251925184467
 31
0
  0
LINE
  5
7F
330
1F
100
AcDbEntity
  8
0
 62
7
100
AcDbLine
 10
499.81771650407887
 20
75.866891789510163
 30
0
 11
499.82579715591237
 21
80.691925524604045
 31
0
  0
ARC
  5
80
330
1F
100
AcDbEntity
  8
0
 62
7
100
AcDbCircle
 10
499.07313704127222
 20
80.362382062400144
 30
0
 40
0.82164234412028825
100
AcDbArc
 50
23.645647227316012
 51
160.95504804955183
  0
LINE
  5
81
330
1F
100
AcDbEntity
  8
0
 62
7
100
AcDbLine
 10
498.29646905161667
 20
80.63049206873319
 30
0
 11
498.2913915820219
 21
75.671122365383042
 31
0
  0
ARC
  5
82
330
1F
100
AcDbEntity
  8
0
 62
7
100
AcDbCircle
 10
499.05757644894146
 20
75.745442757039172
 30
0
 40
0.76978098892636715
100
AcDbArc
 50
185.54039163578238
 51
9.07753437198064
  0
ARC
  5
83
330
1F
100
AcDbEntity
  8
0
 62
7
100
AcDbCircle
 10
232.80553047181098
 20
79.000662583092677
 30
0
 40
0.76978098892636715
100
AcDbArc
 50
169.52152942385382
 51
353.05867216120777
  0
LINE
  5
84
330
1F
100
AcDbEntity
  8
0
 62
7
100
AcDbLine
 10
233.56966929567284
 20
78.907632325759408
 30
0
 11
233.68584255897736
 21
83.865643762626064
 31
0
  0
ARC
  5
85
330
1F
100
AcDbEntity
  8
0
 62
7
100
AcDbCircle
 10
232.90285183181285
 20
83.616602274464185
 30
0
 40
0.82164234412028825
100
AcDbArc
 50
17.644015746883994
 51
154.95341656909844
  0
LINE
  5
86
330
1F
100
AcDbEntity
  8
0
 62
7
100
AcDbLine
 10
232.15847354213889
 20
83.96444865365126
 30
0
 11
232.04858687807422
 21
79.1406596073943
 31
0
  0
LINE
  5
87
330
1F
100
AcDbEntity
  8
0
 62
7
100
AcDbLine
 10
256.89955281816822
 20
363.61559403044623
 30
0
 11
256.67863015063227
 21
347.69749825529749
 31
0
  0
LINE
  5
88
330
1F
100
AcDbEntity
  8
0
 62
7
100
AcDbLine
 10
256.67863015063227
 20
347.69749825529749
 30
0
 11
261.55920741546976
 21
347.51943472767869
 31
0
  0
LINE
  5
89
330
1F
100
AcDbEntity
  8
0
 62
7
100
AcDbLine
 10
261.55920741546976
 20
347.51943472767869
 30
0
 11
261.74357493889443
 21
363.54836524230279
 31
0
  0
LINE
  5
8A
330
1F
100
AcDbEntity
  8
0
 62
7
100
AcDbLine
 10
261.74357493889443
 20
363.54836524230279
 30
0
 11
256.89955281816822
 21
363.61559403044623
 31
0
  0
ARC
  5
8B
330
1F
100
AcDbEntity
  8
0
 62
7
100
AcDbCircle
 10
236.2870675963598
 20
244.92322465937752
 30
0
 40
0.76978098892636715
100
AcDbArc
 50
169.52152942438639
 51
353.05867216068668
  0
LINE
  5
8C
330
1F
100
AcDbEntity
  8
0
 62
7
100
AcDbLine
 10
237.05120642022081
 20
244.83019440203731
 30
0
 11
237.16737968352453
 21
249.78820583890396
 31
0
  0
ARC
  5
8D
330
1F
100
AcDbEntity
  8
0
 62
7
100
AcDbCircle
 10
236.38438895636071
 20
249.5391643507399
 30
0
 40
0.82164234412028825
100
AcDbArc
 50
17.644015747043845
 51
154.95341656893174
  0
LINE
  5
8E
330
1F
100
AcDbEntity
  8
0
 62
7
100
AcDbLine
 10
235.64001066668777
 20
249.88701072992913
 30
0
 11
235.53012400262173
 21
245.06322168367211
 31
0
  0
LINE
  5
8F
330
1F
100
AcDbEntity
  8
0
 62
7
100
AcDbLine
 10
260.72256696964496
 20
264.63472327152067
 30
0
 11
264.81920590568177
 21
264.5707998707158
 31
0
  0
ARC
  5
90
330
1F
100
AcDbEntity
  8
0
 62
7
100
AcDbCircle
 10
264.82700688853379
 20
265.07073901167848
 30
0
 40
0.50000000000000011
100
AcDbArc
 50
269.1060369422691
 51
359.10603694234737
  0
LINE
  5
91
330
1F
100
AcDbEntity
  8
0
 62
7
100
AcDbLine
 10
265.32694602949653
 20
265.06293802882715
 30
0
 11
265.64133397381579
 21
285.21101959987129
 31
0
  0
ARC
  5
92
330
1F
100
AcDbEntity
  8
0
 62
7
100
AcDbCircle
 10
265.14139483285305
 20
285.21882058272229
 30
0
 40
0.50000000000000011
100
AcDbArc
 50
359.10603694238642
 51
90.360355089535858
  0
LINE
  5
93
330
1F
100
AcDbEntity
  8
0
 62
7
100
AcDbLine
 10
265.13825016219073
 20
285.71881069367095
 30
0
 11
261.05874281255194
 21
285.69315277204646
 31
0
  0
ARC
  5
94
330
1F
100
AcDbEntity
  8
0
 62
7
100
AcDbCircle
 10
261.06188748321335
 20
285.1931626610978
 30
0
 40
0.50000000000000011
100
AcDbArc
 50
90.36035508943165
 51
179.05312259444759
  0
LINE
  5
95
330
1F
100
AcDbEntity
  8
0
 62
7
100
AcDbLine
 10
260.56195575988886
 20
285.20142534914783
 30
0
 11
260.230436229171
 21
265.1429251005336
 31
0
  0
ARC
  5
96
330
1F
100
AcDbEntity
  8
0
 62
7
100
AcDbCircle
 10
260.7303679524955
 20
265.13466241248341
 30
0
 40
0.50000000000000011
100
AcDbArc
 50
179.05312259442806
 51
269.10603694243855
  0
LINE
  5
97
330
1F
100
AcDbEntity
  8
0
 62
7
100
AcDbLine
 10
482.85821381207273
 20
360.68106515407385
 30
0
 11
478.01407951822091
 21
360.73965661390139
 31
0
  0
LINE
  5
98
330
1F
100
AcDbEntity
  8
0
 62
7
100
AcDbLine
 10
478.01407951822091
 20
360.73965661390139
 30
0
 11
477.78211909613185
 21
344.7113441890408
 31
0
  0
LINE
  5
99
330
1F
100
AcDbEntity
  8
0
 62
7
100
AcDbLine
 10
477.78211909613185
 20
344.7113441890408
 30
0
 11
482.6656745449319
 21
344.76260076323354
 31
0
  0
LINE
  5
9A
330
1F
100
AcDbEntity
  8
0
 62
7
100
AcDbLine
 10
482.6656745449319
 20
344.76260076323354
 30
0
 11
482.85821381207273
 21
360.68106515407385
 31
0
  0
LINE
  5
9B
330
1F
100
AcDbEntity
  8
0
 62
7
100
AcDbLine
 10
501.1416714185458
 20
241.61372011395389
 30
0
 11
501.15709394367775
 21
246.43873596754923
 31
0
  0
ARC
  5
9C
330
1F
100
AcDbEntity
  8
0
 62
7
100
AcDbCircle
 10
500.40393325943421
 20
246.11033815184194
 30
0
 40
0.82164234412028814
100
AcDbArc
 50
23.558464613748519
 51
160.86786543577406
  0
LINE
  5
9D
330
1F
100
AcDbEntity
  8
0
 62
7
100
AcDbLine
 10
499.62767413127511
 20
246.37962964372602
 30
0
 11
499.61505037619668
 21
241.42027340767967
 31
0
  0
ARC
  5
9E
330
1F
100
AcDbEntity
  8
0
 62
7
100
AcDbCircle
 10
500.3813474437523
 20
241.49342786870653
 30
0
 40
0.76978098892636659
100
AcDbArc
 50
185.45320902061388
 51
8.9903517598097231
  0
ARC
  5
9F
330
1F
100
AcDbEntity
  8
0
 62
7
100
AcDbCircle
 10
476.47117506437695
 20
262.33283297387294
 30
0
 40
0.5
100
AcDbArc
 50
269.40584424026832
 51
359.45875858832574
  0
LINE
  5
A0
330
1F
100
AcDbEntity
  8
0
 62
7
100
AcDbLine
 10
476.97115275571355
 20
262.32810982177807
 30
0
 11
477.16065732814161
 21
282.38845442100995
 31
0
  0
ARC
  5
A1
330
1F
100
AcDbEntity
  8
0
 62
7
100
AcDbCircle
 10
476.660679636805
 20
282.39317757310511
 30
0
 40
0.5
100
AcDbArc
 50
359.45875858829316
 51
88.1515260932492
  0
LINE
  5
A2
330
1F
100
AcDbEntity
  8
0
 62
7
100
AcDbLine
 10
476.67680781657782
 20
282.89291738722562
 30
0
 11
472.5993426828291
 21
283.02451004572185
 31
0
  0
ARC
  5
A3
330
1F
100
AcDbEntity
  8
0
 62
7
100
AcDbCircle
 10
472.58321450305539
 20
282.52477023160134
 30
0
 40
0.5
100
AcDbArc
 50
88.151526093145023
 51
179.40584424035944
  0
LINE
  5
A4
330
1F
100
AcDbEntity
  8
0
 62
7
100
AcDbLine
 10
472.08324138690614
 20
282.52995512581043
 30
0
 11
471.87428461015634
 21
262.38050431844511
 31
0
  0
ARC
  5
A5
330
1F
100
AcDbEntity
  8
0
 62
7
100
AcDbCircle
 10
472.37425772630564
 20
262.37531942423647
 30
0
 40
0.5
100
AcDbArc
 50
179.40584424041162
 51
269.40584424041811
  0
LINE
  5
A6
330
1F
100
AcDbEntity
  8
0
 62
7
100
AcDbLine
 10
472.36907283209706
 20
261.87534630808716
 30
0
 11
476.46599017016706
 21
261.83285985772363
 31
0
  0
LINE
  5
A7
330
1F
100
AcDbEntity
  8
0
 62
7
100
AcDbLine
 10
368.96182216359188
 20
282.93912315105649
 30
0
 11
383.81670932356974
 21
296.86019270128423
 31
0
  0
LINE
  5
A8
330
1F
100
AcDbEntity
  8
0
 62
7
100
AcDbLine
 10
383.81670932356974
 20
296.86019270128423
 30
0
 11
476.79969876261566
 21
295.62720932208015
 31
0
  0
LINE
  5
A9
330
1F
100
AcDbEntity
  8
0
 62
7
100
AcDbLine
 10
476.79969876261566
 20
295.62720932208015
 30
0
 11
476.90875153810055
 21
325.06136657066043
 31
0
  0
LINE
  5
AA
330
1F
100
AcDbEntity
  8
0
 62
7
100
AcDbLine
 10
476.90875153810055
 20
325.06136657066043
 30
0
 11
391.84806925000368
 21
326.06097256691788
 31
0
  0
LINE
  5
AB
330
1F
100
AcDbEntity
  8
0
 62
7
100
AcDbLine
 10
391.84806925000368
 20
326.06097256691788
 30
0
 11
392.18250183373192
 21
351.05274500848412
 31
0
  0
LINE
  5
AC
330
1F
100
AcDbEntity
  8
0
 62
7
100
AcDbLine
 10
392.18250183373192
 20
351.05274500848412
 30
0
 11
369.7584583456678
 21
351.36102995992815
 31
0
  0
LINE
  5
AD
330
1F
100
AcDbEntity
  8
0
 62
7
100
AcDbLine
 10
369.7584583456678
 20
351.36102995992815
 30
0
 11
347.29463861833477
 21
351.63570443223375
 31
0
  0
LINE
  5
AE
330
1F
100
AcDbEntity
  8
0
 62
7
100
AcDbLine
 10
347.29463861833477
 20
351.63570443223375
 30
0
 11
346.97993074919469
 21
326.64367582547231
 31
0
  0
LINE
  5
AF
330
1F
100
AcDbEntity
  8
0
 62
7
100
AcDbLine
 10
346.97993074919469
 20
326.64367582547231
 30
0
 11
261.92197731315127
 21
327.85340337166747
 31
0
  0
LINE
  5
B0
330
1F
100
AcDbEntity
  8
0
 62
7
100
AcDbLine
 10
261.92197731315127
 20
327.85340337166747
 30
0
 11
261.26659845709327
 21
298.42634126895297
 31
0
  0
LINE
  5
B1
330
1F
100
AcDbEntity
  8
0
 62
7
100
AcDbLine
 10
261.26659845709327
 20
298.42634126895297
 30
0
 11
354.25024783057427
 21
297.24417282686005
 31
0
  0
LINE
  5
B2
330
1F
100
AcDbEntity
  8
0
 62
7
100
AcDbLine
 10
354.25024783057427
 20
297.24417282686005
 30
0
 11
368.96182216359188
 21
282.93912315105649
 31
0
  0
LINE
  5
B3
330
1F
100
AcDbEntity
  8
0
 62
1
100
AcDbLine
 10
5.8633694440005684
 20
233.33312726082545
 30
0
 11
244.24202183178107
 21
264.94704754247931
 31
0
  0
LINE
  5
B4
330
1F
100
AcDbEntity
  8
0
 62
1
100
AcDbLine
 10
492.94908789530524
 20
261.71708475233436
 30
0
 11
730.42634017554985
 21
223.92321594780313
 31
0
  0
LINE
  5
B5
330
1F
100
AcDbEntity
  8
0
 62
1
100
AcDbLine
 10
613.0305248447612
 20
74.270426160644263
 30
0
 11
480.29645214814462
 21
97.681042757869193
 31
0
  0
LINE
  5
B6
330
1F
100
AcDbEntity
  8
0
 62
1
100
AcDbLine
 10
252.43177921447079
 20
100.86670773056989
 30
0
 11
119.09512645252028
 21
81.17589631175116
 31
0
  0
LINE
  5
B7
330
1F
100
AcDbEntity
  8
0
 62
7
100
AcDbLine
 10
726.21330686900308
 20
361.64261654278863
 30
0
 11
726.14121505317223
 21
390.10889173095262
 31
0
  0
LINE
  5
B8
330
1F
100
AcDbEntity
  8
0
 62
7
100
AcDbLine
 10
726.14121505317223
 20
390.10889173095262
 30
0
 11
714.4155844615658
 21
390.11994502213588
 31
0
  0
LINE
  5
B9
330
1F
100
AcDbEntity
  8
0
 62
7
100
AcDbLine
 10
714.4155844615658
 20
390.11994502213588
 30
0
 11
714.30484661772266
 21
411.95090067307859
 31
0
  0
LINE
  5
BA
330
1F
100
AcDbEntity
  8
0
 62
7
100
AcDbLine
 10
714.30484661772266
 20
411.95090067307859
 30
0
 11
726.19497722482186
 21
412.107774930017
 31
0
  0
LINE
  5
BB
330
1F
100
AcDbEntity
  8
0
 62
7
100
AcDbLine
 10
726.19497722482186
 20
412.107774930017
 30
0
 11
726.1396749034725
 21
415.08584295104617
 31
0
  0
LINE
  5
BC
330
1F
100
AcDbEntity
  8
0
 62
7
100
AcDbLine
 10
726.1396749034725
 20
415.08584295104617
 30
0
 11
731.04651241651732
 21
415.09314050677364
 31
0
  0
LINE
  5
BD
330
1F
100
AcDbEntity
  8
0
 62
7
100
AcDbLine
 10
731.04651241651732
 20
415.09314050677364
 30
0
 11
731.03932609817946
 21
429.13898189972753
 31
0
  0
LINE
  5
BE
330
1F
100
AcDbEntity
  8
0
 62
7
100
AcDbLine
 10
731.03932609817946
 20
429.13898189972753
 30
0
 11
726.05681284501816
 21
429.12938469703147
 31
0
  0
LINE
  5
BF
330
1F
100
AcDbEntity
  8
0
 62
7
100
AcDbLine
 10
726.05681284501816
 20
429.12938469703147
 30
0
 11
725.916084197442
 21
502.19050196953481
 31
0
  0
ARC
  5
C0
330
1F
100
AcDbEntity
  8
0
 62
7
100
AcDbCircle
 10
725.416085124979
 20
502.18953888279589
 30
0
 40
0.5
100
AcDbArc
 50
0.11036167913335718
 51
93.519984731552626
  0
ARC
  5
C1
330
1F
100
AcDbEntity
  8
0
 62
7
100
AcDbCircle
 10
725.25450483635473
 20
504.81631685016185
 30
0
 40
2.13174289768421
100
AcDbArc
 50
84.181300926549028
 51
273.51998473128458
  0
ARC
  5
C2
330
1F
100
AcDbEntity
  8
0
 62
7
100
AcDbCircle
 10
725.521313514275
 20
507.43450015331263
 30
0
 40
0.5
100
AcDbArc
 50
264.18130092632032
 51
0.014049597466220684
  0
LINE
  5
C3
330
1F
100
AcDbEntity
  8
0
 62
7
100
AcDbLine
 10
726.02131349924286
 20
507.43462275917858
 30
0
 11
725.98868917374011
 21
640.48015140220491
 31
0
  0
ARC
  5
C4
330
1F
100
AcDbEntity
  8
0
 62
7
100
AcDbCircle
 10
725.48868918877236
 20
640.48002879634032
 30
0
 40
0.5
100
AcDbArc
 50
0.014049597309893259
 51
92.528371515760455
  0
ARC
  5
C5
330
1F
100
AcDbEntity
  8
0
 62
7
100
AcDbCircle
 10
725.37156669929118
 20
643.13243483092833
 30
0
 40
2.1549906685074478
100
AcDbArc
 50
88.2803810601554
 51
272.52837151520555
  0
ARC
  5
C6
330
1F
100
AcDbEntity
  8
0
 62
7
100
AcDbCircle
 10
725.45123900462806
 20
645.7862298067364
 30
0
 40
0.5
100
AcDbArc
 50
268.28038105937748
 51
0.066991989713705513
  0
LINE
  5
C7
330
1F
100
AcDbEntity
  8
0
 62
7
100
AcDbLine
 10
725.95123866285292
 20
645.78681442199968
 30
0
 11
725.94442357630282
 21
651.6155040915844
 31
0
  0
LINE
  5
C8
330
1F
100
AcDbEntity
  8
0
 62
7
100
AcDbLine
 10
725.94442357630282
 20
651.6155040915844
 30
0
 11
731.04459956474852
 21
651.64490485391889
 31
0
  0
LINE
  5
C9
330
1F
100
AcDbEntity
  8
0
 62
7
100
AcDbLine
 10
731.04459956474852
 20
651.64490485391889
 30
0
 11
730.98247084218769
 21
665.73738603151821
 31
0
  0
LINE
  5
CA
330
1F
100
AcDbEntity
  8
0
 62
7
100
AcDbLine
 10
730.98247084218769
 20
665.73738603151821
 30
0
 11
726.44805215491033
 21
665.67743481616776
 31
0
  0
LINE
  5
CB
330
1F
100
AcDbEntity
  8
0
 62
7
100
AcDbLine
 10
726.44805215491033
 20
665.67743481616776
 30
0
 11
668.88443949725945
 21
640.7868349787276
 31
0
  0
LINE
  5
CC
330
1F
100
AcDbEntity
  8
0
 62
7
100
AcDbLine
 10
668.88443949725945
 20
640.7868349787276
 30
0
 11
668.96199202763989
 21
584.36367790691725
 31
0
  0
LINE
  5
CD
330
1F
100
AcDbEntity
  8
0
 62
7
100
AcDbLine
 10
668.96199202763989
 20
584.36367790691725
 30
0
 11
663.9726944872283
 21
584.357521920807
 31
0
  0
LINE
  5
CE
330
1F
100
AcDbEntity
  8
0
 62
7
100
AcDbLine
 10
663.9726944872283
 20
584.357521920807
 30
0
 11
664.03727759423339
 21
553.057056034306
 31
0
  0
LINE
  5
CF
330
1F
100
AcDbEntity
  8
0
 62
7
100
AcDbLine
 10
664.03727759423339
 20
553.057056034306
 30
0
 11
668.82732046515025
 21
553.12038695090143
 31
0
  0
LINE
  5
D0
330
1F
100
AcDbEntity
  8
0
 62
7
100
AcDbLine
 10
668.82732046515025
 20
553.12038695090143
 30
0
 11
668.995284174314
 21
467.94405809674174
 31
0
  0
LINE
  5
D1
330
1F
100
AcDbEntity
  8
0
 62
7
100
AcDbLine
 10
668.995284174314
 20
467.94405809674174
 30
0
 11
664.13180532314118
 21
467.87975625607186
 31
0
  0
LINE
  5
D2
330
1F
100
AcDbEntity
  8
0
 62
7
100
AcDbLine
 10
664.13180532314118
 20
467.87975625607186
 30
0
 11
664.0235349973002
 21
448.89012971537238
 31
0
  0
LINE
  5
D3
330
1F
100
AcDbEntity
  8
0
 62
7
100
AcDbLine
 10
664.0235349973002
 20
448.89012971537238
 30
0
 11
668.81414453084733
 21
448.92243977216231
 31
0
  0
LINE
  5
D4
330
1F
100
AcDbEntity
  8
0
 62
7
100
AcDbLine
 10
668.81414453084733
 20
448.92243977216231
 30
0
 11
669.03925379016221
 21
415.54550791539236
 31
0
  0
LINE
  5
D5
330
1F
100
AcDbEntity
  8
0
 62
7
100
AcDbLine
 10
669.03925379016221
 20
415.54550791539236
 30
0
 11
726.21330686900308
 21
361.64261654278863
 31
0
  0
LINE
  5
D6
330
1F
100
AcDbEntity
  8
0
 62
7
100
AcDbLine
 10
717.97030223617764
 20
288.87939888290128
 30
0
 11
710.45511873827979
 21
367.09650737447123
 31
0
  0
LINE
  5
D7
330
1F
100
AcDbEntity
  8
0
 62
7
100
AcDbLine
 10
710.45511873827979
 20
367.09650737447123
 30
0
 11
684.2291321860364
 21
387.7427632992534
 31
0
  0
LINE
  5
D8
330
1F
100
AcDbEntity
  8
0
 62
7
100
AcDbLine
 10
684.2291321860364
 20
387.7427632992534
 30
0
 11
687.1925007451872
 21
391.50699368876241
 31
0
  0
LINE
  5
D9
330
1F
100
AcDbEntity
  8
0
 62
7
100
AcDbLine
 10
687.1925007451872
 20
391.50699368876241
 30
0
 11
672.126427335176
 21
403.06688428611903
 31
0
  0
LINE
  5
DA
330
1F
100
AcDbEntity
  8
0
 62
7
100
AcDbLine
 10
672.126427335176
 20
403.06688428611903
 30
0
 11
669.09310165320994
 21
399.26471430443308
 31
0
  0
LINE
  5
DB
330
1F
100
AcDbEntity
  8
0
 62
7
100
AcDbLine
 10
669.09310165320994
 20
399.26471430443308
 30
0
 11
601.91635287371093
 21
451.63187607873209
 31
0
  0
LINE
  5
DC
330
1F
100
AcDbEntity
  8
0
 62
7
100
AcDbLine
 10
601.91635287371093
 20
451.63187607873209
 30
0
 11
604.90387692854847
 21
455.37663528754206
 31
0
  0
LINE
  5
DD
330
1F
100
AcDbEntity
  8
0
 62
7
100
AcDbLine
 10
604.90387692854847
 20
455.37663528754206
 30
0
 11
580.21962288841132
 21
474.62269821406812
 31
0
  0
LINE
  5
DE
330
1F
100
AcDbEntity
  8
0
 62
7
100
AcDbLine
 10
580.21962288841132
 20
474.62269821406812
 30
0
 11
577.15506744705419
 21
470.68548755298275
 31
0
  0
LINE
  5
DF
330
1F
100
AcDbEntity
  8
0
 62
7
100
AcDbLine
 10
577.15506744705419
 20
470.68548755298275
 30
0
 11
532.63465678403247
 21
505.34831638648893
 31
0
  0
LINE
  5
E0
330
1F
100
AcDbEntity
  8
0
 62
7
100
AcDbLine
 10
532.63465678403247
 20
505.34831638648893
 30
0
 11
477.67291596785043
 21
475.14370566357837
 31
0
  0
LINE
  5
E1
330
1F
100
AcDbEntity
  8
0
 62
7
100
AcDbLine
 10
477.67291596785043
 20
475.14370566357837
 30
0
 11
474.84482334571589
 21
471.59878830200546
 31
0
  0
LINE
  5
E2
330
1F
100
AcDbEntity
  8
0
 62
7
100
AcDbLine
 10
474.84482334571589
 20
471.59878830200546
 30
0
 11
485.93820339195645
 21
462.90748202107886
 31
0
  0
LINE
  5
E3
330
1F
100
AcDbEntity
  8
0
 62
7
100
AcDbLine
 10
485.93820339195645
 20
462.90748202107886
 30
0
 11
489.08911594684253
 21
466.91801934036914
 31
0
  0
LINE
  5
E4
330
1F
100
AcDbEntity
  8
0
 62
7
100
AcDbLine
 10
489.08911594684253
 20
466.91801934036914
 30
0
 11
493.68894811182116
 21
463.33818501965709
 31
0
  0
ARC
  5
E5
330
1F
100
AcDbEntity
  8
0
 62
7
100
AcDbCircle
 10
493.99603530265358
 20
463.732770190725
 30
0
 40
0.5
100
AcDbArc
 50
232.1080461406589
 51
323.89465707095064
  0
ARC
  5
E6
330
1F
100
AcDbEntity
  8
0
 62
7
100
AcDbCircle
 10
496.14109502067737
 20
462.16825932276248
 30
0
 40
2.1549906685074478
100
AcDbArc
 50
319.64666661477168
 51
143.89465707109238
  0
ARC
  5
E7
330
1F
100
AcDbEntity
  8
0
 62
7
100
AcDbCircle
 10
498.16437297888308
 20
460.44915439469645
 30
0
 40
0.5
100
AcDbArc
 50
139.64666661465779
 51
232.16098853341336
  0
LINE
  5
E8
330
1F
100
AcDbEntity
  8
0
 62
7
100
AcDbLine
 10
497.85765052331783
 20
460.05428563769988
 30
0
 11
602.92869872023164
 21
378.43818068867478
 31
0
  0
ARC
  5
E9
330
1F
100
AcDbEntity
  8
0
 62
7
100
AcDbCircle
 10
603.23542117579893
 20
378.83304944566976
 30
0
 40
0.5
100
AcDbArc
 50
232.16098853311627
 51
327.99373720429622
  0
ARC
  5
EA
330
1F
100
AcDbEntity
  8
0
 62
7
100
AcDbCircle
 10
605.46711327646858
 20
377.43819423909082
 30
0
 40
2.13174289768421
100
AcDbArc
 50
318.65505339945344
 51
147.99373720387442
  0
ARC
  5
EB
330
1F
100
AcDbEntity
  8
0
 62
7
100
AcDbCircle
 10
607.44288413369009
 20
375.6996890768134
 30
0
 40
0.5
100
AcDbArc
 50
138.65505339912244
 51
232.06467645134614
  0
LINE
  5
EC
330
1F
100
AcDbEntity
  8
0
 62
7
100
AcDbLine
 10
607.1354983520331
 20
375.30533646653276
 30
0
 11
664.75928986126416
 21
330.38935586096784
 31
0
  0
LINE
  5
ED
330
1F
100
AcDbEntity
  8
0
 62
7
100
AcDbLine
 10
664.75928986126416
 20
330.38935586096784
 30
0
 11
661.69617671708363
 21
326.4596143567245
 31
0
  0
LINE
  5
EE
330
1F
100
AcDbEntity
  8
0
 62
7
100
AcDbLine
 10
661.69617671708363
 20
326.4596143567245
 30
0
 11
672.78641005861982
 21
317.84030832262579
 31
0
  0
LINE
  5
EF
330
1F
100
AcDbEntity
  8
0
 62
7
100
AcDbLine
 10
672.78641005861982
 20
317.84030832262579
 30
0
 11
675.80129849800528
 21
321.71168473571061
 31
0
  0
LINE
  5
F0
330
1F
100
AcDbEntity
  8
0
 62
7
100
AcDbLine
 10
675.80129849800528
 20
321.71168473571061
 30
0
 11
678.11972421816108
 21
319.84169819438608
 31
0
  0
LINE
  5
F1
330
1F
100
AcDbEntity
  8
0
 62
7
100
AcDbLine
 10
678.11972421816108
 20
319.84169819438608
 30
0
 11
685.53527463380328
 21
329.13736532587484
 31
0
  0
LINE
  5
F2
330
1F
100
AcDbEntity
  8
0
 62
7
100
AcDbLine
 10
685.53527463380328
 20
329.13736532587484
 30
0
 11
702.71137253649545
 21
315.662034222684
 31
0
  0
LINE
  5
F3
330
1F
100
AcDbEntity
  8
0
 62
7
100
AcDbLine
 10
702.71137253649545
 20
315.662034222684
 30
0
 11
695.529345900012
 21
306.39332188822829
 31
0
  0
LINE
  5
F4
330
1F
100
AcDbEntity
  8
0
 62
7
100
AcDbLine
 10
695.529345900012
 20
306.39332188822829
 30
0
 11
717.97030223617764
 21
288.87939888290128
 31
0
  0
LINE
  5
F5
330
1F
100
AcDbEntity
  8
0
 62
7
100
AcDbLine
 10
435.22256999811083
 20
758.28136079941089
 30
0
 11
491.75198468354091
 21
663.10032053903308
 31
0
  0
LINE
  5
F6
330
1F
100
AcDbEntity
  8
0
 62
7
100
AcDbLine
 10
491.75198468354091
 20
663.10032053903308
 30
0
 11
525.33840861109684
 21
663.5146029236339
 31
0
  0
LINE
  5
F7
330
1F
100
AcDbEntity
  8
0
 62
7
100
AcDbLine
 10
525.33840861109684
 20
663.5146029236339
 30
0
 11
525.28971234423989
 21
667.46247404523513
 31
0
  0
LINE
  5
F8
330
1F
100
AcDbEntity
  8
0
 62
7
100
AcDbLine
 10
525.28971234423989
 20
667.46247404523513
 30
0
 11
543.562862672732
 21
667.6878700060729
 31
0
  0
LINE
  5
F9
330
1F
100
AcDbEntity
  8
0
 62
7
100
AcDbLine
 10
543.562862672732
 20
667.6878700060729
 30
0
 11
543.61155893958971
 21
663.73999888447167
 31
0
  0
LINE
  5
FA
330
1F
100
AcDbEntity
  8
0
 62
7
100
AcDbLine
 10
543.61155893958971
 20
663.73999888447167
 30
0
 11
629.53141595539216
 21
664.79980457637407
 31
0
  0
LINE
  5
FB
330
1F
100
AcDbEntity
  8
0
 62
7
100
AcDbLine
 10
629.53141595539216
 20
664.79980457637407
 30
0
 11
629.48416680658625
 21
668.63035591290122
 31
0
  0
LINE
  5
FC
330
1F
100
AcDbEntity
  8
0
 62
7
100
AcDbLine
 10
629.48416680658625
 20
668.63035591290122
 30
0
 11
659.71950827749561
 21
669.0033033094694
 31
0
  0
LINE
  5
FD
330
1F
100
AcDbEntity
  8
0
 62
7
100
AcDbLine
 10
659.71950827749561
 20
669.0033033094694
 30
0
 11
659.76675742630164
 21
665.17275197294146
 31
0
  0
LINE
  5
FE
330
1F
100
AcDbEntity
  8
0
 62
7
100
AcDbLine
 10
659.76675742630164
 20
665.17275197294146
 30
0
 11
714.232727484618
 21
665.844579732992
 31
0
  0
LINE
  5
FF
330
1F
100
AcDbEntity
  8
0
 62
7
100
AcDbLine
 10
714.232727484618
 20
665.844579732992
 30
0
 11
711.41284403748409
 21
894.4562813214834
 31
0
  0
LINE
  5
100
330
1F
100
AcDbEntity
  8
0
 62
7
100
AcDbLine
 10
711.41284403748409
 20
894.4562813214834
 30
0
 11
708.61305701996662
 21
894.42174646166939
 31
0
  0
ARC
  5
101
330
1F
100
AcDbEntity
  8
0
 62
7
100
AcDbCircle
 10
707.75377231919765
 20
894.90382248652077
 30
0
 40
0.98527533751339424
100
AcDbArc
 50
210.70669710180786
 51
330.70669710185285
  0
LINE
  5
102
330
1F
100
AcDbEntity
  8
0
 62
7
100
AcDbLine
 10
706.906639884736
 20
894.40069811899787
 30
0
 11
655.57175334987733
 21
893.76749170045457
 31
0
  0
LINE
  5
103
330
1F
100
AcDbEntity
  8
0
 62
7
100
AcDbLine
 10
655.57175334987733
 20
893.76749170045457
 30
0
 11
655.62253678298953
 21
889.650411234544
 31
0
  0
LINE
  5
104
330
1F
100
AcDbEntity
  8
0
 62
7
100
AcDbLine
 10
655.62253678298953
 20
889.650411234544
 30
0
 11
625.46236036624362
 21
889.27839098514619
 31
0
  0
LINE
  5
105
330
1F
100
AcDbEntity
  8
0
 62
7
100
AcDbLine
 10
625.46236036624362
 20
889.27839098514619
 30
0
 11
625.41157693313119
 21
893.39547145105678
 31
0
  0
LINE
  5
106
330
1F
100
AcDbEntity
  8
0
 62
7
100
AcDbLine
 10
625.41157693313119
 20
893.39547145105678
 30
0
 11
539.58994816802749
 21
892.336877386627
 31
0
  0
LINE
  5
107
330
1F
100
AcDbEntity
  8
0
 62
7
100
AcDbLine
 10
539.58994816802749
 20
892.336877386627
 30
0
 11
539.63958610610177
 21
888.31266372702328
 31
0
  0
LINE
  5
108
330
1F
100
AcDbEntity
  8
0
 62
7
100
AcDbLine
 10
539.63958610610177
 20
888.31266372702328
 30
0
 11
521.49067751687
 21
888.08880026527254
 31
0
  0
LINE
  5
109
330
1F
100
AcDbEntity
  8
0
 62
7
100
AcDbLine
 10
521.49067751687
 20
888.08880026527254
 30
0
 11
521.441039578796
 21
892.11301392487621
 31
0
  0
LINE
  5
10A
330
1F
100
AcDbEntity
  8
0
 62
7
100
AcDbLine
 10
521.441039578796
 20
892.11301392487621
 30
0
 11
487.51456828725247
 21
891.69453711835263
 31
0
  0
LINE
  5
10B
330
1F
100
AcDbEntity
  8
0
 62
7
100
AcDbLine
 10
487.51456828725247
 20
891.69453711835263
 30
0
 11
434.77045256588212
 21
794.93512235991932
 31
0
  0
LINE
  5
10C
330
1F
100
AcDbEntity
  8
0
 62
7
100
AcDbLine
 10
434.77045256588212
 20
794.93512235991932
 30
0
 11
435.22256999811083
 21
758.28136079941089
 31
0
  0
ARC
  5
10D
330
1F
100
AcDbEntity
  8
0
 62
7
100
AcDbCircle
 10
556.71086161615767
 20
866.62631287305408
 30
0
 40
4.999999999779333
100
AcDbArc
 50
0.70669709927126911
 51
90.706697104326324
  0
LINE
  5
10E
330
1F
100
AcDbEntity
  8
0
 62
7
100
AcDbLine
 10
556.649192223415
 20
871.62593254696856
 30
0
 11
538.474550492434
 21
871.40175167162977
 31
0
  0
ARC
  5
10F
330
1F
100
AcDbEntity
  8
0
 62
7
100
AcDbCircle
 10
538.5362198846841
 20
866.40213199776065
 30
0
 40
4.9999999997279652
100
AcDbArc
 50
90.706697098688338
 51
180.70669710490685
  0
LINE
  5
110
330
1F
100
AcDbEntity
  8
0
 62
7
100
AcDbLine
 10
533.53660021082169
 20
866.34046260496791
 30
0
 11
535.72072021521387
 21
689.27094890390219
 31
0
  0
ARC
  5
111
330
1F
100
AcDbEntity
  8
0
 62
7
100
AcDbCircle
 10
540.72033988959549
 20
689.33261829667708
 30
0
 40
5.0000000002468736
100
AcDbArc
 50
180.70669710462894
 51
270.70669709897328
  0
LINE
  5
112
330
1F
100
AcDbEntity
  8
0
 62
7
100
AcDbLine
 10
540.78200928187687
 20
684.33299862228944
 30
0
 11
558.95665101285761
 21
684.55717949762811
 31
0
  0
ARC
  5
113
330
1F
100
AcDbEntity
  8
0
 62
7
100
AcDbCircle
 10
558.89498162009465
 20
689.5567991719978
 30
0
 40
5.0000000002348157
100
AcDbArc
 50
270.70669710449386
 51
0.70669709910916922
  0
LINE
  5
114
330
1F
100
AcDbEntity
  8
0
 62
7
100
AcDbLine
 10
563.89460129447014
 20
689.61846856429088
 30
0
 11
561.7104812900775
 21
866.68798226535569
 31
0
  0
ARC
  5
115
330
1F
100
AcDbEntity
  8
0
 62
7
100
AcDbCircle
 10
463.674357658571
 20
780.42478770134744
 30
0
 40
0.99999999979955878
100
AcDbArc
 50
0.70669709023177707
 51
90.706697113285855
  0
LINE
  5
116
330
1F
100
AcDbEntity
  8
0
 62
7
100
AcDbLine
 10
463.66202377986804
 20
781.424711635972
 30
0
 11
446.6372654687093
 21
781.21471436190632
 31
0
  0
ARC
  5
117
330
1F
100
AcDbEntity
  8
0
 62
7
100
AcDbCircle
 10
446.64959934699573
 20
780.21479042729209
 30
0
 40
0.99999999978404375
100
AcDbArc
 50
90.7066970894285
 51
180.70669711425435
  0
LINE
  5
118
330
1F
100
AcDbEntity
  8
0
 62
7
100
AcDbLine
 10
445.64967541238678
 20
780.2024565485724
 30
0
 11
445.73514039931746
 21
773.27369638711161
 31
0
  0
ARC
  5
119
330
1F
100
AcDbEntity
  8
0
 62
7
100
AcDbCircle
 10
446.73506433529332
 20
773.28603026679218
 30
0
 40
1.0000000011626702
100
AcDbArc
 50
180.70669716833862
 51
270.70669703517063
  0
LINE
  5
11A
330
1F
100
AcDbEntity
  8
0
 62
7
100
AcDbLine
 10
446.74739821264984
 20
772.28610633078767
 30
0
 11
463.77215652380858
 21
772.49610360485326
 31
0
  0
ARC
  5
11B
330
1F
100
AcDbEntity
  8
0
 62
7
100
AcDbCircle
 10
463.75982264409834
 20
773.49602754085686
 30
0
 40
1.0000000011908465
100
AcDbArc
 50
270.70669717001897
 51
0.70669703364920944
  0
LINE
  5
11C
330
1F
100
AcDbEntity
  8
0
 62
7
100
AcDbLine
 10
464.75974658013132
 20
773.50836141818718
 30
0
 11
464.67428159320065
 21
780.43712157964808
 31
0
  0
LINE
  5
11D
330
1F
100
AcDbEntity
  8
0
 62
7
100
AcDbLine
 10
491.32687389230881
 20
650.77750635284508
 30
0
 11
489.93275542337409
 21
650.70141673342437
 31
0
  0
LINE
  5
11E
330
1F
100
AcDbEntity
  8
0
 62
7
100
AcDbLine
 10
489.93275542337409
 20
650.70141673342437
 30
0
 11
488.40402715258466
 21
650.61798024297377
 31
0
  0
LINE
  5
11F
330
1F
100
AcDbEntity
  8
0
 62
7
100
AcDbLine
 10
488.40402715258466
 20
650.61798024297377
 30
0
 11
487.08899063367875
 21
650.54620683886412
 31
0
  0
LINE
  5
120
330
1F
100
AcDbEntity
  8
0
 62
7
100
AcDbLine
 10
487.08899063367875
 20
650.54620683886412
 30
0
 11
475.69304499588293
 21
649.92422729706607
 31
0
  0
ARC
  5
121
330
1F
100
AcDbEntity
  8
0
 62
7
100
AcDbCircle
 10
475.74754290489557
 20
648.92571341237885
 30
0
 40
0.99999999999999978
100
AcDbArc
 50
93.1240478972299
 51
177.10530140673774
  0
LINE
  5
122
330
1F
100
AcDbEntity
  8
0
 62
7
100
AcDbLine
 10
474.74881887077339
 20
648.97621394373061
 30
0
 11
474.16776365833113
 21
637.48497236098524
 31
0
  0
ARC
  5
123
330
1F
100
AcDbEntity
  8
0
 62
7
100
AcDbCircle
 10
475.16648769245325
 20
637.43447182963359
 30
0
 40
0.99999999999999978
100
AcDbArc
 50
177.10530140674405
 51
267.10530140671153
  0
LINE
  5
124
330
1F
100
AcDbEntity
  8
0
 62
7
100
AcDbLine
 10
475.11598716110103
 20
636.43574779551147
 30
0
 11
478.48254878184895
 21
636.26551743670791
 31
0
  0
ARC
  5
125
330
1F
100
AcDbEntity
  8
0
 62
7
100
AcDbCircle
 10
478.25324390136689
 20
635.55410021590956
 30
0
 40
0.74745915624963755
100
AcDbArc
 50
359.316325765305
 51
72.134766434498687
  0
LINE
  5
126
330
1F
100
AcDbEntity
  8
0
 62
7
100
AcDbLine
 10
479.00064984611925
 20
635.54518147103067
 30
0
 11
473.27457907996109
 21
496.72555537151356
 31
0
  0
ARC
  5
127
330
1F
100
AcDbEntity
  8
0
 62
7
100
AcDbCircle
 10
472.55036896170867
 20
496.57500254394449
 30
0
 40
0.73969348332145235
100
AcDbArc
 50
249.6561162539283
 51
11.743698533951786
  0
LINE
  5
128
330
1F
100
AcDbEntity
  8
0
 62
7
100
AcDbLine
 10
472.293211642051
 20
495.88144896835377
 30
0
 11
468.71809359891222
 21
495.98166031388268
 31
0
  0
ARC
  5
129
330
1F
100
AcDbEntity
  8
0
 62
7
100
AcDbCircle
 10
468.63206789892439
 20
495.57910764812664
 30
0
 40
0.41164191934945138
100
AcDbArc
 50
77.93730582148099
 51
185.54326438332768
  0
LINE
  5
12A
330
1F
100
AcDbEntity
  8
0
 62
7
100
AcDbLine
 10
468.22235100617576
 20
495.53934412763226
 30
0
 11
467.66203806496731
 21
477.25368609666759
 31
0
  0
LINE
  5
12B
330
1F
100
AcDbEntity
  8
0
 62
7
100
AcDbLine
 10
467.66203806496731
 20
477.25368609666759
 30
0
 11
471.63211928210728
 21
477.10399503556278
 31
0
  0
LINE
  5
12C
330
1F
100
AcDbEntity
  8
0
 62
7
100
AcDbLine
 10
471.63211928210728
 20
477.10399503556278
 30
0
 11
662.133195992972
 21
608.05349812955876
 31
0
  0
LINE
  5
12D
330
1F
100
AcDbEntity
  8
0
 62
7
100
AcDbLine
 10
662.133195992972
 20
608.05349812955876
 30
0
 11
664.33013996441025
 21
660.21985502499592
 31
0
  0
LINE
  5
12E
330
1F
100
AcDbEntity
  8
0
 62
7
100
AcDbLine
 10
664.33013996441025
 20
660.21985502499592
 30
0
 11
491.32687389230881
 21
650.77750635284508
 31
0
  0
LINE
  5
12F
330
1F
100
AcDbEntity
  8
0
 62
7
100
AcDbLine
 10
241.56869629914735
 20
690.96282742689414
 30
0
 11
238.75991381252297
 21
691.9672850892357
 31
0
  0
LINE
  5
130
330
1F
100
AcDbEntity
  8
0
 62
7
100
AcDbLine
 10
238.75991381252297
 20
691.9672850892357
 30
0
 11
255.86545654671892
 21
738.63619910809552
 31
0
  0
LINE
  5
131
330
1F
100
AcDbEntity
  8
0
 62
7
100
AcDbLine
 10
255.86545654671892
 20
738.63619910809552
 30
0
 11
258.69940386410485
 21
737.66371637258271
 31
0
  0
LINE
  5
132
330
1F
100
AcDbEntity
  8
0
 62
7
100
AcDbLine
 10
258.69940386410485
 20
737.66371637258271
 30
0
 11
309.42331189565516
 21
874.91394064775193
 31
0
  0
LINE
  5
133
330
1F
100
AcDbEntity
  8
0
 62
7
100
AcDbLine
 10
309.42331189565516
 20
874.91394064775193
 30
0
 11
255.51216676305108
 21
894.98371662579393
 31
0
  0
LINE
  5
134
330
1F
100
AcDbEntity
  8
0
 62
7
100
AcDbLine
 10
255.51216676305108
 20
894.98371662579393
 30
0
 11
243.62874897660876
 21
863.170089000819
 31
0
  0
LINE
  5
135
330
1F
100
AcDbEntity
  8
0
 62
7
100
AcDbLine
 10
243.62874897660876
 20
863.170089000819
 30
0
 11
238.94375626809665
 21
864.9044523179831
 31
0
  0
LINE
  5
136
330
1F
100
AcDbEntity
  8
0
 62
7
100
AcDbLine
 10
238.94375626809665
 20
864.9044523179831
 30
0
 11
232.46263301257858
 21
847.48186347346734
 31
0
  0
LINE
  5
137
330
1F
100
AcDbEntity
  8
0
 62
7
100
AcDbLine
 10
232.46263301257858
 20
847.48186347346734
 30
0
 11
237.16091183825068
 21
845.75111549226835
 31
0
  0
LINE
  5
138
330
1F
100
AcDbEntity
  8
0
 62
7
100
AcDbLine
 10
237.16091183825068
 20
845.75111549226835
 30
0
 11
229.38867543617852
 21
824.73782397084983
 31
0
  0
LINE
  5
139
330
1F
100
AcDbEntity
  8
0
 62
7
100
AcDbLine
 10
229.38867543617852
 20
824.73782397084983
 30
0
 11
224.64100652506863
 21
811.95378567913485
 31
0
  0
LINE
  5
13A
330
1F
100
AcDbEntity
  8
0
 62
7
100
AcDbLine
 10
224.64100652506863
 20
811.95378567913485
 30
0
 11
221.17407882440665
 21
802.7064676560085
 31
0
  0
LINE
  5
13B
330
1F
100
AcDbEntity
  8
0
 62
7
100
AcDbLine
 10
221.17407882440665
 20
802.7064676560085
 30
0
 11
254.13210632689086
 21
790.26551403253643
 31
0
  0
LINE
  5
13C
330
1F
100
AcDbEntity
  8
0
 62
7
100
AcDbLine
 10
254.13210632689086
 20
790.26551403253643
 30
0
 11
210.55820993194965
 21
671.50399630802849
 31
0
  0
LINE
  5
13D
330
1F
100
AcDbEntity
  8
0
 62
7
100
AcDbLine
 10
210.55820993194965
 20
671.50399630802849
 30
0
 11
177.38270049917367
 21
683.68454401472059
 31
0
  0
LINE
  5
13E
330
1F
100
AcDbEntity
  8
0
 62
7
100
AcDbLine
 10
177.38270049917367
 20
683.68454401472059
 30
0
 11
170.46394419772565
 21
664.91827222332506
 31
0
  0
LINE
  5
13F
330
1F
100
AcDbEntity
  8
0
 62
7
100
AcDbLine
 10
170.46394419772565
 20
664.91827222332506
 30
0
 11
165.80119455760098
 21
652.02374515134909
 31
0
  0
LINE
  5
140
330
1F
100
AcDbEntity
  8
0
 62
7
100
AcDbLine
 10
165.80119455760098
 20
652.02374515134909
 30
0
 11
162.35435185966713
 21
642.86980360834161
 31
0
  0
ARC
  5
141
330
1F
100
AcDbEntity
  8
0
 62
7
100
AcDbCircle
 10
86.381388180636435
 20
600.8098782001872
 30
0
 40
86.838519883257064
100
AcDbArc
 50
348.70554731665163
 51
28.969659883382402
  0
ARC
  5
142
330
1F
100
AcDbEntity
  8
0
 62
7
100
AcDbCircle
 10
-92.867569730084085
 20
642.87447841333949
 30
0
 40
270.92414967394348
100
AcDbArc
 50
338.59276562867967
 51
347.40612034647165
  0
LINE
  5
143
330
1F
100
AcDbEntity
  8
0
 62
7
100
AcDbLine
 10
159.36545181749054
 20
543.98869724369877
 30
0
 11
140.52086747190748
 21
496.13579791824748
 31
0
  0
LINE
  5
144
330
1F
100
AcDbEntity
  8
0
 62
7
100
AcDbLine
 10
140.52086747190748
 20
496.13579791824748
 30
0
 11
131.01796039363637
 21
471.73794131708814
 31
0
  0
LINE
  5
145
330
1F
100
AcDbEntity
  8
0
 62
7
100
AcDbLine
 10
131.01796039363637
 20
471.73794131708814
 30
0
 11
125.2868779046124
 21
452.50576409310128
 31
0
  0
LINE
  5
146
330
1F
100
AcDbEntity
  8
0
 62
7
100
AcDbLine
 10
125.2868779046124
 20
452.50576409310128
 30
0
 11
123.16478040272537
 21
444.26909225535957
 31
0
  0
LINE
  5
147
330
1F
100
AcDbEntity
  8
0
 62
7
100
AcDbLine
 10
123.16478040272537
 20
444.26909225535957
 30
0
 11
120.49103300785154
 21
432.20605054603504
 31
0
  0
LINE
  5
148
330
1F
100
AcDbEntity
  8
0
 62
7
100
AcDbLine
 10
120.49103300785154
 20
432.20605054603504
 30
0
 11
118.37270979111041
 21
419.32465157244764
 31
0
  0
LINE
  5
149
330
1F
100
AcDbEntity
  8
0
 62
7
100
AcDbLine
 10
118.37270979111041
 20
419.32465157244764
 30
0
 11
117.70121076697527
 21
408.87798863192126
 31
0
  0
LINE
  5
14A
330
1F
100
AcDbEntity
  8
0
 62
7
100
AcDbLine
 10
117.70121076697527
 20
408.87798863192126
 30
0
 11
117.88764191617483
 21
403.53065694683892
 31
0
  0
LINE
  5
14B
330
1F
100
AcDbEntity
  8
0
 62
7
100
AcDbLine
 10
117.88764191617483
 20
403.53065694683892
 30
0
 11
118.38257217768839
 21
398.44014809557956
 31
0
  0
LINE
  5
14C
330
1F
100
AcDbEntity
  8
0
 62
7
100
AcDbLine
 10
118.38257217768839
 20
398.44014809557956
 30
0
 11
119.55907613669672
 21
390.93531308135067
 31
0
  0
LINE
  5
14D
330
1F
100
AcDbEntity
  8
0
 62
7
100
AcDbLine
 10
119.55907613669672
 20
390.93531308135067
 30
0
 11
121.23687565936194
 21
383.9591634144162
 31
0
  0
LINE
  5
14E
330
1F
100
AcDbEntity
  8
0
 62
7
100
AcDbLine
 10
121.23687565936194
 20
383.9591634144162
 30
0
 11
123.42899713845928
 21
377.44610497731873
 31
0
  0
ARC
  5
14F
330
1F
100
AcDbEntity
  8
0
 62
7
100
AcDbCircle
 10
129.6388568213365
 20
379.86250817953606
 30
0
 40
6.6634346786556069
100
AcDbArc
 50
201.26218789401693
 51
246.77908549292221
  0
ARC
  5
150
330
1F
100
AcDbEntity
  8
0
 62
7
100
AcDbCircle
 10
129.3619110246882
 20
378.85747874099087
 30
0
 40
5.6324116934875654
100
AcDbArc
 50
245.33698404272823
 51
308.16019485434708
  0
LINE
  5
151
330
1F
100
AcDbEntity
  8
0
 62
7
100
AcDbLine
 10
132.84196579571636
 20
374.42879041648894
 30
0
 11
144.57249322037353
 21
385.02722831195553
 31
0
  0
LINE
  5
152
330
1F
100
AcDbEntity
  8
0
 62
7
100
AcDbLine
 10
144.57249322037353
 20
385.02722831195553
 30
0
 11
164.22159568446864
 21
405.93392003098705
 31
0
  0
LINE
  5
153
330
1F
100
AcDbEntity
  8
0
 62
7
100
AcDbLine
 10
164.22159568446864
 20
405.93392003098705
 30
0
 11
185.63355272306956
 21
433.65257714528178
 31
0
  0
LINE
  5
154
330
1F
100
AcDbEntity
  8
0
 62
7
100
AcDbLine
 10
185.63355272306956
 20
433.65257714528178
 30
0
 11
193.08596219034169
 21
443.44154956764743
 31
0
  0
LINE
  5
155
330
1F
100
AcDbEntity
  8
0
 62
7
100
AcDbLine
 10
193.08596219034169
 20
443.44154956764743
 30
0
 11
199.34880589048993
 21
451.51983444090445
 31
0
  0
LINE
  5
156
330
1F
100
AcDbEntity
  8
0
 62
7
100
AcDbLine
 10
199.34880589048993
 20
451.51983444090445
 30
0
 11
208.46822629873247
 21
463.07020923979644
 31
0
  0
LINE
  5
157
330
1F
100
AcDbEntity
  8
0
 62
7
100
AcDbLine
 10
208.46822629873247
 20
463.07020923979644
 30
0
 11
238.12837872437984
 21
498.42222766317354
 31
0
  0
ARC
  5
158
330
1F
100
AcDbEntity
  8
0
 62
7
100
AcDbCircle
 10
81.188261948973263
 20
637.74621190331459
 30
0
 40
209.8603650955209
100
AcDbArc
 50
318.40285248954876
 51
335.16532351111164
  0
ARC
  5
159
330
1F
100
AcDbEntity
  8
0
 62
7
100
AcDbCircle
 10
87.330158728137008
 20
634.80543848666139
 30
0
 40
203.05134034784351
100
AcDbArc
 50
335.19049780398439
 51
349.0601162144664
  0
LINE
  5
15A
330
1F
100
AcDbEntity
  8
0
 62
7
100
AcDbLine
 10
286.69141555873267
 20
596.27056996500869
 30
0
 11
293.95644720702927
 21
686.89150581436138
 31
0
  0
ARC
  5
15B
330
1F
100
AcDbEntity
  8
0
 62
7
100
AcDbCircle
 10
1048.6145200984777
 20
610.073802511712
 30
0
 40
758.55768832761066
100
AcDbArc
 50
163.62662721380897
 51
174.1878014493669
  0
LINE
  5
15C
330
1F
100
AcDbEntity
  8
0
 62
7
100
AcDbLine
 10
320.82007494555518
 20
823.90787866768437
 30
0
 11
334.31063286408141
 21
865.56575109309347
 31
0
  0
LINE
  5
15D
330
1F
100
AcDbEntity
  8
0
 62
7
100
AcDbLine
 10
334.31063286408141
 20
865.56575109309347
 30
0
 11
314.447182681586
 21
872.884011109226
 31
0
  0
LINE
  5
15E
330
1F
100
AcDbEntity
  8
0
 62
7
100
AcDbLine
 10
314.447182681586
 20
872.884011109226
 30
0
 11
302.30113353236095
 21
840.27321156996015
 31
0
  0
LINE
  5
15F
330
1F
100
AcDbEntity
  8
0
 62
7
100
AcDbLine
 10
302.30113353236095
 20
840.27321156996015
 30
0
 11
298.60491532224268
 21
841.67737290146533
 31
0
  0
LINE
  5
160
330
1F
100
AcDbEntity
  8
0
 62
7
100
AcDbLine
 10
298.60491532224268
 20
841.67737290146533
 30
0
 11
293.36521018192803
 21
827.8847316139279
 31
0
  0
LINE
  5
161
330
1F
100
AcDbEntity
  8
0
 62
7
100
AcDbLine
 10
293.36521018192803
 20
827.8847316139279
 30
0
 11
297.11047815057481
 21
826.44863328247186
 31
0
  0
LINE
  5
162
330
1F
100
AcDbEntity
  8
0
 62
7
100
AcDbLine
 10
297.11047815057481
 20
826.44863328247186
 30
0
 11
246.318279362305
 21
689.27897933701752
 31
0
  0
LINE
  5
163
330
1F
100
AcDbEntity
  8
0
 62
7
100
AcDbLine
 10
246.318279362305
 20
689.27897933701752
 30
0
 11
241.56869629914735
 21
690.96282742689414
 31
0
  0
CIRCLE
  5
164
330
1F
100
AcDbEntity
  8
0
 62
7
100
AcDbCircle
 10
307.52696993105633
 20
811.17706732297233
 30
0
 40
2.0711633725284262
  0
CIRCLE
  5
165
330
1F
100
AcDbEntity
  8
0
 62
7
100
AcDbCircle
 10
132.47458977296029
 20
424.08025519801606
 30
0
 40
2.4890125239481731
  0
LINE
  5
166
330
1F
100
AcDbEntity
  8
0
 62
7
100
AcDbLine
 10
166.78729244185581
 20
474.90521618819071
 30
0
 11
162.83329657240063
 21
476.3490908878764
 31
0
  0
ARC
  5
167
330
1F
100
AcDbEntity
  8
0
 62
7
100
AcDbCircle
 10
162.66178965018884
 20
475.87942571391369
 30
0
 40
0.5
100
AcDbArc
 50
69.939399491492239
 51
159.97217471620849
  0
LINE
  5
168
330
1F
100
AcDbEntity
  8
0
 62
7
100
AcDbLine
 10
162.192026445012
 20
476.05066394288724
 30
0
 11
141.90261413245076
 21
420.39008268001822
 31
0
  0
ARC
  5
169
330
1F
100
AcDbEntity
  8
0
 62
7
100
AcDbCircle
 10
142.37237733762771
 20
420.218844451045
 30
0
 40
0.5
100
AcDbArc
 50
159.97217471624967
 51
248.91012379912002
  0
LINE
  5
16A
330
1F
100
AcDbEntity
  8
0
 62
7
100
AcDbLine
 10
142.19246135984923
 20
419.7523358863433
 30
0
 11
146.08889197354966
 21
418.24961937317278
 31
0
  0
ARC
  5
16B
330
1F
100
AcDbEntity
  8
0
 62
7
100
AcDbCircle
 10
146.26880795132942
 20
418.716127937874
 30
0
 40
0.5
100
AcDbArc
 50
248.91012379896213
 51
339.93939949147278
  0
LINE
  5
16C
330
1F
100
AcDbEntity
  8
0
 62
7
100
AcDbLine
 10
146.7384731252921
 20
418.544621015662
 30
0
 11
167.0854506936073
 21
474.26404409201592
 31
0
  0
ARC
  5
16D
330
1F
100
AcDbEntity
  8
0
 62
7
100
AcDbCircle
 10
166.61578551964459
 20
474.43555101422777
 30
0
 40
0.5
100
AcDbArc
 50
339.93939949148609
 51
69.939399491562369
  0
LINE
  5
16E
330
1F
100
AcDbEntity
  8
0
 62
7
100
AcDbLine
 10
271.7753769627526
 20
824.14178288193375
 30
0
 11
261.53184183289085
 21
827.92428624854062
 31
0
  0
LINE
  5
16F
330
1F
100
AcDbEntity
  8
0
 62
7
100
AcDbLine
 10
261.53184183289085
 20
827.92428624854062
 30
0
 11
255.83527946243103
 21
813.04204920709788
 31
0
  0
LINE
  5
170
330
1F
100
AcDbEntity
  8
0
 62
7
100
AcDbLine
 10
255.83527946243103
 20
813.04204920709788
 30
0
 11
266.47698621842585
 21
809.0408526887785
 31
0
  0
LINE
  5
171
330
1F
100
AcDbEntity
  8
0
 62
7
100
AcDbLine
 10
266.47698621842585
 20
809.0408526887785
 30
0
 11
271.7753769627526
 21
824.14178288193375
 31
0
  0
LINE
  5
172
330
1F
100
AcDbEntity
  8
0
 62
7
100
AcDbLine
 10
190.77030668661612
 20
632.08872119569651
 30
0
 11
195.87560022879808
 21
646.157507904614
 31
0
  0
LINE
  5
173
330
1F
100
AcDbEntity
  8
0
 62
7
100
AcDbLine
 10
195.87560022879808
 20
646.157507904614
 30
0
 11
185.26121040879303
 21
650.03687680950577
 31
0
  0
LINE
  5
174
330
1F
100
AcDbEntity
  8
0
 62
7
100
AcDbLine
 10
185.26121040879303
 20
650.03687680950577
 30
0
 11
180.16907493216218
 21
636.16181362941813
 31
0
  0
LINE
  5
175
330
1F
100
AcDbEntity
  8
0
 62
7
100
AcDbLine
 10
180.16907493216218
 20
636.16181362941813
 30
0
 11
190.77030668661612
 21
632.08872119569651
 31
0
  0
LINE
  5
176
330
1F
100
AcDbEntity
  8
0
 62
7
100
AcDbLine
 10
114.52362833749875
 20
622.73585604824939
 30
0
 11
109.67191241118769
 21
624.097743060447
 31
0
  0
LINE
  5
177
330
1F
100
AcDbEntity
  8
0
 62
7
100
AcDbLine
 10
109.67191241118769
 20
624.097743060447
 30
0
 11
147.23698056091726
 21
765.46332259156543
 31
0
  0
LINE
  5
178
330
1F
100
AcDbEntity
  8
0
 62
7
100
AcDbLine
 10
147.23698056091726
 20
765.46332259156543
 30
0
 11
151.12521624992996
 21
764.47791211807271
 31
0
  0
LINE
  5
179
330
1F
100
AcDbEntity
  8
0
 62
7
100
AcDbLine
 10
151.12521624992996
 20
764.47791211807271
 30
0
 11
154.79420607355067
 21
778.76881752389932
 31
0
  0
LINE
  5
17A
330
1F
100
AcDbEntity
  8
0
 62
7
100
AcDbLine
 10
154.79420607355067
 20
778.76881752389932
 30
0
 11
150.96446065359126
 21
779.752051026177
 31
0
  0
LINE
  5
17B
330
1F
100
AcDbEntity
  8
0
 62
7
100
AcDbLine
 10
150.96446065359126
 20
779.752051026177
 30
0
 11
159.83744792319735
 21
813.40113501726034
 31
0
  0
LINE
  5
17C
330
1F
100
AcDbEntity
  8
0
 62
7
100
AcDbLine
 10
159.83744792319735
 20
813.40113501726034
 30
0
 11
139.38767386205279
 21
818.871082335502
 31
0
  0
LINE
  5
17D
330
1F
100
AcDbEntity
  8
0
 62
7
100
AcDbLine
 10
139.38767386205279
 20
818.871082335502
 30
0
 11
126.39828332635162
 21
777.05422901683266
 31
0
  0
ARC
  5
17E
330
1F
100
AcDbEntity
  8
0
 62
7
100
AcDbCircle
 10
-591.57501035889959
 20
1021.8482568763384
 30
0
 40
758.55768832761066
100
AcDbArc
 50
330.61194202173323
 51
341.17311625729184
  0
LINE
  5
17F
330
1F
100
AcDbEntity
  8
0
 62
7
100
AcDbLine
 10
69.368523910762946
 20
649.60719112988443
 30
0
 11
23.067921219752336
 21
571.36916399785491
 31
0
  0
ARC
  5
180
330
1F
100
AcDbEntity
  8
0
 62
7
100
AcDbCircle
 10
208.18732514031069
 20
487.93863535783646
 30
0
 40
203.05134034784351
100
AcDbArc
 50
155.7396272566327
 51
169.60924566711552
  0
ARC
  5
181
330
1F
100
AcDbEntity
  8
0
 62
7
100
AcDbCircle
 10
214.90129649910418
 20
486.80125550602878
 30
0
 40
209.8603650955209
100
AcDbArc
 50
169.6344199599894
 51
186.39689098155188
  0
LINE
  5
182
330
1F
100
AcDbEntity
  8
0
 62
7
100
AcDbLine
 10
6.3475291105209521
 20
463.41966133338849
 30
0
 11
10.205919601367683
 21
417.43485219667934
 31
0
  0
LINE
  5
183
330
1F
100
AcDbEntity
  8
0
 62
7
100
AcDbLine
 10
10.205919601367683
 20
417.43485219667934
 30
0
 11
10.99973237197166
 21
402.73979017359238
 31
0
  0
LINE
  5
184
330
1F
100
AcDbEntity
  8
0
 62
7
100
AcDbLine
 10
10.99973237197166
 20
402.73979017359238
 30
0
 11
11.460752971947272
 21
392.52855333800881
 31
0
  0
LINE
  5
185
330
1F
100
AcDbEntity
  8
0
 62
7
100
AcDbLine
 10
11.460752971947272
 20
392.52855333800881
 30
0
 11
11.90771625481149
 21
380.23373281156387
 31
0
  0
LINE
  5
186
330
1F
100
AcDbEntity
  8
0
 62
7
100
AcDbLine
 10
11.90771625481149
 20
380.23373281156387
 30
0
 11
13.426301318832955
 21
345.24102277295628
 31
0
  0
LINE
  5
187
330
1F
100
AcDbEntity
  8
0
 62
7
100
AcDbLine
 10
13.426301318832955
 20
345.24102277295628
 30
0
 11
17.431045223011125
 21
316.8308307190282
 31
0
  0
LINE
  5
188
330
1F
100
AcDbEntity
  8
0
 62
7
100
AcDbLine
 10
17.431045223011125
 20
316.8308307190282
 30
0
 11
20.907234709022816
 21
301.40850060513043
 31
0
  0
ARC
  5
189
330
1F
100
AcDbEntity
  8
0
 62
7
100
AcDbCircle
 10
26.30379000076211
 20
303.02134048191181
 30
0
 40
5.6324116934875654
100
AcDbArc
 50
196.63954861675231
 51
259.46275942837167
  0
ARC
  5
18A
330
1F
100
AcDbEntity
  8
0
 62
7
100
AcDbCircle
 10
26.656820994727866
 20
304.0022340867045
 30
0
 40
6.6634346786556069
100
AcDbArc
 50
258.02065797817835
 51
303.53755557708325
  0
LINE
  5
18B
330
1F
100
AcDbEntity
  8
0
 62
7
100
AcDbLine
 10
30.338258391981
 20
298.44810225474225
 30
0
 11
35.883894806374926
 21
302.5065802383607
 31
0
  0
LINE
  5
18C
330
1F
100
AcDbEntity
  8
0
 62
7
100
AcDbLine
 10
35.883894806374926
 20
302.5065802383607
 30
0
 11
41.276199429825255
 21
307.23994334102258
 31
0
  0
LINE
  5
18D
330
1F
100
AcDbEntity
  8
0
 62
7
100
AcDbLine
 10
41.276199429825255
 20
307.23994334102258
 30
0
 11
46.563627488147276
 21
312.6942824104633
 31
0
  0
LINE
  5
18E
330
1F
100
AcDbEntity
  8
0
 62
7
100
AcDbLine
 10
46.563627488147276
 20
312.6942824104633
 30
0
 11
49.902408380659139
 21
316.56865700261494
 31
0
  0
LINE
  5
18F
330
1F
100
AcDbEntity
  8
0
 62
7
100
AcDbLine
 10
49.902408380659139
 20
316.56865700261494
 30
0
 11
53.137143514145031
 21
320.83072238689397
 31
0
  0
LINE
  5
190
330
1F
100
AcDbEntity
  8
0
 62
7
100
AcDbLine
 10
53.137143514145031
 20
320.83072238689397
 30
0
 11
58.610265580337114
 21
329.75420894658254
 31
0
  0
LINE
  5
191
330
1F
100
AcDbEntity
  8
0
 62
7
100
AcDbLine
 10
58.610265580337114
 20
329.75420894658254
 30
0
 11
64.304595811260683
 21
341.50122286453256
 31
0
  0
LINE
  5
192
330
1F
100
AcDbEntity
  8
0
 62
7
100
AcDbLine
 10
64.304595811260683
 20
341.50122286453256
 30
0
 11
69.073334874764356
 21
352.89968890855414
 31
0
  0
LINE
  5
193
330
1F
100
AcDbEntity
  8
0
 62
7
100
AcDbLine
 10
69.073334874764356
 20
352.89968890855414
 30
0
 11
72.087193163598471
 21
360.8534753643869
 31
0
  0
LINE
  5
194
330
1F
100
AcDbEntity
  8
0
 62
7
100
AcDbLine
 10
72.087193163598471
 20
360.8534753643869
 30
0
 11
78.4902019614275
 21
379.87250335231943
 31
0
  0
LINE
  5
195
330
1F
100
AcDbEntity
  8
0
 62
7
100
AcDbLine
 10
78.4902019614275
 20
379.87250335231943
 30
0
 11
84.788776700269239
 21
405.28684194155312
 31
0
  0
LINE
  5
196
330
1F
100
AcDbEntity
  8
0
 62
7
100
AcDbLine
 10
84.788776700269239
 20
405.28684194155312
 30
0
 11
96.97420204321088
 21
455.25216734048445
 31
0
  0
ARC
  5
197
330
1F
100
AcDbEntity
  8
0
 62
7
100
AcDbCircle
 10
360.08579947297085
 20
390.65973609262653
 30
0
 40
270.92414967394348
100
AcDbArc
 50
157.3936231246293
 51
166.20697784242114
  0
ARC
  5
198
330
1F
100
AcDbEntity
  8
0
 62
7
100
AcDbCircle
 10
189.36634177349845
 20
459.61251896590619
 30
0
 40
86.838519883257064
100
AcDbArc
 50
115.83008358771724
 51
156.09419615444904
  0
LINE
  5
199
330
1F
100
AcDbEntity
  8
0
 62
7
100
AcDbLine
 10
151.53047226724908
 20
537.77501325965875
 30
0
 11
153.99057245317255
 21
547.24197039658065
 31
0
  0
LINE
  5
19A
330
1F
100
AcDbEntity
  8
0
 62
7
100
AcDbLine
 10
153.99057245317255
 20
547.24197039658065
 30
0
 11
157.61331168802212
 21
560.46641076480364
 31
0
  0
LINE
  5
19B
330
1F
100
AcDbEntity
  8
0
 62
7
100
AcDbLine
 10
157.61331168802212
 20
560.46641076480364
 30
0
 11
162.77725730218003
 21
579.78934561956567
 31
0
  0
LINE
  5
19C
330
1F
100
AcDbEntity
  8
0
 62
7
100
AcDbLine
 10
162.77725730218003
 20
579.78934561956567
 30
0
 11
128.64683875040848
 21
588.95966175588751
 31
0
  0
LINE
  5
19D
330
1F
100
AcDbEntity
  8
0
 62
7
100
AcDbLine
 10
128.64683875040848
 20
588.95966175588751
 30
0
 11
161.49917530033429
 21
711.12228501879918
 31
0
  0
LINE
  5
19E
330
1F
100
AcDbEntity
  8
0
 62
7
100
AcDbLine
 10
161.49917530033429
 20
711.12228501879918
 30
0
 11
195.60198750204609
 21
702.29012198527789
 31
0
  0
LINE
  5
19F
330
1F
100
AcDbEntity
  8
0
 62
7
100
AcDbLine
 10
195.60198750204609
 20
702.29012198527789
 30
0
 11
198.09950094462911
 21
711.8449587136879
 31
0
  0
LINE
  5
1A0
330
1F
100
AcDbEntity
  8
0
 62
7
100
AcDbLine
 10
198.09950094462911
 20
711.8449587136879
 30
0
 11
201.589159341839
 21
725.02806454669769
 31
0
  0
LINE
  5
1A1
330
1F
100
AcDbEntity
  8
0
 62
7
100
AcDbLine
 10
201.589159341839
 20
725.02806454669769
 30
0
 11
207.35095325699677
 21
746.67911094480655
 31
0
  0
LINE
  5
1A2
330
1F
100
AcDbEntity
  8
0
 62
7
100
AcDbLine
 10
207.35095325699677
 20
746.67911094480655
 30
0
 11
212.18778110436256
 21
745.38512142663728
 31
0
  0
LINE
  5
1A3
330
1F
100
AcDbEntity
  8
0
 62
7
100
AcDbLine
 10
212.18778110436256
 20
745.38512142663728
 30
0
 11
216.9347880106443
 21
763.3578086528139
 31
0
  0
LINE
  5
1A4
330
1F
100
AcDbEntity
  8
0
 62
7
100
AcDbLine
 10
216.9347880106443
 20
763.3578086528139
 30
0
 11
212.1067328021341
 21
764.64118533107842
 31
0
  0
LINE
  5
1A5
330
1F
100
AcDbEntity
  8
0
 62
7
100
AcDbLine
 10
212.1067328021341
 20
764.64118533107842
 30
0
 11
220.73480870271422
 21
797.4874762510824
 31
0
  0
LINE
  5
1A6
330
1F
100
AcDbEntity
  8
0
 62
7
100
AcDbLine
 10
220.73480870271422
 20
797.4874762510824
 30
0
 11
165.11278975214591
 21
812.16393649121187
 31
0
  0
LINE
  5
1A7
330
1F
100
AcDbEntity
  8
0
 62
7
100
AcDbLine
 10
165.11278975214591
 20
812.16393649121187
 30
0
 11
127.44547469866308
 21
670.77188478306573
 31
0
  0
LINE
  5
1A8
330
1F
100
AcDbEntity
  8
0
 62
7
100
AcDbLine
 10
127.44547469866308
 20
670.77188478306573
 30
0
 11
130.32178701078132
 21
669.93295239499844
 31
0
  0
LINE
  5
1A9
330
1F
100
AcDbEntity
  8
0
 62
7
100
AcDbLine
 10
130.32178701078132
 20
669.93295239499844
 30
0
 11
117.39780889960323
 21
621.93755763974161
 31
0
  0
LINE
  5
1AA
330
1F
100
AcDbEntity
  8
0
 62
7
100
AcDbLine
 10
117.39780889960323
 20
621.93755763974161
 30
0
 11
114.52362833749875
 21
622.73585604824939
 31
0
  0
CIRCLE
  5
1AB
330
1F
100
AcDbEntity
  8
0
 62
7
100
AcDbCircle
 10
129.92214431763162
 20
758.98872038475861
 30
0
 40
2.0711633725284262
  0
CIRCLE
  5
1AC
330
1F
100
AcDbEntity
  8
0
 62
7
100
AcDbCircle
 10
49.8283237025295
 20
341.76904484728578
 30
0
 40
2.4890125239481731
  0
ARC
  5
1AD
330
1F
100
AcDbEntity
  8
0
 62
7
100
AcDbCircle
 10
50.956711915912067
 20
402.59670141723353
 30
0
 40
0.5
100
AcDbArc
 50
74.860343979536168
 51
164.86034397961444
  0
LINE
  5
1AE
330
1F
100
AcDbEntity
  8
0
 62
7
100
AcDbLine
 10
50.474065867339007
 20
402.72728775571045
 30
0
 11
34.981762317978507
 21
345.4678594066454
 31
0
  0
ARC
  5
1AF
330
1F
100
AcDbEntity
  8
0
 62
7
100
AcDbCircle
 10
35.464408366551595
 20
345.33727306816854
 30
0
 40
0.5
100
AcDbArc
 50
164.86034397962158
 51
255.88961967211034
  0
LINE
  5
1B0
330
1F
100
AcDbEntity
  8
0
 62
7
100
AcDbLine
 10
35.342513006365593
 20
344.85235913645994
 30
0
 11
39.3926712059868
 21
343.83424961171295
 31
0
  0
ARC
  5
1B1
330
1F
100
AcDbEntity
  8
0
 62
7
100
AcDbCircle
 10
39.514566566173862
 20
344.31916354342133
 30
0
 40
0.5
100
AcDbArc
 50
255.88961967198634
 51
344.827568754846
  0
LINE
  5
1B2
330
1F
100
AcDbEntity
  8
0
 62
7
100
AcDbLine
 10
39.997137835751587
 20
344.18830113561012
 30
0
 11
55.50256185349339
 21
401.36646466452731
 31
0
  0
ARC
  5
1B3
330
1F
100
AcDbEntity
  8
0
 62
7
100
AcDbCircle
 10
55.019990583915558
 20
401.49732707233807
 30
0
 40
0.5
100
AcDbArc
 50
344.82756875489952
 51
74.860343979612139
  0
LINE
  5
1B4
330
1F
100
AcDbEntity
  8
0
 62
7
100
AcDbLine
 10
55.1505769223925
 20
401.97997312091115
 30
0
 11
51.087298254389637
 21
403.07934746580639
 31
0
  0
LINE
  5
1B5
330
1F
100
AcDbEntity
  8
0
 62
7
100
AcDbLine
 10
166.60961229993728
 20
748.97423376070674
 30
0
 11
162.23443217622341
 21
733.58044163325565
 31
0
  0
LINE
  5
1B6
330
1F
100
AcDbEntity
  8
0
 62
7
100
AcDbLine
 10
162.23443217622341
 20
733.58044163325565
 30
0
 11
173.23665471196222
 21
730.715726022086
 31
0
  0
LINE
  5
1B7
330
1F
100
AcDbEntity
  8
0
 62
7
100
AcDbLine
 10
173.23665471196222
 20
730.715726022086
 30
0
 11
177.16040935026589
 21
746.160335170155
 31
0
  0
LINE
  5
1B8
330
1F
100
AcDbEntity
  8
0
 62
7
100
AcDbLine
 10
177.16040935026589
 20
746.160335170155
 30
0
 11
166.60961229993728
 21
748.97423376070674
 31
0
  0
LINE
  5
1B9
330
1F
100
AcDbEntity
  8
0
 62
7
100
AcDbLine
 10
122.09598933715911
 20
545.34531321102861
 30
0
 11
133.10658142841402
 21
542.56267804175422
 31
0
  0
LINE
  5
1BA
330
1F
100
AcDbEntity
  8
0
 62
7
100
AcDbLine
 10
133.10658142841402
 20
542.56267804175422
 30
0
 11
136.94366761298008
 21
556.8358694009421
 31
0
  0
LINE
  5
1BB
330
1F
100
AcDbEntity
  8
0
 62
7
100
AcDbLine
 10
136.94366761298008
 20
556.8358694009421
 30
0
 11
126.03399272071957
 21
559.7843890458571
 31
0
  0
LINE
  5
1BC
330
1F
100
AcDbEntity
  8
0
 62
7
100
AcDbLine
 10
126.03399272071957
 20
559.7843890458571
 30
0
 11
122.09598933715911
 21
545.34531321102861
 31
0
  0
LINE
  5
1BD
330
1F
100
AcDbEntity
  8
0
 62
7
100
AcDbLine
 10
5.0274653374987741
 20
861.58941316674384
 30
0
 11
5.319342263442187
 21
688.328907488385
 31
0
  0
LINE
  5
1BE
330
1F
100
AcDbEntity
  8
0
 62
7
100
AcDbLine
 10
5.319342263442187
 20
688.328907488385
 30
0
 11
57.279886570554311
 21
693.45308448224341
 31
0
  0
LINE
  5
1BF
330
1F
100
AcDbEntity
  8
0
 62
7
100
AcDbLine
 10
57.279886570554311
 20
693.45308448224341
 30
0
 11
177.3202370334314
 21
891.01003032144411
 31
0
  0
LINE
  5
1C0
330
1F
100
AcDbEntity
  8
0
 62
7
100
AcDbLine
 10
177.3202370334314
 20
891.01003032144411
 30
0
 11
176.94774346513375
 21
894.9654317961415
 31
0
  0
LINE
  5
1C1
330
1F
100
AcDbEntity
  8
0
 62
7
100
AcDbLine
 10
176.94774346513375
 20
894.9654317961415
 30
0
 11
158.72244305077089
 21
893.378716628351
 31
0
  0
ARC
  5
1C2
330
1F
100
AcDbEntity
  8
0
 62
7
100
AcDbCircle
 10
158.70576020039869
 20
892.96741290569685
 30
0
 40
0.41164191934945138
100
AcDbArc
 50
87.677304646081311
 51
195.28326320790845
  0
LINE
  5
1C3
330
1F
100
AcDbEntity
  8
0
 62
7
100
AcDbLine
 10
158.30867622071008
 20
892.8589076853599
 30
0
 11
158.60957921173409
 21
889.29506583615409
 31
0
  0
ARC
  5
1C4
330
1F
100
AcDbEntity
  8
0
 62
7
100
AcDbCircle
 10
157.93156807550531
 20
888.99935085780839
 30
0
 40
0.73969348332145235
100
AcDbArc
 50
261.47687049546209
 51
23.564452775462474
  0
LINE
  5
1C5
330
1F
100
AcDbEntity
  8
0
 62
7
100
AcDbLine
 10
157.82193910223214
 20
888.267826464854
 30
0
 11
19.543246686514539
 21
874.75192099654464
 31
0
  0
ARC
  5
1C6
330
1F
100
AcDbEntity
  8
0
 62
7
100
AcDbCircle
 10
19.49235280704584
 20
875.49764547870552
 30
0
 40
0.74745915624963755
100
AcDbArc
 50
201.08580259473436
 51
273.90424326406537
  0
LINE
  5
1C7
330
1F
100
AcDbEntity
  8
0
 62
7
100
AcDbLine
 10
18.794941490045264
 20
875.22873537257158
 30
0
 11
18.435846756640096
 21
878.5804165169809
 31
0
  0
ARC
  5
1C8
330
1F
100
AcDbEntity
  8
0
 62
7
100
AcDbCircle
 10
17.441537164026215
 20
878.47388748790422
 30
0
 40
0.99999999999999956
100
AcDbArc
 50
6.1152676227503466
 51
96.1152676226156
  0
LINE
  5
1C9
330
1F
100
AcDbEntity
  8
0
 62
7
100
AcDbLine
 10
17.335008134951867
 20
879.46819708051839
 30
0
 11
5.8945587751708839
 21
878.24248230160879
 31
0
  0
ARC
  5
1CA
330
1F
100
AcDbEntity
  8
0
 62
7
100
AcDbCircle
 10
6.0010878042459446
 20
877.24817270899473
 30
0
 40
0.99999999999999956
100
AcDbArc
 50
96.115267622656873
 51
180.09652113219857
  0
LINE
  5
1CB
330
1F
100
AcDbEntity
  8
0
 62
7
100
AcDbLine
 10
5.0010892232036541
 20
877.24648809823691
 30
0
 11
5.0203155283288581
 21
865.83359775971167
 31
0
  0
LINE
  5
1CC
330
1F
100
AcDbEntity
  8
0
 62
7
100
AcDbLine
 10
5.0203155283288581
 20
865.83359775971167
 30
0
 11
5.0225341501235174
 21
864.51660590502411
 31
0
  0
LINE
  5
1CD
330
1F
100
AcDbEntity
  8
0
 62
7
100
AcDbLine
 10
5.0225341501235174
 20
864.51660590502411
 30
0
 11
5.0251132951205228
 21
862.98560455889174
 31
0
  0
LINE
  5
1CE
330
1F
100
AcDbEntity
  8
0
 62
7
100
AcDbLine
 10
5.0251132951205228
 20
862.98560455889174
 30
0
 11
5.0274653374987741
 21
861.58941316674384
 31
0
  0
LINE
  5
1CF
330
1F
100
AcDbEntity
  8
0
 62
7
100
AcDbLine
 10
163.74819933749879
 20
178.28645186868704
 30
0
 11
9.6339831998357681
 21
171.19306449809142
 31
0
  0
ARC
  5
1D0
330
1F
100
AcDbEntity
  8
0
 62
7
100
AcDbCircle
 10
9.904159794177982
 20
166.29651238792925
 30
0
 40
4.9040001998025931
100
AcDbArc
 50
93.158201386189731
 51
179.6672006619259
  0
LINE
  5
1D1
330
1F
100
AcDbEntity
  8
0
 62
7
100
AcDbLine
 10
5.0002423197810231
 20
166.32499683926724
 30
0
 11
5.2552699852702176
 21
158.67579755548746
 31
0
  0
LINE
  5
1D2
330
1F
100
AcDbEntity
  8
0
 62
7
100
AcDbLine
 10
5.2552699852702176
 20
158.67579755548746
 30
0
 11
22.066580842825715
 21
159.3728851691925
 31
0
  0
LINE
  5
1D3
330
1F
100
AcDbEntity
  8
0
 62
7
100
AcDbLine
 10
22.066580842825715
 20
159.3728851691925
 30
0
 11
22.634791682576235
 21
149.29963926649228
 31
0
  0
LINE
  5
1D4
330
1F
100
AcDbEntity
  8
0
 62
7
100
AcDbLine
 10
22.634791682576235
 20
149.29963926649228
 30
0
 11
5.9591695656863237
 21
148.52679254401369
 31
0
  0
LINE
  5
1D5
330
1F
100
AcDbEntity
  8
0
 62
7
100
AcDbLine
 10
5.9591695656863237
 20
148.52679254401369
 30
0
 11
6.3617144001222812
 21
140.22092274977319
 31
0
  0
ARC
  5
1D6
330
1F
100
AcDbEntity
  8
0
 62
7
100
AcDbCircle
 10
10.336258066508687
 20
140.80116476786139
 30
0
 40
4.0166750124409321
100
AcDbArc
 50
188.30591143447987
 51
274.41574513926241
  0
LINE
  5
1D7
330
1F
100
AcDbEntity
  8
0
 62
7
100
AcDbLine
 10
10.645514005395654
 20
136.79641272562077
 30
0
 11
166.05797255349538
 21
144.081417496648
 31
0
  0
ARC
  5
1D8
330
1F
100
AcDbEntity
  8
0
 62
7
100
AcDbCircle
 10
165.67052011890357
 20
148.29953860728978
 30
0
 40
4.2358783142475911
100
AcDbArc
 50
275.248135185564
 51
6.9766538320810163
  0
LINE
  5
1D9
330
1F
100
AcDbEntity
  8
0
 62
7
100
AcDbLine
 10
169.87503483388832
 20
148.81404915585983
 30
0
 11
169.39720983477341
 21
156.38417777753219
 31
0
  0
LINE
  5
1DA
330
1F
100
AcDbEntity
  8
0
 62
7
100
AcDbLine
 10
169.39720983477341
 20
156.38417777753219
 30
0
 11
152.86146996251878
 21
155.57956199147219
 31
0
  0
LINE
  5
1DB
330
1F
100
AcDbEntity
  8
0
 62
7
100
AcDbLine
 10
152.86146996251878
 20
155.57956199147219
 30
0
 11
152.382699747409
 21
165.47757329695793
 31
0
  0
LINE
  5
1DC
330
1F
100
AcDbEntity
  8
0
 62
7
100
AcDbLine
 10
152.382699747409
 20
165.47757329695793
 30
0
 11
168.76561421609873
 21
166.37583066998891
 31
0
  0
LINE
  5
1DD
330
1F
100
AcDbEntity
  8
0
 62
7
100
AcDbLine
 10
168.76561421609873
 20
166.37583066998891
 30
0
 11
168.49191979871918
 21
173.58501865098646
 31
0
  0
ARC
  5
1DE
330
1F
100
AcDbEntity
  8
0
 62
7
100
AcDbCircle
 10
163.57466995347551
 20
173.36745102871026
 30
0
 40
4.9220607179119362
100
AcDbArc
 50
2.5334448695630125
 51
87.9795937690454
  0
ENDSEC
  0
SECTION
  2
OBJECTS
  0
DICTIONARY
  5
C
330
0
100
AcDbDictionary
280
0
281
1
  3
ACAD_SCALELIST
350
1E4
  3
ACAD_COLOR
350
1F6
  3
ACAD_FIELDLIST
350
1F7
  3
ACAD_GROUP
350
D
  3
ACAD_IMAGE_DICT
350
1F8
  3
ACAD_LAYOUT
350
1A
  3
ACAD_MATERIAL
350
1F9
  3
ACAD_MLEADERSTYLE
350
1FA
  3
ACAD_MLINESTYLE
350
17
  3
ACAD_PLOTSETTINGS
350
19
  3
ACAD_PLOTSTYLENAME
350
E
  3
ACAD_TABLESTYLE
350
1FC
  3
ACDB_RECOMPOSE_DATA
350
200
  3
AcDbVariableDictionary
350
201
  3
ACAD_VISUALSTYLE
350
204
  0
DICTIONARY
  5
1FE
330
1FD
100
AcDbDictionary
280
0
281
1
  3
ACAD_ROUNDTRIP_2008_TABLESTYLE_CELLSTYLEMAP
360
1FF
  0
DICTIONARY
  5
1E4
102
{ACAD_REACTORS
330
C
102
}
330
C
100
AcDbDictionary
280
0
281
1
  3
A0
350
1E5
  3
A1
350
1E6
  3
A2
350
1E7
  3
A3
350
1E8
  3
A4
350
1E9
  3
A5
350
1EA
  3
A6
350
1EB
  3
A7
350
1EC
  3
A8
350
1ED
  3
A9
350
1EE
  3
B0
350
1EF
  3
B1
350
1F0
  3
B2
350
1F1
  3
B3
350
1F2
  3
B4
350
1F3
  3
B5
350
1F4
  3
B6
350
1F5
  0
DICTIONARY
  5
1F6
102
{ACAD_REACTORS
330
C
102
}
330
C
100
AcDbDictionary
280
0
281
1
  0
FIELDLIST
  5
1F7
102
{ACAD_REACTORS
330
C
102
}
330
C
100
AcDbIdSet
100
AcDbFieldList
  0
DICTIONARY
  5
D
102
{ACAD_REACTORS
330
C
102
}
330
C
100
AcDbDictionary
280
0
281
1
  0
DICTIONARY
  5
1F8
102
{ACAD_REACTORS
330
C
102
}
330
C
100
AcDbDictionary
280
0
281
1
  0
DICTIONARY
  5
1A
102
{ACAD_REACTORS
330
C
102
}
330
C
100
AcDbDictionary
280
0
281
1
  3
Layout1
350
1E
  3
Model
350
22
  0
DICTIONARY
  5
1F9
102
{ACAD_REACTORS
330
C
102
}
330
C
100
AcDbDictionary
280
0
281
1
  0
DICTIONARY
  5
1FA
102
{ACAD_REACTORS
330
C
102
}
330
C
100
AcDbDictionary
280
0
281
1
  3
Standard
350
1FB
  0
DICTIONARY
  5
17
102
{ACAD_REACTORS
330
C
102
}
330
C
100
AcDbDictionary
280
0
281
1
  3
STANDARD
350
18
  0
DICTIONARY
  5
19
102
{ACAD_REACTORS
330
C
102
}
330
C
100
AcDbDictionary
280
0
281
1
  0
ACDBDICTIONARYWDFLT
  5
E
102
{ACAD_REACTORS
330
C
102
}
330
C
100
AcDbDictionary
280
0
281
1
  3
Normal
350
F
100
AcDbDictionaryWithDefault
340
F
  0
ACDBPLACEHOLDER
  5
F
102
{ACAD_REACTORS
330
E
102
}
330
E
  0
DICTIONARY
  5
1FC
102
{ACAD_REACTORS
330
C
102
}
330
C
100
AcDbDictionary
280
0
281
1
  3
Standard
350
1FD
  0
XRECORD
  5
200
102
{ACAD_REACTORS
330
C
102
}
330
C
100
AcDbXrecord
280
1
 90
1
330
1FD
  0
DICTIONARY
  5
201
102
{ACAD_REACTORS
330
C
102
}
330
C
100
AcDbDictionary
280
0
281
1
  3
DIMASSOC
350
202
  3
HIDETEXT
350
203
  0
DICTIONARY
  5
204
102
{ACAD_REACTORS
330
C
102
}
330
C
100
AcDbDictionary
280
0
281
1
  0
CELLSTYLEMAP
  5
1FF
102
{ACAD_REACTORS
330
1FE
102
}
330
1FE
100
AcDbCellStyleMap
 90
3
300
CELLSTYLE
  1
TABLEFORMAT_BEGIN
 90
5
170
0
309
TABLEFORMAT_END
  1
CELLSTYLE_BEGIN
 90
3
 91
2
300
_DATA
309
CELLSTYLE_END
300
CELLSTYLE
  1
TABLEFORMAT_BEGIN
 90
5
170
0
309
TABLEFORMAT_END
  1
CELLSTYLE_BEGIN
 90
1
 91
2
300
_TITLE
309
CELLSTYLE_END
300
CELLSTYLE
  1
TABLEFORMAT_BEGIN
 90
5
170
0
309
TABLEFORMAT_END
  1
CELLSTYLE_BEGIN
 90
2
 91
2
300
_HEADER
309
CELLSTYLE_END
  0
SCALE
  5
1E5
102
{ACAD_REACTORS
330
1E4
102
}
330
1E4
100
AcDbScale
 70
0
300
1:1
140
1
141
1
290
1
  0
SCALE
  5
1E6
102
{ACAD_REACTORS
330
1E4
102
}
330
1E4
100
AcDbScale
 70
0
300
1:2
140
1
141
2
290
0
  0
SCALE
  5
1E7
102
{ACAD_REACTORS
330
1E4
102
}
330
1E4
100
AcDbScale
 70
0
300
1:4
140
1
141
4
290
0
  0
SCALE
  5
1E8
102
{ACAD_REACTORS
330
1E4
102
}
330
1E4
100
AcDbScale
 70
0
300
1:5
140
1
141
5
290
0
  0
SCALE
  5
1E9
102
{ACAD_REACTORS
330
1E4
102
}
330
1E4
100
AcDbScale
 70
0
300
1:8
140
1
141
8
290
0
  0
SCALE
  5
1EA
102
{ACAD_REACTORS
330
1E4
102
}
330
1E4
100
AcDbScale
 70
0
300
1:10
140
1
141
10
290
0
  0
SCALE
  5
1EB
102
{ACAD_REACTORS
330
1E4
102
}
330
1E4
100
AcDbScale
 70
0
300
1:16
140
1
141
16
290
0
  0
SCALE
  5
1EC
102
{ACAD_REACTORS
330
1E4
102
}
330
1E4
100
AcDbScale
 70
0
300
1:20
140
1
141
20
290
0
  0
SCALE
  5
1ED
102
{ACAD_REACTORS
330
1E4
102
}
330
1E4
100
AcDbScale
 70
0
300
1:30
140
1
141
30
290
0
  0
SCALE
  5
1EE
102
{ACAD_REACTORS
330
1E4
102
}
330
1E4
100
AcDbScale
 70
0
300
1:40
140
1
141
40
290
0
  0
SCALE
  5
1EF
102
{ACAD_REACTORS
330
1E4
102
}
330
1E4
100
AcDbScale
 70
0
300
1:50
140
1
141
50
290
0
  0
SCALE
  5
1F0
102
{ACAD_REACTORS
330
1E4
102
}
330
1E4
100
AcDbScale
 70
0
300
1:100
140
1
141
100
290
0
  0
SCALE
  5
1F1
102
{ACAD_REACTORS
330
1E4
102
}
330
1E4
100
AcDbScale
 70
0
300
2:1
140
2
141
1
290
0
  0
SCALE
  5
1F2
102
{ACAD_REACTORS
330
1E4
102
}
330
1E4
100
AcDbScale
 70
0
300
4:1
140
4
141
1
290
0
  0
SCALE
  5
1F3
102
{ACAD_REACTORS
330
1E4
102
}
330
1E4
100
AcDbScale
 70
0
300
8:1
140
8
141
1
290
0
  0
SCALE
  5
1F4
102
{ACAD_REACTORS
330
1E4
102
}
330
1E4
100
AcDbScale
 70
0
300
10:1
140
10
141
1
290
0
  0
SCALE
  5
1F5
102
{ACAD_REACTORS
330
1E4
102
}
330
1E4
100
AcDbScale
 70
0
300
100:1
140
100
141
1
290
0
  0
LAYOUT
  5
1E
102
{ACAD_REACTORS
330
1A
102
}
330
1A
100
AcDbPlotSettings
  1

  2
C:\Program Files\AutoCAD 2002\plotters\DWF ePlot (optimized for plotting).pc3
  4

  6

 40
0
 41
0
 42
0
 43
0
 44
0
 45
0
 46
0
 47
0
 48
0
 49
0
140
0
141
0
142
1
143
1
 70
688
 72
1
 73
1
 74
1
  7
acad.stb
 75
16
 76
0
 77
0
 78
0
147
1
148
0
149
0
100
AcDbLayout
  1
Layout1
 70
1
 71
1
 10
0
 20
0
 11
420
 21
297
 12
0
 22
0
 32
0
 14
0
 24
0
 34
0
 15
0
 25
0
 35
0
146
0
 13
0
 23
0
 33
0
 16
1
 26
0
 36
0
 17
0
 27
1
 37
0
 76
0
330
1DF
  0
LAYOUT
  5
22
102
{ACAD_REACTORS
330
1A
102
}
330
1A
100
AcDbPlotSettings
  1

  2
C:\Program Files\AutoCAD 2002\plotters\DWF ePlot (optimized for plotting).pc3
  4

  6

 40
0
 41
0
 42
0
 43
0
 44
0
 45
0
 46
0
 47
0
 48
0
 49
0
140
0
141
0
142
1
143
1
 70
1712
 72
1
 73
1
 74
0
  7
acad.stb
 75
0
 76
0
 77
0
 78
0
147
1
148
0
149
0
100
AcDbLayout
  1
Model
 70
1
 71
0
 10
0
 20
0
 11
12
 21
9
 12
0
 22
0
 32
0
 14
0
 24
0
 34
0
 15
0
 25
0
 35
0
146
0
 13
0
 23
0
 33
0
 16
1
 26
0
 36
0
 17
0
 27
1
 37
0
 76
0
330
1F
  0
MLEADERSTYLE
  5
1FB
102
{ACAD_REACTORS
330
1FA
102
}
330
1FA
100
AcDbMLeaderStyle
179
2
170
2
171
1
172
0
 90
2
 40
0
 41
0
173
1
 91
0
340
0
 92
-2
290
1
 42
0.09
292
1
 43
0.36
  3
Standard
341
0
 44
0.18
300

342
0
174
1
178
1
175
1
176
0
 93
0
 45
0.18
292
0
297
0
 46
0
343
0
 94
0
 47
1
 49
1
140
1
293
1
141
0
294
1
177
0
142
1
295
0
296
0
143
0.125
271
0
272
9
273
9
  0
MLINESTYLE
  5
18
102
{ACAD_REACTORS
330
17
102
}
330
17
100
AcDbMlineStyle
  2
STANDARD
 70
0
  3

 51
90
 52
90
 71
2
 49
0.5
 62
0
  6
ByLayer
 49
-0.5
 62
0
  6
ByLayer
  0
TABLESTYLE
  5
1FD
102
{ACAD_XDICTIONARY
360
1FE
102
}
102
{ACAD_REACTORS
330
1FC
102
}
330
1FC
100
AcDbTableStyle
  3

 70
0
 71
0
 40
0.06
 41
0.06
280
0
281
0
  7
Standard
140
0.18
170
1
 62
0
283
0
 90
512
 91
0
274
-2
284
1
 64
0
275
-2
285
1
 65
0
276
-2
286
1
 66
0
277
-2
287
1
 67
0
278
-2
288
1
 68
0
279
-2
289
1
 69
0
  7
Standard
140
0.18
170
1
 62
0
283
0
 90
512
 91
0
274
-2
284
1
 64
0
275
-2
285
1
 65
0
276
-2
286
1
 66
0
277
-2
287
1
 67
0
278
-2
288
1
 68
0
279
-2
289
1
 69
0
  7
Standard
140
0.18
170
1
 62
0
283
0
 90
512
 91
0
274
-2
284
1
 64
0
275
-2
285
1
 65
0
276
-2
286
1
 66
0
277
-2
287
1
 67
0
278
-2
288
1
 68
0
279
-2
289
1
 69
0
  0
DICTIONARYVAR
  5
202
102
{ACAD_REACTORS
330
201
102
}
330
201
100
DictionaryVariables
280
0
  1
1
  0
DICTIONARYVAR
  5
203
102
{ACAD_REACTORS
330
201
102
}
330
201
100
DictionaryVariables
280
0
  1
2
  0
ENDSEC
999
Created By CadLib version 4.0.38.30
999
CadLib website: www.woutware.com
  0
EOF
